M48
; DRILL file {KiCad 9.0.4} date 2025-09-02T10:18:34-0700
; FORMAT={-:-/ absolute / metric / decimal}
; #@! TF.CreationDate,2025-09-02T10:18:34-07:00
; #@! TF.GenerationSoftware,Kicad,Pcbnew,9.0.4
; #@! TF.FileFunction,Plated,1,2,PTH
FMAT,2
METRIC
; #@! TA.AperFunction,Plated,PTH,ViaDrill
T1C0.300
; #@! TA.AperFunction,Plated,PTH,ComponentDrill
T2C0.500
; #@! TA.AperFunction,Plated,PTH,ComponentDrill
T3C0.650
%
G90
G05
T1
X104.75Y-109.0
X105.2Y-94.75
X105.25Y-89.77
X105.5Y-98.0
X105.5Y-99.75
X105.5Y-101.25
X105.5Y-102.75
X105.5Y-104.25
X105.8Y-94.75
X106.25Y-89.75
X106.75Y-107.5
X107.0Y-83.95
X107.25Y-89.75
X107.25Y-96.65
X107.25Y-97.35
X107.25Y-98.55
X107.25Y-99.25
X107.25Y-104.75
X107.75Y-107.5
X108.5Y-83.951
X109.25Y-102.75
X109.25Y-103.75
X109.25Y-104.75
X109.25Y-110.0
X109.75Y-93.819
X110.0Y-91.0
X110.0Y-98.25
X110.0Y-100.25
X110.0Y-101.0
X110.0Y-83.951
X110.274Y-97.0
X110.6Y-92.866
X110.6Y-93.774
X110.75Y-97.5
X110.75Y-107.5
X111.0Y-96.5
X111.35Y-86.25
X111.35Y-90.5
X111.35Y-93.25
X111.5Y-102.0
X111.5Y-83.951
X111.75Y-99.25
X111.75Y-100.75
X111.75Y-107.502
X112.0Y-96.5
X112.0Y-97.5
X112.15Y-86.25
X112.15Y-90.5
X112.15Y-93.25
X112.25Y-102.0
X112.5Y-99.25
X112.5Y-100.75
X112.899Y-89.942
X113.0Y-96.5
X113.0Y-97.5
X113.0Y-102.0
X113.0Y-110.75
X113.0Y-83.951
X113.5Y-86.25
X113.75Y-108.5
X113.75Y-110.0
X114.0Y-92.0
X114.0Y-96.5
X114.0Y-99.0
X114.25Y-106.25
X114.499Y-83.951
X114.5Y-86.25
X114.5Y-101.0
X114.75Y-98.25
X115.0Y-102.0
X115.5Y-92.0
X115.5Y-97.5
X115.5Y-99.0
X115.5Y-101.0
X115.75Y-106.25
X115.75Y-110.0
X116.0Y-83.951
X116.5Y-94.5
X116.5Y-95.5
X116.5Y-103.0
X117.0Y-92.0
X117.25Y-103.75
X118.95Y-83.25
X118.95Y-84.75
X118.95Y-86.25
X118.95Y-87.75
X119.0Y-110.75
X119.003Y-88.548
X119.012Y-89.364
X121.75Y-100.5
X122.75Y-101.25
X122.75Y-102.75
X123.25Y-100.25
T3
X104.925Y-81.13
X104.925Y-82.4
X104.925Y-83.67
X104.925Y-84.94
X104.925Y-86.21
X104.925Y-87.48
X104.925Y-88.75
T2
G00X107.01Y-81.46
M15
G01X107.01Y-80.86
M16
G05
G00X107.37Y-87.41
M15
G01X107.37Y-86.81
M16
G05
G00X115.63Y-87.41
M15
G01X115.63Y-86.81
M16
G05
G00X115.99Y-81.46
M15
G01X115.99Y-80.86
M16
G05
M30
