%TF.GenerationSoftware,KiCad,Pcbnew,9.0.4*%
%TF.CreationDate,2025-09-02T10:18:24-07:00*%
%TF.ProjectId,k1-aioc,6b312d61-696f-4632-9e6b-696361645f70,rev?*%
%TF.SameCoordinates,Original*%
%TF.FileFunction,Soldermask,Bot*%
%TF.FilePolarity,Negative*%
%FSLAX46Y46*%
G04 Gerber Fmt 4.6, Leading zero omitted, Abs format (unit mm)*
G04 Created by KiCad (PCBNEW 9.0.4) date 2025-09-02 10:18:24*
%MOMM*%
%LPD*%
G01*
G04 APERTURE LIST*
G04 APERTURE END LIST*
G36*
X104960747Y-109555261D02*
G01*
X105092234Y-109609725D01*
X105210570Y-109688794D01*
X105311206Y-109789430D01*
X105390275Y-109907766D01*
X105444739Y-110039253D01*
X105472504Y-110178840D01*
X105472504Y-110321160D01*
X105444739Y-110460747D01*
X105390275Y-110592234D01*
X105311206Y-110710570D01*
X105210570Y-110811206D01*
X105092234Y-110890275D01*
X104960747Y-110944739D01*
X104821160Y-110972504D01*
X104678840Y-110972504D01*
X104539253Y-110944739D01*
X104407766Y-110890275D01*
X104289430Y-110811206D01*
X104188794Y-110710570D01*
X104109725Y-110592234D01*
X104055261Y-110460747D01*
X104027496Y-110321160D01*
X104027496Y-110178840D01*
X104055261Y-110039253D01*
X104109725Y-109907766D01*
X104188794Y-109789430D01*
X104289430Y-109688794D01*
X104407766Y-109609725D01*
X104539253Y-109555261D01*
X104678840Y-109527496D01*
X104821160Y-109527496D01*
X104960747Y-109555261D01*
G37*
G36*
X123014632Y-104426441D02*
G01*
X123041668Y-104437640D01*
X123062360Y-104458332D01*
X123073559Y-104485368D01*
X123075000Y-104500000D01*
X123075000Y-110000000D01*
X123073559Y-110014632D01*
X123062360Y-110041668D01*
X123041668Y-110062360D01*
X123014632Y-110073559D01*
X123000000Y-110075000D01*
X122997546Y-110075000D01*
X117502454Y-110075000D01*
X117500000Y-110075000D01*
X117485368Y-110073559D01*
X117458332Y-110062360D01*
X117437640Y-110041668D01*
X117426441Y-110014632D01*
X117425000Y-110000000D01*
X117425000Y-104500000D01*
X117426441Y-104485368D01*
X117437640Y-104458332D01*
X117458332Y-104437640D01*
X117485368Y-104426441D01*
X117500000Y-104425000D01*
X123000000Y-104425000D01*
X123014632Y-104426441D01*
G37*
G36*
X104937660Y-104476275D02*
G01*
X104999590Y-104484428D01*
X105015167Y-104491692D01*
X105034096Y-104495457D01*
X105059167Y-104512208D01*
X105084955Y-104524234D01*
X105100644Y-104539923D01*
X105121285Y-104553715D01*
X105135076Y-104574355D01*
X105150765Y-104590044D01*
X105162789Y-104615830D01*
X105179543Y-104640904D01*
X105183308Y-104659834D01*
X105190571Y-104675409D01*
X105198722Y-104737326D01*
X105200000Y-104743750D01*
X105200000Y-105256250D01*
X105198722Y-105262674D01*
X105190571Y-105324590D01*
X105183308Y-105340164D01*
X105179543Y-105359096D01*
X105162787Y-105384171D01*
X105150765Y-105409955D01*
X105135078Y-105425641D01*
X105121285Y-105446285D01*
X105100641Y-105460078D01*
X105084955Y-105475765D01*
X105059171Y-105487787D01*
X105034096Y-105504543D01*
X105015164Y-105508308D01*
X104999590Y-105515571D01*
X104937674Y-105523722D01*
X104931250Y-105525000D01*
X104493750Y-105525000D01*
X104487326Y-105523722D01*
X104425409Y-105515571D01*
X104409834Y-105508308D01*
X104390904Y-105504543D01*
X104365830Y-105487789D01*
X104340044Y-105475765D01*
X104324355Y-105460076D01*
X104303715Y-105446285D01*
X104289923Y-105425644D01*
X104274234Y-105409955D01*
X104262208Y-105384167D01*
X104245457Y-105359096D01*
X104241692Y-105340167D01*
X104234428Y-105324590D01*
X104226275Y-105262660D01*
X104225000Y-105256250D01*
X104225000Y-104743750D01*
X104226274Y-104737341D01*
X104234428Y-104675409D01*
X104241692Y-104659830D01*
X104245457Y-104640904D01*
X104262207Y-104615835D01*
X104274234Y-104590044D01*
X104289925Y-104574352D01*
X104303715Y-104553715D01*
X104324352Y-104539925D01*
X104340044Y-104524234D01*
X104365835Y-104512207D01*
X104390904Y-104495457D01*
X104409830Y-104491692D01*
X104425409Y-104484428D01*
X104487341Y-104476274D01*
X104493750Y-104475000D01*
X104931250Y-104475000D01*
X104937660Y-104476275D01*
G37*
G36*
X106512660Y-104476275D02*
G01*
X106574590Y-104484428D01*
X106590167Y-104491692D01*
X106609096Y-104495457D01*
X106634167Y-104512208D01*
X106659955Y-104524234D01*
X106675644Y-104539923D01*
X106696285Y-104553715D01*
X106710076Y-104574355D01*
X106725765Y-104590044D01*
X106737789Y-104615830D01*
X106754543Y-104640904D01*
X106758308Y-104659834D01*
X106765571Y-104675409D01*
X106773722Y-104737326D01*
X106775000Y-104743750D01*
X106775000Y-105256250D01*
X106773722Y-105262674D01*
X106765571Y-105324590D01*
X106758308Y-105340164D01*
X106754543Y-105359096D01*
X106737787Y-105384171D01*
X106725765Y-105409955D01*
X106710078Y-105425641D01*
X106696285Y-105446285D01*
X106675641Y-105460078D01*
X106659955Y-105475765D01*
X106634171Y-105487787D01*
X106609096Y-105504543D01*
X106590164Y-105508308D01*
X106574590Y-105515571D01*
X106512674Y-105523722D01*
X106506250Y-105525000D01*
X106068750Y-105525000D01*
X106062326Y-105523722D01*
X106000409Y-105515571D01*
X105984834Y-105508308D01*
X105965904Y-105504543D01*
X105940830Y-105487789D01*
X105915044Y-105475765D01*
X105899355Y-105460076D01*
X105878715Y-105446285D01*
X105864923Y-105425644D01*
X105849234Y-105409955D01*
X105837208Y-105384167D01*
X105820457Y-105359096D01*
X105816692Y-105340167D01*
X105809428Y-105324590D01*
X105801275Y-105262660D01*
X105800000Y-105256250D01*
X105800000Y-104743750D01*
X105801274Y-104737341D01*
X105809428Y-104675409D01*
X105816692Y-104659830D01*
X105820457Y-104640904D01*
X105837207Y-104615835D01*
X105849234Y-104590044D01*
X105864925Y-104574352D01*
X105878715Y-104553715D01*
X105899352Y-104539925D01*
X105915044Y-104524234D01*
X105940835Y-104512207D01*
X105965904Y-104495457D01*
X105984830Y-104491692D01*
X106000409Y-104484428D01*
X106062341Y-104476274D01*
X106068750Y-104475000D01*
X106506250Y-104475000D01*
X106512660Y-104476275D01*
G37*
G36*
X104937660Y-102976275D02*
G01*
X104999590Y-102984428D01*
X105015167Y-102991692D01*
X105034096Y-102995457D01*
X105059167Y-103012208D01*
X105084955Y-103024234D01*
X105100644Y-103039923D01*
X105121285Y-103053715D01*
X105135076Y-103074355D01*
X105150765Y-103090044D01*
X105162789Y-103115830D01*
X105179543Y-103140904D01*
X105183308Y-103159834D01*
X105190571Y-103175409D01*
X105198722Y-103237326D01*
X105200000Y-103243750D01*
X105200000Y-103756250D01*
X105198722Y-103762674D01*
X105190571Y-103824590D01*
X105183308Y-103840164D01*
X105179543Y-103859096D01*
X105162787Y-103884171D01*
X105150765Y-103909955D01*
X105135078Y-103925641D01*
X105121285Y-103946285D01*
X105100641Y-103960078D01*
X105084955Y-103975765D01*
X105059171Y-103987787D01*
X105034096Y-104004543D01*
X105015164Y-104008308D01*
X104999590Y-104015571D01*
X104937674Y-104023722D01*
X104931250Y-104025000D01*
X104493750Y-104025000D01*
X104487326Y-104023722D01*
X104425409Y-104015571D01*
X104409834Y-104008308D01*
X104390904Y-104004543D01*
X104365830Y-103987789D01*
X104340044Y-103975765D01*
X104324355Y-103960076D01*
X104303715Y-103946285D01*
X104289923Y-103925644D01*
X104274234Y-103909955D01*
X104262208Y-103884167D01*
X104245457Y-103859096D01*
X104241692Y-103840167D01*
X104234428Y-103824590D01*
X104226275Y-103762660D01*
X104225000Y-103756250D01*
X104225000Y-103243750D01*
X104226274Y-103237341D01*
X104234428Y-103175409D01*
X104241692Y-103159830D01*
X104245457Y-103140904D01*
X104262207Y-103115835D01*
X104274234Y-103090044D01*
X104289925Y-103074352D01*
X104303715Y-103053715D01*
X104324352Y-103039925D01*
X104340044Y-103024234D01*
X104365835Y-103012207D01*
X104390904Y-102995457D01*
X104409830Y-102991692D01*
X104425409Y-102984428D01*
X104487341Y-102976274D01*
X104493750Y-102975000D01*
X104931250Y-102975000D01*
X104937660Y-102976275D01*
G37*
G36*
X106512660Y-102976275D02*
G01*
X106574590Y-102984428D01*
X106590167Y-102991692D01*
X106609096Y-102995457D01*
X106634167Y-103012208D01*
X106659955Y-103024234D01*
X106675644Y-103039923D01*
X106696285Y-103053715D01*
X106710076Y-103074355D01*
X106725765Y-103090044D01*
X106737789Y-103115830D01*
X106754543Y-103140904D01*
X106758308Y-103159834D01*
X106765571Y-103175409D01*
X106773722Y-103237326D01*
X106775000Y-103243750D01*
X106775000Y-103756250D01*
X106773722Y-103762674D01*
X106765571Y-103824590D01*
X106758308Y-103840164D01*
X106754543Y-103859096D01*
X106737787Y-103884171D01*
X106725765Y-103909955D01*
X106710078Y-103925641D01*
X106696285Y-103946285D01*
X106675641Y-103960078D01*
X106659955Y-103975765D01*
X106634171Y-103987787D01*
X106609096Y-104004543D01*
X106590164Y-104008308D01*
X106574590Y-104015571D01*
X106512674Y-104023722D01*
X106506250Y-104025000D01*
X106068750Y-104025000D01*
X106062326Y-104023722D01*
X106000409Y-104015571D01*
X105984834Y-104008308D01*
X105965904Y-104004543D01*
X105940830Y-103987789D01*
X105915044Y-103975765D01*
X105899355Y-103960076D01*
X105878715Y-103946285D01*
X105864923Y-103925644D01*
X105849234Y-103909955D01*
X105837208Y-103884167D01*
X105820457Y-103859096D01*
X105816692Y-103840167D01*
X105809428Y-103824590D01*
X105801275Y-103762660D01*
X105800000Y-103756250D01*
X105800000Y-103243750D01*
X105801274Y-103237341D01*
X105809428Y-103175409D01*
X105816692Y-103159830D01*
X105820457Y-103140904D01*
X105837207Y-103115835D01*
X105849234Y-103090044D01*
X105864925Y-103074352D01*
X105878715Y-103053715D01*
X105899352Y-103039925D01*
X105915044Y-103024234D01*
X105940835Y-103012207D01*
X105965904Y-102995457D01*
X105984830Y-102991692D01*
X106000409Y-102984428D01*
X106062341Y-102976274D01*
X106068750Y-102975000D01*
X106506250Y-102975000D01*
X106512660Y-102976275D01*
G37*
G36*
X123014632Y-92676441D02*
G01*
X123041668Y-92687640D01*
X123062360Y-92708332D01*
X123073559Y-92735368D01*
X123075000Y-92750000D01*
X123075000Y-98250000D01*
X123073559Y-98264632D01*
X123062360Y-98291668D01*
X123041668Y-98312360D01*
X123014632Y-98323559D01*
X123000000Y-98325000D01*
X122997546Y-98325000D01*
X117502454Y-98325000D01*
X117500000Y-98325000D01*
X117485368Y-98323559D01*
X117458332Y-98312360D01*
X117437640Y-98291668D01*
X117426441Y-98264632D01*
X117425000Y-98250000D01*
X117425000Y-92750000D01*
X117426441Y-92735368D01*
X117437640Y-92708332D01*
X117458332Y-92687640D01*
X117485368Y-92676441D01*
X117500000Y-92675000D01*
X123000000Y-92675000D01*
X123014632Y-92676441D01*
G37*
G36*
X105444134Y-88203806D02*
G01*
X105460355Y-88214645D01*
X105471194Y-88230866D01*
X105475000Y-88250000D01*
X105475000Y-89250000D01*
X105471194Y-89269134D01*
X105460355Y-89285355D01*
X105444134Y-89296194D01*
X105425000Y-89300000D01*
X104425000Y-89300000D01*
X104405866Y-89296194D01*
X104389645Y-89285355D01*
X104378806Y-89269134D01*
X104375000Y-89250000D01*
X104375000Y-88250000D01*
X104378806Y-88230866D01*
X104389645Y-88214645D01*
X104405866Y-88203806D01*
X104425000Y-88200000D01*
X105425000Y-88200000D01*
X105444134Y-88203806D01*
G37*
G36*
X108098947Y-87988208D02*
G01*
X108193506Y-88013545D01*
X108278286Y-88062492D01*
X108347508Y-88131714D01*
X108396455Y-88216494D01*
X108421792Y-88311053D01*
X108421792Y-88408947D01*
X108396455Y-88503506D01*
X108347508Y-88588286D01*
X108278286Y-88657508D01*
X108193506Y-88706455D01*
X108098947Y-88731792D01*
X108050000Y-88735000D01*
X108048362Y-88735000D01*
X107751638Y-88735000D01*
X107750000Y-88735000D01*
X107701053Y-88731792D01*
X107606494Y-88706455D01*
X107521714Y-88657508D01*
X107452492Y-88588286D01*
X107403545Y-88503506D01*
X107378208Y-88408947D01*
X107378208Y-88311053D01*
X107403545Y-88216494D01*
X107452492Y-88131714D01*
X107521714Y-88062492D01*
X107606494Y-88013545D01*
X107701053Y-87988208D01*
X107750000Y-87985000D01*
X108050000Y-87985000D01*
X108098947Y-87988208D01*
G37*
G36*
X115243506Y-88013545D02*
G01*
X115328286Y-88062492D01*
X115397508Y-88131714D01*
X115446455Y-88216494D01*
X115471792Y-88311053D01*
X115471792Y-88408947D01*
X115446455Y-88503506D01*
X115397508Y-88588286D01*
X115328286Y-88657508D01*
X115243506Y-88706455D01*
X115148947Y-88731792D01*
X115051053Y-88731792D01*
X114956494Y-88706455D01*
X114871714Y-88657508D01*
X114802492Y-88588286D01*
X114753545Y-88503506D01*
X114728208Y-88408947D01*
X114728208Y-88311053D01*
X114753545Y-88216494D01*
X114802492Y-88131714D01*
X114871714Y-88062492D01*
X114956494Y-88013545D01*
X115051053Y-87988208D01*
X115148947Y-87988208D01*
X115243506Y-88013545D01*
G37*
G36*
X105135476Y-86971866D02*
G01*
X105259819Y-87043656D01*
X105361344Y-87145181D01*
X105433134Y-87269524D01*
X105470295Y-87408211D01*
X105470295Y-87551789D01*
X105433134Y-87690476D01*
X105361344Y-87814819D01*
X105259819Y-87916344D01*
X105135476Y-87988134D01*
X104996789Y-88025295D01*
X104853211Y-88025295D01*
X104714524Y-87988134D01*
X104590181Y-87916344D01*
X104488656Y-87814819D01*
X104416866Y-87690476D01*
X104379705Y-87551789D01*
X104379705Y-87408211D01*
X104416866Y-87269524D01*
X104488656Y-87145181D01*
X104590181Y-87043656D01*
X104714524Y-86971866D01*
X104853211Y-86934705D01*
X104996789Y-86934705D01*
X105135476Y-86971866D01*
G37*
G36*
X107542208Y-86394254D02*
G01*
X107643943Y-86452991D01*
X107727009Y-86536057D01*
X107785746Y-86637792D01*
X107816150Y-86751263D01*
X107820000Y-86810000D01*
X107820000Y-87410000D01*
X107816150Y-87468737D01*
X107785746Y-87582208D01*
X107727009Y-87683943D01*
X107643943Y-87767009D01*
X107542208Y-87825746D01*
X107428737Y-87856150D01*
X107311263Y-87856150D01*
X107197792Y-87825746D01*
X107096057Y-87767009D01*
X107012991Y-87683943D01*
X106954254Y-87582208D01*
X106923850Y-87468737D01*
X106920000Y-87410000D01*
X106920000Y-86810000D01*
X106923850Y-86751263D01*
X106954254Y-86637792D01*
X107012991Y-86536057D01*
X107096057Y-86452991D01*
X107197792Y-86394254D01*
X107311263Y-86363850D01*
X107428737Y-86363850D01*
X107542208Y-86394254D01*
G37*
G36*
X115802208Y-86394254D02*
G01*
X115903943Y-86452991D01*
X115987009Y-86536057D01*
X116045746Y-86637792D01*
X116076150Y-86751263D01*
X116080000Y-86810000D01*
X116080000Y-87410000D01*
X116076150Y-87468737D01*
X116045746Y-87582208D01*
X115987009Y-87683943D01*
X115903943Y-87767009D01*
X115802208Y-87825746D01*
X115688737Y-87856150D01*
X115571263Y-87856150D01*
X115457792Y-87825746D01*
X115356057Y-87767009D01*
X115272991Y-87683943D01*
X115214254Y-87582208D01*
X115183850Y-87468737D01*
X115180000Y-87410000D01*
X115180000Y-86810000D01*
X115183850Y-86751263D01*
X115214254Y-86637792D01*
X115272991Y-86536057D01*
X115356057Y-86452991D01*
X115457792Y-86394254D01*
X115571263Y-86363850D01*
X115688737Y-86363850D01*
X115802208Y-86394254D01*
G37*
G36*
X105135476Y-85701866D02*
G01*
X105259819Y-85773656D01*
X105361344Y-85875181D01*
X105433134Y-85999524D01*
X105470295Y-86138211D01*
X105470295Y-86281789D01*
X105433134Y-86420476D01*
X105361344Y-86544819D01*
X105259819Y-86646344D01*
X105135476Y-86718134D01*
X104996789Y-86755295D01*
X104853211Y-86755295D01*
X104714524Y-86718134D01*
X104590181Y-86646344D01*
X104488656Y-86544819D01*
X104416866Y-86420476D01*
X104379705Y-86281789D01*
X104379705Y-86138211D01*
X104416866Y-85999524D01*
X104488656Y-85875181D01*
X104590181Y-85773656D01*
X104714524Y-85701866D01*
X104853211Y-85664705D01*
X104996789Y-85664705D01*
X105135476Y-85701866D01*
G37*
G36*
X105135476Y-84431866D02*
G01*
X105259819Y-84503656D01*
X105361344Y-84605181D01*
X105433134Y-84729524D01*
X105470295Y-84868211D01*
X105470295Y-85011789D01*
X105433134Y-85150476D01*
X105361344Y-85274819D01*
X105259819Y-85376344D01*
X105135476Y-85448134D01*
X104996789Y-85485295D01*
X104853211Y-85485295D01*
X104714524Y-85448134D01*
X104590181Y-85376344D01*
X104488656Y-85274819D01*
X104416866Y-85150476D01*
X104379705Y-85011789D01*
X104379705Y-84868211D01*
X104416866Y-84729524D01*
X104488656Y-84605181D01*
X104590181Y-84503656D01*
X104714524Y-84431866D01*
X104853211Y-84394705D01*
X104996789Y-84394705D01*
X105135476Y-84431866D01*
G37*
G36*
X105135476Y-83161866D02*
G01*
X105259819Y-83233656D01*
X105361344Y-83335181D01*
X105433134Y-83459524D01*
X105470295Y-83598211D01*
X105470295Y-83741789D01*
X105433134Y-83880476D01*
X105361344Y-84004819D01*
X105259819Y-84106344D01*
X105135476Y-84178134D01*
X104996789Y-84215295D01*
X104853211Y-84215295D01*
X104714524Y-84178134D01*
X104590181Y-84106344D01*
X104488656Y-84004819D01*
X104416866Y-83880476D01*
X104379705Y-83741789D01*
X104379705Y-83598211D01*
X104416866Y-83459524D01*
X104488656Y-83335181D01*
X104590181Y-83233656D01*
X104714524Y-83161866D01*
X104853211Y-83124705D01*
X104996789Y-83124705D01*
X105135476Y-83161866D01*
G37*
G36*
X105135476Y-81891866D02*
G01*
X105259819Y-81963656D01*
X105361344Y-82065181D01*
X105433134Y-82189524D01*
X105470295Y-82328211D01*
X105470295Y-82471789D01*
X105433134Y-82610476D01*
X105361344Y-82734819D01*
X105259819Y-82836344D01*
X105135476Y-82908134D01*
X104996789Y-82945295D01*
X104853211Y-82945295D01*
X104714524Y-82908134D01*
X104590181Y-82836344D01*
X104488656Y-82734819D01*
X104416866Y-82610476D01*
X104379705Y-82471789D01*
X104379705Y-82328211D01*
X104416866Y-82189524D01*
X104488656Y-82065181D01*
X104590181Y-81963656D01*
X104714524Y-81891866D01*
X104853211Y-81854705D01*
X104996789Y-81854705D01*
X105135476Y-81891866D01*
G37*
G36*
X118460747Y-80555261D02*
G01*
X118592234Y-80609725D01*
X118710570Y-80688794D01*
X118811206Y-80789430D01*
X118890275Y-80907766D01*
X118944739Y-81039253D01*
X118972504Y-81178840D01*
X118972504Y-81321160D01*
X118944739Y-81460747D01*
X118890275Y-81592234D01*
X118811206Y-81710570D01*
X118710570Y-81811206D01*
X118592234Y-81890275D01*
X118460747Y-81944739D01*
X118321160Y-81972504D01*
X118178840Y-81972504D01*
X118039253Y-81944739D01*
X117907766Y-81890275D01*
X117789430Y-81811206D01*
X117688794Y-81710570D01*
X117609725Y-81592234D01*
X117555261Y-81460747D01*
X117527496Y-81321160D01*
X117527496Y-81178840D01*
X117555261Y-81039253D01*
X117609725Y-80907766D01*
X117688794Y-80789430D01*
X117789430Y-80688794D01*
X117907766Y-80609725D01*
X118039253Y-80555261D01*
X118178840Y-80527496D01*
X118321160Y-80527496D01*
X118460747Y-80555261D01*
G37*
G36*
X107182208Y-80444254D02*
G01*
X107283943Y-80502991D01*
X107367009Y-80586057D01*
X107425746Y-80687792D01*
X107456150Y-80801263D01*
X107460000Y-80860000D01*
X107460000Y-81460000D01*
X107456150Y-81518737D01*
X107425746Y-81632208D01*
X107367009Y-81733943D01*
X107283943Y-81817009D01*
X107182208Y-81875746D01*
X107068737Y-81906150D01*
X106951263Y-81906150D01*
X106837792Y-81875746D01*
X106736057Y-81817009D01*
X106652991Y-81733943D01*
X106594254Y-81632208D01*
X106563850Y-81518737D01*
X106560000Y-81460000D01*
X106560000Y-80860000D01*
X106563850Y-80801263D01*
X106594254Y-80687792D01*
X106652991Y-80586057D01*
X106736057Y-80502991D01*
X106837792Y-80444254D01*
X106951263Y-80413850D01*
X107068737Y-80413850D01*
X107182208Y-80444254D01*
G37*
G36*
X116162208Y-80444254D02*
G01*
X116263943Y-80502991D01*
X116347009Y-80586057D01*
X116405746Y-80687792D01*
X116436150Y-80801263D01*
X116440000Y-80860000D01*
X116440000Y-81460000D01*
X116436150Y-81518737D01*
X116405746Y-81632208D01*
X116347009Y-81733943D01*
X116263943Y-81817009D01*
X116162208Y-81875746D01*
X116048737Y-81906150D01*
X115931263Y-81906150D01*
X115817792Y-81875746D01*
X115716057Y-81817009D01*
X115632991Y-81733943D01*
X115574254Y-81632208D01*
X115543850Y-81518737D01*
X115540000Y-81460000D01*
X115540000Y-80860000D01*
X115543850Y-80801263D01*
X115574254Y-80687792D01*
X115632991Y-80586057D01*
X115716057Y-80502991D01*
X115817792Y-80444254D01*
X115931263Y-80413850D01*
X116048737Y-80413850D01*
X116162208Y-80444254D01*
G37*
G36*
X105135476Y-80621866D02*
G01*
X105259819Y-80693656D01*
X105361344Y-80795181D01*
X105433134Y-80919524D01*
X105470295Y-81058211D01*
X105470295Y-81201789D01*
X105433134Y-81340476D01*
X105361344Y-81464819D01*
X105259819Y-81566344D01*
X105135476Y-81638134D01*
X104996789Y-81675295D01*
X104853211Y-81675295D01*
X104714524Y-81638134D01*
X104590181Y-81566344D01*
X104488656Y-81464819D01*
X104416866Y-81340476D01*
X104379705Y-81201789D01*
X104379705Y-81058211D01*
X104416866Y-80919524D01*
X104488656Y-80795181D01*
X104590181Y-80693656D01*
X104714524Y-80621866D01*
X104853211Y-80584705D01*
X104996789Y-80584705D01*
X105135476Y-80621866D01*
G37*
M02*
