%TF.GenerationSoftware,KiCad,Pcbnew,9.0.4*%
%TF.CreationDate,2025-09-03T13:38:36-07:00*%
%TF.ProjectId,k1-aioc,6b312d61-696f-4632-9e6b-696361645f70,rev?*%
%TF.SameCoordinates,Original*%
%TF.FileFunction,Copper,L1,Top*%
%TF.FilePolarity,Positive*%
%FSLAX46Y46*%
G04 Gerber Fmt 4.6, Leading zero omitted, Abs format (unit mm)*
G04 Created by KiCad (PCBNEW 9.0.4) date 2025-09-03 13:38:36*
%MOMM*%
%LPD*%
G01*
G04 APERTURE LIST*
G04 Aperture macros list*
%AMRoundRect*
0 Rectangle with rounded corners*
0 $1 Rounding radius*
0 $2 $3 $4 $5 $6 $7 $8 $9 X,Y pos of 4 corners*
0 Add a 4 corners polygon primitive as box body*
4,1,4,$2,$3,$4,$5,$6,$7,$8,$9,$2,$3,0*
0 Add four circle primitives for the rounded corners*
1,1,$1+$1,$2,$3*
1,1,$1+$1,$4,$5*
1,1,$1+$1,$6,$7*
1,1,$1+$1,$8,$9*
0 Add four rect primitives between the rounded corners*
20,1,$1+$1,$2,$3,$4,$5,0*
20,1,$1+$1,$4,$5,$6,$7,0*
20,1,$1+$1,$6,$7,$8,$9,0*
20,1,$1+$1,$8,$9,$2,$3,0*%
G04 Aperture macros list end*
%TA.AperFunction,SMDPad,CuDef*%
%ADD10R,0.250000X0.600000*%
%TD*%
%TA.AperFunction,SMDPad,CuDef*%
%ADD11R,1.200000X0.600000*%
%TD*%
%TA.AperFunction,SMDPad,CuDef*%
%ADD12R,0.280000X1.250000*%
%TD*%
%TA.AperFunction,ComponentPad*%
%ADD13C,0.600000*%
%TD*%
%TA.AperFunction,ComponentPad*%
%ADD14O,1.000000X1.600000*%
%TD*%
%TA.AperFunction,ComponentPad*%
%ADD15C,0.800000*%
%TD*%
%TA.AperFunction,SMDPad,CuDef*%
%ADD16RoundRect,0.200000X0.200000X0.275000X-0.200000X0.275000X-0.200000X-0.275000X0.200000X-0.275000X0*%
%TD*%
%TA.AperFunction,SMDPad,CuDef*%
%ADD17RoundRect,0.218750X0.218750X0.256250X-0.218750X0.256250X-0.218750X-0.256250X0.218750X-0.256250X0*%
%TD*%
%TA.AperFunction,SMDPad,CuDef*%
%ADD18RoundRect,0.225000X0.225000X0.250000X-0.225000X0.250000X-0.225000X-0.250000X0.225000X-0.250000X0*%
%TD*%
%TA.AperFunction,SMDPad,CuDef*%
%ADD19RoundRect,0.200000X-0.200000X-0.275000X0.200000X-0.275000X0.200000X0.275000X-0.200000X0.275000X0*%
%TD*%
%TA.AperFunction,SMDPad,CuDef*%
%ADD20RoundRect,0.218750X-0.218750X-0.256250X0.218750X-0.256250X0.218750X0.256250X-0.218750X0.256250X0*%
%TD*%
%TA.AperFunction,SMDPad,CuDef*%
%ADD21RoundRect,0.225000X-0.250000X0.225000X-0.250000X-0.225000X0.250000X-0.225000X0.250000X0.225000X0*%
%TD*%
%TA.AperFunction,SMDPad,CuDef*%
%ADD22RoundRect,0.225000X-0.225000X-0.250000X0.225000X-0.250000X0.225000X0.250000X-0.225000X0.250000X0*%
%TD*%
%TA.AperFunction,SMDPad,CuDef*%
%ADD23RoundRect,0.200000X-0.275000X0.200000X-0.275000X-0.200000X0.275000X-0.200000X0.275000X0.200000X0*%
%TD*%
%TA.AperFunction,SMDPad,CuDef*%
%ADD24RoundRect,0.218750X0.256250X-0.218750X0.256250X0.218750X-0.256250X0.218750X-0.256250X-0.218750X0*%
%TD*%
%TA.AperFunction,SMDPad,CuDef*%
%ADD25RoundRect,0.075000X0.075000X-0.662500X0.075000X0.662500X-0.075000X0.662500X-0.075000X-0.662500X0*%
%TD*%
%TA.AperFunction,SMDPad,CuDef*%
%ADD26RoundRect,0.075000X0.662500X-0.075000X0.662500X0.075000X-0.662500X0.075000X-0.662500X-0.075000X0*%
%TD*%
%TA.AperFunction,SMDPad,CuDef*%
%ADD27RoundRect,0.225000X0.250000X-0.225000X0.250000X0.225000X-0.250000X0.225000X-0.250000X-0.225000X0*%
%TD*%
%TA.AperFunction,SMDPad,CuDef*%
%ADD28R,0.650000X0.400000*%
%TD*%
%TA.AperFunction,ComponentPad*%
%ADD29R,1.000000X1.000000*%
%TD*%
%TA.AperFunction,ComponentPad*%
%ADD30O,1.000000X1.000000*%
%TD*%
%TA.AperFunction,SMDPad,CuDef*%
%ADD31R,2.000000X2.400000*%
%TD*%
%TA.AperFunction,SMDPad,CuDef*%
%ADD32RoundRect,0.200000X0.275000X-0.200000X0.275000X0.200000X-0.275000X0.200000X-0.275000X-0.200000X0*%
%TD*%
%TA.AperFunction,ViaPad*%
%ADD33C,0.600000*%
%TD*%
%TA.AperFunction,Conductor*%
%ADD34C,0.250000*%
%TD*%
%TA.AperFunction,Conductor*%
%ADD35C,0.300000*%
%TD*%
%TA.AperFunction,Conductor*%
%ADD36C,0.500000*%
%TD*%
G04 APERTURE END LIST*
D10*
%TO.P,U1,1,VIN*%
%TO.N,/VIN*%
X106250000Y-93800000D03*
%TO.P,U1,2,GND*%
%TO.N,GND*%
X105750000Y-93800000D03*
%TO.P,U1,3,BYP*%
%TO.N,Net-(U1-BYP)*%
X105250000Y-93800000D03*
%TO.P,U1,4,EN2*%
%TO.N,/VIN*%
X104750000Y-93800000D03*
%TO.P,U1,5,EN1*%
X104750000Y-95700000D03*
%TO.P,U1,6,NC*%
%TO.N,unconnected-(U1-NC-Pad6)*%
X105250000Y-95700000D03*
%TO.P,U1,7,VOUT2*%
%TO.N,Net-(U1-VOUT2)*%
X105750000Y-95700000D03*
%TO.P,U1,8,VOUT1*%
%TO.N,+3V3*%
X106250000Y-95700000D03*
D11*
%TO.P,U1,9,EP*%
%TO.N,GND*%
X105500000Y-94750000D03*
%TD*%
D12*
%TO.P,J1,A1,GND*%
%TO.N,GND*%
X114290000Y-88160000D03*
%TO.P,J1,A2,SSTXp1*%
%TO.N,unconnected-(J1-SSTXp1-PadA2)*%
X113750000Y-88160000D03*
%TO.P,J1,A3,SSTXn1*%
%TO.N,unconnected-(J1-SSTXn1-PadA3)*%
X113250000Y-88160000D03*
%TO.P,J1,A4,VBUS*%
%TO.N,/VBUS*%
X112750000Y-88160000D03*
%TO.P,J1,A5,CC1*%
%TO.N,Net-(J1-CC1)*%
X112250000Y-88160000D03*
%TO.P,J1,A6,DP1*%
%TO.N,/USB-DP*%
X111750000Y-88160000D03*
%TO.P,J1,A7,DN2*%
%TO.N,/USB-DN*%
X111250000Y-88160000D03*
%TO.P,J1,A8,SUB1*%
%TO.N,unconnected-(J1-SUB1-PadA8)*%
X110750000Y-88160000D03*
%TO.P,J1,A9,VBUS*%
%TO.N,/VBUS*%
X110250000Y-88160000D03*
%TO.P,J1,A10,SSRXn2*%
%TO.N,unconnected-(J1-SSRXn2-PadA10)*%
X109750000Y-88160000D03*
%TO.P,J1,A11,SSRXp2*%
%TO.N,unconnected-(J1-SSRXp2-PadA11)*%
X109250000Y-88160000D03*
%TO.P,J1,A12,GND*%
%TO.N,GND*%
X108750000Y-88160000D03*
D13*
%TO.P,J1,B12,GND*%
X114300000Y-86830000D03*
%TO.P,J1,B1,GND*%
X108700000Y-86830000D03*
%TO.P,J1,B2,SSTXp2*%
%TO.N,unconnected-(J1-SSTXp2-PadB2)*%
X109100000Y-86130000D03*
%TO.P,J1,B11,SSRXp1*%
%TO.N,unconnected-(J1-SSRXp1-PadB11)*%
X113900000Y-86130000D03*
%TO.P,J1,B3,SSIXn2*%
%TO.N,unconnected-(J1-SSIXn2-PadB3)*%
X109900000Y-86130000D03*
%TO.P,J1,B10,SSRXn1*%
%TO.N,unconnected-(J1-SSRXn1-PadB10)*%
X113100000Y-86130000D03*
%TO.P,J1,B5,CC2*%
%TO.N,Net-(J1-CC2)*%
X110700000Y-86130000D03*
%TO.P,J1,B8,SUB2*%
%TO.N,unconnected-(J1-SUB2-PadB8)*%
X112300000Y-86130000D03*
%TO.P,J1,B4,VBUS*%
%TO.N,/VBUS*%
X110300000Y-86830000D03*
%TO.P,J1,B9,VBUS*%
X112700000Y-86830000D03*
%TO.P,J1,B6,DP2*%
%TO.N,/USB-DP*%
X111100000Y-86830000D03*
%TO.P,J1,B7,DN2*%
%TO.N,/USB-DN*%
X111900000Y-86830000D03*
D14*
%TO.P,J1,25,25*%
%TO.N,GND*%
X107370000Y-86230000D03*
X115630000Y-86230000D03*
X107010000Y-81840000D03*
X115990000Y-81840000D03*
D15*
%TO.P,J1,*%
%TO.N,*%
X115170000Y-87480000D03*
X107830000Y-87480000D03*
%TD*%
D16*
%TO.P,R2,1*%
%TO.N,Net-(C12-Pad1)*%
X120575000Y-102000000D03*
%TO.P,R2,2*%
%TO.N,/AFOUT*%
X118925000Y-102000000D03*
%TD*%
D17*
%TO.P,D2,1,K*%
%TO.N,Net-(D1-A)*%
X106287500Y-105000000D03*
%TO.P,D2,2,A*%
%TO.N,Net-(D1-K)*%
X104712500Y-105000000D03*
%TD*%
D18*
%TO.P,C11,1*%
%TO.N,/AFIN*%
X119525000Y-92000000D03*
%TO.P,C11,2*%
%TO.N,GND*%
X117975000Y-92000000D03*
%TD*%
D19*
%TO.P,R15,1*%
%TO.N,Net-(D1-K)*%
X104675000Y-102000000D03*
%TO.P,R15,2*%
%TO.N,Net-(U2-PB8)*%
X106325000Y-102000000D03*
%TD*%
D18*
%TO.P,C1,1*%
%TO.N,/OSCIN*%
X108275000Y-106500000D03*
%TO.P,C1,2*%
%TO.N,GND*%
X106725000Y-106500000D03*
%TD*%
D20*
%TO.P,D1,1,K*%
%TO.N,Net-(D1-K)*%
X104712500Y-103500000D03*
%TO.P,D1,2,A*%
%TO.N,Net-(D1-A)*%
X106287500Y-103500000D03*
%TD*%
D21*
%TO.P,C9,1*%
%TO.N,+3.3VA*%
X113500000Y-105475000D03*
%TO.P,C9,2*%
%TO.N,GND*%
X113500000Y-107025000D03*
%TD*%
D22*
%TO.P,C12,1*%
%TO.N,Net-(C12-Pad1)*%
X121975000Y-103500000D03*
%TO.P,C12,2*%
%TO.N,GND*%
X123525000Y-103500000D03*
%TD*%
D23*
%TO.P,R13,1*%
%TO.N,/RADIO-RX-PTT1*%
X118000000Y-108675000D03*
%TO.P,R13,2*%
%TO.N,Net-(Q1B-C2)*%
X118000000Y-110325000D03*
%TD*%
D24*
%TO.P,FB2,1*%
%TO.N,/VBUS*%
X107750000Y-92287500D03*
%TO.P,FB2,2*%
%TO.N,/VIN*%
X107750000Y-90712500D03*
%TD*%
D23*
%TO.P,R8,1*%
%TO.N,/RADIO-RX-PTT1*%
X114750000Y-91175000D03*
%TO.P,R8,2*%
%TO.N,/USART-TX*%
X114750000Y-92825000D03*
%TD*%
%TO.P,R11,1*%
%TO.N,/PTT1*%
X116500000Y-105425000D03*
%TO.P,R11,2*%
%TO.N,Net-(Q1B-B2)*%
X116500000Y-107075000D03*
%TD*%
%TO.P,R9,1*%
%TO.N,/RADIO-TX*%
X113250000Y-91175000D03*
%TO.P,R9,2*%
%TO.N,/USART-RX*%
X113250000Y-92825000D03*
%TD*%
D25*
%TO.P,U2,1,VBAT*%
%TO.N,+3V3*%
X110000000Y-103412500D03*
%TO.P,U2,2,PC13*%
%TO.N,unconnected-(U2-PC13-Pad2)*%
X110500000Y-103412500D03*
%TO.P,U2,3,PC14*%
%TO.N,unconnected-(U2-PC14-Pad3)*%
X111000000Y-103412500D03*
%TO.P,U2,4,PC15*%
%TO.N,unconnected-(U2-PC15-Pad4)*%
X111500000Y-103412500D03*
%TO.P,U2,5,PF0*%
%TO.N,/OSCIN*%
X112000000Y-103412500D03*
%TO.P,U2,6,PF1*%
%TO.N,/OSCOUT*%
X112500000Y-103412500D03*
%TO.P,U2,7,NRST*%
%TO.N,/NRST*%
X113000000Y-103412500D03*
%TO.P,U2,8,VSSA*%
%TO.N,GND*%
X113500000Y-103412500D03*
%TO.P,U2,9,VDDA*%
%TO.N,+3.3VA*%
X114000000Y-103412500D03*
%TO.P,U2,10,PA0*%
%TO.N,/PTT2*%
X114500000Y-103412500D03*
%TO.P,U2,11,PA1*%
%TO.N,/PTT1*%
X115000000Y-103412500D03*
%TO.P,U2,12,PA2*%
%TO.N,unconnected-(U2-PA2-Pad12)*%
X115500000Y-103412500D03*
D26*
%TO.P,U2,13,PA3*%
%TO.N,/DAC_ATTEN*%
X116912500Y-102000000D03*
%TO.P,U2,14,PA4*%
%TO.N,/AFOUT*%
X116912500Y-101500000D03*
%TO.P,U2,15,PA5*%
%TO.N,unconnected-(U2-PA5-Pad15)*%
X116912500Y-101000000D03*
%TO.P,U2,16,PA6*%
%TO.N,unconnected-(U2-PA6-Pad16)*%
X116912500Y-100500000D03*
%TO.P,U2,17,VDD*%
%TO.N,+3V3*%
X116912500Y-100000000D03*
%TO.P,U2,18,PB0*%
%TO.N,unconnected-(U2-PB0-Pad18)*%
X116912500Y-99500000D03*
%TO.P,U2,19,PB1*%
%TO.N,unconnected-(U2-PB1-Pad19)*%
X116912500Y-99000000D03*
%TO.P,U2,20,PB2*%
%TO.N,/AFIN*%
X116912500Y-98500000D03*
%TO.P,U2,21,PE8*%
%TO.N,unconnected-(U2-PE8-Pad21)*%
X116912500Y-98000000D03*
%TO.P,U2,22,PE9*%
%TO.N,unconnected-(U2-PE9-Pad22)*%
X116912500Y-97500000D03*
%TO.P,U2,23,VSSSD*%
%TO.N,GND*%
X116912500Y-97000000D03*
%TO.P,U2,24,VDDSD*%
%TO.N,+3.3VA*%
X116912500Y-96500000D03*
D25*
%TO.P,U2,25,VREFSD+*%
X115500000Y-95087500D03*
%TO.P,U2,26,PB14*%
%TO.N,unconnected-(U2-PB14-Pad26)*%
X115000000Y-95087500D03*
%TO.P,U2,27,PB15*%
%TO.N,unconnected-(U2-PB15-Pad27)*%
X114500000Y-95087500D03*
%TO.P,U2,28,PD8*%
%TO.N,unconnected-(U2-PD8-Pad28)*%
X114000000Y-95087500D03*
%TO.P,U2,29,PA8*%
%TO.N,unconnected-(U2-PA8-Pad29)*%
X113500000Y-95087500D03*
%TO.P,U2,30,PA9*%
%TO.N,/USART-TX*%
X113000000Y-95087500D03*
%TO.P,U2,31,PA10*%
%TO.N,/USART-RX*%
X112500000Y-95087500D03*
%TO.P,U2,32,PA11*%
%TO.N,/USB-DN*%
X112000000Y-95087500D03*
%TO.P,U2,33,PA12*%
%TO.N,/USB-DP*%
X111500000Y-95087500D03*
%TO.P,U2,34,PA13*%
%TO.N,/SWDIO*%
X111000000Y-95087500D03*
%TO.P,U2,35,PF6*%
%TO.N,GND*%
X110500000Y-95087500D03*
%TO.P,U2,36,PF7*%
%TO.N,+3V3*%
X110000000Y-95087500D03*
D26*
%TO.P,U2,37,PA14*%
%TO.N,/SWCLK*%
X108587500Y-96500000D03*
%TO.P,U2,38,PA15*%
%TO.N,unconnected-(U2-PA15-Pad38)*%
X108587500Y-97000000D03*
%TO.P,U2,39,PB3*%
%TO.N,/SWO*%
X108587500Y-97500000D03*
%TO.P,U2,40,PB4*%
%TO.N,unconnected-(U2-PB4-Pad40)*%
X108587500Y-98000000D03*
%TO.P,U2,41,PB5*%
%TO.N,unconnected-(U2-PB5-Pad41)*%
X108587500Y-98500000D03*
%TO.P,U2,42,PB6*%
%TO.N,unconnected-(U2-PB6-Pad42)*%
X108587500Y-99000000D03*
%TO.P,U2,43,PB7*%
%TO.N,unconnected-(U2-PB7-Pad43)*%
X108587500Y-99500000D03*
%TO.P,U2,44,BOOT0*%
%TO.N,/BOOT0*%
X108587500Y-100000000D03*
%TO.P,U2,45,PB8*%
%TO.N,Net-(U2-PB8)*%
X108587500Y-100500000D03*
%TO.P,U2,46,PB9*%
%TO.N,Net-(D1-A)*%
X108587500Y-101000000D03*
%TO.P,U2,47,VSS*%
%TO.N,GND*%
X108587500Y-101500000D03*
%TO.P,U2,48,VDD*%
%TO.N,+3V3*%
X108587500Y-102000000D03*
%TD*%
D27*
%TO.P,C6,1*%
%TO.N,/VIN*%
X106250000Y-92275000D03*
%TO.P,C6,2*%
%TO.N,GND*%
X106250000Y-90725000D03*
%TD*%
D16*
%TO.P,R4,1*%
%TO.N,GND*%
X123575000Y-102000000D03*
%TO.P,R4,2*%
%TO.N,Net-(C12-Pad1)*%
X121925000Y-102000000D03*
%TD*%
D24*
%TO.P,FB1,1*%
%TO.N,+3.3VA*%
X106250000Y-98787500D03*
%TO.P,FB1,2*%
%TO.N,Net-(U1-VOUT2)*%
X106250000Y-97212500D03*
%TD*%
D27*
%TO.P,C3,1*%
%TO.N,Net-(U1-BYP)*%
X104750000Y-92275000D03*
%TO.P,C3,2*%
%TO.N,GND*%
X104750000Y-90725000D03*
%TD*%
D22*
%TO.P,C2,1*%
%TO.N,/OSCOUT*%
X110225000Y-106500000D03*
%TO.P,C2,2*%
%TO.N,GND*%
X111775000Y-106500000D03*
%TD*%
D23*
%TO.P,R10,1*%
%TO.N,/PTT2*%
X115000000Y-105425000D03*
%TO.P,R10,2*%
%TO.N,Net-(Q1A-B1)*%
X115000000Y-107075000D03*
%TD*%
D27*
%TO.P,C4,1*%
%TO.N,+3V3*%
X107750000Y-95275000D03*
%TO.P,C4,2*%
%TO.N,GND*%
X107750000Y-93725000D03*
%TD*%
D19*
%TO.P,R1,1*%
%TO.N,+3V3*%
X109925000Y-92000000D03*
%TO.P,R1,2*%
%TO.N,/USB-DP*%
X111575000Y-92000000D03*
%TD*%
D21*
%TO.P,C5,1*%
%TO.N,Net-(U1-VOUT2)*%
X104750000Y-97225000D03*
%TO.P,C5,2*%
%TO.N,GND*%
X104750000Y-98775000D03*
%TD*%
D28*
%TO.P,Q1,1,E1*%
%TO.N,GND*%
X114800000Y-108850000D03*
%TO.P,Q1,2,B1*%
%TO.N,Net-(Q1A-B1)*%
X114800000Y-109500000D03*
%TO.P,Q1,3,C2*%
%TO.N,Net-(Q1B-C2)*%
X114800000Y-110150000D03*
%TO.P,Q1,4,E2*%
%TO.N,GND*%
X116700000Y-110150000D03*
%TO.P,Q1,5,B2*%
%TO.N,Net-(Q1B-B2)*%
X116700000Y-109500000D03*
%TO.P,Q1,6,C1*%
%TO.N,Net-(Q1A-C1)*%
X116700000Y-108850000D03*
%TD*%
D22*
%TO.P,C14,1*%
%TO.N,Net-(C14-Pad1)*%
X120975000Y-92000000D03*
%TO.P,C14,2*%
%TO.N,/RADIO-SPK*%
X122525000Y-92000000D03*
%TD*%
D16*
%TO.P,R17,1*%
%TO.N,Net-(C12-Pad1)*%
X120575000Y-103500000D03*
%TO.P,R17,2*%
%TO.N,/DAC_ATTEN*%
X118925000Y-103500000D03*
%TD*%
D19*
%TO.P,R5,1*%
%TO.N,/AFIN*%
X117925000Y-90500000D03*
%TO.P,R5,2*%
%TO.N,Net-(C14-Pad1)*%
X119575000Y-90500000D03*
%TD*%
D27*
%TO.P,C15,1*%
%TO.N,/NRST*%
X104750000Y-108025000D03*
%TO.P,C15,2*%
%TO.N,GND*%
X104750000Y-106475000D03*
%TD*%
D22*
%TO.P,C7,1*%
%TO.N,+3V3*%
X118975000Y-100500000D03*
%TO.P,C7,2*%
%TO.N,GND*%
X120525000Y-100500000D03*
%TD*%
D29*
%TO.P,J2,1,Pin_1*%
%TO.N,/BOOT0*%
X104925000Y-88750000D03*
D30*
%TO.P,J2,2,Pin_2*%
%TO.N,/SWO*%
X104925000Y-87480000D03*
%TO.P,J2,3,Pin_3*%
%TO.N,/NRST*%
X104925000Y-86210000D03*
%TO.P,J2,4,Pin_4*%
%TO.N,/SWDIO*%
X104925000Y-84940000D03*
%TO.P,J2,5,Pin_5*%
%TO.N,GND*%
X104925000Y-83670000D03*
%TO.P,J2,6,Pin_6*%
%TO.N,/SWCLK*%
X104925000Y-82400000D03*
%TO.P,J2,7,Pin_7*%
%TO.N,+3V3*%
X104925000Y-81130000D03*
%TD*%
D21*
%TO.P,C8,1*%
%TO.N,+3V3*%
X108250000Y-103225000D03*
%TO.P,C8,2*%
%TO.N,GND*%
X108250000Y-104775000D03*
%TD*%
D19*
%TO.P,R16,1*%
%TO.N,+3.3VA*%
X117925000Y-93500000D03*
%TO.P,R16,2*%
%TO.N,/AFIN*%
X119575000Y-93500000D03*
%TD*%
%TO.P,R3,1*%
%TO.N,GND*%
X117925000Y-95000000D03*
%TO.P,R3,2*%
%TO.N,/AFIN*%
X119575000Y-95000000D03*
%TD*%
D27*
%TO.P,C10,1*%
%TO.N,+3.3VA*%
X116250000Y-92775000D03*
%TO.P,C10,2*%
%TO.N,GND*%
X116250000Y-91225000D03*
%TD*%
D19*
%TO.P,R14,1*%
%TO.N,GND*%
X104675000Y-100500000D03*
%TO.P,R14,2*%
%TO.N,/BOOT0*%
X106325000Y-100500000D03*
%TD*%
D23*
%TO.P,R6,1*%
%TO.N,GND*%
X117750000Y-83675000D03*
%TO.P,R6,2*%
%TO.N,Net-(J1-CC2)*%
X117750000Y-85325000D03*
%TD*%
D21*
%TO.P,C13,1*%
%TO.N,Net-(C12-Pad1)*%
X119500000Y-105475000D03*
%TO.P,C13,2*%
%TO.N,/RADIO-MIC*%
X119500000Y-107025000D03*
%TD*%
D31*
%TO.P,Y1,1,1*%
%TO.N,/OSCIN*%
X107400000Y-109250000D03*
%TO.P,Y1,2,2*%
%TO.N,/OSCOUT*%
X111100000Y-109250000D03*
%TD*%
D23*
%TO.P,R12,1*%
%TO.N,/RADIO-VP-PTT2*%
X118000000Y-105425000D03*
%TO.P,R12,2*%
%TO.N,Net-(Q1A-C1)*%
X118000000Y-107075000D03*
%TD*%
D32*
%TO.P,R7,1*%
%TO.N,Net-(J1-CC1)*%
X117750000Y-88325000D03*
%TO.P,R7,2*%
%TO.N,GND*%
X117750000Y-86675000D03*
%TD*%
D33*
%TO.N,GND*%
X114250000Y-106250000D03*
X115500000Y-97500000D03*
X113000270Y-83951369D03*
X105800000Y-94750000D03*
X116500000Y-94500000D03*
X118950000Y-83250000D03*
X107750000Y-107500000D03*
X115000000Y-102000000D03*
X113000000Y-96500000D03*
X110000000Y-100250000D03*
X118950000Y-84750000D03*
X109250000Y-103750000D03*
X112250000Y-102000000D03*
X107250000Y-89750000D03*
X113750000Y-110000000D03*
X110750000Y-107500000D03*
X112000000Y-97500000D03*
X105250000Y-89769502D03*
X105500000Y-98000000D03*
X110000000Y-98250000D03*
X114000000Y-99000000D03*
X116000270Y-83951369D03*
X117000000Y-92000000D03*
X109250000Y-102750000D03*
X114500000Y-101000000D03*
X107000000Y-83950000D03*
X105500000Y-99750000D03*
X117250000Y-103750000D03*
X110000000Y-101000000D03*
X106750000Y-107500000D03*
X114000000Y-92000000D03*
X113000000Y-97500000D03*
X113000000Y-102000000D03*
X106250000Y-89750000D03*
X114500000Y-86250000D03*
X107250000Y-104750000D03*
X121750000Y-100500000D03*
X116500000Y-95500000D03*
X111750000Y-107502432D03*
X114750000Y-98250000D03*
X115750000Y-110000000D03*
X114000000Y-96500000D03*
X113750000Y-108500000D03*
X114499400Y-83950576D03*
X112000000Y-96500000D03*
X108500270Y-83951369D03*
X105200000Y-94750000D03*
X116500000Y-103000000D03*
X111500270Y-83951369D03*
X122750000Y-101250000D03*
X115500000Y-99000000D03*
X109250000Y-110000000D03*
X111000000Y-96500000D03*
X115500000Y-101000000D03*
X111500000Y-102000000D03*
X118950000Y-86250000D03*
X109250000Y-104750000D03*
X115500000Y-92000000D03*
X118950000Y-87750000D03*
X110000270Y-83951369D03*
X122750000Y-102750000D03*
X115750000Y-106250000D03*
%TO.N,/SWCLK*%
X110600000Y-92866006D03*
%TO.N,/SWDIO*%
X110600000Y-93774076D03*
%TO.N,/USB-DP*%
X111350000Y-86250000D03*
X111350000Y-90500000D03*
X111350000Y-93250000D03*
%TO.N,/USB-DN*%
X112150000Y-86250000D03*
X112150000Y-90500000D03*
X112150000Y-93250000D03*
%TO.N,+3V3*%
X110274500Y-97000000D03*
X110000000Y-91000000D03*
X110750000Y-97500000D03*
X107250000Y-96650000D03*
X107250000Y-97350000D03*
%TO.N,+3.3VA*%
X111750000Y-99250000D03*
X112500000Y-99250000D03*
X107250000Y-99250000D03*
X111750000Y-100750000D03*
X107250000Y-98550000D03*
X112500000Y-100750000D03*
%TO.N,GND*%
X113500000Y-86250000D03*
X112899500Y-89942499D03*
%TO.N,/RADIO-RX-PTT1*%
X119000000Y-110750000D03*
X119011829Y-89364195D03*
%TO.N,/RADIO-TX*%
X123250000Y-100250000D03*
X119003182Y-88547732D03*
%TO.N,/NRST*%
X113000000Y-110750000D03*
X104750000Y-109000000D03*
%TO.N,/SWO*%
X109750000Y-93819338D03*
%TO.N,/BOOT0*%
X105500000Y-101250000D03*
%TO.N,Net-(D1-K)*%
X105500000Y-104250000D03*
%TO.N,Net-(D1-A)*%
X105500000Y-102750000D03*
%TD*%
D34*
%TO.N,/VIN*%
X104200000Y-95700000D02*
X103950000Y-95450000D01*
X104750000Y-95700000D02*
X104200000Y-95700000D01*
X104050000Y-93800000D02*
X103950000Y-93700000D01*
X104750000Y-93800000D02*
X104050000Y-93800000D01*
%TO.N,GND*%
X108750000Y-89020000D02*
X108750000Y-88416813D01*
D35*
X113500000Y-102500000D02*
X113500000Y-103412500D01*
D34*
X105750000Y-93775000D02*
X105750000Y-94700000D01*
D35*
X123525000Y-103500000D02*
X123525000Y-102050000D01*
X113000000Y-102000000D02*
X113500000Y-102500000D01*
D34*
X105750000Y-94700000D02*
X105800000Y-94750000D01*
D35*
X109500000Y-101500000D02*
X110000000Y-101000000D01*
D34*
X114500000Y-87320000D02*
X114500000Y-87916813D01*
X109000000Y-87320000D02*
X109000000Y-88166813D01*
X114500000Y-87916813D02*
X114250000Y-88166813D01*
X114250000Y-89020000D02*
X114250000Y-88166813D01*
X123525000Y-102050000D02*
X123575000Y-102000000D01*
X108750000Y-88416813D02*
X109000000Y-88166813D01*
D35*
X108587500Y-101500000D02*
X109500000Y-101500000D01*
D34*
%TO.N,/OSCIN*%
X108750000Y-107500000D02*
X108750000Y-109000000D01*
X108500000Y-109250000D02*
X107400000Y-109250000D01*
X108863604Y-106500000D02*
X108472183Y-106500000D01*
X108275000Y-106750000D02*
X108275000Y-107025000D01*
X110363604Y-105000000D02*
X108863604Y-106500000D01*
X112000000Y-104363604D02*
X111363604Y-105000000D01*
X108750000Y-109000000D02*
X108500000Y-109250000D01*
X112000000Y-103412500D02*
X112000000Y-104363604D01*
X108275000Y-107025000D02*
X108750000Y-107500000D01*
X111363604Y-105000000D02*
X110363604Y-105000000D01*
X108525000Y-106500000D02*
X108275000Y-106750000D01*
%TO.N,/OSCOUT*%
X112500000Y-104500000D02*
X111550000Y-105450000D01*
X109750000Y-107500000D02*
X109750000Y-109000000D01*
X110225000Y-107025000D02*
X109750000Y-107500000D01*
X112500000Y-103412500D02*
X112500000Y-104500000D01*
X110225000Y-105775000D02*
X110225000Y-107025000D01*
X110000000Y-109250000D02*
X111100000Y-109250000D01*
X111550000Y-105450000D02*
X110550000Y-105450000D01*
X110550000Y-105450000D02*
X110225000Y-105775000D01*
X109750000Y-109000000D02*
X110000000Y-109250000D01*
%TO.N,/SWCLK*%
X109050000Y-96037500D02*
X108587500Y-96500000D01*
X110600000Y-92866006D02*
X109743948Y-92866006D01*
X109743948Y-92866006D02*
X109050000Y-93559954D01*
X109050000Y-93559954D02*
X109050000Y-96037500D01*
%TO.N,/SWDIO*%
X110499747Y-93784062D02*
X111000000Y-94284315D01*
X111000000Y-94284315D02*
X111000000Y-95087500D01*
%TO.N,/USB-DP*%
X111575000Y-92625000D02*
X111575000Y-92000000D01*
D35*
X111350000Y-90380761D02*
X111350000Y-90500000D01*
X111500000Y-87320000D02*
X111500000Y-86400000D01*
D34*
X111350000Y-93250000D02*
X111350000Y-92850000D01*
D35*
X111500000Y-86400000D02*
X111350000Y-86250000D01*
D34*
X111350000Y-92850000D02*
X111575000Y-92625000D01*
D35*
X111500000Y-95087500D02*
X111500000Y-93400000D01*
X111750000Y-89020000D02*
X111750000Y-89980761D01*
X111500000Y-93400000D02*
X111350000Y-93250000D01*
X111750000Y-89980761D02*
X111350000Y-90380761D01*
%TO.N,/USB-DN*%
X112000000Y-95087500D02*
X112000000Y-93400000D01*
X110700000Y-90769239D02*
X111080761Y-91150000D01*
X112000000Y-86400000D02*
X112150000Y-86250000D01*
X111619239Y-91150000D02*
X112150000Y-90619239D01*
X111080761Y-91150000D02*
X111619239Y-91150000D01*
X112000000Y-87320000D02*
X112000000Y-86400000D01*
X111250000Y-89020000D02*
X111250000Y-89680761D01*
X112000000Y-93400000D02*
X112150000Y-93250000D01*
X110700000Y-90230761D02*
X110700000Y-90769239D01*
X111250000Y-89680761D02*
X110700000Y-90230761D01*
X112150000Y-90619239D02*
X112150000Y-90500000D01*
D34*
%TO.N,Net-(U1-BYP)*%
X105250000Y-93775000D02*
X105250000Y-93250000D01*
X105250000Y-93250000D02*
X104750000Y-92750000D01*
X104750000Y-92750000D02*
X104750000Y-92275000D01*
%TO.N,+3V3*%
X110100000Y-96850000D02*
X110750000Y-97500000D01*
D35*
X110000000Y-102250000D02*
X110500000Y-101750000D01*
X110800000Y-99300000D02*
X110800000Y-101450000D01*
D34*
X108250000Y-102750000D02*
X108587500Y-102412500D01*
X106525000Y-95725000D02*
X107000000Y-95250000D01*
D35*
X110250000Y-102000000D02*
X108587500Y-102000000D01*
X110800000Y-99550000D02*
X110800000Y-99300000D01*
D34*
X109925000Y-92000000D02*
X109925000Y-91075000D01*
D36*
X107250000Y-96250000D02*
X107750000Y-95750000D01*
D34*
X107725000Y-95250000D02*
X107750000Y-95275000D01*
D35*
X118000000Y-100000000D02*
X116912500Y-100000000D01*
D34*
X110000000Y-95087500D02*
X110000000Y-95972919D01*
X108600000Y-92650000D02*
X109250000Y-92000000D01*
D35*
X110274500Y-97000000D02*
X110800000Y-97525500D01*
D34*
X109925000Y-91075000D02*
X110000000Y-91000000D01*
D35*
X116912500Y-100000000D02*
X111250000Y-100000000D01*
X111250000Y-100000000D02*
X110800000Y-99550000D01*
D36*
X107250000Y-97350000D02*
X107250000Y-96250000D01*
D35*
X110800000Y-97525500D02*
X110800000Y-99300000D01*
D34*
X106250000Y-95725000D02*
X106525000Y-95725000D01*
D36*
X107750000Y-95750000D02*
X107750000Y-95275000D01*
D35*
X118500000Y-100500000D02*
X118000000Y-100000000D01*
D34*
X108250000Y-95275000D02*
X108600000Y-94925000D01*
D35*
X110500000Y-101750000D02*
X110250000Y-102000000D01*
X118975000Y-100500000D02*
X118500000Y-100500000D01*
D34*
X110000000Y-95972919D02*
X110100000Y-96072919D01*
X108250000Y-103225000D02*
X108250000Y-102750000D01*
X107000000Y-95250000D02*
X107725000Y-95250000D01*
D35*
X110000000Y-103412500D02*
X110000000Y-102250000D01*
X110800000Y-101450000D02*
X110500000Y-101750000D01*
D34*
X107750000Y-95275000D02*
X108250000Y-95275000D01*
X109250000Y-92000000D02*
X109925000Y-92000000D01*
X108600000Y-94925000D02*
X108600000Y-92650000D01*
X110100000Y-96072919D02*
X110100000Y-96850000D01*
X108587500Y-102412500D02*
X108587500Y-102000000D01*
D36*
%TO.N,+3.3VA*%
X107250000Y-98550000D02*
X107250000Y-99000000D01*
D35*
X116000000Y-96500000D02*
X115250000Y-96500000D01*
X112500000Y-100750000D02*
X113000000Y-100750000D01*
D36*
X112500000Y-100750000D02*
X111750000Y-100750000D01*
D34*
X117925000Y-93500000D02*
X116250000Y-93500000D01*
D35*
X114000000Y-103412500D02*
X114000000Y-104500000D01*
X115500000Y-95087500D02*
X115500000Y-96250000D01*
X116912500Y-96500000D02*
X116000000Y-96500000D01*
X113000000Y-100750000D02*
X114000000Y-101750000D01*
D36*
X107037500Y-98787500D02*
X107250000Y-99000000D01*
D35*
X115250000Y-96500000D02*
X113250000Y-98500000D01*
X116250000Y-93500000D02*
X116250000Y-92862500D01*
D36*
X112500000Y-99250000D02*
X111750000Y-99250000D01*
D35*
X113250000Y-98500000D02*
X112500000Y-99250000D01*
X113500000Y-105000000D02*
X113500000Y-105387500D01*
X115500000Y-95087500D02*
X115500000Y-94250000D01*
X114000000Y-101750000D02*
X114000000Y-103412500D01*
D36*
X106250000Y-98787500D02*
X107037500Y-98787500D01*
X107250000Y-99000000D02*
X107250000Y-99250000D01*
D35*
X115500000Y-94250000D02*
X116250000Y-93500000D01*
X114000000Y-104500000D02*
X113500000Y-105000000D01*
X115500000Y-96250000D02*
X115250000Y-96500000D01*
D34*
%TO.N,/VIN*%
X103950000Y-91800000D02*
X104250000Y-91500000D01*
X103950000Y-93700000D02*
X103950000Y-91800000D01*
D36*
X106262500Y-92287500D02*
X106250000Y-92275000D01*
X107750000Y-92287500D02*
X106262500Y-92287500D01*
D34*
X104250000Y-91500000D02*
X106000000Y-91500000D01*
X103950000Y-95450000D02*
X103950000Y-93700000D01*
X106000000Y-91500000D02*
X106250000Y-91750000D01*
X106250000Y-91750000D02*
X106250000Y-92275000D01*
X106250000Y-93775000D02*
X106250000Y-92275000D01*
D35*
%TO.N,/VBUS*%
X110500000Y-88040000D02*
X113000000Y-88040000D01*
X109257500Y-90712500D02*
X108250000Y-90712500D01*
X110250000Y-89020000D02*
X110250000Y-89720000D01*
X110500000Y-87320000D02*
X110500000Y-88040000D01*
X110500000Y-88040000D02*
X110250000Y-88290000D01*
X112750000Y-89020000D02*
X112750000Y-88290000D01*
X113000000Y-87320000D02*
X113000000Y-88040000D01*
X112750000Y-88290000D02*
X113000000Y-88040000D01*
X110250000Y-89020000D02*
X110250000Y-88290000D01*
X110250000Y-89720000D02*
X109257500Y-90712500D01*
X112750000Y-88290000D02*
X110250000Y-88290000D01*
D34*
%TO.N,Net-(C12-Pad1)*%
X120575000Y-102000000D02*
X121925000Y-102000000D01*
X120575000Y-103500000D02*
X121975000Y-103500000D01*
X119500000Y-105475000D02*
X119500000Y-104750000D01*
X121925000Y-102000000D02*
X121925000Y-103450000D01*
X119500000Y-104750000D02*
X119750000Y-104500000D01*
X119750000Y-104500000D02*
X119750000Y-103750000D01*
X120000000Y-103500000D02*
X120575000Y-103500000D01*
X119750000Y-103750000D02*
X120000000Y-103500000D01*
X121925000Y-103450000D02*
X121975000Y-103500000D01*
D35*
%TO.N,Net-(C14-Pad1)*%
X120975000Y-91225000D02*
X120250000Y-90500000D01*
X120250000Y-90500000D02*
X119575000Y-90500000D01*
X120975000Y-92000000D02*
X120975000Y-91225000D01*
D34*
%TO.N,*%
X116186396Y-85050000D02*
X116461396Y-85325000D01*
X111000000Y-86783884D02*
X110725000Y-86508884D01*
X110725000Y-86508884D02*
X110725000Y-85991116D01*
X110725000Y-85991116D02*
X111216116Y-85500000D01*
X114063604Y-85050000D02*
X116186396Y-85050000D01*
X116461396Y-85325000D02*
X117750000Y-85325000D01*
X113613604Y-85500000D02*
X114063604Y-85050000D01*
X111216116Y-85500000D02*
X113613604Y-85500000D01*
X111000000Y-87320000D02*
X111000000Y-86783884D01*
X114250000Y-85500000D02*
X116000000Y-85500000D01*
X112649500Y-89942499D02*
X112250000Y-89542999D01*
X112250000Y-89542999D02*
X112250000Y-89020000D01*
X117175000Y-86675000D02*
X117750000Y-86675000D01*
X116000000Y-85500000D02*
X117175000Y-86675000D01*
X113500000Y-86250000D02*
X114250000Y-85500000D01*
%TO.N,/USART-RX*%
X112500000Y-94113604D02*
X113250000Y-93363604D01*
X113250000Y-93363604D02*
X113250000Y-92912500D01*
X112500000Y-95087500D02*
X112500000Y-94113604D01*
%TO.N,Net-(Q1B-C2)*%
X117162500Y-110750000D02*
X117500000Y-110412500D01*
X114800000Y-110150000D02*
X114800000Y-110550000D01*
X114800000Y-110550000D02*
X115000000Y-110750000D01*
X115000000Y-110750000D02*
X117162500Y-110750000D01*
X117500000Y-110412500D02*
X118000000Y-110412500D01*
%TO.N,Net-(Q1A-C1)*%
X117925000Y-107075000D02*
X118000000Y-107075000D01*
X116700000Y-108850000D02*
X116700000Y-108300000D01*
X116700000Y-108300000D02*
X117925000Y-107075000D01*
%TO.N,/USART-TX*%
X113500000Y-93750000D02*
X114500000Y-93750000D01*
X114750000Y-93500000D02*
X114750000Y-92912500D01*
X113000000Y-94250000D02*
X113500000Y-93750000D01*
X114500000Y-93750000D02*
X114750000Y-93500000D01*
X113000000Y-95087500D02*
X113000000Y-94250000D01*
%TO.N,/PTT1*%
X116500000Y-104750000D02*
X116500000Y-105337500D01*
X115250000Y-104500000D02*
X116250000Y-104500000D01*
X116250000Y-104500000D02*
X116500000Y-104750000D01*
X115000000Y-104250000D02*
X115250000Y-104500000D01*
X115000000Y-103412500D02*
X115000000Y-104250000D01*
%TO.N,/PTT2*%
X115000000Y-104886396D02*
X115000000Y-105425000D01*
X114500000Y-103412500D02*
X114500000Y-104386396D01*
X114500000Y-104386396D02*
X115000000Y-104886396D01*
D35*
%TO.N,/AFIN*%
X118750000Y-97750000D02*
X118750000Y-97050000D01*
D34*
X119000000Y-92000000D02*
X119525000Y-92000000D01*
X117925000Y-90500000D02*
X118500000Y-90500000D01*
X118750000Y-90750000D02*
X118750000Y-91750000D01*
D35*
X118000000Y-98500000D02*
X118750000Y-97750000D01*
X119575000Y-92050000D02*
X119525000Y-92000000D01*
X118750000Y-97050000D02*
X119575000Y-96225000D01*
X119575000Y-96225000D02*
X119575000Y-93500000D01*
X119575000Y-93500000D02*
X119575000Y-92050000D01*
X116912500Y-98500000D02*
X118000000Y-98500000D01*
D34*
X118750000Y-91750000D02*
X119000000Y-92000000D01*
X118500000Y-90500000D02*
X118750000Y-90750000D01*
%TO.N,/RADIO-MIC*%
X119500000Y-108375000D02*
X120000000Y-108875000D01*
X119500000Y-107025000D02*
X119500000Y-108375000D01*
X120000000Y-108875000D02*
X120000000Y-109750000D01*
D35*
%TO.N,/RADIO-SPK*%
X122525000Y-92000000D02*
X122525000Y-93975000D01*
D34*
X122525000Y-93975000D02*
X122500000Y-94000000D01*
%TO.N,/AFOUT*%
X118000000Y-101500000D02*
X118425000Y-101925000D01*
X116912500Y-101500000D02*
X118000000Y-101500000D01*
X118425000Y-101925000D02*
X119000000Y-101925000D01*
%TO.N,/RADIO-RX-PTT1*%
X115116116Y-90250000D02*
X114750000Y-90616116D01*
X118628536Y-89500000D02*
X117216682Y-89500000D01*
X119011829Y-89364195D02*
X118764341Y-89364195D01*
X117216682Y-89500000D02*
X116466682Y-90250000D01*
X119000000Y-110750000D02*
X119000000Y-109000000D01*
X118587500Y-108587500D02*
X118000000Y-108587500D01*
X116466682Y-90250000D02*
X115116116Y-90250000D01*
X114750000Y-90616116D02*
X114750000Y-91087500D01*
X118764341Y-89364195D02*
X118628536Y-89500000D01*
X119000000Y-109000000D02*
X118587500Y-108587500D01*
%TO.N,/RADIO-TX*%
X123250000Y-100250000D02*
X123250000Y-98750000D01*
X117030286Y-89050000D02*
X118442140Y-89050000D01*
X113500000Y-90250000D02*
X114479720Y-90250000D01*
X118944408Y-88547732D02*
X119003182Y-88547732D01*
X114479720Y-90250000D02*
X114979720Y-89750000D01*
X113250000Y-91087500D02*
X113250000Y-90500000D01*
X118442140Y-89050000D02*
X118944408Y-88547732D01*
X116330286Y-89750000D02*
X117030286Y-89050000D01*
X114979720Y-89750000D02*
X116330286Y-89750000D01*
X113250000Y-90500000D02*
X113500000Y-90250000D01*
%TO.N,/RADIO-VP-PTT2*%
X118250000Y-106250000D02*
X122000000Y-106250000D01*
X118000000Y-105337500D02*
X118000000Y-106000000D01*
X118000000Y-106000000D02*
X118250000Y-106250000D01*
%TO.N,/NRST*%
X112600000Y-105122183D02*
X113000000Y-104722183D01*
X112600000Y-107377817D02*
X112600000Y-105122183D01*
X104750000Y-109000000D02*
X104750000Y-108025000D01*
X113000000Y-110750000D02*
X113000000Y-107777817D01*
X113000000Y-107777817D02*
X112600000Y-107377817D01*
X113000000Y-104722183D02*
X113000000Y-103412500D01*
%TO.N,/SWO*%
X109390685Y-97500000D02*
X108587500Y-97500000D01*
X109750000Y-93819338D02*
X109525000Y-94044338D01*
X109525000Y-96134315D02*
X109650000Y-96259315D01*
X109525000Y-94044338D02*
X109525000Y-96134315D01*
X109650000Y-96259315D02*
X109650000Y-97240685D01*
X109650000Y-97240685D02*
X109390685Y-97500000D01*
%TO.N,/BOOT0*%
X107363604Y-100000000D02*
X106863604Y-100500000D01*
X108587500Y-100000000D02*
X107363604Y-100000000D01*
X106863604Y-100500000D02*
X106325000Y-100500000D01*
X105500000Y-101250000D02*
X106250000Y-100500000D01*
X106250000Y-100500000D02*
X106325000Y-100500000D01*
%TO.N,Net-(D1-K)*%
X105250000Y-105000000D02*
X104712500Y-105000000D01*
X105500000Y-104750000D02*
X105250000Y-105000000D01*
X104712500Y-105050000D02*
X104712500Y-102087500D01*
X105500000Y-104250000D02*
X105500000Y-104750000D01*
X104712500Y-102087500D02*
X104675000Y-102050000D01*
%TO.N,Net-(D1-A)*%
X106287500Y-105050000D02*
X106287500Y-103550000D01*
X107000000Y-103500000D02*
X106287500Y-103500000D01*
X107250000Y-103250000D02*
X107000000Y-103500000D01*
X107250000Y-102286396D02*
X107250000Y-103250000D01*
X105750000Y-103500000D02*
X106287500Y-103500000D01*
X105500000Y-103250000D02*
X105750000Y-103500000D01*
X107525000Y-102011396D02*
X107250000Y-102286396D01*
X105500000Y-102750000D02*
X105500000Y-103250000D01*
X107525000Y-101111396D02*
X107525000Y-102011396D01*
X108587500Y-101000000D02*
X107636396Y-101000000D01*
X107636396Y-101000000D02*
X107525000Y-101111396D01*
%TO.N,Net-(U2-PB8)*%
X106900000Y-102000000D02*
X106325000Y-102000000D01*
X108587500Y-100500000D02*
X107500000Y-100500000D01*
X107500000Y-100500000D02*
X107075000Y-100925000D01*
X107075000Y-100925000D02*
X107075000Y-101825000D01*
X107075000Y-101825000D02*
X106900000Y-102000000D01*
%TO.N,Net-(Q1A-B1)*%
X115000000Y-107075000D02*
X115000000Y-107750000D01*
X115224695Y-109500000D02*
X115500000Y-109224695D01*
X114800000Y-109500000D02*
X115224695Y-109500000D01*
X115000000Y-107750000D02*
X115500000Y-108250000D01*
X115500000Y-109224695D02*
X115500000Y-108250000D01*
%TO.N,Net-(Q1B-B2)*%
X116700000Y-109500000D02*
X116310661Y-109500000D01*
X116000000Y-109189339D02*
X116000000Y-108250000D01*
X116500000Y-107075000D02*
X116500000Y-107750000D01*
X116310661Y-109500000D02*
X116000000Y-109189339D01*
X116500000Y-107750000D02*
X116000000Y-108250000D01*
%TO.N,Net-(U1-VOUT2)*%
X105500000Y-96500000D02*
X105500000Y-97175000D01*
X105750000Y-95725000D02*
X105750000Y-96250000D01*
X105500000Y-97175000D02*
X105537500Y-97212500D01*
D36*
X106250000Y-97212500D02*
X105537500Y-97212500D01*
X105537500Y-97212500D02*
X104762500Y-97212500D01*
X104762500Y-97212500D02*
X104750000Y-97225000D01*
D34*
X105750000Y-96250000D02*
X105500000Y-96500000D01*
%TO.N,/DAC_ATTEN*%
X116912500Y-102000000D02*
X117750000Y-102000000D01*
X117750000Y-102000000D02*
X118000000Y-102250000D01*
X118500000Y-103500000D02*
X118925000Y-103500000D01*
X118000000Y-102250000D02*
X118000000Y-103000000D01*
X118000000Y-103000000D02*
X118500000Y-103500000D01*
%TD*%
%TA.AperFunction,Conductor*%
%TO.N,GND*%
G36*
X103679593Y-95633725D02*
G01*
X103685236Y-95642416D01*
X103688117Y-95647406D01*
X103688119Y-95647415D01*
X103688122Y-95647414D01*
X103689532Y-95649858D01*
X103689538Y-95649865D01*
X103739534Y-95699862D01*
X104025137Y-95985464D01*
X104025142Y-95985468D01*
X104099357Y-96028316D01*
X104099355Y-96028316D01*
X104099359Y-96028317D01*
X104099361Y-96028318D01*
X104182147Y-96050500D01*
X104267853Y-96050500D01*
X104340687Y-96050500D01*
X104398878Y-96069407D01*
X104434842Y-96118907D01*
X104437785Y-96130188D01*
X104439759Y-96140115D01*
X104439760Y-96140118D01*
X104492821Y-96219529D01*
X104497888Y-96227112D01*
X104584883Y-96285240D01*
X104661599Y-96300500D01*
X104838400Y-96300499D01*
X104915117Y-96285240D01*
X104944998Y-96265273D01*
X105003886Y-96248665D01*
X105039733Y-96256912D01*
X105047734Y-96260418D01*
X105084883Y-96285240D01*
X105120590Y-96292342D01*
X105130445Y-96296661D01*
X105145650Y-96310190D01*
X105163409Y-96320136D01*
X105167987Y-96330066D01*
X105176155Y-96337334D01*
X105180503Y-96357215D01*
X105189026Y-96375701D01*
X105187915Y-96391100D01*
X105189229Y-96397106D01*
X105187138Y-96401877D01*
X105186339Y-96412959D01*
X105174500Y-96457144D01*
X105174500Y-96480919D01*
X105155593Y-96539110D01*
X105106093Y-96575074D01*
X105060015Y-96578700D01*
X105033494Y-96574500D01*
X105033488Y-96574500D01*
X104466512Y-96574500D01*
X104466510Y-96574500D01*
X104366874Y-96590281D01*
X104366867Y-96590283D01*
X104246782Y-96651470D01*
X104151470Y-96746782D01*
X104090283Y-96866867D01*
X104090281Y-96866874D01*
X104074500Y-96966510D01*
X104074500Y-97483489D01*
X104077386Y-97501712D01*
X104089722Y-97579599D01*
X104090281Y-97583125D01*
X104090283Y-97583132D01*
X104149191Y-97698744D01*
X104151472Y-97703220D01*
X104246780Y-97798528D01*
X104246782Y-97798529D01*
X104366867Y-97859716D01*
X104366869Y-97859716D01*
X104366874Y-97859719D01*
X104442541Y-97871703D01*
X104466510Y-97875500D01*
X104466512Y-97875500D01*
X105033490Y-97875500D01*
X105054885Y-97872111D01*
X105133126Y-97859719D01*
X105253220Y-97798528D01*
X105348528Y-97703220D01*
X105348529Y-97703217D01*
X105354037Y-97697710D01*
X105355071Y-97698744D01*
X105360781Y-97694596D01*
X105370001Y-97681907D01*
X105384911Y-97677062D01*
X105397594Y-97667847D01*
X105428192Y-97663000D01*
X105478191Y-97663000D01*
X105591584Y-97663000D01*
X105649775Y-97681907D01*
X105661581Y-97691990D01*
X105744249Y-97774658D01*
X105854341Y-97830753D01*
X105860399Y-97833840D01*
X105862580Y-97834951D01*
X105929130Y-97845491D01*
X105960751Y-97850500D01*
X105960754Y-97850500D01*
X106539249Y-97850500D01*
X106569849Y-97845653D01*
X106637420Y-97834951D01*
X106755751Y-97774658D01*
X106791295Y-97739113D01*
X106845809Y-97711337D01*
X106906241Y-97720908D01*
X106931297Y-97739111D01*
X106942686Y-97750500D01*
X106942688Y-97750501D01*
X106942690Y-97750503D01*
X107056810Y-97816390D01*
X107056808Y-97816390D01*
X107056812Y-97816391D01*
X107056814Y-97816392D01*
X107184108Y-97850500D01*
X107184110Y-97850500D01*
X107315890Y-97850500D01*
X107315892Y-97850500D01*
X107443186Y-97816392D01*
X107505351Y-97780500D01*
X107565198Y-97767779D01*
X107621094Y-97792665D01*
X107651687Y-97845653D01*
X107653817Y-97868846D01*
X107653594Y-97877282D01*
X107649500Y-97897867D01*
X107649500Y-98032544D01*
X107649466Y-98033859D01*
X107639663Y-98061524D01*
X107630593Y-98089441D01*
X107629487Y-98090244D01*
X107629031Y-98091532D01*
X107604854Y-98108141D01*
X107581093Y-98125405D01*
X107579725Y-98125405D01*
X107578600Y-98126178D01*
X107549270Y-98125405D01*
X107519907Y-98125405D01*
X107518059Y-98124582D01*
X107517436Y-98124566D01*
X107516625Y-98123944D01*
X107501000Y-98116987D01*
X107443187Y-98083608D01*
X107400754Y-98072238D01*
X107315892Y-98049500D01*
X107184108Y-98049500D01*
X107106200Y-98070375D01*
X107056809Y-98083609D01*
X106942690Y-98149496D01*
X106942685Y-98149500D01*
X106879883Y-98212302D01*
X106825366Y-98240079D01*
X106764934Y-98230507D01*
X106760224Y-98227621D01*
X106637423Y-98165050D01*
X106637420Y-98165049D01*
X106612876Y-98161161D01*
X106539249Y-98149500D01*
X106539246Y-98149500D01*
X105960754Y-98149500D01*
X105960751Y-98149500D01*
X105862580Y-98165049D01*
X105862576Y-98165050D01*
X105744250Y-98225341D01*
X105650341Y-98319250D01*
X105601572Y-98414964D01*
X105558307Y-98458228D01*
X105497875Y-98467799D01*
X105443359Y-98440021D01*
X105419918Y-98402715D01*
X105397874Y-98339715D01*
X105318216Y-98231785D01*
X105318214Y-98231783D01*
X105210284Y-98152125D01*
X105083661Y-98107819D01*
X105053602Y-98105000D01*
X104925001Y-98105000D01*
X104925000Y-98105001D01*
X104925000Y-99444999D01*
X104925001Y-99445000D01*
X105053601Y-99445000D01*
X105053602Y-99444999D01*
X105083661Y-99442180D01*
X105210284Y-99397874D01*
X105318214Y-99318216D01*
X105318216Y-99318214D01*
X105397874Y-99210283D01*
X105414731Y-99162107D01*
X105451795Y-99113426D01*
X105510395Y-99095828D01*
X105568148Y-99116035D01*
X105596385Y-99149857D01*
X105641083Y-99237579D01*
X105650342Y-99255751D01*
X105744249Y-99349658D01*
X105862580Y-99409951D01*
X105928503Y-99420392D01*
X105960751Y-99425500D01*
X105960754Y-99425500D01*
X106539249Y-99425500D01*
X106567803Y-99420976D01*
X106637420Y-99409951D01*
X106651841Y-99402602D01*
X106712271Y-99393029D01*
X106766789Y-99420805D01*
X106782524Y-99441311D01*
X106849496Y-99557309D01*
X106849498Y-99557311D01*
X106849500Y-99557314D01*
X106942686Y-99650500D01*
X106942688Y-99650501D01*
X107027541Y-99699492D01*
X107046357Y-99720390D01*
X107066249Y-99740282D01*
X107066672Y-99742952D01*
X107068481Y-99744962D01*
X107071420Y-99772931D01*
X107075821Y-99800714D01*
X107074593Y-99803123D01*
X107074876Y-99805812D01*
X107048044Y-99855231D01*
X106954838Y-99948438D01*
X106900322Y-99976216D01*
X106839889Y-99966645D01*
X106814833Y-99948441D01*
X106763342Y-99896950D01*
X106650304Y-99839354D01*
X106650305Y-99839354D01*
X106556522Y-99824500D01*
X106093479Y-99824500D01*
X106093476Y-99824501D01*
X105999700Y-99839352D01*
X105999695Y-99839354D01*
X105886659Y-99896949D01*
X105796949Y-99986659D01*
X105739354Y-100099695D01*
X105724500Y-100193478D01*
X105724500Y-100524165D01*
X105722031Y-100531762D01*
X105723281Y-100539652D01*
X105712757Y-100560306D01*
X105705593Y-100582356D01*
X105695504Y-100594168D01*
X105569170Y-100720503D01*
X105514653Y-100748281D01*
X105499166Y-100749500D01*
X105434107Y-100749500D01*
X105419618Y-100753382D01*
X105358516Y-100750177D01*
X105310968Y-100711669D01*
X105302257Y-100682258D01*
X105294999Y-100675000D01*
X104055002Y-100675000D01*
X104055001Y-100675001D01*
X104055001Y-100808057D01*
X104070575Y-100906400D01*
X104070577Y-100906405D01*
X104130976Y-101024944D01*
X104225054Y-101119022D01*
X104330465Y-101172732D01*
X104373730Y-101215997D01*
X104383301Y-101276429D01*
X104355523Y-101330946D01*
X104330466Y-101349151D01*
X104236659Y-101396949D01*
X104146949Y-101486659D01*
X104089354Y-101599695D01*
X104074500Y-101693477D01*
X104074500Y-102306520D01*
X104074501Y-102306523D01*
X104089352Y-102400299D01*
X104089354Y-102400304D01*
X104146950Y-102513342D01*
X104236658Y-102603050D01*
X104332946Y-102652111D01*
X104349336Y-102668501D01*
X104368093Y-102682129D01*
X104370561Y-102689726D01*
X104376210Y-102695375D01*
X104387000Y-102740320D01*
X104387000Y-102766939D01*
X104368093Y-102825130D01*
X104332946Y-102855148D01*
X104244250Y-102900341D01*
X104150341Y-102994250D01*
X104090050Y-103112576D01*
X104090049Y-103112580D01*
X104074500Y-103210751D01*
X104074500Y-103789248D01*
X104090049Y-103887419D01*
X104090050Y-103887423D01*
X104127175Y-103960284D01*
X104150342Y-104005751D01*
X104244249Y-104099658D01*
X104332947Y-104144852D01*
X104349336Y-104161241D01*
X104368093Y-104174869D01*
X104370561Y-104182466D01*
X104376210Y-104188115D01*
X104387000Y-104233060D01*
X104387000Y-104266939D01*
X104368093Y-104325130D01*
X104332946Y-104355148D01*
X104244250Y-104400341D01*
X104150341Y-104494250D01*
X104090050Y-104612576D01*
X104090049Y-104612580D01*
X104074500Y-104710751D01*
X104074500Y-105289248D01*
X104090049Y-105387419D01*
X104090050Y-105387423D01*
X104148243Y-105501631D01*
X104150342Y-105505751D01*
X104244249Y-105599658D01*
X104296979Y-105626525D01*
X104350142Y-105653614D01*
X104393406Y-105696879D01*
X104402977Y-105757311D01*
X104375199Y-105811827D01*
X104337894Y-105835267D01*
X104289717Y-105852124D01*
X104181785Y-105931783D01*
X104181783Y-105931785D01*
X104102125Y-106039715D01*
X104057819Y-106166338D01*
X104055000Y-106196397D01*
X104055000Y-106299999D01*
X104055001Y-106300000D01*
X105444999Y-106300000D01*
X105445000Y-106299999D01*
X105445000Y-106196399D01*
X105444999Y-106196397D01*
X105442180Y-106166338D01*
X105397874Y-106039715D01*
X105318216Y-105931785D01*
X105318214Y-105931783D01*
X105210284Y-105852125D01*
X105117641Y-105819709D01*
X105068960Y-105782643D01*
X105051363Y-105724043D01*
X105071571Y-105666291D01*
X105105389Y-105638056D01*
X105180751Y-105599658D01*
X105274658Y-105505751D01*
X105334951Y-105387420D01*
X105338130Y-105367346D01*
X105341770Y-105360201D01*
X105341776Y-105352179D01*
X105352770Y-105338611D01*
X105365904Y-105312834D01*
X105377774Y-105302703D01*
X105381943Y-105299678D01*
X105449862Y-105260465D01*
X105486520Y-105223806D01*
X105492852Y-105219213D01*
X105514871Y-105212074D01*
X105535500Y-105201564D01*
X105543423Y-105202818D01*
X105551055Y-105200345D01*
X105573067Y-105207513D01*
X105595932Y-105211135D01*
X105601604Y-105216807D01*
X105609233Y-105219292D01*
X105622827Y-105238029D01*
X105639197Y-105254399D01*
X105642056Y-105264534D01*
X105645163Y-105268816D01*
X105645158Y-105275528D01*
X105647985Y-105285547D01*
X105648891Y-105285404D01*
X105665049Y-105387419D01*
X105665050Y-105387423D01*
X105723243Y-105501631D01*
X105725342Y-105505751D01*
X105819249Y-105599658D01*
X105937580Y-105659951D01*
X106004130Y-105670491D01*
X106035751Y-105675500D01*
X106228178Y-105675500D01*
X106286369Y-105694407D01*
X106322333Y-105743907D01*
X106322333Y-105805093D01*
X106286967Y-105854155D01*
X106181785Y-105931783D01*
X106181783Y-105931785D01*
X106102125Y-106039715D01*
X106057819Y-106166338D01*
X106055000Y-106196397D01*
X106055000Y-106324999D01*
X106055001Y-106325000D01*
X106549999Y-106325000D01*
X106550000Y-106324999D01*
X106550000Y-105805001D01*
X106900000Y-105805001D01*
X106900000Y-106324999D01*
X106900001Y-106325000D01*
X107394999Y-106325000D01*
X107395000Y-106324999D01*
X107395000Y-106196399D01*
X107394999Y-106196397D01*
X107392180Y-106166338D01*
X107347874Y-106039715D01*
X107268216Y-105931785D01*
X107268214Y-105931783D01*
X107160284Y-105852125D01*
X107033661Y-105807819D01*
X107003602Y-105805000D01*
X106900001Y-105805000D01*
X106900000Y-105805001D01*
X106550000Y-105805001D01*
X106550000Y-105781776D01*
X106546348Y-105774609D01*
X106555919Y-105714177D01*
X106599184Y-105670912D01*
X106628640Y-105661341D01*
X106637420Y-105659951D01*
X106755751Y-105599658D01*
X106849658Y-105505751D01*
X106909951Y-105387420D01*
X106925500Y-105289246D01*
X106925500Y-104950001D01*
X107555000Y-104950001D01*
X107555000Y-105053602D01*
X107557819Y-105083661D01*
X107602125Y-105210284D01*
X107681783Y-105318214D01*
X107681785Y-105318216D01*
X107789715Y-105397874D01*
X107916338Y-105442180D01*
X107946397Y-105444999D01*
X107946399Y-105445000D01*
X108074999Y-105445000D01*
X108075000Y-105444999D01*
X108075000Y-104950001D01*
X108425000Y-104950001D01*
X108425000Y-105444999D01*
X108425001Y-105445000D01*
X108553601Y-105445000D01*
X108553602Y-105444999D01*
X108583661Y-105442180D01*
X108710284Y-105397874D01*
X108818214Y-105318216D01*
X108818216Y-105318214D01*
X108897874Y-105210284D01*
X108942180Y-105083661D01*
X108944999Y-105053602D01*
X108945000Y-105053601D01*
X108945000Y-104950001D01*
X108944999Y-104950000D01*
X108425001Y-104950000D01*
X108425000Y-104950001D01*
X108075000Y-104950001D01*
X108074999Y-104950000D01*
X107555001Y-104950000D01*
X107555000Y-104950001D01*
X106925500Y-104950001D01*
X106925500Y-104710754D01*
X106923780Y-104699896D01*
X106919565Y-104673281D01*
X106909951Y-104612580D01*
X106909948Y-104612575D01*
X106909948Y-104612573D01*
X106872480Y-104539038D01*
X106872479Y-104539037D01*
X106857793Y-104510215D01*
X106850752Y-104496397D01*
X107555000Y-104496397D01*
X107555000Y-104599999D01*
X107555001Y-104600000D01*
X108074999Y-104600000D01*
X108075000Y-104599999D01*
X108075000Y-104105001D01*
X108425000Y-104105001D01*
X108425000Y-104599999D01*
X108425001Y-104600000D01*
X108944999Y-104600000D01*
X108945000Y-104599999D01*
X108945000Y-104496399D01*
X108944999Y-104496397D01*
X108942180Y-104466338D01*
X108897874Y-104339715D01*
X108818216Y-104231785D01*
X108818214Y-104231783D01*
X108710284Y-104152125D01*
X108583661Y-104107819D01*
X108553602Y-104105000D01*
X108425001Y-104105000D01*
X108425000Y-104105001D01*
X108075000Y-104105001D01*
X108074999Y-104105000D01*
X107946397Y-104105000D01*
X107916338Y-104107819D01*
X107789715Y-104152125D01*
X107681785Y-104231783D01*
X107681783Y-104231785D01*
X107602125Y-104339715D01*
X107557819Y-104466338D01*
X107555000Y-104496397D01*
X106850752Y-104496397D01*
X106849658Y-104494249D01*
X106755751Y-104400342D01*
X106710992Y-104377536D01*
X106667054Y-104355148D01*
X106650664Y-104338758D01*
X106631907Y-104325130D01*
X106629438Y-104317531D01*
X106623790Y-104311883D01*
X106613000Y-104266939D01*
X106613000Y-104233060D01*
X106631907Y-104174869D01*
X106667051Y-104144852D01*
X106755751Y-104099658D01*
X106849658Y-104005751D01*
X106906924Y-103893361D01*
X106913489Y-103880477D01*
X106916488Y-103882005D01*
X106943815Y-103844402D01*
X107001998Y-103825500D01*
X107042851Y-103825500D01*
X107042853Y-103825500D01*
X107125639Y-103803318D01*
X107125641Y-103803316D01*
X107125643Y-103803316D01*
X107199857Y-103760468D01*
X107199857Y-103760467D01*
X107199862Y-103760465D01*
X107423792Y-103536534D01*
X107478307Y-103508758D01*
X107538739Y-103518329D01*
X107582004Y-103561594D01*
X107587950Y-103575950D01*
X107590283Y-103583132D01*
X107649761Y-103699862D01*
X107651472Y-103703220D01*
X107746780Y-103798528D01*
X107746782Y-103798529D01*
X107866867Y-103859716D01*
X107866869Y-103859716D01*
X107866874Y-103859719D01*
X107942541Y-103871703D01*
X107966510Y-103875500D01*
X107966512Y-103875500D01*
X108533490Y-103875500D01*
X108554885Y-103872111D01*
X108633126Y-103859719D01*
X108753220Y-103798528D01*
X108848528Y-103703220D01*
X108909719Y-103583126D01*
X108925500Y-103483488D01*
X108925500Y-102966512D01*
X108924728Y-102961640D01*
X108920000Y-102931785D01*
X108909719Y-102866874D01*
X108909716Y-102866869D01*
X108909716Y-102866867D01*
X108848529Y-102746782D01*
X108843947Y-102740475D01*
X108845844Y-102739096D01*
X108823263Y-102694776D01*
X108832834Y-102634344D01*
X108844693Y-102618027D01*
X108844016Y-102617508D01*
X108847961Y-102612365D01*
X108847965Y-102612362D01*
X108853342Y-102603049D01*
X108890816Y-102538143D01*
X108890816Y-102538141D01*
X108890818Y-102538139D01*
X108913000Y-102455353D01*
X108913000Y-102449499D01*
X108931907Y-102391309D01*
X108981407Y-102355345D01*
X109012000Y-102350500D01*
X109550500Y-102350500D01*
X109608691Y-102369407D01*
X109644655Y-102418907D01*
X109649500Y-102449500D01*
X109649500Y-104102129D01*
X109649501Y-104102136D01*
X109665484Y-104182494D01*
X109665485Y-104182496D01*
X109703598Y-104239535D01*
X109726376Y-104273624D01*
X109817505Y-104334515D01*
X109897867Y-104350500D01*
X110102132Y-104350499D01*
X110182495Y-104334515D01*
X110194996Y-104326161D01*
X110253883Y-104309551D01*
X110305000Y-104326159D01*
X110317505Y-104334515D01*
X110397867Y-104350500D01*
X110602132Y-104350499D01*
X110682495Y-104334515D01*
X110694996Y-104326161D01*
X110753883Y-104309551D01*
X110805000Y-104326159D01*
X110817505Y-104334515D01*
X110897867Y-104350500D01*
X111102132Y-104350499D01*
X111182495Y-104334515D01*
X111194996Y-104326161D01*
X111253883Y-104309551D01*
X111284921Y-104315839D01*
X111295553Y-104319846D01*
X111317505Y-104334515D01*
X111353407Y-104341656D01*
X111361025Y-104344528D01*
X111378865Y-104358797D01*
X111398801Y-104369962D01*
X111402293Y-104377536D01*
X111408806Y-104382746D01*
X111414851Y-104404777D01*
X111424418Y-104425527D01*
X111422790Y-104433707D01*
X111424998Y-104441750D01*
X111416939Y-104463126D01*
X111412482Y-104485537D01*
X111404532Y-104496038D01*
X111403415Y-104499002D01*
X111401171Y-104500478D01*
X111396108Y-104507167D01*
X111257774Y-104645503D01*
X111203258Y-104673281D01*
X111187770Y-104674500D01*
X110320751Y-104674500D01*
X110279358Y-104685591D01*
X110237964Y-104696682D01*
X110205871Y-104715210D01*
X110205872Y-104715211D01*
X110163741Y-104739535D01*
X108947514Y-105955760D01*
X108892998Y-105983537D01*
X108832566Y-105973966D01*
X108807510Y-105955762D01*
X108753220Y-105901472D01*
X108753217Y-105901470D01*
X108633132Y-105840283D01*
X108633127Y-105840281D01*
X108633126Y-105840281D01*
X108587951Y-105833126D01*
X108533490Y-105824500D01*
X108533488Y-105824500D01*
X108016512Y-105824500D01*
X108016510Y-105824500D01*
X107916874Y-105840281D01*
X107916867Y-105840283D01*
X107796782Y-105901470D01*
X107701470Y-105996782D01*
X107640283Y-106116867D01*
X107640281Y-106116874D01*
X107624500Y-106216510D01*
X107624500Y-106783489D01*
X107640281Y-106883125D01*
X107640283Y-106883132D01*
X107701470Y-107003217D01*
X107701472Y-107003220D01*
X107796780Y-107098528D01*
X107796782Y-107098529D01*
X107916867Y-107159716D01*
X107916869Y-107159716D01*
X107916874Y-107159719D01*
X107936329Y-107162800D01*
X107990845Y-107190577D01*
X108006579Y-107211082D01*
X108014535Y-107224862D01*
X108395505Y-107605832D01*
X108399130Y-107612947D01*
X108405593Y-107617643D01*
X108412756Y-107639691D01*
X108423281Y-107660347D01*
X108424500Y-107675834D01*
X108424500Y-107750500D01*
X108405593Y-107808691D01*
X108356093Y-107844655D01*
X108325500Y-107849500D01*
X106380252Y-107849500D01*
X106380251Y-107849500D01*
X106380241Y-107849501D01*
X106321772Y-107861132D01*
X106321766Y-107861134D01*
X106255451Y-107905445D01*
X106255445Y-107905451D01*
X106211134Y-107971766D01*
X106211132Y-107971772D01*
X106199501Y-108030241D01*
X106199500Y-108030253D01*
X106199500Y-110469746D01*
X106199501Y-110469758D01*
X106211132Y-110528227D01*
X106211134Y-110528233D01*
X106255445Y-110594548D01*
X106255448Y-110594552D01*
X106321769Y-110638867D01*
X106366231Y-110647711D01*
X106380241Y-110650498D01*
X106380246Y-110650498D01*
X106380252Y-110650500D01*
X106380253Y-110650500D01*
X108419747Y-110650500D01*
X108419748Y-110650500D01*
X108478231Y-110638867D01*
X108544552Y-110594552D01*
X108588867Y-110528231D01*
X108600500Y-110469748D01*
X108600500Y-109624988D01*
X108619407Y-109566798D01*
X108649999Y-109539253D01*
X108699862Y-109510465D01*
X109010465Y-109199862D01*
X109053317Y-109125639D01*
X109053318Y-109125638D01*
X109075500Y-109042853D01*
X109075500Y-107457147D01*
X109053318Y-107374362D01*
X109010465Y-107300138D01*
X108993815Y-107283488D01*
X108949862Y-107239534D01*
X108949862Y-107239535D01*
X108851041Y-107140714D01*
X108823264Y-107086197D01*
X108832754Y-107025925D01*
X108839888Y-107011859D01*
X108848528Y-107003220D01*
X108909719Y-106883126D01*
X108911776Y-106870134D01*
X108918827Y-106856235D01*
X108929951Y-106845069D01*
X108937107Y-106831023D01*
X108953213Y-106821723D01*
X108962013Y-106812892D01*
X108971004Y-106811451D01*
X108981495Y-106805393D01*
X108989243Y-106803318D01*
X109063466Y-106760465D01*
X109405498Y-106418432D01*
X109460013Y-106390657D01*
X109520445Y-106400228D01*
X109563710Y-106443493D01*
X109574500Y-106488438D01*
X109574500Y-106783489D01*
X109590281Y-106883125D01*
X109590283Y-106883132D01*
X109651470Y-107003217D01*
X109656053Y-107009525D01*
X109654154Y-107010903D01*
X109676736Y-107055223D01*
X109667165Y-107115655D01*
X109648959Y-107140713D01*
X109489535Y-107300137D01*
X109446680Y-107374364D01*
X109446679Y-107374366D01*
X109439731Y-107400302D01*
X109439731Y-107400303D01*
X109439731Y-107400304D01*
X109424500Y-107457147D01*
X109424500Y-108957147D01*
X109424500Y-109042853D01*
X109443386Y-109113339D01*
X109446683Y-109125643D01*
X109489531Y-109199857D01*
X109489535Y-109199862D01*
X109739533Y-109449861D01*
X109739534Y-109449861D01*
X109739535Y-109449862D01*
X109739534Y-109449862D01*
X109774129Y-109484456D01*
X109800138Y-109510465D01*
X109850001Y-109539253D01*
X109890940Y-109584720D01*
X109899500Y-109624988D01*
X109899500Y-110469746D01*
X109899501Y-110469758D01*
X109911132Y-110528227D01*
X109911134Y-110528233D01*
X109955445Y-110594548D01*
X109955448Y-110594552D01*
X110021769Y-110638867D01*
X110066231Y-110647711D01*
X110080241Y-110650498D01*
X110080246Y-110650498D01*
X110080252Y-110650500D01*
X110080253Y-110650500D01*
X112119747Y-110650500D01*
X112119748Y-110650500D01*
X112178231Y-110638867D01*
X112244552Y-110594552D01*
X112288867Y-110528231D01*
X112300500Y-110469748D01*
X112300500Y-108030252D01*
X112288867Y-107971769D01*
X112244552Y-107905448D01*
X112244548Y-107905445D01*
X112178233Y-107861134D01*
X112178231Y-107861133D01*
X112178228Y-107861132D01*
X112178227Y-107861132D01*
X112119758Y-107849501D01*
X112119748Y-107849500D01*
X110174500Y-107849500D01*
X110159588Y-107844655D01*
X110143907Y-107844655D01*
X110131221Y-107835438D01*
X110116309Y-107830593D01*
X110107092Y-107817907D01*
X110094407Y-107808691D01*
X110089561Y-107793778D01*
X110080345Y-107781093D01*
X110075500Y-107750500D01*
X110075500Y-107675834D01*
X110094407Y-107617643D01*
X110104490Y-107605836D01*
X110485465Y-107224862D01*
X110493422Y-107211080D01*
X110538888Y-107170140D01*
X110563663Y-107162801D01*
X110583126Y-107159719D01*
X110703220Y-107098528D01*
X110798528Y-107003220D01*
X110859719Y-106883126D01*
X110875500Y-106783488D01*
X110875500Y-106675001D01*
X111105000Y-106675001D01*
X111105000Y-106803602D01*
X111107819Y-106833661D01*
X111152125Y-106960284D01*
X111231783Y-107068214D01*
X111231785Y-107068216D01*
X111339715Y-107147874D01*
X111466338Y-107192180D01*
X111496397Y-107194999D01*
X111496399Y-107195000D01*
X111599999Y-107195000D01*
X111600000Y-107194999D01*
X111600000Y-106675001D01*
X111599999Y-106675000D01*
X111105001Y-106675000D01*
X111105000Y-106675001D01*
X110875500Y-106675001D01*
X110875500Y-106216512D01*
X110859719Y-106116874D01*
X110859716Y-106116869D01*
X110859716Y-106116867D01*
X110798529Y-105996782D01*
X110798528Y-105996780D01*
X110746249Y-105944501D01*
X110718474Y-105889987D01*
X110728045Y-105829555D01*
X110771310Y-105786290D01*
X110816255Y-105775500D01*
X111151019Y-105775500D01*
X111209210Y-105794407D01*
X111245174Y-105843907D01*
X111245174Y-105905093D01*
X111230674Y-105933289D01*
X111152125Y-106039715D01*
X111107819Y-106166338D01*
X111105000Y-106196397D01*
X111105000Y-106324999D01*
X111105001Y-106325000D01*
X111676000Y-106325000D01*
X111734191Y-106343907D01*
X111770155Y-106393407D01*
X111775000Y-106424000D01*
X111775000Y-106499999D01*
X111775001Y-106500000D01*
X111851000Y-106500000D01*
X111909191Y-106518907D01*
X111945155Y-106568407D01*
X111950000Y-106599000D01*
X111950000Y-107194999D01*
X111950001Y-107195000D01*
X112053601Y-107195000D01*
X112053602Y-107194999D01*
X112083663Y-107192180D01*
X112142802Y-107171487D01*
X112203972Y-107170114D01*
X112254267Y-107204958D01*
X112274475Y-107262709D01*
X112274500Y-107264931D01*
X112274500Y-107334964D01*
X112274500Y-107420670D01*
X112294062Y-107493680D01*
X112296683Y-107503460D01*
X112339531Y-107577674D01*
X112339533Y-107577676D01*
X112339535Y-107577679D01*
X112645505Y-107883649D01*
X112673281Y-107938164D01*
X112674500Y-107953651D01*
X112674500Y-110326678D01*
X112655593Y-110384869D01*
X112645504Y-110396681D01*
X112599500Y-110442684D01*
X112599496Y-110442690D01*
X112533609Y-110556809D01*
X112533608Y-110556814D01*
X112499500Y-110684108D01*
X112499500Y-110815892D01*
X112499867Y-110817261D01*
X112533609Y-110943190D01*
X112599496Y-111057309D01*
X112599498Y-111057311D01*
X112599500Y-111057314D01*
X112692686Y-111150500D01*
X112692688Y-111150501D01*
X112692690Y-111150503D01*
X112806810Y-111216390D01*
X112806808Y-111216390D01*
X112806812Y-111216391D01*
X112806814Y-111216392D01*
X112934108Y-111250500D01*
X112934110Y-111250500D01*
X113065890Y-111250500D01*
X113065892Y-111250500D01*
X113193186Y-111216392D01*
X113193188Y-111216390D01*
X113193190Y-111216390D01*
X113307309Y-111150503D01*
X113307309Y-111150502D01*
X113307314Y-111150500D01*
X113400500Y-111057314D01*
X113421139Y-111021567D01*
X113466390Y-110943190D01*
X113466390Y-110943188D01*
X113466392Y-110943186D01*
X113500500Y-110815892D01*
X113500500Y-110684108D01*
X113466392Y-110556814D01*
X113466390Y-110556811D01*
X113466390Y-110556809D01*
X113400503Y-110442690D01*
X113400499Y-110442684D01*
X113354496Y-110396681D01*
X113326719Y-110342164D01*
X113325500Y-110326678D01*
X113325500Y-108628334D01*
X114255000Y-108628334D01*
X114255000Y-108674999D01*
X114255001Y-108675000D01*
X114624999Y-108675000D01*
X114625000Y-108674999D01*
X114625000Y-108430001D01*
X114624999Y-108430000D01*
X114453336Y-108430000D01*
X114453328Y-108430001D01*
X114389160Y-108442764D01*
X114389158Y-108442765D01*
X114316391Y-108491387D01*
X114316387Y-108491391D01*
X114267767Y-108564156D01*
X114267764Y-108564163D01*
X114255001Y-108628322D01*
X114255000Y-108628334D01*
X113325500Y-108628334D01*
X113325500Y-107732305D01*
X113325000Y-107724677D01*
X113325000Y-106355001D01*
X113324999Y-106355000D01*
X113196397Y-106355000D01*
X113166338Y-106357819D01*
X113057197Y-106396009D01*
X113056034Y-106396035D01*
X113055093Y-106396719D01*
X113025542Y-106396719D01*
X112996027Y-106397381D01*
X112995071Y-106396719D01*
X112993907Y-106396719D01*
X112969995Y-106379346D01*
X112945733Y-106362537D01*
X112945348Y-106361439D01*
X112944407Y-106360755D01*
X112935276Y-106332653D01*
X112925525Y-106304785D01*
X112925500Y-106302564D01*
X112925500Y-106173762D01*
X112944407Y-106115571D01*
X112993907Y-106079607D01*
X113055093Y-106079607D01*
X113069443Y-106085552D01*
X113116874Y-106109719D01*
X113192541Y-106121703D01*
X113216510Y-106125500D01*
X113216512Y-106125500D01*
X113783490Y-106125500D01*
X113804885Y-106122111D01*
X113883126Y-106109719D01*
X114003220Y-106048528D01*
X114098528Y-105953220D01*
X114159719Y-105833126D01*
X114164659Y-105801931D01*
X114192436Y-105747416D01*
X114246952Y-105719638D01*
X114307384Y-105729209D01*
X114350649Y-105772473D01*
X114381553Y-105833124D01*
X114396950Y-105863342D01*
X114486658Y-105953050D01*
X114599696Y-106010646D01*
X114693481Y-106025500D01*
X115306518Y-106025499D01*
X115306520Y-106025499D01*
X115306521Y-106025498D01*
X115353411Y-106018072D01*
X115400299Y-106010647D01*
X115400299Y-106010646D01*
X115400304Y-106010646D01*
X115513342Y-105953050D01*
X115603050Y-105863342D01*
X115631341Y-105807819D01*
X115661791Y-105748058D01*
X115705055Y-105704793D01*
X115765487Y-105695222D01*
X115820004Y-105723000D01*
X115838209Y-105748058D01*
X115896948Y-105863339D01*
X115896950Y-105863342D01*
X115986658Y-105953050D01*
X116099696Y-106010646D01*
X116193481Y-106025500D01*
X116806518Y-106025499D01*
X116806520Y-106025499D01*
X116806521Y-106025498D01*
X116853411Y-106018072D01*
X116900299Y-106010647D01*
X116900299Y-106010646D01*
X116900304Y-106010646D01*
X117013342Y-105953050D01*
X117103050Y-105863342D01*
X117131341Y-105807819D01*
X117161791Y-105748058D01*
X117205055Y-105704793D01*
X117265487Y-105695222D01*
X117320004Y-105723000D01*
X117338209Y-105748058D01*
X117396948Y-105863339D01*
X117396950Y-105863342D01*
X117486658Y-105953050D01*
X117599696Y-106010646D01*
X117605299Y-106011533D01*
X117659815Y-106039307D01*
X117685441Y-106083690D01*
X117696681Y-106125638D01*
X117696683Y-106125642D01*
X117739531Y-106199857D01*
X117739533Y-106199859D01*
X117739535Y-106199862D01*
X117845171Y-106305498D01*
X117872947Y-106360013D01*
X117863376Y-106420445D01*
X117820111Y-106463710D01*
X117775167Y-106474500D01*
X117693479Y-106474500D01*
X117693476Y-106474501D01*
X117599700Y-106489352D01*
X117599695Y-106489354D01*
X117486659Y-106546949D01*
X117396949Y-106636659D01*
X117338209Y-106751942D01*
X117294944Y-106795206D01*
X117234512Y-106804777D01*
X117179996Y-106776999D01*
X117161791Y-106751942D01*
X117118446Y-106666874D01*
X117103050Y-106636658D01*
X117013342Y-106546950D01*
X116900304Y-106489354D01*
X116900305Y-106489354D01*
X116806522Y-106474500D01*
X116193479Y-106474500D01*
X116193476Y-106474501D01*
X116099700Y-106489352D01*
X116099695Y-106489354D01*
X115986659Y-106546949D01*
X115896949Y-106636659D01*
X115838209Y-106751942D01*
X115794944Y-106795206D01*
X115734512Y-106804777D01*
X115679996Y-106776999D01*
X115661791Y-106751942D01*
X115618446Y-106666874D01*
X115603050Y-106636658D01*
X115513342Y-106546950D01*
X115400304Y-106489354D01*
X115400305Y-106489354D01*
X115306522Y-106474500D01*
X114693479Y-106474500D01*
X114693476Y-106474501D01*
X114599700Y-106489352D01*
X114599695Y-106489354D01*
X114486659Y-106546949D01*
X114396949Y-106636659D01*
X114364175Y-106700981D01*
X114320910Y-106744245D01*
X114260478Y-106753816D01*
X114205962Y-106726038D01*
X114182521Y-106688732D01*
X114147874Y-106589715D01*
X114068216Y-106481785D01*
X114068214Y-106481783D01*
X113960284Y-106402125D01*
X113833661Y-106357819D01*
X113803602Y-106355000D01*
X113675001Y-106355000D01*
X113675000Y-106355001D01*
X113675000Y-107694999D01*
X113675001Y-107695000D01*
X113803601Y-107695000D01*
X113803602Y-107694999D01*
X113833661Y-107692180D01*
X113960284Y-107647874D01*
X114068214Y-107568216D01*
X114068216Y-107568214D01*
X114147873Y-107460284D01*
X114161776Y-107420553D01*
X114198841Y-107371872D01*
X114257441Y-107354275D01*
X114315193Y-107374483D01*
X114343430Y-107408304D01*
X114369915Y-107460284D01*
X114396950Y-107513342D01*
X114486658Y-107603050D01*
X114599696Y-107660646D01*
X114599700Y-107660646D01*
X114606085Y-107662721D01*
X114655588Y-107698681D01*
X114674500Y-107756870D01*
X114674500Y-107792853D01*
X114694062Y-107865863D01*
X114696683Y-107875643D01*
X114739531Y-107949857D01*
X114739535Y-107949862D01*
X114936623Y-108146950D01*
X115050670Y-108260996D01*
X115078448Y-108315513D01*
X115068877Y-108375945D01*
X115025612Y-108419210D01*
X114980667Y-108430000D01*
X114975001Y-108430000D01*
X114975000Y-108430001D01*
X114975000Y-108751000D01*
X114956093Y-108809191D01*
X114906593Y-108845155D01*
X114876000Y-108850000D01*
X114800001Y-108850000D01*
X114800000Y-108850001D01*
X114800000Y-108926000D01*
X114781093Y-108984191D01*
X114731593Y-109020155D01*
X114701000Y-109025000D01*
X114255002Y-109025000D01*
X114255001Y-109025001D01*
X114255001Y-109071670D01*
X114267764Y-109135839D01*
X114267765Y-109135841D01*
X114272307Y-109142638D01*
X114288916Y-109201526D01*
X114287090Y-109216953D01*
X114274500Y-109280246D01*
X114274500Y-109719746D01*
X114274501Y-109719758D01*
X114286132Y-109778230D01*
X114289814Y-109787119D01*
X114294611Y-109848116D01*
X114289814Y-109862881D01*
X114286132Y-109871769D01*
X114274501Y-109930241D01*
X114274500Y-109930253D01*
X114274500Y-110369746D01*
X114274501Y-110369758D01*
X114286132Y-110428227D01*
X114286134Y-110428233D01*
X114328129Y-110491082D01*
X114330448Y-110494552D01*
X114396769Y-110538867D01*
X114401520Y-110539812D01*
X114403218Y-110540150D01*
X114456602Y-110570047D01*
X114479529Y-110611622D01*
X114489946Y-110650498D01*
X114496683Y-110675643D01*
X114539531Y-110749857D01*
X114539535Y-110749862D01*
X114739532Y-110949860D01*
X114739533Y-110949860D01*
X114739535Y-110949862D01*
X114739534Y-110949862D01*
X114800138Y-111010465D01*
X114819366Y-111021567D01*
X114819372Y-111021569D01*
X114819376Y-111021572D01*
X114874361Y-111053318D01*
X114957144Y-111075500D01*
X114957146Y-111075501D01*
X114957147Y-111075501D01*
X115048916Y-111075501D01*
X115048932Y-111075500D01*
X117205351Y-111075500D01*
X117205353Y-111075500D01*
X117288139Y-111053318D01*
X117288141Y-111053316D01*
X117288143Y-111053316D01*
X117362362Y-111010465D01*
X117395031Y-110977796D01*
X117457736Y-110915089D01*
X117512252Y-110887312D01*
X117572684Y-110896883D01*
X117599696Y-110910646D01*
X117693481Y-110925500D01*
X118306518Y-110925499D01*
X118306520Y-110925499D01*
X118306521Y-110925498D01*
X118353411Y-110918072D01*
X118400299Y-110910647D01*
X118400301Y-110910647D01*
X118400302Y-110910646D01*
X118400304Y-110910646D01*
X118405081Y-110908211D01*
X118465512Y-110898639D01*
X118520029Y-110926416D01*
X118535763Y-110946921D01*
X118599496Y-111057309D01*
X118599498Y-111057311D01*
X118599500Y-111057314D01*
X118692686Y-111150500D01*
X118692688Y-111150501D01*
X118692690Y-111150503D01*
X118806810Y-111216390D01*
X118806808Y-111216390D01*
X118806812Y-111216391D01*
X118806814Y-111216392D01*
X118934108Y-111250500D01*
X118934110Y-111250500D01*
X119065890Y-111250500D01*
X119065892Y-111250500D01*
X119193186Y-111216392D01*
X119193189Y-111216389D01*
X119198108Y-111215072D01*
X119199420Y-111214113D01*
X119226460Y-111214026D01*
X119253421Y-111211903D01*
X119256728Y-111213929D01*
X119260605Y-111213917D01*
X119271383Y-111222908D01*
X119305592Y-111243869D01*
X119310221Y-111249722D01*
X119314339Y-111255353D01*
X119317185Y-111260676D01*
X119343530Y-111300105D01*
X119375804Y-111339431D01*
X119375934Y-111339561D01*
X119377757Y-111342053D01*
X119386486Y-111368628D01*
X119396679Y-111394672D01*
X119395953Y-111397452D01*
X119396850Y-111400182D01*
X119388291Y-111426812D01*
X119381230Y-111453875D01*
X119379009Y-111455697D01*
X119378130Y-111458434D01*
X119355544Y-111474954D01*
X119333933Y-111492690D01*
X119330380Y-111493360D01*
X119328746Y-111494556D01*
X119323965Y-111494571D01*
X119297851Y-111499500D01*
X104753893Y-111499500D01*
X104746125Y-111499195D01*
X104576837Y-111485871D01*
X104567415Y-111484672D01*
X104530622Y-111478185D01*
X104524701Y-111476954D01*
X104378938Y-111441959D01*
X104368187Y-111438723D01*
X104342247Y-111429281D01*
X104338224Y-111427716D01*
X104189935Y-111366293D01*
X104176093Y-111359240D01*
X104022206Y-111264938D01*
X104009638Y-111255807D01*
X103908748Y-111169639D01*
X103872391Y-111138587D01*
X103861412Y-111127608D01*
X103744192Y-110990361D01*
X103735063Y-110977796D01*
X103640758Y-110823904D01*
X103633705Y-110810062D01*
X103572280Y-110661768D01*
X103570715Y-110657743D01*
X103561275Y-110631807D01*
X103558042Y-110621068D01*
X103523038Y-110475271D01*
X103521815Y-110469388D01*
X103515326Y-110432585D01*
X103514128Y-110423168D01*
X103506906Y-110331405D01*
X103500805Y-110253875D01*
X103500500Y-110246108D01*
X103500500Y-110168594D01*
X103923500Y-110168594D01*
X103923500Y-110331405D01*
X103955262Y-110491080D01*
X103955262Y-110491082D01*
X104017563Y-110641492D01*
X104017563Y-110641493D01*
X104089971Y-110749857D01*
X104108016Y-110776863D01*
X104223137Y-110891984D01*
X104358505Y-110982435D01*
X104358506Y-110982435D01*
X104358507Y-110982436D01*
X104377647Y-110990364D01*
X104508919Y-111044738D01*
X104668597Y-111076500D01*
X104668598Y-111076500D01*
X104831402Y-111076500D01*
X104831403Y-111076500D01*
X104991081Y-111044738D01*
X105141495Y-110982435D01*
X105276863Y-110891984D01*
X105391984Y-110776863D01*
X105482435Y-110641495D01*
X105544738Y-110491081D01*
X105576500Y-110331403D01*
X105576500Y-110168597D01*
X105544738Y-110008919D01*
X105487929Y-109871769D01*
X105482436Y-109858507D01*
X105482436Y-109858506D01*
X105391984Y-109723137D01*
X105276862Y-109608015D01*
X105141495Y-109517565D01*
X105136078Y-109515321D01*
X105089553Y-109475586D01*
X105075268Y-109416092D01*
X105098681Y-109359563D01*
X105103947Y-109353866D01*
X105150500Y-109307314D01*
X105168868Y-109275500D01*
X105216390Y-109193190D01*
X105216390Y-109193188D01*
X105216392Y-109193186D01*
X105250500Y-109065892D01*
X105250500Y-108934108D01*
X105216392Y-108806814D01*
X105216390Y-108806810D01*
X105216390Y-108806809D01*
X105184006Y-108750719D01*
X105171284Y-108690871D01*
X105196170Y-108634975D01*
X105224795Y-108613011D01*
X105253220Y-108598528D01*
X105348528Y-108503220D01*
X105409719Y-108383126D01*
X105425500Y-108283488D01*
X105425500Y-107766512D01*
X105409719Y-107666874D01*
X105409716Y-107666869D01*
X105409716Y-107666867D01*
X105348529Y-107546782D01*
X105348528Y-107546780D01*
X105253220Y-107451472D01*
X105253217Y-107451470D01*
X105133132Y-107390283D01*
X105133127Y-107390281D01*
X105133126Y-107390281D01*
X105087951Y-107383126D01*
X105033490Y-107374500D01*
X105033488Y-107374500D01*
X104466512Y-107374500D01*
X104466510Y-107374500D01*
X104366874Y-107390281D01*
X104366867Y-107390283D01*
X104246782Y-107451470D01*
X104151470Y-107546782D01*
X104090283Y-107666867D01*
X104090281Y-107666874D01*
X104074500Y-107766510D01*
X104074500Y-108283489D01*
X104090281Y-108383125D01*
X104090283Y-108383132D01*
X104151470Y-108503217D01*
X104151472Y-108503220D01*
X104246780Y-108598528D01*
X104275203Y-108613010D01*
X104318467Y-108656274D01*
X104328038Y-108716706D01*
X104315994Y-108750718D01*
X104283609Y-108806810D01*
X104283608Y-108806814D01*
X104249500Y-108934108D01*
X104249500Y-109065892D01*
X104262214Y-109113342D01*
X104283609Y-109193190D01*
X104349496Y-109307309D01*
X104349498Y-109307311D01*
X104349500Y-109307314D01*
X104396041Y-109353855D01*
X104423817Y-109408370D01*
X104414246Y-109468802D01*
X104370981Y-109512067D01*
X104363927Y-109515319D01*
X104362216Y-109516027D01*
X104358504Y-109517565D01*
X104223137Y-109608015D01*
X104108015Y-109723137D01*
X104017563Y-109858506D01*
X104017563Y-109858507D01*
X103955262Y-110008917D01*
X103955262Y-110008919D01*
X103923500Y-110168594D01*
X103500500Y-110168594D01*
X103500500Y-106650001D01*
X104055000Y-106650001D01*
X104055000Y-106753602D01*
X104057819Y-106783661D01*
X104102125Y-106910284D01*
X104181783Y-107018214D01*
X104181785Y-107018216D01*
X104289715Y-107097874D01*
X104416338Y-107142180D01*
X104446397Y-107144999D01*
X104446399Y-107145000D01*
X104574999Y-107145000D01*
X104575000Y-107144999D01*
X104575000Y-106650001D01*
X104925000Y-106650001D01*
X104925000Y-107144999D01*
X104925001Y-107145000D01*
X105053601Y-107145000D01*
X105053602Y-107144999D01*
X105083661Y-107142180D01*
X105210284Y-107097874D01*
X105318214Y-107018216D01*
X105318216Y-107018214D01*
X105397874Y-106910284D01*
X105442180Y-106783661D01*
X105444999Y-106753602D01*
X105445000Y-106753601D01*
X105445000Y-106675001D01*
X106055000Y-106675001D01*
X106055000Y-106803602D01*
X106057819Y-106833661D01*
X106102125Y-106960284D01*
X106181783Y-107068214D01*
X106181785Y-107068216D01*
X106289715Y-107147874D01*
X106416338Y-107192180D01*
X106446397Y-107194999D01*
X106446399Y-107195000D01*
X106549999Y-107195000D01*
X106550000Y-107194999D01*
X106550000Y-106675001D01*
X106900000Y-106675001D01*
X106900000Y-107194999D01*
X106900001Y-107195000D01*
X107003601Y-107195000D01*
X107003602Y-107194999D01*
X107033661Y-107192180D01*
X107160284Y-107147874D01*
X107268214Y-107068216D01*
X107268216Y-107068214D01*
X107347874Y-106960284D01*
X107392180Y-106833661D01*
X107394999Y-106803602D01*
X107395000Y-106803601D01*
X107395000Y-106675001D01*
X107394999Y-106675000D01*
X106900001Y-106675000D01*
X106900000Y-106675001D01*
X106550000Y-106675001D01*
X106549999Y-106675000D01*
X106055001Y-106675000D01*
X106055000Y-106675001D01*
X105445000Y-106675001D01*
X105445000Y-106650001D01*
X105444999Y-106650000D01*
X104925001Y-106650000D01*
X104925000Y-106650001D01*
X104575000Y-106650001D01*
X104574999Y-106650000D01*
X104055001Y-106650000D01*
X104055000Y-106650001D01*
X103500500Y-106650001D01*
X103500500Y-100191943D01*
X104055000Y-100191943D01*
X104055000Y-100324999D01*
X104055001Y-100325000D01*
X104499999Y-100325000D01*
X104500000Y-100324999D01*
X104500000Y-99805001D01*
X104850000Y-99805001D01*
X104850000Y-100324999D01*
X104850001Y-100325000D01*
X105294998Y-100325000D01*
X105294999Y-100324999D01*
X105294999Y-100191944D01*
X105294998Y-100191942D01*
X105279424Y-100093599D01*
X105279422Y-100093594D01*
X105219023Y-99975055D01*
X105124944Y-99880976D01*
X105124945Y-99880976D01*
X105006408Y-99820578D01*
X105006404Y-99820577D01*
X104908056Y-99805000D01*
X104850001Y-99805000D01*
X104850000Y-99805001D01*
X104500000Y-99805001D01*
X104500000Y-99804999D01*
X104441946Y-99805000D01*
X104441941Y-99805001D01*
X104343599Y-99820575D01*
X104343594Y-99820577D01*
X104225055Y-99880976D01*
X104130976Y-99975055D01*
X104070578Y-100093591D01*
X104070577Y-100093595D01*
X104055000Y-100191943D01*
X103500500Y-100191943D01*
X103500500Y-98950001D01*
X104055000Y-98950001D01*
X104055000Y-99053602D01*
X104057819Y-99083661D01*
X104102125Y-99210284D01*
X104181783Y-99318214D01*
X104181785Y-99318216D01*
X104289715Y-99397874D01*
X104416338Y-99442180D01*
X104446397Y-99444999D01*
X104446399Y-99445000D01*
X104574999Y-99445000D01*
X104575000Y-99444999D01*
X104575000Y-98950001D01*
X104574999Y-98950000D01*
X104055001Y-98950000D01*
X104055000Y-98950001D01*
X103500500Y-98950001D01*
X103500500Y-98496397D01*
X104055000Y-98496397D01*
X104055000Y-98599999D01*
X104055001Y-98600000D01*
X104574999Y-98600000D01*
X104575000Y-98599999D01*
X104575000Y-98105001D01*
X104574999Y-98105000D01*
X104446397Y-98105000D01*
X104416338Y-98107819D01*
X104289715Y-98152125D01*
X104181785Y-98231783D01*
X104181783Y-98231785D01*
X104102125Y-98339715D01*
X104057819Y-98466338D01*
X104055000Y-98496397D01*
X103500500Y-98496397D01*
X103500500Y-95691916D01*
X103519407Y-95633725D01*
X103568907Y-95597761D01*
X103630093Y-95597761D01*
X103679593Y-95633725D01*
G37*
%TD.AperFunction*%
%TA.AperFunction,Conductor*%
G36*
X115812622Y-109469141D02*
G01*
X115837680Y-109487347D01*
X115975322Y-109624988D01*
X116110799Y-109760465D01*
X116118959Y-109765176D01*
X116159900Y-109810644D01*
X116166558Y-109870227D01*
X116155000Y-109928330D01*
X116155000Y-109974999D01*
X116155001Y-109975000D01*
X116601000Y-109975000D01*
X116615912Y-109979845D01*
X116631593Y-109979845D01*
X116644278Y-109989061D01*
X116659191Y-109993907D01*
X116668407Y-110006592D01*
X116681093Y-110015809D01*
X116685938Y-110030721D01*
X116695155Y-110043407D01*
X116700000Y-110074000D01*
X116700000Y-110226000D01*
X116681093Y-110284191D01*
X116631593Y-110320155D01*
X116601000Y-110325000D01*
X116155002Y-110325000D01*
X116155001Y-110325001D01*
X116155001Y-110325500D01*
X116136094Y-110383691D01*
X116086594Y-110419655D01*
X116056001Y-110424500D01*
X115424500Y-110424500D01*
X115366309Y-110405593D01*
X115330345Y-110356093D01*
X115325500Y-110325500D01*
X115325500Y-109930253D01*
X115325499Y-109930244D01*
X115319251Y-109898836D01*
X115326441Y-109838075D01*
X115366846Y-109793784D01*
X115424557Y-109760465D01*
X115697675Y-109487346D01*
X115752190Y-109459570D01*
X115812622Y-109469141D01*
G37*
%TD.AperFunction*%
%TA.AperFunction,Conductor*%
G36*
X115933691Y-100369407D02*
G01*
X115969655Y-100418907D01*
X115974500Y-100449499D01*
X115974500Y-100602129D01*
X115974501Y-100602137D01*
X115990484Y-100682494D01*
X115990486Y-100682498D01*
X115998840Y-100695001D01*
X116015447Y-100753889D01*
X115998840Y-100804999D01*
X115990485Y-100817503D01*
X115990484Y-100817504D01*
X115974500Y-100897864D01*
X115974500Y-101102129D01*
X115974501Y-101102137D01*
X115990484Y-101182494D01*
X115990486Y-101182498D01*
X115998840Y-101195001D01*
X116015447Y-101253889D01*
X115998840Y-101304999D01*
X115990485Y-101317503D01*
X115990484Y-101317504D01*
X115974500Y-101397864D01*
X115974500Y-101602129D01*
X115974501Y-101602137D01*
X115990484Y-101682494D01*
X115990486Y-101682498D01*
X115998840Y-101695001D01*
X116015447Y-101753889D01*
X115998840Y-101804999D01*
X115990485Y-101817503D01*
X115990484Y-101817504D01*
X115974500Y-101897864D01*
X115974500Y-102102129D01*
X115974501Y-102102137D01*
X115990484Y-102182494D01*
X115990485Y-102182496D01*
X116051373Y-102273620D01*
X116051376Y-102273624D01*
X116142505Y-102334515D01*
X116222867Y-102350500D01*
X117575500Y-102350499D01*
X117633691Y-102369406D01*
X117669655Y-102418906D01*
X117674500Y-102449499D01*
X117674500Y-102957147D01*
X117674500Y-103042853D01*
X117689731Y-103099696D01*
X117696683Y-103125643D01*
X117739531Y-103199857D01*
X117739533Y-103199859D01*
X117739535Y-103199862D01*
X118239533Y-103699859D01*
X118239535Y-103699862D01*
X118297674Y-103758001D01*
X118325450Y-103812516D01*
X118325450Y-103812517D01*
X118339352Y-103900300D01*
X118339354Y-103900304D01*
X118396950Y-104013342D01*
X118486658Y-104103050D01*
X118599696Y-104160646D01*
X118693481Y-104175500D01*
X119156518Y-104175499D01*
X119156520Y-104175499D01*
X119156521Y-104175498D01*
X119203411Y-104168072D01*
X119250299Y-104160647D01*
X119250300Y-104160646D01*
X119250304Y-104160646D01*
X119280553Y-104145232D01*
X119288441Y-104143983D01*
X119294907Y-104139286D01*
X119318090Y-104139286D01*
X119340984Y-104135659D01*
X119348103Y-104139286D01*
X119356093Y-104139286D01*
X119374849Y-104152913D01*
X119395502Y-104163436D01*
X119399128Y-104170553D01*
X119405593Y-104175250D01*
X119412756Y-104197296D01*
X119423281Y-104217951D01*
X119424500Y-104233441D01*
X119424500Y-104324165D01*
X119405593Y-104382356D01*
X119395504Y-104394168D01*
X119239535Y-104550137D01*
X119239531Y-104550142D01*
X119196684Y-104624355D01*
X119196682Y-104624359D01*
X119196682Y-104624361D01*
X119185278Y-104666922D01*
X119185278Y-104666923D01*
X119185277Y-104666922D01*
X119174500Y-104707147D01*
X119174500Y-104750251D01*
X119155593Y-104808442D01*
X119120446Y-104838460D01*
X118996781Y-104901471D01*
X118901471Y-104996781D01*
X118842507Y-105112503D01*
X118799242Y-105155767D01*
X118738810Y-105165338D01*
X118684294Y-105137560D01*
X118665070Y-105106187D01*
X118664184Y-105106639D01*
X118614349Y-105008834D01*
X118603050Y-104986658D01*
X118513342Y-104896950D01*
X118400304Y-104839354D01*
X118400305Y-104839354D01*
X118306522Y-104824500D01*
X117693479Y-104824500D01*
X117693476Y-104824501D01*
X117599700Y-104839352D01*
X117599695Y-104839354D01*
X117486659Y-104896949D01*
X117396949Y-104986659D01*
X117338209Y-105101942D01*
X117294944Y-105145206D01*
X117234512Y-105154777D01*
X117179996Y-105126999D01*
X117161791Y-105101942D01*
X117114349Y-105008834D01*
X117103050Y-104986658D01*
X117013342Y-104896950D01*
X117011265Y-104895891D01*
X116900306Y-104839354D01*
X116893908Y-104837276D01*
X116844408Y-104801313D01*
X116825500Y-104743122D01*
X116825500Y-104707148D01*
X116823557Y-104699896D01*
X116803318Y-104624362D01*
X116760465Y-104550138D01*
X116734718Y-104524391D01*
X116699863Y-104489535D01*
X116449862Y-104239535D01*
X116449857Y-104239531D01*
X116375642Y-104196683D01*
X116375644Y-104196683D01*
X116343521Y-104188076D01*
X116292853Y-104174500D01*
X116292851Y-104174500D01*
X115949500Y-104174500D01*
X115891309Y-104155593D01*
X115855345Y-104106093D01*
X115850500Y-104075500D01*
X115850499Y-102722870D01*
X115850498Y-102722863D01*
X115834515Y-102642505D01*
X115834514Y-102642503D01*
X115773626Y-102551379D01*
X115773624Y-102551376D01*
X115773620Y-102551373D01*
X115682497Y-102490486D01*
X115682496Y-102490485D01*
X115682495Y-102490485D01*
X115602133Y-102474500D01*
X115602132Y-102474500D01*
X115397870Y-102474500D01*
X115397862Y-102474501D01*
X115317505Y-102490484D01*
X115317501Y-102490486D01*
X115304999Y-102498840D01*
X115246111Y-102515447D01*
X115195001Y-102498840D01*
X115182496Y-102490485D01*
X115182495Y-102490484D01*
X115102134Y-102474500D01*
X114897870Y-102474500D01*
X114897862Y-102474501D01*
X114817505Y-102490484D01*
X114817501Y-102490486D01*
X114804999Y-102498840D01*
X114746111Y-102515447D01*
X114695001Y-102498840D01*
X114682496Y-102490485D01*
X114682495Y-102490484D01*
X114602135Y-102474500D01*
X114449500Y-102474500D01*
X114391309Y-102455593D01*
X114355345Y-102406093D01*
X114350500Y-102375500D01*
X114350500Y-101703857D01*
X114347719Y-101693477D01*
X114326614Y-101614712D01*
X114280470Y-101534788D01*
X113265183Y-100519501D01*
X113237408Y-100464987D01*
X113246979Y-100404555D01*
X113290244Y-100361290D01*
X113335189Y-100350500D01*
X115875500Y-100350500D01*
X115933691Y-100369407D01*
G37*
%TD.AperFunction*%
%TA.AperFunction,Conductor*%
G36*
X119215071Y-97904657D02*
G01*
X119239958Y-97960552D01*
X119240500Y-97970901D01*
X119240500Y-99237590D01*
X119241482Y-99257575D01*
X119241750Y-99263029D01*
X119241751Y-99263038D01*
X119244171Y-99287610D01*
X119244171Y-99287616D01*
X119247906Y-99312791D01*
X119259626Y-99371713D01*
X119259626Y-99371715D01*
X119274391Y-99420392D01*
X119290861Y-99460155D01*
X119293205Y-99465812D01*
X119317184Y-99510675D01*
X119343528Y-99550103D01*
X119343530Y-99550105D01*
X119375804Y-99589431D01*
X119410569Y-99624196D01*
X119449896Y-99656471D01*
X119488844Y-99682494D01*
X119489327Y-99682817D01*
X119499498Y-99688253D01*
X119534184Y-99706792D01*
X119579602Y-99725605D01*
X119628283Y-99740373D01*
X119687203Y-99752093D01*
X119687210Y-99752094D01*
X119687220Y-99752096D01*
X119698498Y-99753768D01*
X119712394Y-99755829D01*
X119736975Y-99758250D01*
X119762410Y-99759500D01*
X119915061Y-99759500D01*
X119973252Y-99778407D01*
X120009216Y-99827907D01*
X120009216Y-99889093D01*
X119985065Y-99928504D01*
X119981783Y-99931785D01*
X119902125Y-100039715D01*
X119857819Y-100166338D01*
X119855000Y-100196397D01*
X119855000Y-100324999D01*
X119855001Y-100325000D01*
X121194999Y-100325000D01*
X121195000Y-100324999D01*
X121195000Y-100196399D01*
X121194999Y-100196397D01*
X121192180Y-100166338D01*
X121147874Y-100039715D01*
X121068216Y-99931785D01*
X121064935Y-99928504D01*
X121037158Y-99873987D01*
X121046729Y-99813555D01*
X121089994Y-99770290D01*
X121134939Y-99759500D01*
X122793679Y-99759500D01*
X122851870Y-99778407D01*
X122887834Y-99827907D01*
X122887834Y-99889093D01*
X122863684Y-99928501D01*
X122849500Y-99942686D01*
X122849497Y-99942689D01*
X122849496Y-99942690D01*
X122783609Y-100056809D01*
X122772118Y-100099695D01*
X122749500Y-100184108D01*
X122749500Y-100315892D01*
X122773257Y-100404555D01*
X122783609Y-100443190D01*
X122849496Y-100557309D01*
X122849498Y-100557311D01*
X122849500Y-100557314D01*
X122942686Y-100650500D01*
X122942688Y-100650501D01*
X122942690Y-100650503D01*
X123056810Y-100716390D01*
X123056808Y-100716390D01*
X123056812Y-100716391D01*
X123056814Y-100716392D01*
X123184108Y-100750500D01*
X123184110Y-100750500D01*
X123315890Y-100750500D01*
X123315892Y-100750500D01*
X123443186Y-100716392D01*
X123443188Y-100716390D01*
X123443190Y-100716390D01*
X123557309Y-100650503D01*
X123557309Y-100650502D01*
X123557314Y-100650500D01*
X123650500Y-100557314D01*
X123660697Y-100539652D01*
X123716390Y-100443190D01*
X123716390Y-100443188D01*
X123716392Y-100443186D01*
X123750500Y-100315892D01*
X123750500Y-100184108D01*
X123716392Y-100056814D01*
X123716390Y-100056811D01*
X123716390Y-100056809D01*
X123650503Y-99942690D01*
X123650501Y-99942688D01*
X123650500Y-99942686D01*
X123636315Y-99928501D01*
X123608540Y-99873987D01*
X123618111Y-99813555D01*
X123661376Y-99770290D01*
X123706321Y-99759500D01*
X124237576Y-99759500D01*
X124237590Y-99759500D01*
X124263026Y-99758250D01*
X124287606Y-99755829D01*
X124312796Y-99752093D01*
X124371716Y-99740373D01*
X124371759Y-99740360D01*
X124371766Y-99740360D01*
X124374061Y-99739785D01*
X124374090Y-99739900D01*
X124374100Y-99739899D01*
X124374140Y-99740100D01*
X124374217Y-99740408D01*
X124432933Y-99741559D01*
X124481718Y-99778487D01*
X124499500Y-99835096D01*
X124499500Y-104414904D01*
X124480593Y-104473095D01*
X124431093Y-104509059D01*
X124374213Y-104509617D01*
X124374108Y-104510038D01*
X124374096Y-104510100D01*
X124374092Y-104510099D01*
X124374064Y-104510215D01*
X124371776Y-104509641D01*
X124371764Y-104509641D01*
X124371712Y-104509626D01*
X124371709Y-104509625D01*
X124371708Y-104509625D01*
X124312791Y-104497906D01*
X124287613Y-104494171D01*
X124263038Y-104491751D01*
X124263029Y-104491750D01*
X124257575Y-104491482D01*
X124237590Y-104490500D01*
X120762410Y-104490500D01*
X120744241Y-104491392D01*
X120736970Y-104491750D01*
X120736965Y-104491750D01*
X120712413Y-104494169D01*
X120712406Y-104494169D01*
X120712394Y-104494171D01*
X120712385Y-104494172D01*
X120712371Y-104494174D01*
X120687239Y-104497901D01*
X120687196Y-104497908D01*
X120628295Y-104509623D01*
X120628275Y-104509628D01*
X120579608Y-104524391D01*
X120534203Y-104543198D01*
X120534176Y-104543210D01*
X120489320Y-104567186D01*
X120449902Y-104593523D01*
X120449891Y-104593531D01*
X120410566Y-104625805D01*
X120375801Y-104660570D01*
X120343531Y-104699891D01*
X120317182Y-104739327D01*
X120293210Y-104784176D01*
X120293201Y-104784196D01*
X120274391Y-104829606D01*
X120259626Y-104878283D01*
X120259626Y-104878285D01*
X120249373Y-104929833D01*
X120243812Y-104939762D01*
X120242587Y-104951074D01*
X120229212Y-104965834D01*
X120219477Y-104983218D01*
X120209142Y-104987982D01*
X120201502Y-104996414D01*
X120182003Y-105000493D01*
X120163912Y-105008834D01*
X120152750Y-105006613D01*
X120141614Y-105008944D01*
X120125379Y-105001169D01*
X120103902Y-104996897D01*
X120085797Y-104983880D01*
X120083995Y-104982247D01*
X120003220Y-104901472D01*
X119984114Y-104891737D01*
X119974338Y-104882878D01*
X119965365Y-104867221D01*
X119952605Y-104854461D01*
X119950525Y-104841328D01*
X119943914Y-104829793D01*
X119945857Y-104811852D01*
X119943035Y-104794029D01*
X119949072Y-104782181D01*
X119950504Y-104768964D01*
X119962619Y-104755593D01*
X119970813Y-104739514D01*
X120010464Y-104699863D01*
X120018161Y-104686533D01*
X120053221Y-104625806D01*
X120053318Y-104625638D01*
X120075500Y-104542853D01*
X120075500Y-104233441D01*
X120094407Y-104175250D01*
X120143907Y-104139286D01*
X120205093Y-104139286D01*
X120219443Y-104145231D01*
X120249696Y-104160646D01*
X120343481Y-104175500D01*
X120806518Y-104175499D01*
X120806520Y-104175499D01*
X120806521Y-104175498D01*
X120853411Y-104168072D01*
X120900299Y-104160647D01*
X120900299Y-104160646D01*
X120900304Y-104160646D01*
X121013342Y-104103050D01*
X121103050Y-104013342D01*
X121160646Y-103900304D01*
X121160645Y-103900304D01*
X121164184Y-103893361D01*
X121165737Y-103894152D01*
X121196099Y-103852355D01*
X121254288Y-103833442D01*
X121312481Y-103852343D01*
X121342507Y-103887496D01*
X121379595Y-103960284D01*
X121401472Y-104003220D01*
X121496780Y-104098528D01*
X121496782Y-104098529D01*
X121616867Y-104159716D01*
X121616869Y-104159716D01*
X121616874Y-104159719D01*
X121685278Y-104170553D01*
X121716510Y-104175500D01*
X121716512Y-104175500D01*
X122233490Y-104175500D01*
X122254885Y-104172111D01*
X122333126Y-104159719D01*
X122453220Y-104098528D01*
X122548528Y-104003220D01*
X122609719Y-103883126D01*
X122625500Y-103783488D01*
X122625500Y-103675001D01*
X122855000Y-103675001D01*
X122855000Y-103803602D01*
X122857819Y-103833661D01*
X122902125Y-103960284D01*
X122981783Y-104068214D01*
X122981785Y-104068216D01*
X123089715Y-104147874D01*
X123216338Y-104192180D01*
X123246397Y-104194999D01*
X123246399Y-104195000D01*
X123349999Y-104195000D01*
X123350000Y-104194999D01*
X123350000Y-103675001D01*
X123700000Y-103675001D01*
X123700000Y-104194999D01*
X123700001Y-104195000D01*
X123803601Y-104195000D01*
X123803602Y-104194999D01*
X123833661Y-104192180D01*
X123960284Y-104147874D01*
X124068214Y-104068216D01*
X124068216Y-104068214D01*
X124147874Y-103960284D01*
X124192180Y-103833661D01*
X124194999Y-103803602D01*
X124195000Y-103803601D01*
X124195000Y-103675001D01*
X124194999Y-103675000D01*
X123700001Y-103675000D01*
X123700000Y-103675001D01*
X123350000Y-103675001D01*
X123349999Y-103675000D01*
X122855001Y-103675000D01*
X122855000Y-103675001D01*
X122625500Y-103675001D01*
X122625500Y-103216512D01*
X122622314Y-103196397D01*
X122855000Y-103196397D01*
X122855000Y-103324999D01*
X122855001Y-103325000D01*
X123349999Y-103325000D01*
X123350000Y-103324999D01*
X123350000Y-102805001D01*
X123700000Y-102805001D01*
X123700000Y-103324999D01*
X123700001Y-103325000D01*
X124194999Y-103325000D01*
X124195000Y-103324999D01*
X124195000Y-103196399D01*
X124194999Y-103196397D01*
X124192180Y-103166338D01*
X124147874Y-103039715D01*
X124068216Y-102931785D01*
X124068214Y-102931783D01*
X123960282Y-102852124D01*
X123946017Y-102847133D01*
X123897337Y-102810068D01*
X123879740Y-102751468D01*
X123899948Y-102693716D01*
X123933770Y-102665479D01*
X124024945Y-102619022D01*
X124119023Y-102524944D01*
X124179421Y-102406408D01*
X124179422Y-102406404D01*
X124195000Y-102308056D01*
X124195000Y-102175001D01*
X124194999Y-102175000D01*
X123750001Y-102175000D01*
X123750000Y-102175001D01*
X123750000Y-102713993D01*
X123731093Y-102772184D01*
X123721004Y-102783997D01*
X123700000Y-102805001D01*
X123350000Y-102805001D01*
X123350000Y-102786006D01*
X123352468Y-102778408D01*
X123351219Y-102770519D01*
X123361743Y-102749863D01*
X123368907Y-102727815D01*
X123378996Y-102716002D01*
X123400000Y-102694998D01*
X123400000Y-102175001D01*
X123399999Y-102175000D01*
X122955002Y-102175000D01*
X122955001Y-102175001D01*
X122955001Y-102308057D01*
X122970575Y-102406400D01*
X122970577Y-102406405D01*
X123030976Y-102524944D01*
X123125054Y-102619022D01*
X123175516Y-102644734D01*
X123218781Y-102687999D01*
X123228352Y-102748431D01*
X123200574Y-102802948D01*
X123163269Y-102826388D01*
X123089717Y-102852124D01*
X122981785Y-102931783D01*
X122981783Y-102931785D01*
X122902125Y-103039715D01*
X122857819Y-103166338D01*
X122855000Y-103196397D01*
X122622314Y-103196397D01*
X122609719Y-103116874D01*
X122609716Y-103116869D01*
X122609716Y-103116867D01*
X122548529Y-102996782D01*
X122548528Y-102996780D01*
X122453220Y-102901472D01*
X122453217Y-102901470D01*
X122333129Y-102840282D01*
X122325718Y-102837874D01*
X122326069Y-102836795D01*
X122318907Y-102836795D01*
X122300146Y-102823164D01*
X122279491Y-102812638D01*
X122275867Y-102805524D01*
X122269407Y-102800831D01*
X122262241Y-102778775D01*
X122251718Y-102758119D01*
X122250500Y-102742640D01*
X122250500Y-102721213D01*
X122269407Y-102663022D01*
X122304555Y-102633004D01*
X122345076Y-102612357D01*
X122363342Y-102603050D01*
X122453050Y-102513342D01*
X122510646Y-102400304D01*
X122525500Y-102306519D01*
X122525499Y-101693482D01*
X122525499Y-101693479D01*
X122525499Y-101693477D01*
X122525256Y-101691943D01*
X122955000Y-101691943D01*
X122955000Y-101824999D01*
X122955001Y-101825000D01*
X123399999Y-101825000D01*
X123400000Y-101824999D01*
X123400000Y-101305001D01*
X123750000Y-101305001D01*
X123750000Y-101824999D01*
X123750001Y-101825000D01*
X124194998Y-101825000D01*
X124194999Y-101824999D01*
X124194999Y-101691944D01*
X124194998Y-101691942D01*
X124179424Y-101593599D01*
X124179422Y-101593594D01*
X124119023Y-101475055D01*
X124024944Y-101380976D01*
X124024945Y-101380976D01*
X123906408Y-101320578D01*
X123906404Y-101320577D01*
X123808056Y-101305000D01*
X123750001Y-101305000D01*
X123750000Y-101305001D01*
X123400000Y-101305001D01*
X123400000Y-101304999D01*
X123341946Y-101305000D01*
X123341941Y-101305001D01*
X123243599Y-101320575D01*
X123243594Y-101320577D01*
X123125055Y-101380976D01*
X123030976Y-101475055D01*
X122970578Y-101593591D01*
X122970577Y-101593595D01*
X122955000Y-101691943D01*
X122525256Y-101691943D01*
X122510647Y-101599700D01*
X122510646Y-101599698D01*
X122510646Y-101599696D01*
X122453050Y-101486658D01*
X122363342Y-101396950D01*
X122250304Y-101339354D01*
X122250305Y-101339354D01*
X122156522Y-101324500D01*
X121693479Y-101324500D01*
X121693476Y-101324501D01*
X121599700Y-101339352D01*
X121599695Y-101339354D01*
X121486659Y-101396949D01*
X121396949Y-101486659D01*
X121338209Y-101601942D01*
X121294944Y-101645206D01*
X121234512Y-101654777D01*
X121179996Y-101626999D01*
X121161791Y-101601942D01*
X121107883Y-101496144D01*
X121103050Y-101486658D01*
X121013342Y-101396950D01*
X120999500Y-101389897D01*
X120908304Y-101343430D01*
X120865040Y-101300166D01*
X120855469Y-101239733D01*
X120883247Y-101185217D01*
X120920553Y-101161776D01*
X120960284Y-101147873D01*
X121068214Y-101068216D01*
X121068216Y-101068214D01*
X121147874Y-100960284D01*
X121192180Y-100833661D01*
X121194999Y-100803602D01*
X121195000Y-100803601D01*
X121195000Y-100675001D01*
X121194999Y-100675000D01*
X119855001Y-100675000D01*
X119855000Y-100675001D01*
X119855000Y-100803602D01*
X119857819Y-100833661D01*
X119902125Y-100960284D01*
X119981783Y-101068214D01*
X119981785Y-101068216D01*
X120089715Y-101147874D01*
X120188732Y-101182521D01*
X120237413Y-101219587D01*
X120255010Y-101278187D01*
X120234802Y-101335939D01*
X120200981Y-101364175D01*
X120136659Y-101396949D01*
X120046949Y-101486659D01*
X119989354Y-101599695D01*
X119974500Y-101693477D01*
X119974500Y-102306520D01*
X119974501Y-102306523D01*
X119989352Y-102400299D01*
X119989354Y-102400304D01*
X120046950Y-102513342D01*
X120136658Y-102603050D01*
X120166052Y-102618027D01*
X120251942Y-102661791D01*
X120295206Y-102705056D01*
X120304777Y-102765488D01*
X120276999Y-102820004D01*
X120251942Y-102838209D01*
X120136659Y-102896949D01*
X120046949Y-102986659D01*
X119989354Y-103099695D01*
X119989353Y-103099697D01*
X119988464Y-103105310D01*
X119960682Y-103159825D01*
X119929742Y-103180786D01*
X119923192Y-103183598D01*
X119874362Y-103196682D01*
X119826180Y-103224500D01*
X119821115Y-103227423D01*
X119821113Y-103227425D01*
X119800138Y-103239534D01*
X119694502Y-103345170D01*
X119639986Y-103372947D01*
X119579554Y-103363375D01*
X119536289Y-103320111D01*
X119525499Y-103275166D01*
X119525499Y-103193478D01*
X119525498Y-103193476D01*
X119510647Y-103099700D01*
X119510646Y-103099697D01*
X119510646Y-103099696D01*
X119453050Y-102986658D01*
X119363342Y-102896950D01*
X119363339Y-102896948D01*
X119248058Y-102838209D01*
X119204793Y-102794945D01*
X119195222Y-102734513D01*
X119223000Y-102679996D01*
X119248058Y-102661791D01*
X119333948Y-102618027D01*
X119363342Y-102603050D01*
X119453050Y-102513342D01*
X119510646Y-102400304D01*
X119525500Y-102306519D01*
X119525499Y-101693482D01*
X119518534Y-101649500D01*
X119510647Y-101599700D01*
X119510646Y-101599698D01*
X119510646Y-101599696D01*
X119453050Y-101486658D01*
X119363342Y-101396950D01*
X119349500Y-101389897D01*
X119272473Y-101350649D01*
X119229209Y-101307384D01*
X119219638Y-101246952D01*
X119247416Y-101192436D01*
X119301931Y-101164659D01*
X119333126Y-101159719D01*
X119453220Y-101098528D01*
X119548528Y-101003220D01*
X119609719Y-100883126D01*
X119625500Y-100783488D01*
X119625500Y-100216512D01*
X119609719Y-100116874D01*
X119609716Y-100116869D01*
X119609716Y-100116867D01*
X119548529Y-99996782D01*
X119548528Y-99996780D01*
X119453220Y-99901472D01*
X119453217Y-99901470D01*
X119333132Y-99840283D01*
X119333127Y-99840281D01*
X119333126Y-99840281D01*
X119299913Y-99835020D01*
X119233490Y-99824500D01*
X119233488Y-99824500D01*
X118716512Y-99824500D01*
X118716510Y-99824500D01*
X118616874Y-99840281D01*
X118616872Y-99840281D01*
X118494870Y-99902445D01*
X118434438Y-99912016D01*
X118379922Y-99884239D01*
X118215214Y-99719532D01*
X118215212Y-99719530D01*
X118135288Y-99673386D01*
X118135285Y-99673385D01*
X118121901Y-99669798D01*
X118121901Y-99669799D01*
X118046144Y-99649500D01*
X118046142Y-99649500D01*
X117949500Y-99649500D01*
X117891309Y-99630593D01*
X117855345Y-99581093D01*
X117850500Y-99550501D01*
X117850499Y-99397870D01*
X117850498Y-99397862D01*
X117834515Y-99317506D01*
X117834515Y-99317505D01*
X117826159Y-99304999D01*
X117809551Y-99246114D01*
X117826159Y-99194999D01*
X117834515Y-99182495D01*
X117850500Y-99102133D01*
X117850499Y-98949500D01*
X117869406Y-98891310D01*
X117918906Y-98855346D01*
X117949499Y-98850500D01*
X118046142Y-98850500D01*
X118046144Y-98850500D01*
X118135288Y-98826614D01*
X118151065Y-98817505D01*
X118215212Y-98780470D01*
X119030470Y-97965212D01*
X119055764Y-97921400D01*
X119101232Y-97880460D01*
X119162083Y-97874064D01*
X119215071Y-97904657D01*
G37*
%TD.AperFunction*%
%TA.AperFunction,Conductor*%
G36*
X111329593Y-101023918D02*
G01*
X111335232Y-101032602D01*
X111349500Y-101057314D01*
X111442686Y-101150500D01*
X111442688Y-101150501D01*
X111442690Y-101150503D01*
X111556810Y-101216390D01*
X111556808Y-101216390D01*
X111556812Y-101216391D01*
X111556814Y-101216392D01*
X111684108Y-101250500D01*
X111684110Y-101250500D01*
X111815890Y-101250500D01*
X111815892Y-101250500D01*
X111943186Y-101216392D01*
X111947741Y-101213761D01*
X111997239Y-101200500D01*
X112252761Y-101200500D01*
X112302258Y-101213761D01*
X112306814Y-101216392D01*
X112434108Y-101250500D01*
X112434110Y-101250500D01*
X112565890Y-101250500D01*
X112565892Y-101250500D01*
X112693186Y-101216392D01*
X112803341Y-101152793D01*
X112863187Y-101140072D01*
X112919083Y-101164958D01*
X112922844Y-101168526D01*
X113620504Y-101866186D01*
X113648281Y-101920703D01*
X113649500Y-101936190D01*
X113649500Y-103313500D01*
X113644655Y-103328411D01*
X113644655Y-103344093D01*
X113635438Y-103356778D01*
X113630593Y-103371691D01*
X113617907Y-103380907D01*
X113608691Y-103393593D01*
X113593778Y-103398438D01*
X113581093Y-103407655D01*
X113550500Y-103412500D01*
X113449499Y-103412500D01*
X113391308Y-103393593D01*
X113355344Y-103344093D01*
X113350499Y-103313500D01*
X113350499Y-102722868D01*
X113350476Y-102722635D01*
X113350000Y-102712936D01*
X113350000Y-102460640D01*
X113349998Y-102460639D01*
X113272007Y-102495075D01*
X113211138Y-102501283D01*
X113191947Y-102493152D01*
X113191506Y-102494218D01*
X113182496Y-102490486D01*
X113182495Y-102490485D01*
X113102133Y-102474500D01*
X113102132Y-102474500D01*
X112897870Y-102474500D01*
X112897862Y-102474501D01*
X112817505Y-102490484D01*
X112817501Y-102490486D01*
X112804999Y-102498840D01*
X112746111Y-102515447D01*
X112695001Y-102498840D01*
X112682496Y-102490485D01*
X112682495Y-102490484D01*
X112602134Y-102474500D01*
X112397870Y-102474500D01*
X112397862Y-102474501D01*
X112317505Y-102490484D01*
X112317501Y-102490486D01*
X112304999Y-102498840D01*
X112246111Y-102515447D01*
X112195001Y-102498840D01*
X112182496Y-102490485D01*
X112182495Y-102490484D01*
X112102134Y-102474500D01*
X111897870Y-102474500D01*
X111897862Y-102474501D01*
X111817505Y-102490484D01*
X111817501Y-102490486D01*
X111804999Y-102498840D01*
X111746111Y-102515447D01*
X111695001Y-102498840D01*
X111682496Y-102490485D01*
X111682495Y-102490484D01*
X111602134Y-102474500D01*
X111397870Y-102474500D01*
X111397862Y-102474501D01*
X111317505Y-102490484D01*
X111317501Y-102490486D01*
X111304999Y-102498840D01*
X111246111Y-102515447D01*
X111195001Y-102498840D01*
X111182496Y-102490485D01*
X111182495Y-102490484D01*
X111102134Y-102474500D01*
X110897870Y-102474500D01*
X110897862Y-102474501D01*
X110817505Y-102490484D01*
X110817501Y-102490486D01*
X110804999Y-102498840D01*
X110746111Y-102515447D01*
X110695001Y-102498840D01*
X110682496Y-102490485D01*
X110682495Y-102490484D01*
X110602135Y-102474500D01*
X110510189Y-102474500D01*
X110451998Y-102455593D01*
X110416034Y-102406093D01*
X110416034Y-102344907D01*
X110440186Y-102305496D01*
X110780471Y-101965212D01*
X111004289Y-101741393D01*
X111080470Y-101665212D01*
X111126614Y-101585288D01*
X111132175Y-101564535D01*
X111150500Y-101496144D01*
X111150500Y-101082109D01*
X111169407Y-101023918D01*
X111218907Y-100987954D01*
X111280093Y-100987954D01*
X111329593Y-101023918D01*
G37*
%TD.AperFunction*%
%TA.AperFunction,Conductor*%
G36*
X109990075Y-97425507D02*
G01*
X110017846Y-97429906D01*
X110022402Y-97432379D01*
X110052733Y-97449891D01*
X110081314Y-97466392D01*
X110178576Y-97492453D01*
X110229889Y-97525776D01*
X110248579Y-97562456D01*
X110283609Y-97693190D01*
X110349496Y-97807309D01*
X110349498Y-97807311D01*
X110349500Y-97807314D01*
X110420505Y-97878319D01*
X110448281Y-97932834D01*
X110449500Y-97948321D01*
X110449500Y-101263810D01*
X110430593Y-101322001D01*
X110420504Y-101333814D01*
X110133814Y-101620504D01*
X110079297Y-101648281D01*
X110063810Y-101649500D01*
X108686500Y-101649500D01*
X108671588Y-101644655D01*
X108655907Y-101644655D01*
X108643221Y-101635438D01*
X108628309Y-101630593D01*
X108619092Y-101617907D01*
X108606407Y-101608691D01*
X108601561Y-101593778D01*
X108592345Y-101581093D01*
X108587500Y-101550500D01*
X108587500Y-101449499D01*
X108606407Y-101391308D01*
X108655907Y-101355344D01*
X108686497Y-101350499D01*
X109277132Y-101350499D01*
X109277135Y-101350498D01*
X109277362Y-101350476D01*
X109287063Y-101350000D01*
X109539360Y-101350000D01*
X109539360Y-101349999D01*
X109504924Y-101272009D01*
X109498716Y-101211139D01*
X109506849Y-101191949D01*
X109505782Y-101191507D01*
X109509513Y-101182498D01*
X109509515Y-101182495D01*
X109525500Y-101102133D01*
X109525499Y-100897868D01*
X109522567Y-100883129D01*
X109509515Y-100817506D01*
X109509515Y-100817505D01*
X109501159Y-100804999D01*
X109484551Y-100746114D01*
X109501159Y-100694999D01*
X109509515Y-100682495D01*
X109525500Y-100602133D01*
X109525499Y-100397868D01*
X109509515Y-100317505D01*
X109501159Y-100305000D01*
X109484551Y-100246114D01*
X109501159Y-100194999D01*
X109509515Y-100182495D01*
X109525500Y-100102133D01*
X109525499Y-99897868D01*
X109525316Y-99896950D01*
X109510126Y-99820577D01*
X109509515Y-99817505D01*
X109501159Y-99804999D01*
X109484551Y-99746114D01*
X109501159Y-99694999D01*
X109509515Y-99682495D01*
X109525500Y-99602133D01*
X109525499Y-99397868D01*
X109509515Y-99317505D01*
X109501159Y-99304999D01*
X109484551Y-99246114D01*
X109501159Y-99194999D01*
X109509515Y-99182495D01*
X109525500Y-99102133D01*
X109525499Y-98897868D01*
X109509515Y-98817505D01*
X109501159Y-98804999D01*
X109484551Y-98746114D01*
X109501159Y-98694999D01*
X109509515Y-98682495D01*
X109525500Y-98602133D01*
X109525499Y-98397868D01*
X109509515Y-98317505D01*
X109501159Y-98304999D01*
X109484551Y-98246114D01*
X109501159Y-98194999D01*
X109509515Y-98182495D01*
X109525500Y-98102133D01*
X109525499Y-97897868D01*
X109521524Y-97877883D01*
X109528716Y-97817124D01*
X109569123Y-97772834D01*
X109590545Y-97760466D01*
X109590544Y-97760466D01*
X109590547Y-97760465D01*
X109849860Y-97501151D01*
X109849862Y-97501150D01*
X109902900Y-97448111D01*
X109905306Y-97446885D01*
X109906658Y-97444545D01*
X109932351Y-97433105D01*
X109957414Y-97420335D01*
X109960083Y-97420757D01*
X109962554Y-97419658D01*
X109990075Y-97425507D01*
G37*
%TD.AperFunction*%
%TA.AperFunction,Conductor*%
G36*
X118780281Y-92249009D02*
G01*
X118794454Y-92257334D01*
X118794520Y-92257221D01*
X118800137Y-92260464D01*
X118800138Y-92260465D01*
X118817906Y-92270723D01*
X118837077Y-92281792D01*
X118878018Y-92327262D01*
X118885357Y-92352039D01*
X118890281Y-92383126D01*
X118890283Y-92383132D01*
X118951148Y-92502585D01*
X118951472Y-92503220D01*
X119046780Y-92598528D01*
X119166874Y-92659719D01*
X119166878Y-92659719D01*
X119170445Y-92661537D01*
X119186835Y-92677927D01*
X119205593Y-92691556D01*
X119208061Y-92699154D01*
X119213709Y-92704802D01*
X119224500Y-92749747D01*
X119224500Y-92791525D01*
X119205593Y-92849716D01*
X119170446Y-92879734D01*
X119136659Y-92896949D01*
X119046949Y-92986659D01*
X118989354Y-93099695D01*
X118974500Y-93193477D01*
X118974500Y-93806520D01*
X118974501Y-93806523D01*
X118989352Y-93900299D01*
X118989354Y-93900304D01*
X119046950Y-94013342D01*
X119136658Y-94103050D01*
X119170445Y-94120265D01*
X119186835Y-94136655D01*
X119205593Y-94150283D01*
X119208061Y-94157879D01*
X119213708Y-94163526D01*
X119224500Y-94208474D01*
X119224500Y-94291525D01*
X119205593Y-94349716D01*
X119170446Y-94379734D01*
X119136659Y-94396949D01*
X119046949Y-94486659D01*
X118989354Y-94599695D01*
X118974500Y-94693477D01*
X118974500Y-95306520D01*
X118974501Y-95306523D01*
X118989352Y-95400299D01*
X118989354Y-95400304D01*
X119046950Y-95513342D01*
X119136658Y-95603050D01*
X119170445Y-95620265D01*
X119213708Y-95663526D01*
X119224500Y-95708474D01*
X119224500Y-96038810D01*
X119205593Y-96097001D01*
X119195504Y-96108814D01*
X118469529Y-96834789D01*
X118433110Y-96897867D01*
X118433111Y-96897868D01*
X118423386Y-96914710D01*
X118399500Y-97003857D01*
X118399500Y-97563810D01*
X118380593Y-97622001D01*
X118370503Y-97633814D01*
X118019502Y-97984814D01*
X117964986Y-98012591D01*
X117904554Y-98003020D01*
X117861289Y-97959755D01*
X117853430Y-97938723D01*
X117850499Y-97926948D01*
X117850499Y-97897868D01*
X117834515Y-97817505D01*
X117816573Y-97790653D01*
X117812406Y-97773912D01*
X117813400Y-97759763D01*
X117809551Y-97746114D01*
X117815689Y-97727223D01*
X117816698Y-97712877D01*
X117822655Y-97705782D01*
X117826159Y-97694999D01*
X117834515Y-97682495D01*
X117850500Y-97602133D01*
X117850499Y-97397868D01*
X117834515Y-97317505D01*
X117834512Y-97317501D01*
X117830784Y-97308499D01*
X117833743Y-97307272D01*
X117821565Y-97264093D01*
X117829924Y-97227991D01*
X117864360Y-97150000D01*
X117612074Y-97150000D01*
X117608547Y-97148854D01*
X117606996Y-97149022D01*
X117606996Y-97149500D01*
X117602594Y-97149500D01*
X117602373Y-97149524D01*
X117602136Y-97149500D01*
X117602133Y-97149500D01*
X117602129Y-97149500D01*
X116222871Y-97149500D01*
X116222638Y-97149524D01*
X116212937Y-97150000D01*
X115960640Y-97150000D01*
X115995075Y-97227990D01*
X116001283Y-97288860D01*
X115993154Y-97308052D01*
X115994218Y-97308493D01*
X115990486Y-97317503D01*
X115990485Y-97317505D01*
X115977823Y-97381161D01*
X115974500Y-97397867D01*
X115974500Y-97602129D01*
X115974501Y-97602137D01*
X115990484Y-97682494D01*
X115990486Y-97682498D01*
X115998840Y-97695001D01*
X116015447Y-97753889D01*
X115998840Y-97804999D01*
X115990485Y-97817503D01*
X115990484Y-97817504D01*
X115974500Y-97897864D01*
X115974500Y-98102129D01*
X115974501Y-98102137D01*
X115990484Y-98182494D01*
X115990486Y-98182498D01*
X115998840Y-98195001D01*
X116015447Y-98253889D01*
X115998840Y-98304999D01*
X115990485Y-98317503D01*
X115990484Y-98317504D01*
X115974500Y-98397864D01*
X115974500Y-98602129D01*
X115974501Y-98602137D01*
X115990484Y-98682494D01*
X115990486Y-98682498D01*
X115998840Y-98695001D01*
X116015447Y-98753889D01*
X115998840Y-98804999D01*
X115990485Y-98817503D01*
X115990484Y-98817504D01*
X115974500Y-98897864D01*
X115974500Y-99102129D01*
X115974501Y-99102137D01*
X115990484Y-99182494D01*
X115990486Y-99182498D01*
X115998840Y-99195001D01*
X116015447Y-99253889D01*
X115998840Y-99304999D01*
X115990485Y-99317503D01*
X115990484Y-99317504D01*
X115974500Y-99397864D01*
X115974500Y-99397867D01*
X115974500Y-99478505D01*
X115974501Y-99550499D01*
X115955594Y-99608690D01*
X115906094Y-99644654D01*
X115875501Y-99649500D01*
X113018750Y-99649500D01*
X112960559Y-99630593D01*
X112924595Y-99581093D01*
X112924595Y-99519907D01*
X112933013Y-99501000D01*
X112934069Y-99499170D01*
X112966392Y-99443186D01*
X113000500Y-99315892D01*
X113000500Y-99286190D01*
X113019407Y-99227999D01*
X113029496Y-99216186D01*
X115366186Y-96879496D01*
X115420703Y-96851719D01*
X115436190Y-96850500D01*
X116978334Y-96850500D01*
X116978338Y-96850499D01*
X117602128Y-96850499D01*
X117602132Y-96850499D01*
X117602135Y-96850498D01*
X117602362Y-96850476D01*
X117612063Y-96850000D01*
X117864360Y-96850000D01*
X117864360Y-96849999D01*
X117829924Y-96772009D01*
X117823716Y-96711139D01*
X117831849Y-96691949D01*
X117830782Y-96691507D01*
X117834511Y-96682499D01*
X117834515Y-96682495D01*
X117850500Y-96602133D01*
X117850499Y-96397868D01*
X117850347Y-96397106D01*
X117834515Y-96317505D01*
X117834514Y-96317503D01*
X117773626Y-96226379D01*
X117773624Y-96226376D01*
X117773620Y-96226373D01*
X117682497Y-96165486D01*
X117682496Y-96165485D01*
X117682495Y-96165485D01*
X117602133Y-96149500D01*
X115949500Y-96149500D01*
X115891309Y-96130593D01*
X115855345Y-96081093D01*
X115850500Y-96050500D01*
X115850500Y-95175001D01*
X117305001Y-95175001D01*
X117305001Y-95308057D01*
X117320575Y-95406400D01*
X117320577Y-95406405D01*
X117380976Y-95524944D01*
X117475055Y-95619023D01*
X117475054Y-95619023D01*
X117593591Y-95679421D01*
X117593595Y-95679422D01*
X117691944Y-95694999D01*
X117749999Y-95694998D01*
X117750000Y-95694998D01*
X117750000Y-95175001D01*
X118100000Y-95175001D01*
X118100000Y-95694998D01*
X118100001Y-95694999D01*
X118158055Y-95694999D01*
X118158057Y-95694998D01*
X118256400Y-95679424D01*
X118256405Y-95679422D01*
X118374944Y-95619023D01*
X118469023Y-95524944D01*
X118529421Y-95406408D01*
X118529422Y-95406404D01*
X118545000Y-95308056D01*
X118545000Y-95175001D01*
X118544999Y-95175000D01*
X118100001Y-95175000D01*
X118100000Y-95175001D01*
X117750000Y-95175001D01*
X117749999Y-95175000D01*
X117305002Y-95175000D01*
X117305001Y-95175001D01*
X115850500Y-95175001D01*
X115850500Y-94436190D01*
X115869407Y-94377999D01*
X115879496Y-94366186D01*
X116391186Y-93854496D01*
X116445703Y-93826719D01*
X116461190Y-93825500D01*
X117243121Y-93825500D01*
X117301312Y-93844407D01*
X117337276Y-93893907D01*
X117337276Y-93893908D01*
X117339354Y-93900306D01*
X117376643Y-93973488D01*
X117396950Y-94013342D01*
X117486658Y-94103050D01*
X117552266Y-94136479D01*
X117580466Y-94150848D01*
X117623730Y-94194113D01*
X117633301Y-94254545D01*
X117605523Y-94309061D01*
X117580466Y-94327266D01*
X117475055Y-94380976D01*
X117380976Y-94475055D01*
X117320578Y-94593591D01*
X117320577Y-94593595D01*
X117305000Y-94691943D01*
X117305000Y-94824999D01*
X117305001Y-94825000D01*
X118544998Y-94825000D01*
X118544999Y-94824999D01*
X118544999Y-94691944D01*
X118544998Y-94691942D01*
X118529424Y-94593599D01*
X118529422Y-94593594D01*
X118469023Y-94475055D01*
X118374944Y-94380976D01*
X118374945Y-94380976D01*
X118269533Y-94327266D01*
X118226269Y-94284002D01*
X118216698Y-94223569D01*
X118244476Y-94169053D01*
X118269530Y-94150849D01*
X118363342Y-94103050D01*
X118453050Y-94013342D01*
X118510646Y-93900304D01*
X118525500Y-93806519D01*
X118525499Y-93193482D01*
X118521296Y-93166943D01*
X118510647Y-93099700D01*
X118510646Y-93099698D01*
X118510646Y-93099696D01*
X118453050Y-92986658D01*
X118363342Y-92896950D01*
X118344209Y-92887201D01*
X118299018Y-92864175D01*
X118255754Y-92820910D01*
X118246183Y-92760478D01*
X118273961Y-92705962D01*
X118311267Y-92682521D01*
X118410284Y-92647874D01*
X118518214Y-92568216D01*
X118518216Y-92568214D01*
X118597874Y-92460284D01*
X118642180Y-92333661D01*
X118642463Y-92330652D01*
X118643222Y-92328892D01*
X118643466Y-92327779D01*
X118643683Y-92327826D01*
X118666721Y-92274481D01*
X118719363Y-92243296D01*
X118780281Y-92249009D01*
G37*
%TD.AperFunction*%
%TA.AperFunction,Conductor*%
G36*
X110608692Y-95106407D02*
G01*
X110644656Y-95155907D01*
X110649501Y-95186500D01*
X110649501Y-95777129D01*
X110649523Y-95777353D01*
X110649501Y-95777453D01*
X110649501Y-95781997D01*
X110649198Y-95781997D01*
X110650000Y-95787061D01*
X110650000Y-96039359D01*
X110727992Y-96004924D01*
X110788861Y-95998716D01*
X110808054Y-96006849D01*
X110808496Y-96005783D01*
X110817500Y-96009511D01*
X110817505Y-96009515D01*
X110897867Y-96025500D01*
X111102132Y-96025499D01*
X111182495Y-96009515D01*
X111194996Y-96001161D01*
X111253883Y-95984551D01*
X111305000Y-96001159D01*
X111317505Y-96009515D01*
X111397867Y-96025500D01*
X111602132Y-96025499D01*
X111682495Y-96009515D01*
X111694996Y-96001161D01*
X111753883Y-95984551D01*
X111805000Y-96001159D01*
X111817505Y-96009515D01*
X111897867Y-96025500D01*
X112102132Y-96025499D01*
X112182495Y-96009515D01*
X112194996Y-96001161D01*
X112253883Y-95984551D01*
X112305000Y-96001159D01*
X112317505Y-96009515D01*
X112397867Y-96025500D01*
X112602132Y-96025499D01*
X112682495Y-96009515D01*
X112694996Y-96001161D01*
X112753883Y-95984551D01*
X112805000Y-96001159D01*
X112817505Y-96009515D01*
X112897867Y-96025500D01*
X113102132Y-96025499D01*
X113182495Y-96009515D01*
X113194996Y-96001161D01*
X113253883Y-95984551D01*
X113305000Y-96001159D01*
X113317505Y-96009515D01*
X113397867Y-96025500D01*
X113602132Y-96025499D01*
X113682495Y-96009515D01*
X113694996Y-96001161D01*
X113753883Y-95984551D01*
X113805000Y-96001159D01*
X113817505Y-96009515D01*
X113897867Y-96025500D01*
X114102132Y-96025499D01*
X114182495Y-96009515D01*
X114194996Y-96001161D01*
X114253883Y-95984551D01*
X114305000Y-96001159D01*
X114317505Y-96009515D01*
X114397867Y-96025500D01*
X114602132Y-96025499D01*
X114682495Y-96009515D01*
X114694996Y-96001161D01*
X114753883Y-95984551D01*
X114805000Y-96001159D01*
X114817505Y-96009515D01*
X114897867Y-96025500D01*
X114989810Y-96025499D01*
X115011854Y-96032661D01*
X115034753Y-96036288D01*
X115040402Y-96041937D01*
X115048000Y-96044406D01*
X115061625Y-96063158D01*
X115078019Y-96079552D01*
X115079268Y-96087442D01*
X115083964Y-96093905D01*
X115083964Y-96117087D01*
X115087591Y-96139984D01*
X115083964Y-96147101D01*
X115083965Y-96155091D01*
X115059815Y-96194501D01*
X115034789Y-96219528D01*
X115034788Y-96219530D01*
X112533814Y-98720504D01*
X112479297Y-98748281D01*
X112463810Y-98749500D01*
X112434108Y-98749500D01*
X112349245Y-98772238D01*
X112306813Y-98783608D01*
X112302259Y-98786238D01*
X112252761Y-98799500D01*
X111997239Y-98799500D01*
X111947741Y-98786238D01*
X111943186Y-98783608D01*
X111931475Y-98780470D01*
X111815892Y-98749500D01*
X111684108Y-98749500D01*
X111606200Y-98770375D01*
X111556809Y-98783609D01*
X111442690Y-98849496D01*
X111349498Y-98942688D01*
X111335236Y-98967391D01*
X111289766Y-99008331D01*
X111228916Y-99014726D01*
X111175928Y-98984133D01*
X111151042Y-98928237D01*
X111150500Y-98917890D01*
X111150500Y-97833840D01*
X111163763Y-97784341D01*
X111216392Y-97693186D01*
X111250500Y-97565892D01*
X111250500Y-97434108D01*
X111216392Y-97306814D01*
X111216390Y-97306811D01*
X111216390Y-97306809D01*
X111150503Y-97192690D01*
X111150501Y-97192688D01*
X111150500Y-97192686D01*
X111057314Y-97099500D01*
X111057311Y-97099498D01*
X111057309Y-97099496D01*
X110943189Y-97033609D01*
X110943190Y-97033609D01*
X110845924Y-97007547D01*
X110794609Y-96974223D01*
X110775920Y-96937543D01*
X110775000Y-96934108D01*
X110740892Y-96806814D01*
X110740890Y-96806811D01*
X110740890Y-96806809D01*
X110675003Y-96692690D01*
X110675001Y-96692688D01*
X110675000Y-96692686D01*
X110581814Y-96599500D01*
X110574964Y-96595545D01*
X110474999Y-96537829D01*
X110434059Y-96492359D01*
X110425500Y-96452093D01*
X110425500Y-96030067D01*
X110425106Y-96028596D01*
X110403318Y-95947281D01*
X110363262Y-95877902D01*
X110350000Y-95828404D01*
X110350000Y-95787072D01*
X110350477Y-95777363D01*
X110350497Y-95777146D01*
X110350500Y-95777133D01*
X110350499Y-95186498D01*
X110369406Y-95128309D01*
X110418906Y-95092345D01*
X110449499Y-95087500D01*
X110550501Y-95087500D01*
X110608692Y-95106407D01*
G37*
%TD.AperFunction*%
%TA.AperFunction,Conductor*%
G36*
X107149775Y-92756907D02*
G01*
X107161581Y-92766990D01*
X107244249Y-92849658D01*
X107295563Y-92875804D01*
X107350142Y-92903614D01*
X107393406Y-92946879D01*
X107402977Y-93007311D01*
X107375199Y-93061827D01*
X107337894Y-93085267D01*
X107289717Y-93102124D01*
X107181785Y-93181783D01*
X107181783Y-93181785D01*
X107102125Y-93289715D01*
X107057819Y-93416338D01*
X107055000Y-93446397D01*
X107055000Y-93549999D01*
X107055001Y-93550000D01*
X107651000Y-93550000D01*
X107709191Y-93568907D01*
X107745155Y-93618407D01*
X107750000Y-93649000D01*
X107750000Y-93724999D01*
X107750001Y-93725000D01*
X107826000Y-93725000D01*
X107884191Y-93743907D01*
X107920155Y-93793407D01*
X107925000Y-93824000D01*
X107925000Y-94394999D01*
X107925001Y-94395000D01*
X108053601Y-94395000D01*
X108053602Y-94394999D01*
X108083663Y-94392180D01*
X108142802Y-94371487D01*
X108143964Y-94371460D01*
X108144907Y-94370776D01*
X108174479Y-94370776D01*
X108203972Y-94370114D01*
X108204928Y-94370776D01*
X108206093Y-94370776D01*
X108230014Y-94388155D01*
X108254267Y-94404958D01*
X108254651Y-94406055D01*
X108255593Y-94406740D01*
X108264721Y-94434834D01*
X108274475Y-94462709D01*
X108274500Y-94464931D01*
X108274500Y-94550761D01*
X108255593Y-94608952D01*
X108206093Y-94644916D01*
X108144907Y-94644916D01*
X108135871Y-94641173D01*
X108133127Y-94640281D01*
X108133126Y-94640281D01*
X108099913Y-94635020D01*
X108033490Y-94624500D01*
X108033488Y-94624500D01*
X107466512Y-94624500D01*
X107466510Y-94624500D01*
X107366874Y-94640281D01*
X107366867Y-94640283D01*
X107246782Y-94701470D01*
X107151471Y-94796781D01*
X107113937Y-94870446D01*
X107070672Y-94913710D01*
X107025728Y-94924500D01*
X106957147Y-94924500D01*
X106874362Y-94946682D01*
X106800135Y-94989537D01*
X106598330Y-95191342D01*
X106597981Y-95191519D01*
X106597802Y-95191866D01*
X106570759Y-95205389D01*
X106543814Y-95219119D01*
X106543428Y-95219057D01*
X106543078Y-95219233D01*
X106539529Y-95218440D01*
X106483382Y-95209548D01*
X106482720Y-95209207D01*
X106477867Y-95206688D01*
X106415117Y-95164760D01*
X106385883Y-95158944D01*
X106373393Y-95152462D01*
X106361316Y-95140202D01*
X106346301Y-95131793D01*
X106340379Y-95118948D01*
X106330455Y-95108873D01*
X106327890Y-95091857D01*
X106320686Y-95076228D01*
X106320000Y-95064593D01*
X106320000Y-94925001D01*
X106319999Y-94925000D01*
X104680002Y-94925000D01*
X104680001Y-94925001D01*
X104680001Y-95064592D01*
X104661094Y-95122783D01*
X104611594Y-95158747D01*
X104600316Y-95161689D01*
X104584887Y-95164758D01*
X104584881Y-95164760D01*
X104497890Y-95222886D01*
X104497885Y-95222891D01*
X104456815Y-95284357D01*
X104408765Y-95322236D01*
X104347627Y-95324638D01*
X104296753Y-95290645D01*
X104275576Y-95233241D01*
X104275500Y-95229355D01*
X104275500Y-94270644D01*
X104294407Y-94212453D01*
X104343907Y-94176489D01*
X104405093Y-94176489D01*
X104454593Y-94212453D01*
X104456815Y-94215642D01*
X104497888Y-94277112D01*
X104584883Y-94335240D01*
X104600314Y-94338309D01*
X104653696Y-94368203D01*
X104679314Y-94423767D01*
X104680000Y-94435406D01*
X104680000Y-94574999D01*
X104680001Y-94575000D01*
X106319998Y-94575000D01*
X106319999Y-94574999D01*
X106319999Y-94435407D01*
X106338906Y-94377216D01*
X106388406Y-94341252D01*
X106399687Y-94338309D01*
X106399692Y-94338308D01*
X106415117Y-94335240D01*
X106502112Y-94277112D01*
X106560240Y-94190117D01*
X106575500Y-94113401D01*
X106575500Y-93900001D01*
X107055000Y-93900001D01*
X107055000Y-94003602D01*
X107057819Y-94033661D01*
X107102125Y-94160284D01*
X107181783Y-94268214D01*
X107181785Y-94268216D01*
X107289715Y-94347874D01*
X107416338Y-94392180D01*
X107446397Y-94394999D01*
X107446399Y-94395000D01*
X107574999Y-94395000D01*
X107575000Y-94394999D01*
X107575000Y-93900001D01*
X107574999Y-93900000D01*
X107055001Y-93900000D01*
X107055000Y-93900001D01*
X106575500Y-93900001D01*
X106575500Y-93775139D01*
X106575500Y-92999747D01*
X106594407Y-92941556D01*
X106629555Y-92911537D01*
X106633121Y-92909719D01*
X106633126Y-92909719D01*
X106753220Y-92848528D01*
X106834753Y-92766994D01*
X106841868Y-92763369D01*
X106846564Y-92756907D01*
X106868612Y-92749743D01*
X106889268Y-92739219D01*
X106904755Y-92738000D01*
X107091584Y-92738000D01*
X107149775Y-92756907D01*
G37*
%TD.AperFunction*%
%TA.AperFunction,Conductor*%
G36*
X105570004Y-92604003D02*
G01*
X105588209Y-92629061D01*
X105651470Y-92753217D01*
X105651472Y-92753220D01*
X105746780Y-92848528D01*
X105866874Y-92909719D01*
X105866878Y-92909719D01*
X105870445Y-92911537D01*
X105886835Y-92927927D01*
X105905593Y-92941556D01*
X105908061Y-92949154D01*
X105913709Y-92954802D01*
X105924500Y-92999747D01*
X105924500Y-93093872D01*
X105905593Y-93152063D01*
X105891344Y-93167802D01*
X105875000Y-93182358D01*
X105875000Y-93676000D01*
X105856093Y-93734191D01*
X105806593Y-93770155D01*
X105776000Y-93775000D01*
X105724000Y-93775000D01*
X105665809Y-93756093D01*
X105629845Y-93706593D01*
X105625000Y-93676000D01*
X105625000Y-93182358D01*
X105613738Y-93172328D01*
X105602070Y-93171097D01*
X105599064Y-93168000D01*
X105593812Y-93166943D01*
X105556619Y-93130135D01*
X105553343Y-93124454D01*
X105553318Y-93124361D01*
X105527474Y-93079599D01*
X105510465Y-93050138D01*
X105449862Y-92989535D01*
X105449859Y-92989533D01*
X105351038Y-92890711D01*
X105323263Y-92836198D01*
X105332834Y-92775766D01*
X105344395Y-92759856D01*
X105343945Y-92759529D01*
X105348525Y-92753222D01*
X105348528Y-92753220D01*
X105376259Y-92698795D01*
X105411791Y-92629061D01*
X105455055Y-92585796D01*
X105515487Y-92576225D01*
X105570004Y-92604003D01*
G37*
%TD.AperFunction*%
%TA.AperFunction,Conductor*%
G36*
X117265933Y-89981285D02*
G01*
X117288838Y-89984913D01*
X117294482Y-89990557D01*
X117302074Y-89993023D01*
X117315706Y-90011781D01*
X117332103Y-90028178D01*
X117333351Y-90036061D01*
X117338044Y-90042518D01*
X117338046Y-90065706D01*
X117341674Y-90088610D01*
X117340015Y-90095519D01*
X117324500Y-90193477D01*
X117324500Y-90806520D01*
X117324501Y-90806523D01*
X117339352Y-90900299D01*
X117339354Y-90900304D01*
X117396950Y-91013342D01*
X117486658Y-91103050D01*
X117591695Y-91156569D01*
X117634959Y-91199833D01*
X117644530Y-91260265D01*
X117616752Y-91314782D01*
X117579448Y-91338222D01*
X117539717Y-91352125D01*
X117431785Y-91431783D01*
X117431783Y-91431785D01*
X117352125Y-91539715D01*
X117307819Y-91666338D01*
X117305000Y-91696397D01*
X117305000Y-91824999D01*
X117305001Y-91825000D01*
X117876000Y-91825000D01*
X117890912Y-91829845D01*
X117906593Y-91829845D01*
X117919278Y-91839061D01*
X117934191Y-91843907D01*
X117943407Y-91856592D01*
X117956093Y-91865809D01*
X117960938Y-91880721D01*
X117970155Y-91893407D01*
X117974999Y-91923996D01*
X117975000Y-91924000D01*
X117975000Y-92076000D01*
X117956093Y-92134191D01*
X117906593Y-92170155D01*
X117876000Y-92175000D01*
X117305001Y-92175000D01*
X117305000Y-92175001D01*
X117305000Y-92303602D01*
X117307819Y-92333661D01*
X117352125Y-92460284D01*
X117431783Y-92568214D01*
X117431785Y-92568216D01*
X117539715Y-92647874D01*
X117579446Y-92661776D01*
X117628127Y-92698842D01*
X117645724Y-92757442D01*
X117625516Y-92815194D01*
X117591695Y-92843430D01*
X117486659Y-92896949D01*
X117396949Y-92986659D01*
X117339354Y-93099693D01*
X117337276Y-93106092D01*
X117301313Y-93155592D01*
X117243122Y-93174500D01*
X117019080Y-93174500D01*
X116960889Y-93155593D01*
X116924925Y-93106093D01*
X116921299Y-93060012D01*
X116925500Y-93033489D01*
X116925500Y-92516510D01*
X116916594Y-92460284D01*
X116909719Y-92416874D01*
X116909716Y-92416869D01*
X116909716Y-92416867D01*
X116848529Y-92296782D01*
X116848528Y-92296780D01*
X116753220Y-92201472D01*
X116753217Y-92201470D01*
X116633132Y-92140283D01*
X116633127Y-92140281D01*
X116633126Y-92140281D01*
X116594675Y-92134191D01*
X116533490Y-92124500D01*
X116533488Y-92124500D01*
X115966512Y-92124500D01*
X115966510Y-92124500D01*
X115866874Y-92140281D01*
X115866867Y-92140283D01*
X115746782Y-92201470D01*
X115651470Y-92296782D01*
X115590283Y-92416867D01*
X115590281Y-92416873D01*
X115585340Y-92448069D01*
X115557561Y-92502585D01*
X115503044Y-92530361D01*
X115442612Y-92520789D01*
X115399350Y-92477526D01*
X115371516Y-92422899D01*
X115353050Y-92386658D01*
X115263342Y-92296950D01*
X115150304Y-92239354D01*
X115150305Y-92239354D01*
X115056522Y-92224500D01*
X114443479Y-92224500D01*
X114443476Y-92224501D01*
X114349700Y-92239352D01*
X114349695Y-92239354D01*
X114236659Y-92296949D01*
X114146949Y-92386659D01*
X114088209Y-92501942D01*
X114044944Y-92545206D01*
X113984512Y-92554777D01*
X113929996Y-92526999D01*
X113911791Y-92501942D01*
X113859651Y-92399614D01*
X113853050Y-92386658D01*
X113763342Y-92296950D01*
X113650304Y-92239354D01*
X113650305Y-92239354D01*
X113556522Y-92224500D01*
X112943479Y-92224500D01*
X112943476Y-92224501D01*
X112849700Y-92239352D01*
X112849695Y-92239354D01*
X112736659Y-92296949D01*
X112646949Y-92386659D01*
X112589354Y-92499695D01*
X112574500Y-92593478D01*
X112574500Y-92745684D01*
X112555593Y-92803875D01*
X112506093Y-92839839D01*
X112444907Y-92839839D01*
X112426000Y-92831420D01*
X112343189Y-92783609D01*
X112343191Y-92783609D01*
X112283596Y-92767641D01*
X112215892Y-92749500D01*
X112105899Y-92749500D01*
X112047708Y-92730593D01*
X112011744Y-92681093D01*
X112011744Y-92619907D01*
X112035893Y-92580498D01*
X112103050Y-92513342D01*
X112160646Y-92400304D01*
X112175500Y-92306519D01*
X112175499Y-91693482D01*
X112167074Y-91640283D01*
X112160647Y-91599700D01*
X112160646Y-91599698D01*
X112160646Y-91599696D01*
X112103050Y-91486658D01*
X112013342Y-91396950D01*
X112013339Y-91396948D01*
X112010658Y-91394267D01*
X111982881Y-91339750D01*
X111992452Y-91279318D01*
X112010650Y-91254269D01*
X112263429Y-91001489D01*
X112291105Y-90982000D01*
X112299174Y-90978184D01*
X112343186Y-90966392D01*
X112429521Y-90916546D01*
X112433178Y-90914817D01*
X112459695Y-90911416D01*
X112485848Y-90905857D01*
X112489693Y-90907569D01*
X112493867Y-90907034D01*
X112517316Y-90919867D01*
X112541744Y-90930743D01*
X112543848Y-90934387D01*
X112547540Y-90936408D01*
X112558968Y-90960576D01*
X112572337Y-90983731D01*
X112573028Y-90990308D01*
X112573696Y-90991721D01*
X112573362Y-90993488D01*
X112574500Y-91004315D01*
X112574500Y-91406520D01*
X112574501Y-91406523D01*
X112589352Y-91500299D01*
X112589354Y-91500304D01*
X112646950Y-91613342D01*
X112736658Y-91703050D01*
X112849696Y-91760646D01*
X112943481Y-91775500D01*
X113556518Y-91775499D01*
X113556520Y-91775499D01*
X113556521Y-91775498D01*
X113603411Y-91768072D01*
X113650299Y-91760647D01*
X113650299Y-91760646D01*
X113650304Y-91760646D01*
X113763342Y-91703050D01*
X113853050Y-91613342D01*
X113888482Y-91543804D01*
X113911791Y-91498058D01*
X113955055Y-91454793D01*
X114015487Y-91445222D01*
X114070004Y-91473000D01*
X114088209Y-91498058D01*
X114144013Y-91607578D01*
X114146950Y-91613342D01*
X114236658Y-91703050D01*
X114349696Y-91760646D01*
X114443481Y-91775500D01*
X115056518Y-91775499D01*
X115056520Y-91775499D01*
X115056521Y-91775498D01*
X115103411Y-91768072D01*
X115150299Y-91760647D01*
X115150299Y-91760646D01*
X115150304Y-91760646D01*
X115263342Y-91703050D01*
X115353050Y-91613342D01*
X115385825Y-91549016D01*
X115429088Y-91505755D01*
X115489520Y-91496183D01*
X115544036Y-91523960D01*
X115567477Y-91561266D01*
X115602124Y-91660282D01*
X115681783Y-91768214D01*
X115681785Y-91768216D01*
X115789715Y-91847874D01*
X115916338Y-91892180D01*
X115946397Y-91894999D01*
X115946399Y-91895000D01*
X116074999Y-91895000D01*
X116075000Y-91894999D01*
X116075000Y-91400001D01*
X116425000Y-91400001D01*
X116425000Y-91894999D01*
X116425001Y-91895000D01*
X116553601Y-91895000D01*
X116553602Y-91894999D01*
X116583661Y-91892180D01*
X116710284Y-91847874D01*
X116818214Y-91768216D01*
X116818216Y-91768214D01*
X116897874Y-91660284D01*
X116942180Y-91533661D01*
X116944999Y-91503602D01*
X116945000Y-91503601D01*
X116945000Y-91400001D01*
X116944999Y-91400000D01*
X116425001Y-91400000D01*
X116425000Y-91400001D01*
X116075000Y-91400001D01*
X116075000Y-91324000D01*
X116093907Y-91265809D01*
X116143407Y-91229845D01*
X116174000Y-91225000D01*
X116249999Y-91225000D01*
X116250000Y-91224999D01*
X116250000Y-91149000D01*
X116268907Y-91090809D01*
X116318407Y-91054845D01*
X116349000Y-91050000D01*
X116944999Y-91050000D01*
X116945000Y-91049999D01*
X116945000Y-90946399D01*
X116944999Y-90946397D01*
X116942180Y-90916338D01*
X116897874Y-90789715D01*
X116818216Y-90681785D01*
X116818214Y-90681783D01*
X116724939Y-90612942D01*
X116689347Y-90563174D01*
X116689805Y-90501990D01*
X116713723Y-90463285D01*
X117173890Y-90003119D01*
X117181001Y-89999495D01*
X117185692Y-89993038D01*
X117207744Y-89985869D01*
X117228406Y-89975342D01*
X117236289Y-89976590D01*
X117243880Y-89974123D01*
X117265933Y-89981285D01*
G37*
%TD.AperFunction*%
%TA.AperFunction,Conductor*%
G36*
X118253875Y-80000804D02*
G01*
X118423172Y-80014128D01*
X118432587Y-80015326D01*
X118469395Y-80021816D01*
X118475258Y-80023035D01*
X118621073Y-80058043D01*
X118631786Y-80061267D01*
X118657816Y-80070741D01*
X118661706Y-80072254D01*
X118810068Y-80133707D01*
X118823904Y-80140758D01*
X118977796Y-80235063D01*
X118990361Y-80244192D01*
X119127608Y-80361412D01*
X119138590Y-80372394D01*
X119255807Y-80509638D01*
X119264938Y-80522206D01*
X119359239Y-80676091D01*
X119366292Y-80689933D01*
X119427718Y-80838230D01*
X119429283Y-80842255D01*
X119438723Y-80868191D01*
X119441959Y-80878940D01*
X119476956Y-81024712D01*
X119478187Y-81030632D01*
X119484671Y-81067405D01*
X119485870Y-81076828D01*
X119499195Y-81246124D01*
X119499500Y-81253892D01*
X119499500Y-88097229D01*
X119480593Y-88155420D01*
X119431093Y-88191384D01*
X119369907Y-88191384D01*
X119330498Y-88167234D01*
X119310496Y-88147232D01*
X119310493Y-88147230D01*
X119310491Y-88147228D01*
X119196371Y-88081341D01*
X119196373Y-88081341D01*
X119146981Y-88068107D01*
X119069074Y-88047232D01*
X118937290Y-88047232D01*
X118859382Y-88068107D01*
X118809991Y-88081341D01*
X118695872Y-88147228D01*
X118695867Y-88147232D01*
X118614002Y-88229097D01*
X118559485Y-88256874D01*
X118499053Y-88247302D01*
X118455789Y-88204038D01*
X118444999Y-88159093D01*
X118444999Y-88091944D01*
X118444998Y-88091942D01*
X118429424Y-87993599D01*
X118429422Y-87993594D01*
X118369023Y-87875055D01*
X118274944Y-87780976D01*
X118274945Y-87780976D01*
X118156408Y-87720578D01*
X118156404Y-87720577D01*
X118058056Y-87705000D01*
X117925001Y-87705000D01*
X117925000Y-87705001D01*
X117925000Y-88226000D01*
X117906093Y-88284191D01*
X117856593Y-88320155D01*
X117826000Y-88325000D01*
X117750001Y-88325000D01*
X117750000Y-88325001D01*
X117750000Y-88401000D01*
X117731093Y-88459191D01*
X117681593Y-88495155D01*
X117651000Y-88500000D01*
X117055002Y-88500000D01*
X117055001Y-88500001D01*
X117055001Y-88558051D01*
X117063594Y-88612316D01*
X117054020Y-88672748D01*
X117010754Y-88716011D01*
X116991436Y-88723426D01*
X116904649Y-88746681D01*
X116882386Y-88759535D01*
X116882385Y-88759534D01*
X116830425Y-88789534D01*
X116224455Y-89395504D01*
X116169938Y-89423281D01*
X116154451Y-89424500D01*
X115022573Y-89424500D01*
X114936867Y-89424500D01*
X114886198Y-89438076D01*
X114854076Y-89446683D01*
X114821403Y-89465547D01*
X114821404Y-89465548D01*
X114779856Y-89489536D01*
X114776907Y-89491799D01*
X114774400Y-89492686D01*
X114774240Y-89492779D01*
X114774222Y-89492749D01*
X114719230Y-89512218D01*
X114660566Y-89494836D01*
X114623322Y-89446292D01*
X114619736Y-89396532D01*
X114619523Y-89396511D01*
X114619645Y-89395268D01*
X114619549Y-89393932D01*
X114620000Y-89391665D01*
X114620000Y-89170001D01*
X114619999Y-89170000D01*
X114400001Y-89170000D01*
X114400000Y-89170001D01*
X114400000Y-89589998D01*
X114400001Y-89589999D01*
X114421664Y-89589999D01*
X114421665Y-89589998D01*
X114423293Y-89589675D01*
X114424047Y-89589764D01*
X114426509Y-89589522D01*
X114426562Y-89590061D01*
X114484054Y-89596864D01*
X114528986Y-89638394D01*
X114540926Y-89698403D01*
X114515314Y-89753969D01*
X114512616Y-89756775D01*
X114373889Y-89895503D01*
X114319372Y-89923281D01*
X114303885Y-89924500D01*
X113488798Y-89924500D01*
X113460775Y-89915395D01*
X113432551Y-89906970D01*
X113431869Y-89906003D01*
X113430607Y-89905593D01*
X113395407Y-89858349D01*
X113394151Y-89854778D01*
X113365892Y-89749313D01*
X113343277Y-89710144D01*
X113340224Y-89701462D01*
X113339698Y-89679631D01*
X113335157Y-89658266D01*
X113338977Y-89649683D01*
X113338752Y-89640295D01*
X113351159Y-89622323D01*
X113360043Y-89602370D01*
X113368177Y-89597673D01*
X113373514Y-89589944D01*
X113394117Y-89582697D01*
X113413031Y-89571777D01*
X113414982Y-89571475D01*
X113414977Y-89571450D01*
X113480685Y-89558379D01*
X113519315Y-89558379D01*
X113580241Y-89570498D01*
X113580246Y-89570498D01*
X113580252Y-89570500D01*
X113580253Y-89570500D01*
X113919747Y-89570500D01*
X113919748Y-89570500D01*
X113919749Y-89570499D01*
X113919755Y-89570499D01*
X113944513Y-89565574D01*
X114005274Y-89572764D01*
X114010689Y-89575796D01*
X114014158Y-89577233D01*
X114078333Y-89589999D01*
X114100000Y-89589998D01*
X114100000Y-89399687D01*
X114100477Y-89389978D01*
X114100500Y-89389744D01*
X114100500Y-88650252D01*
X114100476Y-88650009D01*
X114100000Y-88640310D01*
X114100000Y-88472091D01*
X114400000Y-88472091D01*
X114400000Y-88869999D01*
X114400001Y-88870000D01*
X114619998Y-88870000D01*
X114644006Y-88845992D01*
X114698522Y-88818214D01*
X114758954Y-88827785D01*
X114763510Y-88830258D01*
X114877863Y-88896280D01*
X114877865Y-88896281D01*
X115024234Y-88935500D01*
X115024236Y-88935500D01*
X115175764Y-88935500D01*
X115175766Y-88935500D01*
X115322135Y-88896281D01*
X115322137Y-88896279D01*
X115322139Y-88896279D01*
X115453360Y-88820518D01*
X115453360Y-88820517D01*
X115453365Y-88820515D01*
X115560515Y-88713365D01*
X115560518Y-88713360D01*
X115636279Y-88582139D01*
X115636279Y-88582137D01*
X115636281Y-88582135D01*
X115675500Y-88435766D01*
X115675500Y-88284234D01*
X115638970Y-88147900D01*
X115639834Y-88131403D01*
X115635838Y-88115373D01*
X115641396Y-88101615D01*
X115641903Y-88091943D01*
X117055000Y-88091943D01*
X117055000Y-88149999D01*
X117055001Y-88150000D01*
X117574999Y-88150000D01*
X117575000Y-88149999D01*
X117575000Y-87705001D01*
X117574999Y-87705000D01*
X117441945Y-87705000D01*
X117441941Y-87705001D01*
X117343599Y-87720575D01*
X117343594Y-87720577D01*
X117225055Y-87780976D01*
X117130976Y-87875055D01*
X117070578Y-87993591D01*
X117070577Y-87993595D01*
X117055000Y-88091943D01*
X115641903Y-88091943D01*
X115642173Y-88086801D01*
X115652569Y-88073963D01*
X115658759Y-88058643D01*
X115670698Y-88051574D01*
X115680678Y-88039252D01*
X115710648Y-88026221D01*
X115840773Y-87993778D01*
X115923677Y-87959438D01*
X116025223Y-87891588D01*
X116111588Y-87805223D01*
X116179438Y-87703677D01*
X116226173Y-87590848D01*
X116226173Y-87590846D01*
X116249999Y-87471067D01*
X116250000Y-87471063D01*
X116250000Y-87285001D01*
X116249999Y-87285000D01*
X115880000Y-87285000D01*
X115880000Y-86935000D01*
X116249999Y-86935000D01*
X116250000Y-86934999D01*
X116250000Y-86748936D01*
X116249999Y-86748932D01*
X116226173Y-86629153D01*
X116226173Y-86629151D01*
X116179438Y-86516322D01*
X116111588Y-86414776D01*
X116025223Y-86328411D01*
X115923679Y-86260562D01*
X115810849Y-86213826D01*
X115805000Y-86212662D01*
X115805000Y-86631446D01*
X115771614Y-86598060D01*
X115679728Y-86560000D01*
X115580272Y-86560000D01*
X115488386Y-86598060D01*
X115455000Y-86631446D01*
X115455000Y-86212662D01*
X115449150Y-86213826D01*
X115336320Y-86260562D01*
X115234776Y-86328411D01*
X115148411Y-86414776D01*
X115080561Y-86516322D01*
X115033826Y-86629151D01*
X115033826Y-86629153D01*
X115010000Y-86748932D01*
X115010000Y-86786429D01*
X114991093Y-86844620D01*
X114941593Y-86880584D01*
X114880407Y-86880584D01*
X114830907Y-86844620D01*
X114828685Y-86841431D01*
X114808613Y-86811392D01*
X114808608Y-86811387D01*
X114735843Y-86762767D01*
X114735836Y-86762764D01*
X114671677Y-86750001D01*
X114671666Y-86750000D01*
X114650001Y-86750000D01*
X114650000Y-86750001D01*
X114650000Y-87906075D01*
X114661076Y-87927814D01*
X114651505Y-87988246D01*
X114641841Y-88003563D01*
X114639484Y-88006633D01*
X114563720Y-88137860D01*
X114524500Y-88284235D01*
X114524500Y-88351000D01*
X114505593Y-88409191D01*
X114467302Y-88440742D01*
X114400000Y-88472091D01*
X114100000Y-88472091D01*
X114100000Y-88450000D01*
X114099999Y-88449999D01*
X114078336Y-88450000D01*
X114014160Y-88462764D01*
X114005152Y-88466496D01*
X114004042Y-88463816D01*
X113959925Y-88476251D01*
X113944516Y-88474426D01*
X113919753Y-88469500D01*
X113919748Y-88469500D01*
X113580252Y-88469500D01*
X113580248Y-88469500D01*
X113519314Y-88481621D01*
X113492892Y-88483268D01*
X113480042Y-88482343D01*
X113478231Y-88481133D01*
X113419748Y-88469500D01*
X113301623Y-88469500D01*
X113298080Y-88469245D01*
X113272873Y-88459000D01*
X113246997Y-88450593D01*
X113244822Y-88447600D01*
X113241397Y-88446208D01*
X113227029Y-88423109D01*
X113211033Y-88401093D01*
X113211033Y-88397393D01*
X113209080Y-88394254D01*
X113211033Y-88367122D01*
X113211033Y-88339907D01*
X113213252Y-88336284D01*
X113213473Y-88333226D01*
X113219538Y-88326027D01*
X113235182Y-88300498D01*
X113280469Y-88255212D01*
X113326614Y-88175288D01*
X113327558Y-88171766D01*
X113332127Y-88154714D01*
X113332127Y-88154712D01*
X113336641Y-88137864D01*
X113350500Y-88086144D01*
X113350500Y-87969500D01*
X113369407Y-87911309D01*
X113418907Y-87875345D01*
X113449500Y-87870500D01*
X113669747Y-87870500D01*
X113669748Y-87870500D01*
X113722872Y-87859933D01*
X113730685Y-87858379D01*
X113769315Y-87858379D01*
X113830241Y-87870498D01*
X113830246Y-87870498D01*
X113830252Y-87870500D01*
X113830253Y-87870500D01*
X114169747Y-87870500D01*
X114169748Y-87870500D01*
X114169749Y-87870499D01*
X114169755Y-87870499D01*
X114194513Y-87865574D01*
X114255274Y-87872764D01*
X114260689Y-87875796D01*
X114264158Y-87877233D01*
X114328333Y-87889999D01*
X114350000Y-87889998D01*
X114350000Y-87699687D01*
X114350477Y-87689978D01*
X114350500Y-87689744D01*
X114350500Y-86950252D01*
X114350476Y-86950009D01*
X114350000Y-86940310D01*
X114350000Y-86750000D01*
X114349999Y-86749999D01*
X114328336Y-86750000D01*
X114264160Y-86762764D01*
X114255152Y-86766496D01*
X114254042Y-86763816D01*
X114209925Y-86776251D01*
X114194516Y-86774426D01*
X114169753Y-86769500D01*
X114169748Y-86769500D01*
X113927321Y-86769500D01*
X113869130Y-86750593D01*
X113833166Y-86701093D01*
X113833166Y-86639907D01*
X113857315Y-86600498D01*
X113900500Y-86557314D01*
X113924167Y-86516322D01*
X113966390Y-86443190D01*
X113966390Y-86443188D01*
X113966392Y-86443186D01*
X114000500Y-86315892D01*
X114000500Y-86250835D01*
X114019407Y-86192644D01*
X114029496Y-86180831D01*
X114355831Y-85854496D01*
X114410348Y-85826719D01*
X114425835Y-85825500D01*
X115824165Y-85825500D01*
X115882356Y-85844407D01*
X115894169Y-85854496D01*
X116975138Y-86935465D01*
X117049361Y-86978318D01*
X117049370Y-86978320D01*
X117052112Y-86979457D01*
X117053732Y-86980841D01*
X117054981Y-86981562D01*
X117054847Y-86981793D01*
X117098637Y-87019195D01*
X117102434Y-87025975D01*
X117146950Y-87113342D01*
X117236658Y-87203050D01*
X117349696Y-87260646D01*
X117443481Y-87275500D01*
X118056518Y-87275499D01*
X118056520Y-87275499D01*
X118056521Y-87275498D01*
X118115910Y-87266093D01*
X118150299Y-87260647D01*
X118150299Y-87260646D01*
X118150304Y-87260646D01*
X118263342Y-87203050D01*
X118353050Y-87113342D01*
X118410646Y-87000304D01*
X118425500Y-86906519D01*
X118425499Y-86443482D01*
X118410646Y-86349696D01*
X118353050Y-86236658D01*
X118263342Y-86146950D01*
X118263339Y-86146948D01*
X118148058Y-86088209D01*
X118104793Y-86044945D01*
X118095222Y-85984513D01*
X118123000Y-85929996D01*
X118148058Y-85911791D01*
X118214018Y-85878182D01*
X118263342Y-85853050D01*
X118353050Y-85763342D01*
X118410646Y-85650304D01*
X118425500Y-85556519D01*
X118425499Y-85093482D01*
X118412119Y-85008995D01*
X118410647Y-84999700D01*
X118410646Y-84999698D01*
X118410646Y-84999696D01*
X118353050Y-84886658D01*
X118263342Y-84796950D01*
X118150304Y-84739354D01*
X118150305Y-84739354D01*
X118056522Y-84724500D01*
X117443479Y-84724500D01*
X117443476Y-84724501D01*
X117349700Y-84739352D01*
X117349695Y-84739354D01*
X117236659Y-84796949D01*
X117146948Y-84886660D01*
X117116996Y-84945445D01*
X117073732Y-84988710D01*
X117028787Y-84999500D01*
X116637229Y-84999500D01*
X116579038Y-84980593D01*
X116567225Y-84970503D01*
X116483382Y-84886660D01*
X116386258Y-84789535D01*
X116386253Y-84789531D01*
X116312038Y-84746683D01*
X116312040Y-84746683D01*
X116270944Y-84735672D01*
X116229249Y-84724500D01*
X114106457Y-84724500D01*
X114020751Y-84724500D01*
X113979056Y-84735672D01*
X113937960Y-84746683D01*
X113863746Y-84789531D01*
X113863741Y-84789535D01*
X113507772Y-85145504D01*
X113453256Y-85173281D01*
X113437769Y-85174500D01*
X111258969Y-85174500D01*
X111173263Y-85174500D01*
X111122594Y-85188076D01*
X111090472Y-85196683D01*
X111016258Y-85239531D01*
X110464531Y-85791258D01*
X110421683Y-85865472D01*
X110421682Y-85865477D01*
X110405599Y-85925500D01*
X110405599Y-85925501D01*
X110405598Y-85925500D01*
X110399500Y-85948261D01*
X110399500Y-85948263D01*
X110399500Y-86466031D01*
X110399500Y-86551737D01*
X110421682Y-86634523D01*
X110421682Y-86634524D01*
X110423362Y-86640791D01*
X110421574Y-86641269D01*
X110425689Y-86693621D01*
X110393715Y-86745787D01*
X110346639Y-86767992D01*
X110338098Y-86769500D01*
X110330252Y-86769500D01*
X110271769Y-86781133D01*
X110271611Y-86781238D01*
X110267212Y-86782015D01*
X110264404Y-86781621D01*
X110230686Y-86781621D01*
X110169751Y-86769500D01*
X110169748Y-86769500D01*
X109830252Y-86769500D01*
X109830248Y-86769500D01*
X109769314Y-86781621D01*
X109730686Y-86781621D01*
X109669751Y-86769500D01*
X109669748Y-86769500D01*
X109330252Y-86769500D01*
X109330246Y-86769500D01*
X109305484Y-86774426D01*
X109244723Y-86767234D01*
X109239309Y-86764202D01*
X109235836Y-86762764D01*
X109171677Y-86750001D01*
X109171666Y-86750000D01*
X109150001Y-86750000D01*
X109150000Y-86750001D01*
X109150000Y-86940310D01*
X109149524Y-86950009D01*
X109149500Y-86950252D01*
X109149500Y-87689744D01*
X109149523Y-87689978D01*
X109150000Y-87699687D01*
X109150000Y-87889998D01*
X109150001Y-87889999D01*
X109171664Y-87889999D01*
X109171672Y-87889998D01*
X109235836Y-87877236D01*
X109244846Y-87873504D01*
X109245957Y-87876186D01*
X109290041Y-87863747D01*
X109305486Y-87865574D01*
X109330243Y-87870499D01*
X109330250Y-87870499D01*
X109330252Y-87870500D01*
X109330253Y-87870500D01*
X109669747Y-87870500D01*
X109669748Y-87870500D01*
X109722872Y-87859933D01*
X109730685Y-87858379D01*
X109743825Y-87859933D01*
X109769315Y-87858379D01*
X109830241Y-87870498D01*
X109830246Y-87870498D01*
X109830252Y-87870500D01*
X109934811Y-87870500D01*
X109993002Y-87889407D01*
X110028966Y-87938907D01*
X110028966Y-88000093D01*
X110004816Y-88039501D01*
X109969530Y-88074788D01*
X109933578Y-88137061D01*
X109933114Y-88137864D01*
X109933113Y-88137865D01*
X109926107Y-88150000D01*
X109923386Y-88154712D01*
X109904285Y-88226000D01*
X109899500Y-88243857D01*
X109899500Y-88370500D01*
X109880593Y-88428691D01*
X109831093Y-88464655D01*
X109800500Y-88469500D01*
X109580248Y-88469500D01*
X109519314Y-88481621D01*
X109480686Y-88481621D01*
X109419751Y-88469500D01*
X109419748Y-88469500D01*
X109080252Y-88469500D01*
X109080246Y-88469500D01*
X109055484Y-88474426D01*
X108994723Y-88467234D01*
X108989309Y-88464202D01*
X108985836Y-88462764D01*
X108921677Y-88450001D01*
X108921666Y-88450000D01*
X108900001Y-88450000D01*
X108900000Y-88450001D01*
X108900000Y-88640310D01*
X108899206Y-88642752D01*
X108899322Y-88645389D01*
X108899500Y-88645389D01*
X108899500Y-88649460D01*
X108899524Y-88650009D01*
X108899500Y-88650252D01*
X108899500Y-89389744D01*
X108899523Y-89389978D01*
X108900000Y-89399687D01*
X108900000Y-89589998D01*
X108900001Y-89589999D01*
X108921664Y-89589999D01*
X108921672Y-89589998D01*
X108985836Y-89577236D01*
X108994846Y-89573504D01*
X108995957Y-89576186D01*
X109040041Y-89563747D01*
X109055486Y-89565574D01*
X109080243Y-89570499D01*
X109080250Y-89570499D01*
X109080252Y-89570500D01*
X109080253Y-89570500D01*
X109419747Y-89570500D01*
X109419748Y-89570500D01*
X109453698Y-89563747D01*
X109480685Y-89558379D01*
X109508394Y-89556832D01*
X109520230Y-89557839D01*
X109521769Y-89558867D01*
X109580252Y-89570500D01*
X109669020Y-89570500D01*
X109673204Y-89570856D01*
X109697711Y-89581190D01*
X109723001Y-89589407D01*
X109725564Y-89592934D01*
X109729582Y-89594629D01*
X109743331Y-89617388D01*
X109758965Y-89638907D01*
X109758965Y-89643268D01*
X109761219Y-89647000D01*
X109758965Y-89673492D01*
X109758965Y-89700093D01*
X109756336Y-89704381D01*
X109756032Y-89707965D01*
X109749548Y-89715459D01*
X109734814Y-89739504D01*
X109141314Y-90333004D01*
X109086797Y-90360781D01*
X109071310Y-90362000D01*
X108470322Y-90362000D01*
X108412131Y-90343093D01*
X108382113Y-90307946D01*
X108349658Y-90244249D01*
X108255751Y-90150342D01*
X108251631Y-90148243D01*
X108137423Y-90090050D01*
X108137420Y-90090049D01*
X108112876Y-90086161D01*
X108039249Y-90074500D01*
X108039246Y-90074500D01*
X107460754Y-90074500D01*
X107460751Y-90074500D01*
X107362580Y-90090049D01*
X107362576Y-90090050D01*
X107244250Y-90150341D01*
X107150341Y-90244250D01*
X107096385Y-90350142D01*
X107053120Y-90393406D01*
X106992687Y-90402977D01*
X106938171Y-90375198D01*
X106914731Y-90337892D01*
X106897874Y-90289716D01*
X106818216Y-90181785D01*
X106818214Y-90181783D01*
X106710284Y-90102125D01*
X106583661Y-90057819D01*
X106553602Y-90055000D01*
X106425001Y-90055000D01*
X106425000Y-90055001D01*
X106425000Y-90626000D01*
X106406093Y-90684191D01*
X106356593Y-90720155D01*
X106326000Y-90725000D01*
X106250001Y-90725000D01*
X106250000Y-90725001D01*
X106250000Y-90801000D01*
X106231093Y-90859191D01*
X106181593Y-90895155D01*
X106151000Y-90900000D01*
X105543184Y-90900000D01*
X105530593Y-90909148D01*
X105522604Y-90909148D01*
X105515487Y-90912774D01*
X105492592Y-90909148D01*
X105469407Y-90909148D01*
X105461326Y-90904196D01*
X105455055Y-90903203D01*
X105451852Y-90900000D01*
X104055001Y-90900000D01*
X104055000Y-90900001D01*
X104055000Y-91003602D01*
X104057819Y-91033661D01*
X104089368Y-91123823D01*
X104090740Y-91184993D01*
X104055896Y-91235287D01*
X104054219Y-91236402D01*
X104050141Y-91239532D01*
X103689531Y-91600142D01*
X103685235Y-91607584D01*
X103639764Y-91648524D01*
X103578914Y-91654918D01*
X103525927Y-91624324D01*
X103501042Y-91568428D01*
X103500500Y-91558082D01*
X103500500Y-90446397D01*
X104055000Y-90446397D01*
X104055000Y-90549999D01*
X104055001Y-90550000D01*
X104574999Y-90550000D01*
X104575000Y-90549999D01*
X104575000Y-90055001D01*
X104925000Y-90055001D01*
X104925000Y-90549999D01*
X104925001Y-90550000D01*
X105456816Y-90550000D01*
X105469407Y-90540852D01*
X105477396Y-90540852D01*
X105484513Y-90537226D01*
X105507408Y-90540852D01*
X105530593Y-90540852D01*
X105537055Y-90545547D01*
X105544945Y-90546797D01*
X105549354Y-90550000D01*
X106074999Y-90550000D01*
X106075000Y-90549999D01*
X106075000Y-90055001D01*
X106074999Y-90055000D01*
X105946397Y-90055000D01*
X105916338Y-90057819D01*
X105789715Y-90102125D01*
X105681785Y-90181783D01*
X105681783Y-90181785D01*
X105602124Y-90289717D01*
X105593444Y-90314525D01*
X105556379Y-90363206D01*
X105497778Y-90380802D01*
X105440026Y-90360593D01*
X105406556Y-90314525D01*
X105397875Y-90289717D01*
X105318216Y-90181785D01*
X105318214Y-90181783D01*
X105210284Y-90102125D01*
X105083661Y-90057819D01*
X105053602Y-90055000D01*
X104925001Y-90055000D01*
X104925000Y-90055001D01*
X104575000Y-90055001D01*
X104574999Y-90055000D01*
X104446397Y-90055000D01*
X104416338Y-90057819D01*
X104289715Y-90102125D01*
X104181785Y-90181783D01*
X104181783Y-90181785D01*
X104102125Y-90289715D01*
X104057819Y-90416338D01*
X104055000Y-90446397D01*
X103500500Y-90446397D01*
X103500500Y-81253891D01*
X103500805Y-81246124D01*
X103506906Y-81168597D01*
X103514129Y-81076821D01*
X103515325Y-81067419D01*
X103516456Y-81061004D01*
X104224500Y-81061004D01*
X104224500Y-81198995D01*
X104251420Y-81334327D01*
X104251420Y-81334329D01*
X104304222Y-81461806D01*
X104304228Y-81461817D01*
X104380885Y-81576541D01*
X104380886Y-81576542D01*
X104478458Y-81674114D01*
X104491286Y-81682685D01*
X104529165Y-81730735D01*
X104531567Y-81791873D01*
X104497574Y-81842747D01*
X104491293Y-81847309D01*
X104479450Y-81855223D01*
X104478458Y-81855886D01*
X104478454Y-81855889D01*
X104380885Y-81953458D01*
X104304228Y-82068182D01*
X104304222Y-82068193D01*
X104251420Y-82195670D01*
X104251420Y-82195672D01*
X104224500Y-82331004D01*
X104224500Y-82468995D01*
X104251420Y-82604327D01*
X104251420Y-82604329D01*
X104304222Y-82731806D01*
X104304228Y-82731817D01*
X104380885Y-82846541D01*
X104478459Y-82944115D01*
X104481602Y-82946694D01*
X104514593Y-82998223D01*
X104510996Y-83059302D01*
X104473807Y-83105541D01*
X104466026Y-83110740D01*
X104466023Y-83110742D01*
X104365742Y-83211023D01*
X104365739Y-83211027D01*
X104286947Y-83328945D01*
X104286941Y-83328956D01*
X104232669Y-83459982D01*
X104232668Y-83459985D01*
X104225704Y-83494999D01*
X104225705Y-83495000D01*
X104650760Y-83495000D01*
X104622149Y-83544555D01*
X104600000Y-83627213D01*
X104600000Y-83712787D01*
X104622149Y-83795445D01*
X104650760Y-83845000D01*
X104225704Y-83845000D01*
X104232668Y-83880014D01*
X104232669Y-83880017D01*
X104286941Y-84011043D01*
X104286947Y-84011054D01*
X104365739Y-84128972D01*
X104365742Y-84128976D01*
X104466023Y-84229257D01*
X104466026Y-84229259D01*
X104473807Y-84234459D01*
X104511685Y-84282510D01*
X104514085Y-84343648D01*
X104481602Y-84393306D01*
X104478459Y-84395884D01*
X104380885Y-84493458D01*
X104304228Y-84608182D01*
X104304222Y-84608193D01*
X104251420Y-84735670D01*
X104251420Y-84735672D01*
X104224500Y-84871004D01*
X104224500Y-85008995D01*
X104251420Y-85144327D01*
X104251420Y-85144329D01*
X104304222Y-85271806D01*
X104304228Y-85271817D01*
X104380885Y-85386541D01*
X104380886Y-85386542D01*
X104478458Y-85484114D01*
X104491286Y-85492685D01*
X104529165Y-85540735D01*
X104531567Y-85601873D01*
X104497574Y-85652747D01*
X104491293Y-85657309D01*
X104478458Y-85665886D01*
X104478454Y-85665889D01*
X104380885Y-85763458D01*
X104304228Y-85878182D01*
X104304222Y-85878193D01*
X104251420Y-86005670D01*
X104251420Y-86005672D01*
X104224500Y-86141004D01*
X104224500Y-86278995D01*
X104251420Y-86414327D01*
X104251420Y-86414329D01*
X104304222Y-86541806D01*
X104304228Y-86541817D01*
X104379864Y-86655013D01*
X104380886Y-86656542D01*
X104478458Y-86754114D01*
X104491286Y-86762685D01*
X104529165Y-86810735D01*
X104531567Y-86871873D01*
X104497574Y-86922747D01*
X104491293Y-86927309D01*
X104479784Y-86935000D01*
X104478458Y-86935886D01*
X104478454Y-86935889D01*
X104380885Y-87033458D01*
X104304228Y-87148182D01*
X104304222Y-87148193D01*
X104251420Y-87275670D01*
X104251420Y-87275672D01*
X104224500Y-87411004D01*
X104224500Y-87548995D01*
X104251420Y-87684327D01*
X104251420Y-87684329D01*
X104304222Y-87811806D01*
X104304228Y-87811818D01*
X104377526Y-87921514D01*
X104394135Y-87980402D01*
X104372958Y-88037806D01*
X104350214Y-88058831D01*
X104280449Y-88105447D01*
X104280445Y-88105451D01*
X104236134Y-88171766D01*
X104236132Y-88171772D01*
X104224501Y-88230241D01*
X104224500Y-88230253D01*
X104224500Y-89269746D01*
X104224501Y-89269758D01*
X104236132Y-89328227D01*
X104236134Y-89328233D01*
X104280445Y-89394548D01*
X104280448Y-89394552D01*
X104346769Y-89438867D01*
X104384097Y-89446292D01*
X104405241Y-89450498D01*
X104405246Y-89450498D01*
X104405252Y-89450500D01*
X104405253Y-89450500D01*
X105444747Y-89450500D01*
X105444748Y-89450500D01*
X105503231Y-89438867D01*
X105569552Y-89394552D01*
X105613867Y-89328231D01*
X105625500Y-89269748D01*
X105625500Y-89170001D01*
X108380001Y-89170001D01*
X108380001Y-89391670D01*
X108392764Y-89455839D01*
X108392765Y-89455841D01*
X108441387Y-89528608D01*
X108441391Y-89528612D01*
X108514156Y-89577232D01*
X108514158Y-89577233D01*
X108578333Y-89589999D01*
X108600000Y-89589998D01*
X108600000Y-89170001D01*
X108599999Y-89170000D01*
X108380002Y-89170000D01*
X108380001Y-89170001D01*
X105625500Y-89170001D01*
X105625500Y-88230252D01*
X105613867Y-88171769D01*
X105569552Y-88105448D01*
X105555159Y-88095831D01*
X105499786Y-88058831D01*
X105461907Y-88010781D01*
X105459505Y-87949643D01*
X105472471Y-87921516D01*
X105545775Y-87811811D01*
X105598580Y-87684328D01*
X105625500Y-87548993D01*
X105625500Y-87411007D01*
X105598580Y-87275672D01*
X105561437Y-87186000D01*
X105545777Y-87148193D01*
X105545771Y-87148182D01*
X105469114Y-87033458D01*
X105371546Y-86935890D01*
X105371545Y-86935889D01*
X105371542Y-86935886D01*
X105358712Y-86927313D01*
X105320835Y-86879268D01*
X105318431Y-86818129D01*
X105346079Y-86772707D01*
X105351984Y-86767182D01*
X105371542Y-86754114D01*
X105376724Y-86748932D01*
X106750000Y-86748932D01*
X106750000Y-86934999D01*
X106750001Y-86935000D01*
X107120000Y-86935000D01*
X107120000Y-87285000D01*
X106750001Y-87285000D01*
X106750000Y-87285001D01*
X106750000Y-87471067D01*
X106773826Y-87590846D01*
X106773826Y-87590848D01*
X106820561Y-87703677D01*
X106888411Y-87805223D01*
X106974776Y-87891588D01*
X107076322Y-87959438D01*
X107166040Y-87996600D01*
X107212566Y-88036336D01*
X107226850Y-88095831D01*
X107215725Y-88131670D01*
X107216203Y-88131868D01*
X107214052Y-88137061D01*
X107213901Y-88137548D01*
X107213721Y-88137858D01*
X107213720Y-88137860D01*
X107203691Y-88175290D01*
X107174500Y-88284234D01*
X107174500Y-88435766D01*
X107191712Y-88500001D01*
X107213720Y-88582139D01*
X107289481Y-88713360D01*
X107289483Y-88713362D01*
X107289485Y-88713365D01*
X107396635Y-88820515D01*
X107396637Y-88820516D01*
X107396639Y-88820518D01*
X107527861Y-88896279D01*
X107527859Y-88896279D01*
X107527863Y-88896280D01*
X107527865Y-88896281D01*
X107674234Y-88935500D01*
X107674236Y-88935500D01*
X108125764Y-88935500D01*
X108125766Y-88935500D01*
X108272135Y-88896281D01*
X108294681Y-88883263D01*
X108344182Y-88870000D01*
X108599999Y-88870000D01*
X108600000Y-88869999D01*
X108600000Y-88543968D01*
X108603373Y-88518345D01*
X108608288Y-88500001D01*
X108625500Y-88435766D01*
X108625500Y-88284234D01*
X108586281Y-88137865D01*
X108586279Y-88137862D01*
X108586279Y-88137860D01*
X108510518Y-88006639D01*
X108510516Y-88006637D01*
X108510515Y-88006635D01*
X108403365Y-87899485D01*
X108403362Y-87899483D01*
X108403360Y-87899481D01*
X108272138Y-87823720D01*
X108272140Y-87823720D01*
X108203106Y-87805223D01*
X108125766Y-87784500D01*
X108034124Y-87784500D01*
X107975933Y-87765593D01*
X107939969Y-87716093D01*
X107939969Y-87654907D01*
X107942660Y-87647615D01*
X107966173Y-87590848D01*
X107966173Y-87590846D01*
X107989999Y-87471067D01*
X107990000Y-87471063D01*
X107990000Y-87470001D01*
X108630001Y-87470001D01*
X108630001Y-87691670D01*
X108642764Y-87755839D01*
X108642765Y-87755841D01*
X108691387Y-87828608D01*
X108691391Y-87828612D01*
X108764156Y-87877232D01*
X108764158Y-87877233D01*
X108828333Y-87889999D01*
X108850000Y-87889998D01*
X108850000Y-87470001D01*
X108849999Y-87470000D01*
X108630002Y-87470000D01*
X108630001Y-87470001D01*
X107990000Y-87470001D01*
X107990000Y-87285001D01*
X107989999Y-87285000D01*
X107620000Y-87285000D01*
X107620000Y-86948334D01*
X108630000Y-86948334D01*
X108630000Y-87169999D01*
X108630001Y-87170000D01*
X108849999Y-87170000D01*
X108850000Y-87169999D01*
X108850000Y-86750000D01*
X108849999Y-86749999D01*
X108828336Y-86750000D01*
X108764161Y-86762764D01*
X108764158Y-86762765D01*
X108691391Y-86811387D01*
X108691387Y-86811391D01*
X108642767Y-86884156D01*
X108642764Y-86884163D01*
X108630001Y-86948322D01*
X108630000Y-86948334D01*
X107620000Y-86948334D01*
X107620000Y-86935000D01*
X107989999Y-86935000D01*
X107990000Y-86934999D01*
X107990000Y-86748936D01*
X107989999Y-86748932D01*
X107966173Y-86629153D01*
X107966173Y-86629151D01*
X107919438Y-86516322D01*
X107851588Y-86414776D01*
X107765223Y-86328411D01*
X107663679Y-86260562D01*
X107550849Y-86213826D01*
X107545000Y-86212662D01*
X107545000Y-86631446D01*
X107511614Y-86598060D01*
X107419728Y-86560000D01*
X107320272Y-86560000D01*
X107228386Y-86598060D01*
X107195000Y-86631446D01*
X107195000Y-86212662D01*
X107189150Y-86213826D01*
X107076320Y-86260562D01*
X106974776Y-86328411D01*
X106888411Y-86414776D01*
X106820561Y-86516322D01*
X106773826Y-86629151D01*
X106773826Y-86629153D01*
X106750000Y-86748932D01*
X105376724Y-86748932D01*
X105469114Y-86656542D01*
X105545775Y-86541811D01*
X105598580Y-86414328D01*
X105625500Y-86278993D01*
X105625500Y-86141007D01*
X105598580Y-86005672D01*
X105577614Y-85955056D01*
X105545777Y-85878193D01*
X105545771Y-85878182D01*
X105469114Y-85763458D01*
X105371546Y-85665890D01*
X105371545Y-85665889D01*
X105371542Y-85665886D01*
X105358712Y-85657313D01*
X105320835Y-85609268D01*
X105318431Y-85548129D01*
X105352423Y-85497255D01*
X105358685Y-85492704D01*
X105371542Y-85484114D01*
X105469114Y-85386542D01*
X105545775Y-85271811D01*
X105598580Y-85144328D01*
X105625500Y-85008993D01*
X105625500Y-84871007D01*
X105598580Y-84735672D01*
X105545775Y-84608189D01*
X105545774Y-84608187D01*
X105545771Y-84608182D01*
X105469114Y-84493458D01*
X105371542Y-84395886D01*
X105368402Y-84393310D01*
X105335407Y-84341784D01*
X105339000Y-84280704D01*
X105376196Y-84234457D01*
X105383970Y-84229262D01*
X105383976Y-84229257D01*
X105484257Y-84128976D01*
X105484260Y-84128972D01*
X105563052Y-84011054D01*
X105563058Y-84011043D01*
X105617330Y-83880017D01*
X105617331Y-83880014D01*
X105623300Y-83850001D01*
X117055001Y-83850001D01*
X117055001Y-83908057D01*
X117070575Y-84006400D01*
X117070577Y-84006405D01*
X117130976Y-84124944D01*
X117225055Y-84219023D01*
X117225054Y-84219023D01*
X117343591Y-84279421D01*
X117343595Y-84279422D01*
X117441943Y-84294999D01*
X117575000Y-84294999D01*
X117575000Y-83850001D01*
X117925000Y-83850001D01*
X117925000Y-84294998D01*
X117925001Y-84294999D01*
X118058055Y-84294999D01*
X118058057Y-84294998D01*
X118156400Y-84279424D01*
X118156405Y-84279422D01*
X118274944Y-84219023D01*
X118369023Y-84124944D01*
X118429421Y-84006408D01*
X118429422Y-84006404D01*
X118445000Y-83908056D01*
X118445000Y-83850001D01*
X118444999Y-83850000D01*
X117925001Y-83850000D01*
X117925000Y-83850001D01*
X117575000Y-83850001D01*
X117574999Y-83850000D01*
X117055002Y-83850000D01*
X117055001Y-83850001D01*
X105623300Y-83850001D01*
X105624295Y-83845000D01*
X105199240Y-83845000D01*
X105227851Y-83795445D01*
X105250000Y-83712787D01*
X105250000Y-83627213D01*
X105227851Y-83544555D01*
X105199240Y-83495000D01*
X105624295Y-83495000D01*
X105624295Y-83494999D01*
X105617331Y-83459985D01*
X105617330Y-83459982D01*
X105609858Y-83441943D01*
X117055000Y-83441943D01*
X117055000Y-83499999D01*
X117055001Y-83500000D01*
X117574999Y-83500000D01*
X117575000Y-83499999D01*
X117575000Y-83055001D01*
X117925000Y-83055001D01*
X117925000Y-83499999D01*
X117925001Y-83500000D01*
X118444998Y-83500000D01*
X118444999Y-83499999D01*
X118444999Y-83441944D01*
X118444998Y-83441942D01*
X118429424Y-83343599D01*
X118429422Y-83343594D01*
X118369023Y-83225055D01*
X118274944Y-83130976D01*
X118274945Y-83130976D01*
X118156408Y-83070578D01*
X118156404Y-83070577D01*
X118058056Y-83055000D01*
X117925001Y-83055000D01*
X117925000Y-83055001D01*
X117575000Y-83055001D01*
X117574999Y-83055000D01*
X117441945Y-83055000D01*
X117441941Y-83055001D01*
X117343599Y-83070575D01*
X117343594Y-83070577D01*
X117225055Y-83130976D01*
X117130976Y-83225055D01*
X117070578Y-83343591D01*
X117070577Y-83343595D01*
X117055000Y-83441943D01*
X105609858Y-83441943D01*
X105563058Y-83328956D01*
X105563052Y-83328945D01*
X105484260Y-83211027D01*
X105484257Y-83211023D01*
X105383976Y-83110742D01*
X105383970Y-83110737D01*
X105376196Y-83105543D01*
X105338315Y-83057494D01*
X105335913Y-82996356D01*
X105368402Y-82946690D01*
X105371535Y-82944118D01*
X105371542Y-82944114D01*
X105469114Y-82846542D01*
X105545775Y-82731811D01*
X105598580Y-82604328D01*
X105625500Y-82468993D01*
X105625500Y-82331007D01*
X105598580Y-82195672D01*
X105545775Y-82068189D01*
X105545774Y-82068187D01*
X105545771Y-82068182D01*
X105469114Y-81953458D01*
X105371546Y-81855890D01*
X105371545Y-81855889D01*
X105371542Y-81855886D01*
X105358712Y-81847313D01*
X105320835Y-81799268D01*
X105318431Y-81738129D01*
X105352423Y-81687255D01*
X105358685Y-81682704D01*
X105371542Y-81674114D01*
X105469114Y-81576542D01*
X105545775Y-81461811D01*
X105598580Y-81334328D01*
X105625500Y-81198993D01*
X105625500Y-81061007D01*
X105598580Y-80925672D01*
X105572986Y-80863883D01*
X105559762Y-80831956D01*
X105546083Y-80798932D01*
X106390000Y-80798932D01*
X106390000Y-80984999D01*
X106390001Y-80985000D01*
X106760000Y-80985000D01*
X106760000Y-81335000D01*
X106390001Y-81335000D01*
X106390000Y-81335001D01*
X106390000Y-81521067D01*
X106413826Y-81640846D01*
X106413826Y-81640848D01*
X106460561Y-81753677D01*
X106528411Y-81855223D01*
X106614776Y-81941588D01*
X106716322Y-82009438D01*
X106829151Y-82056173D01*
X106829154Y-82056174D01*
X106834999Y-82057336D01*
X106835000Y-82057336D01*
X106835000Y-81638554D01*
X106868386Y-81671940D01*
X106960272Y-81710000D01*
X107059728Y-81710000D01*
X107151614Y-81671940D01*
X107185000Y-81638554D01*
X107185000Y-82057336D01*
X107190845Y-82056174D01*
X107190848Y-82056173D01*
X107303677Y-82009438D01*
X107405223Y-81941588D01*
X107491588Y-81855223D01*
X107559438Y-81753677D01*
X107606173Y-81640848D01*
X107606173Y-81640846D01*
X107629999Y-81521067D01*
X107630000Y-81521063D01*
X107630000Y-81335001D01*
X107629999Y-81335000D01*
X107260000Y-81335000D01*
X107260000Y-80985000D01*
X107629999Y-80985000D01*
X107630000Y-80984999D01*
X107630000Y-80798936D01*
X107629999Y-80798932D01*
X115370000Y-80798932D01*
X115370000Y-80984999D01*
X115370001Y-80985000D01*
X115740000Y-80985000D01*
X115740000Y-81335000D01*
X115370001Y-81335000D01*
X115370000Y-81335001D01*
X115370000Y-81521067D01*
X115393826Y-81640846D01*
X115393826Y-81640848D01*
X115440561Y-81753677D01*
X115508411Y-81855223D01*
X115594776Y-81941588D01*
X115696322Y-82009438D01*
X115809151Y-82056173D01*
X115809154Y-82056174D01*
X115814999Y-82057336D01*
X115815000Y-82057336D01*
X115815000Y-81638554D01*
X115848386Y-81671940D01*
X115940272Y-81710000D01*
X116039728Y-81710000D01*
X116131614Y-81671940D01*
X116165000Y-81638554D01*
X116165000Y-82057336D01*
X116170845Y-82056174D01*
X116170848Y-82056173D01*
X116283677Y-82009438D01*
X116385223Y-81941588D01*
X116471588Y-81855223D01*
X116539438Y-81753677D01*
X116586173Y-81640848D01*
X116586173Y-81640846D01*
X116609999Y-81521067D01*
X116610000Y-81521063D01*
X116610000Y-81335001D01*
X116609999Y-81335000D01*
X116240000Y-81335000D01*
X116240000Y-81168594D01*
X117423500Y-81168594D01*
X117423500Y-81331405D01*
X117455262Y-81491080D01*
X117455262Y-81491082D01*
X117517563Y-81641492D01*
X117517563Y-81641493D01*
X117582134Y-81738129D01*
X117608016Y-81776863D01*
X117723137Y-81891984D01*
X117858505Y-81982435D01*
X118008919Y-82044738D01*
X118168597Y-82076500D01*
X118168598Y-82076500D01*
X118331402Y-82076500D01*
X118331403Y-82076500D01*
X118491081Y-82044738D01*
X118641495Y-81982435D01*
X118776863Y-81891984D01*
X118891984Y-81776863D01*
X118982435Y-81641495D01*
X119044738Y-81491081D01*
X119076500Y-81331403D01*
X119076500Y-81168597D01*
X119044738Y-81008919D01*
X119010255Y-80925670D01*
X118982436Y-80858507D01*
X118982436Y-80858506D01*
X118891984Y-80723137D01*
X118776862Y-80608015D01*
X118641492Y-80517563D01*
X118491081Y-80455262D01*
X118331405Y-80423500D01*
X118331403Y-80423500D01*
X118168597Y-80423500D01*
X118168594Y-80423500D01*
X118008919Y-80455262D01*
X118008917Y-80455262D01*
X117858507Y-80517563D01*
X117858506Y-80517563D01*
X117723137Y-80608015D01*
X117608015Y-80723137D01*
X117517563Y-80858506D01*
X117517563Y-80858507D01*
X117455262Y-81008917D01*
X117455262Y-81008919D01*
X117423500Y-81168594D01*
X116240000Y-81168594D01*
X116240000Y-80985000D01*
X116609999Y-80985000D01*
X116610000Y-80984999D01*
X116610000Y-80798936D01*
X116609999Y-80798932D01*
X116586173Y-80679153D01*
X116586173Y-80679151D01*
X116539438Y-80566322D01*
X116471588Y-80464776D01*
X116385223Y-80378411D01*
X116283679Y-80310562D01*
X116170849Y-80263826D01*
X116165000Y-80262662D01*
X116165000Y-80681446D01*
X116131614Y-80648060D01*
X116039728Y-80610000D01*
X115940272Y-80610000D01*
X115848386Y-80648060D01*
X115815000Y-80681446D01*
X115815000Y-80262662D01*
X115809150Y-80263826D01*
X115696320Y-80310562D01*
X115594776Y-80378411D01*
X115508411Y-80464776D01*
X115440561Y-80566322D01*
X115393826Y-80679151D01*
X115393826Y-80679153D01*
X115370000Y-80798932D01*
X107629999Y-80798932D01*
X107606173Y-80679153D01*
X107606173Y-80679151D01*
X107559438Y-80566322D01*
X107491588Y-80464776D01*
X107405223Y-80378411D01*
X107303679Y-80310562D01*
X107190849Y-80263826D01*
X107185000Y-80262662D01*
X107185000Y-80681446D01*
X107151614Y-80648060D01*
X107059728Y-80610000D01*
X106960272Y-80610000D01*
X106868386Y-80648060D01*
X106835000Y-80681446D01*
X106835000Y-80262662D01*
X106829150Y-80263826D01*
X106716320Y-80310562D01*
X106614776Y-80378411D01*
X106528411Y-80464776D01*
X106460561Y-80566322D01*
X106413826Y-80679151D01*
X106413826Y-80679153D01*
X106390000Y-80798932D01*
X105546083Y-80798932D01*
X105545777Y-80798193D01*
X105545771Y-80798182D01*
X105469114Y-80683458D01*
X105371541Y-80585885D01*
X105256817Y-80509228D01*
X105256806Y-80509222D01*
X105129328Y-80456420D01*
X104993995Y-80429500D01*
X104993993Y-80429500D01*
X104856007Y-80429500D01*
X104856004Y-80429500D01*
X104720672Y-80456420D01*
X104720670Y-80456420D01*
X104593193Y-80509222D01*
X104593182Y-80509228D01*
X104478458Y-80585885D01*
X104380885Y-80683458D01*
X104304228Y-80798182D01*
X104304222Y-80798193D01*
X104251420Y-80925670D01*
X104251420Y-80925672D01*
X104224500Y-81061004D01*
X103516456Y-81061004D01*
X103521818Y-81030597D01*
X103523035Y-81024741D01*
X103558044Y-80878922D01*
X103561271Y-80868201D01*
X103570722Y-80842234D01*
X103572267Y-80838260D01*
X103633709Y-80689926D01*
X103640749Y-80676109D01*
X103735069Y-80522193D01*
X103744187Y-80509644D01*
X103861418Y-80372384D01*
X103872384Y-80361418D01*
X104009644Y-80244187D01*
X104022199Y-80235065D01*
X104176104Y-80140752D01*
X104189926Y-80133709D01*
X104338252Y-80072271D01*
X104342237Y-80070721D01*
X104368209Y-80061268D01*
X104378912Y-80058046D01*
X104524760Y-80023031D01*
X104530591Y-80021819D01*
X104567412Y-80015326D01*
X104576824Y-80014128D01*
X104746124Y-80000804D01*
X104753891Y-80000500D01*
X105999793Y-80000500D01*
X118246109Y-80000500D01*
X118253875Y-80000804D01*
G37*
%TD.AperFunction*%
%TD*%
%TA.AperFunction,Conductor*%
%TO.N,/RADIO-MIC*%
G36*
X124262170Y-109252421D02*
G01*
X124297142Y-109259377D01*
X124321088Y-109264140D01*
X124366508Y-109282953D01*
X124405937Y-109309298D01*
X124411927Y-109315288D01*
X124416737Y-109317382D01*
X124440702Y-109344063D01*
X124467046Y-109383491D01*
X124485859Y-109428908D01*
X124497079Y-109485318D01*
X124499500Y-109509895D01*
X124499500Y-110992919D01*
X124498708Y-111007028D01*
X124489000Y-111093178D01*
X124485500Y-111111675D01*
X124482503Y-111122862D01*
X124479725Y-111131869D01*
X124467918Y-111165613D01*
X124426540Y-111223306D01*
X124360540Y-111249469D01*
X124348988Y-111250000D01*
X119762410Y-111250000D01*
X119737829Y-111247579D01*
X119711048Y-111242252D01*
X119678909Y-111235859D01*
X119671083Y-111232617D01*
X119665842Y-111232524D01*
X119633491Y-111217046D01*
X119605520Y-111198357D01*
X119594062Y-111190701D01*
X119559298Y-111155937D01*
X119532953Y-111116508D01*
X119514140Y-111071089D01*
X119508044Y-111040442D01*
X119514372Y-110969728D01*
X119515216Y-110967638D01*
X119516707Y-110964036D01*
X119516712Y-110964029D01*
X119554500Y-110823001D01*
X119554500Y-110676999D01*
X119516712Y-110535971D01*
X119516710Y-110535968D01*
X119516710Y-110535966D01*
X119513551Y-110528339D01*
X119514636Y-110527889D01*
X119500000Y-110473263D01*
X119500000Y-109512409D01*
X119502421Y-109487829D01*
X119514140Y-109428911D01*
X119532953Y-109383491D01*
X119559300Y-109344059D01*
X119594059Y-109309300D01*
X119633492Y-109282952D01*
X119678909Y-109264140D01*
X119713926Y-109257175D01*
X119737830Y-109252421D01*
X119762410Y-109250000D01*
X124237590Y-109250000D01*
X124262170Y-109252421D01*
G37*
%TD.AperFunction*%
%TD*%
%TA.AperFunction,Conductor*%
%TO.N,/RADIO-VP-PTT2*%
G36*
X124262170Y-104752421D02*
G01*
X124297142Y-104759377D01*
X124321088Y-104764140D01*
X124366508Y-104782953D01*
X124405937Y-104809298D01*
X124411927Y-104815288D01*
X124416737Y-104817382D01*
X124440702Y-104844063D01*
X124467046Y-104883491D01*
X124485859Y-104928908D01*
X124497079Y-104985318D01*
X124499500Y-105009895D01*
X124499500Y-108490103D01*
X124497079Y-108514685D01*
X124485859Y-108571090D01*
X124482617Y-108578915D01*
X124482524Y-108584157D01*
X124467046Y-108616508D01*
X124440702Y-108655936D01*
X124405936Y-108690702D01*
X124366508Y-108717046D01*
X124321090Y-108735859D01*
X124276927Y-108744643D01*
X124262170Y-108747579D01*
X124237590Y-108750000D01*
X120762410Y-108750000D01*
X120737829Y-108747579D01*
X120715173Y-108743072D01*
X120678909Y-108735859D01*
X120633491Y-108717046D01*
X120594063Y-108690702D01*
X120559298Y-108655937D01*
X120532953Y-108616508D01*
X120514140Y-108571088D01*
X120502421Y-108512170D01*
X120500000Y-108487590D01*
X120500000Y-105012409D01*
X120502421Y-104987829D01*
X120514140Y-104928911D01*
X120532953Y-104883491D01*
X120559300Y-104844059D01*
X120594059Y-104809300D01*
X120633492Y-104782952D01*
X120678909Y-104764140D01*
X120713926Y-104757175D01*
X120737830Y-104752421D01*
X120762410Y-104750000D01*
X124237590Y-104750000D01*
X124262170Y-104752421D01*
G37*
%TD.AperFunction*%
%TD*%
%TA.AperFunction,Conductor*%
%TO.N,/RADIO-TX*%
G36*
X124262170Y-97502421D02*
G01*
X124297142Y-97509377D01*
X124321088Y-97514140D01*
X124366508Y-97532953D01*
X124405937Y-97559298D01*
X124411927Y-97565288D01*
X124416737Y-97567382D01*
X124440702Y-97594063D01*
X124467046Y-97633491D01*
X124485859Y-97678908D01*
X124497079Y-97735318D01*
X124499500Y-97759895D01*
X124499500Y-99240103D01*
X124497079Y-99264685D01*
X124485859Y-99321090D01*
X124482617Y-99328915D01*
X124482524Y-99334157D01*
X124467046Y-99366508D01*
X124440702Y-99405936D01*
X124405936Y-99440702D01*
X124366508Y-99467046D01*
X124321090Y-99485859D01*
X124276927Y-99494643D01*
X124262170Y-99497579D01*
X124237590Y-99500000D01*
X119762410Y-99500000D01*
X119737829Y-99497579D01*
X119715173Y-99493072D01*
X119678909Y-99485859D01*
X119633491Y-99467046D01*
X119594063Y-99440702D01*
X119559298Y-99405937D01*
X119532953Y-99366508D01*
X119514140Y-99321088D01*
X119502421Y-99262170D01*
X119500000Y-99237590D01*
X119500000Y-97762409D01*
X119502421Y-97737829D01*
X119514140Y-97678911D01*
X119532953Y-97633491D01*
X119559300Y-97594059D01*
X119594059Y-97559300D01*
X119633492Y-97532952D01*
X119678909Y-97514140D01*
X119713926Y-97507175D01*
X119737830Y-97502421D01*
X119762410Y-97500000D01*
X124237590Y-97500000D01*
X124262170Y-97502421D01*
G37*
%TD.AperFunction*%
%TD*%
%TA.AperFunction,Conductor*%
%TO.N,/RADIO-SPK*%
G36*
X124262170Y-93002421D02*
G01*
X124297142Y-93009377D01*
X124321088Y-93014140D01*
X124366508Y-93032953D01*
X124405937Y-93059298D01*
X124411927Y-93065288D01*
X124416737Y-93067382D01*
X124440702Y-93094063D01*
X124467046Y-93133491D01*
X124485859Y-93178908D01*
X124497079Y-93235318D01*
X124499500Y-93259895D01*
X124499500Y-96740103D01*
X124497079Y-96764685D01*
X124485859Y-96821090D01*
X124482617Y-96828915D01*
X124482524Y-96834157D01*
X124467046Y-96866508D01*
X124440702Y-96905936D01*
X124405936Y-96940702D01*
X124366508Y-96967046D01*
X124321090Y-96985859D01*
X124276927Y-96994643D01*
X124262170Y-96997579D01*
X124237590Y-97000000D01*
X120762410Y-97000000D01*
X120737829Y-96997579D01*
X120715173Y-96993072D01*
X120678909Y-96985859D01*
X120633491Y-96967046D01*
X120594063Y-96940702D01*
X120559298Y-96905937D01*
X120532953Y-96866508D01*
X120514140Y-96821088D01*
X120502421Y-96762170D01*
X120500000Y-96737590D01*
X120500000Y-93262409D01*
X120502421Y-93237829D01*
X120514140Y-93178911D01*
X120532953Y-93133491D01*
X120559300Y-93094059D01*
X120594059Y-93059300D01*
X120633492Y-93032952D01*
X120678909Y-93014140D01*
X120713926Y-93007175D01*
X120737830Y-93002421D01*
X120762410Y-93000000D01*
X124237590Y-93000000D01*
X124262170Y-93002421D01*
G37*
%TD.AperFunction*%
%TD*%
M02*
