%TF.GenerationSoftware,KiCad,Pcbnew,9.0.4*%
%TF.CreationDate,2025-09-03T13:38:36-07:00*%
%TF.ProjectId,k1-aioc,6b312d61-696f-4632-9e6b-696361645f70,rev?*%
%TF.SameCoordinates,Original*%
%TF.FileFunction,Copper,L2,Bot*%
%TF.FilePolarity,Positive*%
%FSLAX46Y46*%
G04 Gerber Fmt 4.6, Leading zero omitted, Abs format (unit mm)*
G04 Created by KiCad (PCBNEW 9.0.4) date 2025-09-03 13:38:36*
%MOMM*%
%LPD*%
G01*
G04 APERTURE LIST*
G04 Aperture macros list*
%AMRoundRect*
0 Rectangle with rounded corners*
0 $1 Rounding radius*
0 $2 $3 $4 $5 $6 $7 $8 $9 X,Y pos of 4 corners*
0 Add a 4 corners polygon primitive as box body*
4,1,4,$2,$3,$4,$5,$6,$7,$8,$9,$2,$3,0*
0 Add four circle primitives for the rounded corners*
1,1,$1+$1,$2,$3*
1,1,$1+$1,$4,$5*
1,1,$1+$1,$6,$7*
1,1,$1+$1,$8,$9*
0 Add four rect primitives between the rounded corners*
20,1,$1+$1,$2,$3,$4,$5,0*
20,1,$1+$1,$4,$5,$6,$7,0*
20,1,$1+$1,$6,$7,$8,$9,0*
20,1,$1+$1,$8,$9,$2,$3,0*%
G04 Aperture macros list end*
%TA.AperFunction,ComponentPad*%
%ADD10C,0.600000*%
%TD*%
%TA.AperFunction,ComponentPad*%
%ADD11O,1.000000X1.600000*%
%TD*%
%TA.AperFunction,ComponentPad*%
%ADD12C,0.800000*%
%TD*%
%TA.AperFunction,ComponentPad*%
%ADD13R,1.000000X1.000000*%
%TD*%
%TA.AperFunction,ComponentPad*%
%ADD14O,1.000000X1.000000*%
%TD*%
%TA.AperFunction,SMDPad,CuDef*%
%ADD15RoundRect,0.218750X0.218750X0.256250X-0.218750X0.256250X-0.218750X-0.256250X0.218750X-0.256250X0*%
%TD*%
%TA.AperFunction,SMDPad,CuDef*%
%ADD16RoundRect,0.218750X-0.218750X-0.256250X0.218750X-0.256250X0.218750X0.256250X-0.218750X0.256250X0*%
%TD*%
%TA.AperFunction,ViaPad*%
%ADD17C,0.600000*%
%TD*%
%TA.AperFunction,Conductor*%
%ADD18C,0.250000*%
%TD*%
%TA.AperFunction,Conductor*%
%ADD19C,0.500000*%
%TD*%
G04 APERTURE END LIST*
D10*
%TO.P,J1,B12,GND*%
%TO.N,GND*%
X114300000Y-86830000D03*
%TO.P,J1,B1,GND*%
X108700000Y-86830000D03*
%TO.P,J1,B2,SSTXp2*%
%TO.N,unconnected-(J1-SSTXp2-PadB2)*%
X109100000Y-86130000D03*
%TO.P,J1,B11,SSRXp1*%
%TO.N,unconnected-(J1-SSRXp1-PadB11)*%
X113900000Y-86130000D03*
%TO.P,J1,B3,SSIXn2*%
%TO.N,unconnected-(J1-SSIXn2-PadB3)*%
X109900000Y-86130000D03*
%TO.P,J1,B10,SSRXn1*%
%TO.N,unconnected-(J1-SSRXn1-PadB10)*%
X113100000Y-86130000D03*
%TO.P,J1,B5,CC2*%
%TO.N,Net-(J1-CC2)*%
X110700000Y-86130000D03*
%TO.P,J1,B8,SUB2*%
%TO.N,unconnected-(J1-SUB2-PadB8)*%
X112300000Y-86130000D03*
%TO.P,J1,B4,VBUS*%
%TO.N,/VBUS*%
X110300000Y-86830000D03*
%TO.P,J1,B9,VBUS*%
X112700000Y-86830000D03*
%TO.P,J1,B6,DP2*%
%TO.N,/USB-DP*%
X111100000Y-86830000D03*
%TO.P,J1,B7,DN2*%
%TO.N,/USB-DN*%
X111900000Y-86830000D03*
D11*
%TO.P,J1,25,25*%
%TO.N,GND*%
X107370000Y-86230000D03*
X115630000Y-86230000D03*
X107010000Y-81840000D03*
X115990000Y-81840000D03*
D12*
%TO.P,J1,*%
%TO.N,*%
X115170000Y-87480000D03*
X107830000Y-87480000D03*
%TD*%
D13*
%TO.P,J2,1,Pin_1*%
%TO.N,/BOOT0*%
X104925000Y-88750000D03*
D14*
%TO.P,J2,2,Pin_2*%
%TO.N,/SWO*%
X104925000Y-87480000D03*
%TO.P,J2,3,Pin_3*%
%TO.N,/NRST*%
X104925000Y-86210000D03*
%TO.P,J2,4,Pin_4*%
%TO.N,/SWDIO*%
X104925000Y-84940000D03*
%TO.P,J2,5,Pin_5*%
%TO.N,GND*%
X104925000Y-83670000D03*
%TO.P,J2,6,Pin_6*%
%TO.N,/SWCLK*%
X104925000Y-82400000D03*
%TO.P,J2,7,Pin_7*%
%TO.N,+3V3*%
X104925000Y-81130000D03*
%TD*%
D15*
%TO.P,D4,1,K*%
%TO.N,Net-(D1-A)*%
X106287500Y-105000000D03*
%TO.P,D4,2,A*%
%TO.N,Net-(D1-K)*%
X104712500Y-105000000D03*
%TD*%
D16*
%TO.P,D3,1,K*%
%TO.N,Net-(D1-K)*%
X104712500Y-103500000D03*
%TO.P,D3,2,A*%
%TO.N,Net-(D1-A)*%
X106287500Y-103500000D03*
%TD*%
D17*
%TO.N,GND*%
X114250000Y-106250000D03*
X115500000Y-97500000D03*
X113000270Y-83951369D03*
X105800000Y-94750000D03*
X116500000Y-94500000D03*
X118950000Y-83250000D03*
X107750000Y-107500000D03*
X115000000Y-102000000D03*
X113000000Y-96500000D03*
X110000000Y-100250000D03*
X118950000Y-84750000D03*
X109250000Y-103750000D03*
X112250000Y-102000000D03*
X107250000Y-89750000D03*
X113750000Y-110000000D03*
X110750000Y-107500000D03*
X112000000Y-97500000D03*
X105250000Y-89769502D03*
X105500000Y-98000000D03*
X110000000Y-98250000D03*
X114000000Y-99000000D03*
X116000270Y-83951369D03*
X117000000Y-92000000D03*
X109250000Y-102750000D03*
X114500000Y-101000000D03*
X107000000Y-83950000D03*
X105500000Y-99750000D03*
X117250000Y-103750000D03*
X110000000Y-101000000D03*
X106750000Y-107500000D03*
X114000000Y-92000000D03*
X113000000Y-97500000D03*
X113000000Y-102000000D03*
X106250000Y-89750000D03*
X114500000Y-86250000D03*
X107250000Y-104750000D03*
X121750000Y-100500000D03*
X116500000Y-95500000D03*
X111750000Y-107502432D03*
X114750000Y-98250000D03*
X115750000Y-110000000D03*
X114000000Y-96500000D03*
X113750000Y-108500000D03*
X114499400Y-83950576D03*
X112000000Y-96500000D03*
X108500270Y-83951369D03*
X105200000Y-94750000D03*
X116500000Y-103000000D03*
X111500270Y-83951369D03*
X122750000Y-101250000D03*
X115500000Y-99000000D03*
X109250000Y-110000000D03*
X111000000Y-96500000D03*
X115500000Y-101000000D03*
X111500000Y-102000000D03*
X118950000Y-86250000D03*
X109250000Y-104750000D03*
X115500000Y-92000000D03*
X118950000Y-87750000D03*
X110000270Y-83951369D03*
X122750000Y-102750000D03*
X115750000Y-106250000D03*
%TO.N,/SWCLK*%
X110600000Y-92866006D03*
%TO.N,/SWDIO*%
X110600000Y-93774076D03*
%TO.N,/USB-DP*%
X111350000Y-86250000D03*
X111350000Y-90500000D03*
X111350000Y-93250000D03*
%TO.N,/USB-DN*%
X112150000Y-86250000D03*
X112150000Y-90500000D03*
X112150000Y-93250000D03*
%TO.N,+3V3*%
X110274500Y-97000000D03*
X110000000Y-91000000D03*
X110750000Y-97500000D03*
X107250000Y-96650000D03*
X107250000Y-97350000D03*
%TO.N,+3.3VA*%
X111750000Y-99250000D03*
X112500000Y-99250000D03*
X107250000Y-99250000D03*
X111750000Y-100750000D03*
X107250000Y-98550000D03*
X112500000Y-100750000D03*
%TO.N,GND*%
X113500000Y-86250000D03*
X112899500Y-89942499D03*
%TO.N,/RADIO-RX-PTT1*%
X119000000Y-110750000D03*
X119011829Y-89364195D03*
%TO.N,/RADIO-TX*%
X123250000Y-100250000D03*
X119003182Y-88547732D03*
%TO.N,/NRST*%
X113000000Y-110750000D03*
X104750000Y-109000000D03*
%TO.N,/SWO*%
X109750000Y-93819338D03*
%TO.N,/BOOT0*%
X105500000Y-101250000D03*
%TO.N,Net-(D1-K)*%
X105500000Y-104250000D03*
%TO.N,Net-(D1-A)*%
X105500000Y-102750000D03*
%TD*%
D18*
%TO.N,/SWCLK*%
X105925000Y-83420000D02*
X104925000Y-82420000D01*
X109247792Y-85050000D02*
X106505408Y-85050000D01*
X110600000Y-92483884D02*
X109375000Y-91258884D01*
X110600000Y-92866006D02*
X110600000Y-92483884D01*
X109375000Y-91258884D02*
X109375000Y-90741116D01*
X110075500Y-90040616D02*
X110075500Y-85877708D01*
X106505408Y-85050000D02*
X105925000Y-84469592D01*
X109375000Y-90741116D02*
X110075500Y-90040616D01*
X110075500Y-85877708D02*
X109247792Y-85050000D01*
X105925000Y-84469592D02*
X105925000Y-83420000D01*
%TO.N,/SWDIO*%
X109061396Y-85500000D02*
X106319012Y-85500000D01*
X109625500Y-86064104D02*
X109061396Y-85500000D01*
X109625500Y-89854220D02*
X109625500Y-86064104D01*
X109975000Y-92495280D02*
X108925000Y-91445280D01*
X108925000Y-90554720D02*
X109625500Y-89854220D01*
X110600000Y-93774076D02*
X109975000Y-93149076D01*
X109975000Y-93149076D02*
X109975000Y-92495280D01*
X105779012Y-84960000D02*
X104925000Y-84960000D01*
X106319012Y-85500000D02*
X105779012Y-84960000D01*
X108925000Y-91445280D02*
X108925000Y-90554720D01*
D19*
%TO.N,/USB-DP*%
X111400000Y-86300000D02*
X111400000Y-93200000D01*
X111350000Y-86250000D02*
X111400000Y-86300000D01*
X111400000Y-93200000D02*
X111350000Y-93250000D01*
%TO.N,/USB-DN*%
X112100000Y-93200000D02*
X112150000Y-93250000D01*
X112100000Y-86300000D02*
X112100000Y-93200000D01*
X112150000Y-86250000D02*
X112100000Y-86300000D01*
D18*
%TO.N,+3V3*%
X106691804Y-84600000D02*
X109434188Y-84600000D01*
X104925000Y-81150000D02*
X106375000Y-82600000D01*
D19*
X110274500Y-97000000D02*
X110250000Y-97000000D01*
X107250000Y-96650000D02*
X107250000Y-97350000D01*
D18*
X110525500Y-90474500D02*
X110000000Y-91000000D01*
X106375000Y-82600000D02*
X106375000Y-84283196D01*
X110525500Y-85691312D02*
X110525500Y-90474500D01*
D19*
X110250000Y-97000000D02*
X110750000Y-97500000D01*
X107250000Y-96650000D02*
X109900000Y-96650000D01*
D18*
X109434188Y-84600000D02*
X110525500Y-85691312D01*
D19*
X109900000Y-96650000D02*
X110750000Y-97500000D01*
D18*
X106375000Y-84283196D02*
X106691804Y-84600000D01*
D19*
%TO.N,+3.3VA*%
X112500000Y-99250000D02*
X112500000Y-100750000D01*
X107250000Y-99250000D02*
X107250000Y-98550000D01*
X112100000Y-99250000D02*
X112100000Y-100750000D01*
X111750000Y-99250000D02*
X112250000Y-99250000D01*
X111750000Y-99250000D02*
X111750000Y-100750000D01*
X111750000Y-99250000D02*
X107250000Y-99250000D01*
X112250000Y-99250000D02*
X112500000Y-99250000D01*
D18*
%TO.N,*%
X113250000Y-86500000D02*
X113250000Y-89591999D01*
X113500000Y-86250000D02*
X113250000Y-86500000D01*
X113250000Y-89591999D02*
X112899500Y-89942499D01*
%TO.N,/RADIO-RX-PTT1*%
X124000000Y-92363604D02*
X123386396Y-91750000D01*
X121397634Y-91750000D02*
X119011829Y-89364195D01*
X124000000Y-103750000D02*
X124000000Y-92363604D01*
X123386396Y-91750000D02*
X121397634Y-91750000D01*
X123500000Y-105000000D02*
X122500000Y-105000000D01*
X124000000Y-104500000D02*
X123500000Y-105000000D01*
X124000000Y-103750000D02*
X124000000Y-104500000D01*
X119000000Y-110750000D02*
X119000000Y-109000000D01*
%TO.N,/RADIO-TX*%
X118739195Y-89989195D02*
X118386829Y-89636829D01*
X123200000Y-92200000D02*
X121211238Y-92200000D01*
X123550000Y-92550000D02*
X123200000Y-92200000D01*
X118386829Y-89636829D02*
X118386829Y-89105311D01*
X118386829Y-89105311D02*
X118944408Y-88547732D01*
X118944408Y-88547732D02*
X119003182Y-88547732D01*
X123550000Y-99950000D02*
X123550000Y-92550000D01*
X121211238Y-92200000D02*
X119000433Y-89989195D01*
X123250000Y-100250000D02*
X123550000Y-99950000D01*
X119000433Y-89989195D02*
X118739195Y-89989195D01*
%TO.N,/NRST*%
X104750000Y-109000000D02*
X105250000Y-109000000D01*
X106375000Y-111125000D02*
X106000000Y-110750000D01*
X113000000Y-110750000D02*
X112625000Y-111125000D01*
X104925000Y-86230000D02*
X104270000Y-86230000D01*
X103850000Y-108600000D02*
X103850000Y-106500000D01*
X106000000Y-110750000D02*
X106000000Y-109750000D01*
X104250000Y-109000000D02*
X103850000Y-108600000D01*
X105875000Y-109625000D02*
X105250000Y-109000000D01*
X112625000Y-111125000D02*
X106375000Y-111125000D01*
X103850000Y-86650000D02*
X103850000Y-106600000D01*
X104270000Y-86230000D02*
X103850000Y-86650000D01*
X106000000Y-109750000D02*
X105875000Y-109625000D01*
X105250000Y-109000000D02*
X104250000Y-109000000D01*
%TO.N,/SWO*%
X108475000Y-90368324D02*
X109175500Y-89667824D01*
X108875000Y-85950000D02*
X106475000Y-85950000D01*
X109175500Y-86250500D02*
X108875000Y-85950000D01*
X109525000Y-92681676D02*
X108475000Y-91631676D01*
X106475000Y-85950000D02*
X104925000Y-87500000D01*
X109750000Y-93560472D02*
X109525000Y-93335472D01*
X109525000Y-93335472D02*
X109525000Y-92681676D01*
X108475000Y-91631676D02*
X108475000Y-90368324D01*
X109750000Y-93819338D02*
X109750000Y-93560472D01*
X109175500Y-89667824D02*
X109175500Y-86250500D01*
%TO.N,/BOOT0*%
X104300000Y-101050000D02*
X104500000Y-101250000D01*
X104300000Y-89395000D02*
X104300000Y-101050000D01*
X104925000Y-88770000D02*
X104300000Y-89395000D01*
X104500000Y-101250000D02*
X105500000Y-101250000D01*
%TO.N,Net-(D1-K)*%
X104712500Y-103500000D02*
X104712500Y-105000000D01*
X105250000Y-105000000D02*
X104712500Y-105000000D01*
X105500000Y-104750000D02*
X105250000Y-105000000D01*
X105500000Y-104250000D02*
X105500000Y-104750000D01*
%TO.N,Net-(D1-A)*%
X106287500Y-103500000D02*
X106287500Y-105000000D01*
X105500000Y-102750000D02*
X105500000Y-103250000D01*
X105750000Y-103500000D02*
X106287500Y-103500000D01*
X105500000Y-103250000D02*
X105750000Y-103500000D01*
%TD*%
%TA.AperFunction,Conductor*%
%TO.N,GND*%
G36*
X118253875Y-80000804D02*
G01*
X118423172Y-80014128D01*
X118432587Y-80015326D01*
X118469395Y-80021816D01*
X118475258Y-80023035D01*
X118621073Y-80058043D01*
X118631786Y-80061267D01*
X118657816Y-80070741D01*
X118661706Y-80072254D01*
X118810068Y-80133707D01*
X118823904Y-80140758D01*
X118977796Y-80235063D01*
X118990361Y-80244192D01*
X119127608Y-80361412D01*
X119138590Y-80372394D01*
X119255807Y-80509638D01*
X119264938Y-80522206D01*
X119359239Y-80676091D01*
X119366292Y-80689933D01*
X119427718Y-80838230D01*
X119429283Y-80842255D01*
X119438723Y-80868191D01*
X119441959Y-80878940D01*
X119476956Y-81024712D01*
X119478187Y-81030632D01*
X119484671Y-81067405D01*
X119485870Y-81076828D01*
X119499195Y-81246124D01*
X119499500Y-81253892D01*
X119499500Y-88097229D01*
X119480593Y-88155420D01*
X119431093Y-88191384D01*
X119369907Y-88191384D01*
X119330498Y-88167234D01*
X119310496Y-88147232D01*
X119310493Y-88147230D01*
X119310491Y-88147228D01*
X119196371Y-88081341D01*
X119196373Y-88081341D01*
X119146981Y-88068107D01*
X119069074Y-88047232D01*
X118937290Y-88047232D01*
X118859382Y-88068107D01*
X118809991Y-88081341D01*
X118695872Y-88147228D01*
X118602678Y-88240422D01*
X118536791Y-88354541D01*
X118502682Y-88481841D01*
X118502682Y-88488123D01*
X118483775Y-88546314D01*
X118473686Y-88558126D01*
X118126364Y-88905448D01*
X118126360Y-88905453D01*
X118083511Y-88979671D01*
X118083510Y-88979671D01*
X118083511Y-88979672D01*
X118062823Y-89056881D01*
X118061329Y-89062458D01*
X118061329Y-89593976D01*
X118061329Y-89679682D01*
X118071499Y-89717638D01*
X118083512Y-89762472D01*
X118126360Y-89836686D01*
X118126364Y-89836691D01*
X118478728Y-90189054D01*
X118478730Y-90189057D01*
X118539333Y-90249660D01*
X118571097Y-90267999D01*
X118613556Y-90292513D01*
X118696339Y-90314695D01*
X118696341Y-90314696D01*
X118696342Y-90314696D01*
X118788111Y-90314696D01*
X118788127Y-90314695D01*
X118824598Y-90314695D01*
X118882789Y-90333602D01*
X118894602Y-90343691D01*
X120631907Y-92080996D01*
X120659684Y-92135513D01*
X120650113Y-92195945D01*
X120606848Y-92239210D01*
X120561903Y-92250000D01*
X117250000Y-92250000D01*
X117000000Y-92500000D01*
X117000000Y-94750000D01*
X117500000Y-94750000D01*
X117500000Y-96250000D01*
X117000000Y-96250000D01*
X117000000Y-98502475D01*
X117000001Y-98502476D01*
X117249998Y-98749999D01*
X117250000Y-98750000D01*
X123125500Y-98750000D01*
X123183691Y-98768907D01*
X123219655Y-98818407D01*
X123224500Y-98849000D01*
X123224500Y-99662711D01*
X123205593Y-99720902D01*
X123156093Y-99756866D01*
X123151125Y-99758337D01*
X123056814Y-99783608D01*
X123056812Y-99783608D01*
X123056808Y-99783610D01*
X122942690Y-99849496D01*
X122849496Y-99942690D01*
X122783609Y-100056809D01*
X122783608Y-100056814D01*
X122749500Y-100184108D01*
X122749500Y-100315892D01*
X122779579Y-100428151D01*
X122783609Y-100443190D01*
X122849496Y-100557309D01*
X122849498Y-100557311D01*
X122849500Y-100557314D01*
X122942686Y-100650500D01*
X122942688Y-100650501D01*
X122942690Y-100650503D01*
X123056810Y-100716390D01*
X123056808Y-100716390D01*
X123056812Y-100716391D01*
X123056814Y-100716392D01*
X123184108Y-100750500D01*
X123184110Y-100750500D01*
X123315890Y-100750500D01*
X123315892Y-100750500D01*
X123443186Y-100716392D01*
X123526001Y-100668578D01*
X123585847Y-100655857D01*
X123641743Y-100680743D01*
X123672336Y-100733731D01*
X123674500Y-100754315D01*
X123674500Y-104324165D01*
X123655593Y-104382356D01*
X123645503Y-104394169D01*
X123396968Y-104642703D01*
X123342452Y-104670480D01*
X123282020Y-104660909D01*
X123238755Y-104617644D01*
X123232231Y-104601444D01*
X123225605Y-104579602D01*
X123206792Y-104534184D01*
X123182815Y-104489324D01*
X123156471Y-104449896D01*
X123133759Y-104420658D01*
X123133756Y-104420654D01*
X123109812Y-104393997D01*
X123109810Y-104393995D01*
X123109794Y-104393977D01*
X123103486Y-104387201D01*
X123103483Y-104387199D01*
X123103481Y-104387196D01*
X123102060Y-104386210D01*
X123091370Y-104377277D01*
X123091321Y-104377331D01*
X123091310Y-104377346D01*
X123091309Y-104377345D01*
X123091229Y-104377434D01*
X123089427Y-104375800D01*
X123050104Y-104343529D01*
X123022567Y-104325130D01*
X123010676Y-104317185D01*
X123010673Y-104317183D01*
X123010671Y-104317182D01*
X122965822Y-104293210D01*
X122965817Y-104293208D01*
X122965812Y-104293205D01*
X122956941Y-104289530D01*
X122920391Y-104274391D01*
X122920392Y-104274391D01*
X122871714Y-104259626D01*
X122812791Y-104247906D01*
X122787613Y-104244171D01*
X122763038Y-104241751D01*
X122763029Y-104241750D01*
X122757575Y-104241482D01*
X122737590Y-104240500D01*
X117762410Y-104240500D01*
X117744241Y-104241392D01*
X117736970Y-104241750D01*
X117736965Y-104241750D01*
X117712413Y-104244169D01*
X117712406Y-104244169D01*
X117712394Y-104244171D01*
X117712385Y-104244172D01*
X117712371Y-104244174D01*
X117687239Y-104247901D01*
X117687196Y-104247908D01*
X117628295Y-104259623D01*
X117628275Y-104259628D01*
X117579608Y-104274391D01*
X117534203Y-104293198D01*
X117534176Y-104293210D01*
X117489320Y-104317186D01*
X117449902Y-104343523D01*
X117449891Y-104343531D01*
X117410566Y-104375805D01*
X117375801Y-104410570D01*
X117343531Y-104449891D01*
X117317185Y-104489323D01*
X117293202Y-104534192D01*
X117293198Y-104534201D01*
X117274390Y-104579613D01*
X117274389Y-104579616D01*
X117259627Y-104628278D01*
X117256211Y-104645455D01*
X117247907Y-104687203D01*
X117246030Y-104699860D01*
X117244171Y-104712394D01*
X117244168Y-104712415D01*
X117241751Y-104736960D01*
X117241750Y-104736973D01*
X117240500Y-104762409D01*
X117240500Y-109737590D01*
X117241482Y-109757575D01*
X117241750Y-109763029D01*
X117241751Y-109763038D01*
X117244171Y-109787610D01*
X117244171Y-109787616D01*
X117247906Y-109812791D01*
X117259626Y-109871713D01*
X117259626Y-109871715D01*
X117274391Y-109920392D01*
X117290861Y-109960155D01*
X117293205Y-109965812D01*
X117293208Y-109965817D01*
X117293210Y-109965822D01*
X117316246Y-110008919D01*
X117317185Y-110010676D01*
X117330531Y-110030650D01*
X117343528Y-110050103D01*
X117343530Y-110050105D01*
X117375804Y-110089431D01*
X117410569Y-110124196D01*
X117449896Y-110156471D01*
X117489324Y-110182815D01*
X117489327Y-110182817D01*
X117508432Y-110193028D01*
X117534184Y-110206792D01*
X117579602Y-110225605D01*
X117628283Y-110240373D01*
X117687203Y-110252093D01*
X117687210Y-110252094D01*
X117687220Y-110252096D01*
X117698498Y-110253768D01*
X117712394Y-110255829D01*
X117736975Y-110258250D01*
X117762410Y-110259500D01*
X118543679Y-110259500D01*
X118601870Y-110278407D01*
X118637834Y-110327907D01*
X118637834Y-110389093D01*
X118613684Y-110428501D01*
X118599500Y-110442686D01*
X118599497Y-110442689D01*
X118599496Y-110442690D01*
X118533609Y-110556809D01*
X118521974Y-110600232D01*
X118499500Y-110684108D01*
X118499500Y-110815892D01*
X118499867Y-110817261D01*
X118533609Y-110943190D01*
X118599496Y-111057309D01*
X118599498Y-111057311D01*
X118599500Y-111057314D01*
X118692686Y-111150500D01*
X118692688Y-111150501D01*
X118692690Y-111150503D01*
X118806810Y-111216390D01*
X118806808Y-111216390D01*
X118806812Y-111216391D01*
X118806814Y-111216392D01*
X118934108Y-111250500D01*
X118934110Y-111250500D01*
X119065890Y-111250500D01*
X119065892Y-111250500D01*
X119193186Y-111216392D01*
X119193188Y-111216390D01*
X119193190Y-111216390D01*
X119307309Y-111150503D01*
X119307309Y-111150502D01*
X119307314Y-111150500D01*
X119400500Y-111057314D01*
X119430398Y-111005529D01*
X119466390Y-110943190D01*
X119466390Y-110943188D01*
X119466392Y-110943186D01*
X119500500Y-110815892D01*
X119500500Y-110684108D01*
X119466392Y-110556814D01*
X119466390Y-110556811D01*
X119466390Y-110556809D01*
X119400503Y-110442690D01*
X119400501Y-110442688D01*
X119400500Y-110442686D01*
X119386315Y-110428501D01*
X119358540Y-110373987D01*
X119368111Y-110313555D01*
X119411376Y-110270290D01*
X119456321Y-110259500D01*
X122737576Y-110259500D01*
X122737590Y-110259500D01*
X122763026Y-110258250D01*
X122787606Y-110255829D01*
X122812796Y-110252093D01*
X122871716Y-110240373D01*
X122920397Y-110225605D01*
X122965815Y-110206792D01*
X123010675Y-110182815D01*
X123050103Y-110156471D01*
X123089430Y-110124196D01*
X123124196Y-110089430D01*
X123156471Y-110050103D01*
X123182815Y-110010675D01*
X123201134Y-109978505D01*
X123216612Y-109946154D01*
X123220471Y-109937700D01*
X123220831Y-109936039D01*
X123224990Y-109922776D01*
X123224890Y-109922746D01*
X123224892Y-109922739D01*
X123224780Y-109922699D01*
X123225588Y-109920437D01*
X123225597Y-109920417D01*
X123240372Y-109871718D01*
X123252092Y-109812800D01*
X123252094Y-109812791D01*
X123255051Y-109792856D01*
X123255830Y-109787606D01*
X123258251Y-109763024D01*
X123259500Y-109737590D01*
X123259500Y-105424500D01*
X123278407Y-105366309D01*
X123327907Y-105330345D01*
X123358500Y-105325500D01*
X123542851Y-105325500D01*
X123542853Y-105325500D01*
X123625639Y-105303318D01*
X123625641Y-105303316D01*
X123625643Y-105303316D01*
X123699857Y-105260468D01*
X123699857Y-105260467D01*
X123699862Y-105260465D01*
X124199859Y-104760466D01*
X124199862Y-104760465D01*
X124260465Y-104699862D01*
X124301791Y-104628283D01*
X124303318Y-104625639D01*
X124306413Y-104614087D01*
X124308622Y-104608584D01*
X124324612Y-104589436D01*
X124338196Y-104568519D01*
X124343914Y-104566323D01*
X124347842Y-104561621D01*
X124372033Y-104555529D01*
X124395317Y-104546591D01*
X124401233Y-104548176D01*
X124407175Y-104546680D01*
X124430323Y-104555969D01*
X124454417Y-104562425D01*
X124458272Y-104567186D01*
X124463958Y-104569468D01*
X124477225Y-104590589D01*
X124492924Y-104609975D01*
X124494398Y-104617929D01*
X124496503Y-104621280D01*
X124496106Y-104627146D01*
X124499500Y-104645455D01*
X124499500Y-110994443D01*
X124498877Y-111005529D01*
X124488774Y-111095182D01*
X124486025Y-111109716D01*
X124482241Y-111123840D01*
X124480058Y-111130917D01*
X124453718Y-111206193D01*
X124444099Y-111226167D01*
X124396460Y-111301985D01*
X124382638Y-111319318D01*
X124319319Y-111382637D01*
X124301986Y-111396459D01*
X124226167Y-111444099D01*
X124206194Y-111453717D01*
X124130924Y-111480055D01*
X124123845Y-111482239D01*
X124109713Y-111486025D01*
X124095181Y-111488774D01*
X124019064Y-111497351D01*
X124005527Y-111498877D01*
X123994444Y-111499500D01*
X112949834Y-111499500D01*
X112927783Y-111492335D01*
X112904888Y-111488709D01*
X112899240Y-111483061D01*
X112891643Y-111480593D01*
X112878014Y-111461834D01*
X112861624Y-111445444D01*
X112860374Y-111437556D01*
X112855679Y-111431093D01*
X112855679Y-111407906D01*
X112852053Y-111385012D01*
X112855679Y-111377895D01*
X112855679Y-111369907D01*
X112879831Y-111330496D01*
X112930832Y-111279496D01*
X112985349Y-111251719D01*
X113000835Y-111250500D01*
X113065890Y-111250500D01*
X113065892Y-111250500D01*
X113193186Y-111216392D01*
X113193188Y-111216390D01*
X113193190Y-111216390D01*
X113307309Y-111150503D01*
X113307309Y-111150502D01*
X113307314Y-111150500D01*
X113400500Y-111057314D01*
X113430398Y-111005529D01*
X113466390Y-110943190D01*
X113466390Y-110943188D01*
X113466392Y-110943186D01*
X113500500Y-110815892D01*
X113500500Y-110684108D01*
X113466392Y-110556814D01*
X113466390Y-110556811D01*
X113466390Y-110556809D01*
X113400503Y-110442690D01*
X113400501Y-110442688D01*
X113400500Y-110442686D01*
X113307314Y-110349500D01*
X113307311Y-110349498D01*
X113307309Y-110349496D01*
X113193189Y-110283609D01*
X113193191Y-110283609D01*
X113143482Y-110270290D01*
X113065892Y-110249500D01*
X112934108Y-110249500D01*
X112856518Y-110270290D01*
X112806809Y-110283609D01*
X112692690Y-110349496D01*
X112599496Y-110442690D01*
X112533609Y-110556809D01*
X112521974Y-110600232D01*
X112501803Y-110675515D01*
X112499500Y-110684109D01*
X112499500Y-110700500D01*
X112480593Y-110758691D01*
X112431093Y-110794655D01*
X112400500Y-110799500D01*
X106550835Y-110799500D01*
X106543237Y-110797031D01*
X106535348Y-110798281D01*
X106514692Y-110787756D01*
X106492644Y-110780593D01*
X106480831Y-110770504D01*
X106354496Y-110644169D01*
X106326719Y-110589652D01*
X106325500Y-110574165D01*
X106325500Y-109800840D01*
X106325501Y-109800827D01*
X106325501Y-109707149D01*
X106325501Y-109707147D01*
X106303318Y-109624361D01*
X106278945Y-109582147D01*
X106260465Y-109550138D01*
X106199862Y-109489535D01*
X106199860Y-109489534D01*
X106074862Y-109364535D01*
X105449862Y-108739535D01*
X105449859Y-108739533D01*
X105449857Y-108739531D01*
X105375642Y-108696683D01*
X105375644Y-108696683D01*
X105343521Y-108688076D01*
X105292853Y-108674500D01*
X105292851Y-108674500D01*
X105173322Y-108674500D01*
X105115131Y-108655593D01*
X105103319Y-108645504D01*
X105057315Y-108599500D01*
X105057309Y-108599496D01*
X104943189Y-108533609D01*
X104943191Y-108533609D01*
X104893799Y-108520375D01*
X104815892Y-108499500D01*
X104684108Y-108499500D01*
X104606200Y-108520375D01*
X104556809Y-108533609D01*
X104442684Y-108599500D01*
X104437536Y-108603451D01*
X104435847Y-108601251D01*
X104432254Y-108603077D01*
X104421201Y-108614131D01*
X104405666Y-108616591D01*
X104391647Y-108623717D01*
X104376210Y-108621256D01*
X104360769Y-108623702D01*
X104346754Y-108616561D01*
X104331224Y-108614086D01*
X104306252Y-108595925D01*
X104204496Y-108494169D01*
X104176719Y-108439652D01*
X104175500Y-108424165D01*
X104175500Y-105726182D01*
X104194407Y-105667991D01*
X104243907Y-105632027D01*
X104305093Y-105632027D01*
X104319445Y-105637972D01*
X104362580Y-105659951D01*
X104429130Y-105670491D01*
X104460751Y-105675500D01*
X104460754Y-105675500D01*
X104964249Y-105675500D01*
X104992803Y-105670976D01*
X105062420Y-105659951D01*
X105180751Y-105599658D01*
X105274658Y-105505751D01*
X105334951Y-105387420D01*
X105338130Y-105367346D01*
X105341770Y-105360201D01*
X105341776Y-105352179D01*
X105352770Y-105338611D01*
X105365904Y-105312834D01*
X105377774Y-105302703D01*
X105381943Y-105299678D01*
X105449862Y-105260465D01*
X105486520Y-105223806D01*
X105492852Y-105219213D01*
X105514871Y-105212074D01*
X105535500Y-105201564D01*
X105543423Y-105202818D01*
X105551055Y-105200345D01*
X105573067Y-105207513D01*
X105595932Y-105211135D01*
X105601604Y-105216807D01*
X105609233Y-105219292D01*
X105622827Y-105238029D01*
X105639197Y-105254399D01*
X105642056Y-105264534D01*
X105645163Y-105268816D01*
X105645158Y-105275528D01*
X105647985Y-105285547D01*
X105648891Y-105285404D01*
X105665049Y-105387419D01*
X105665050Y-105387423D01*
X105683942Y-105424500D01*
X105725342Y-105505751D01*
X105819249Y-105599658D01*
X105937580Y-105659951D01*
X106004130Y-105670491D01*
X106035751Y-105675500D01*
X106035754Y-105675500D01*
X106539249Y-105675500D01*
X106567803Y-105670976D01*
X106637420Y-105659951D01*
X106755751Y-105599658D01*
X106849658Y-105505751D01*
X106909951Y-105387420D01*
X106925500Y-105289246D01*
X106925500Y-104710754D01*
X106909951Y-104612580D01*
X106849658Y-104494249D01*
X106755751Y-104400342D01*
X106743259Y-104393977D01*
X106667054Y-104355148D01*
X106650664Y-104338758D01*
X106631907Y-104325130D01*
X106629438Y-104317531D01*
X106623790Y-104311883D01*
X106613000Y-104266939D01*
X106613000Y-104233060D01*
X106631907Y-104174869D01*
X106667051Y-104144852D01*
X106755751Y-104099658D01*
X106849658Y-104005751D01*
X106909951Y-103887420D01*
X106925500Y-103789246D01*
X106925500Y-103210754D01*
X106909951Y-103112580D01*
X106849658Y-102994249D01*
X106755751Y-102900342D01*
X106751631Y-102898243D01*
X106637423Y-102840050D01*
X106637420Y-102840049D01*
X106612876Y-102836161D01*
X106539249Y-102824500D01*
X106539246Y-102824500D01*
X106099500Y-102824500D01*
X106041309Y-102805593D01*
X106005345Y-102756093D01*
X106000500Y-102725500D01*
X106000500Y-102684109D01*
X106000500Y-102684108D01*
X105966392Y-102556814D01*
X105966390Y-102556811D01*
X105966390Y-102556809D01*
X105900503Y-102442690D01*
X105900501Y-102442688D01*
X105900500Y-102442686D01*
X105807314Y-102349500D01*
X105807311Y-102349498D01*
X105807309Y-102349496D01*
X105693189Y-102283609D01*
X105693191Y-102283609D01*
X105643799Y-102270375D01*
X105565892Y-102249500D01*
X105434108Y-102249500D01*
X105356200Y-102270375D01*
X105306809Y-102283609D01*
X105192690Y-102349496D01*
X105099496Y-102442690D01*
X105033609Y-102556809D01*
X104999500Y-102684109D01*
X104999500Y-102725500D01*
X104980593Y-102783691D01*
X104931093Y-102819655D01*
X104900500Y-102824500D01*
X104460751Y-102824500D01*
X104362580Y-102840049D01*
X104362575Y-102840050D01*
X104319444Y-102862027D01*
X104259012Y-102871598D01*
X104204496Y-102843820D01*
X104176719Y-102789303D01*
X104175500Y-102773817D01*
X104175500Y-101609977D01*
X104178769Y-101599913D01*
X104177664Y-101589392D01*
X104188011Y-101571470D01*
X104194407Y-101551786D01*
X104202967Y-101545566D01*
X104208257Y-101536405D01*
X104227161Y-101527988D01*
X104243907Y-101515822D01*
X104254488Y-101515822D01*
X104264153Y-101511519D01*
X104284396Y-101515822D01*
X104305093Y-101515822D01*
X104323994Y-101524237D01*
X104337249Y-101531890D01*
X104337251Y-101531893D01*
X104371622Y-101551737D01*
X104374361Y-101553318D01*
X104457147Y-101575501D01*
X104457149Y-101575501D01*
X104548916Y-101575501D01*
X104548932Y-101575500D01*
X105076678Y-101575500D01*
X105134869Y-101594407D01*
X105146681Y-101604496D01*
X105192684Y-101650499D01*
X105192690Y-101650503D01*
X105306810Y-101716390D01*
X105306808Y-101716390D01*
X105306812Y-101716391D01*
X105306814Y-101716392D01*
X105434108Y-101750500D01*
X105434110Y-101750500D01*
X105565890Y-101750500D01*
X105565892Y-101750500D01*
X105693186Y-101716392D01*
X105693188Y-101716390D01*
X105693190Y-101716390D01*
X105807309Y-101650503D01*
X105807309Y-101650502D01*
X105807314Y-101650500D01*
X105900500Y-101557314D01*
X105915179Y-101531890D01*
X105966390Y-101443190D01*
X105966390Y-101443188D01*
X105966392Y-101443186D01*
X106000500Y-101315892D01*
X106000500Y-101184108D01*
X105966392Y-101056814D01*
X105966390Y-101056811D01*
X105966390Y-101056809D01*
X105900503Y-100942690D01*
X105900501Y-100942688D01*
X105900500Y-100942686D01*
X105807314Y-100849500D01*
X105807311Y-100849498D01*
X105807309Y-100849496D01*
X105693189Y-100783609D01*
X105693191Y-100783609D01*
X105643799Y-100770375D01*
X105565892Y-100749500D01*
X105434108Y-100749500D01*
X105356200Y-100770375D01*
X105306809Y-100783609D01*
X105192690Y-100849496D01*
X105192684Y-100849500D01*
X105146681Y-100895504D01*
X105092164Y-100923281D01*
X105076678Y-100924500D01*
X104724500Y-100924500D01*
X104666309Y-100905593D01*
X104630345Y-100856093D01*
X104625500Y-100825500D01*
X104625500Y-98484108D01*
X106749500Y-98484108D01*
X106749500Y-98615892D01*
X106783608Y-98743186D01*
X106786234Y-98747735D01*
X106799500Y-98797238D01*
X106799500Y-99002761D01*
X106786238Y-99052259D01*
X106783608Y-99056813D01*
X106783608Y-99056814D01*
X106749500Y-99184108D01*
X106749500Y-99315892D01*
X106779579Y-99428151D01*
X106783609Y-99443190D01*
X106849496Y-99557309D01*
X106849498Y-99557311D01*
X106849500Y-99557314D01*
X106942686Y-99650500D01*
X106942688Y-99650501D01*
X106942690Y-99650503D01*
X107056810Y-99716390D01*
X107056808Y-99716390D01*
X107056812Y-99716391D01*
X107056814Y-99716392D01*
X107184108Y-99750500D01*
X107184110Y-99750500D01*
X107315890Y-99750500D01*
X107315892Y-99750500D01*
X107443186Y-99716392D01*
X107447741Y-99713761D01*
X107497239Y-99700500D01*
X111200500Y-99700500D01*
X111258691Y-99719407D01*
X111294655Y-99768907D01*
X111299500Y-99799500D01*
X111299500Y-100502761D01*
X111286238Y-100552259D01*
X111283608Y-100556813D01*
X111283608Y-100556814D01*
X111249500Y-100684108D01*
X111249500Y-100815892D01*
X111260272Y-100856093D01*
X111283609Y-100943190D01*
X111349496Y-101057309D01*
X111349498Y-101057311D01*
X111349500Y-101057314D01*
X111442686Y-101150500D01*
X111442688Y-101150501D01*
X111442690Y-101150503D01*
X111556810Y-101216390D01*
X111556808Y-101216390D01*
X111556812Y-101216391D01*
X111556814Y-101216392D01*
X111684108Y-101250500D01*
X111684110Y-101250500D01*
X111815890Y-101250500D01*
X111815892Y-101250500D01*
X111943186Y-101216392D01*
X111957379Y-101208197D01*
X112017223Y-101195474D01*
X112032500Y-101198305D01*
X112040691Y-101200500D01*
X112040692Y-101200500D01*
X112159310Y-101200500D01*
X112159310Y-101200499D01*
X112201645Y-101189156D01*
X112262746Y-101192357D01*
X112276769Y-101199045D01*
X112306814Y-101216392D01*
X112434108Y-101250500D01*
X112434110Y-101250500D01*
X112565890Y-101250500D01*
X112565892Y-101250500D01*
X112693186Y-101216392D01*
X112693188Y-101216390D01*
X112693190Y-101216390D01*
X112807309Y-101150503D01*
X112807309Y-101150502D01*
X112807314Y-101150500D01*
X112900500Y-101057314D01*
X112966392Y-100943186D01*
X113000500Y-100815892D01*
X113000500Y-100684108D01*
X112966392Y-100556814D01*
X112963761Y-100552258D01*
X112950500Y-100502761D01*
X112950500Y-99497238D01*
X112963765Y-99447735D01*
X112966392Y-99443186D01*
X113000500Y-99315892D01*
X113000500Y-99184108D01*
X112966392Y-99056814D01*
X112966390Y-99056811D01*
X112966390Y-99056809D01*
X112900503Y-98942690D01*
X112900501Y-98942688D01*
X112900500Y-98942686D01*
X112807314Y-98849500D01*
X112807311Y-98849498D01*
X112807309Y-98849496D01*
X112693189Y-98783609D01*
X112693191Y-98783609D01*
X112643799Y-98770375D01*
X112565892Y-98749500D01*
X112434108Y-98749500D01*
X112354947Y-98770711D01*
X112306813Y-98783608D01*
X112302259Y-98786238D01*
X112252761Y-98799500D01*
X111997239Y-98799500D01*
X111947741Y-98786238D01*
X111943186Y-98783608D01*
X111895053Y-98770711D01*
X111815892Y-98749500D01*
X111684108Y-98749500D01*
X111604947Y-98770711D01*
X111556813Y-98783608D01*
X111552259Y-98786238D01*
X111502761Y-98799500D01*
X107830322Y-98799500D01*
X107772131Y-98780593D01*
X107736167Y-98731093D01*
X107734695Y-98674878D01*
X107735857Y-98670538D01*
X107750500Y-98615892D01*
X107750500Y-98484108D01*
X107716392Y-98356814D01*
X107716390Y-98356811D01*
X107716390Y-98356809D01*
X107650503Y-98242690D01*
X107650501Y-98242688D01*
X107650500Y-98242686D01*
X107557314Y-98149500D01*
X107557311Y-98149498D01*
X107557309Y-98149496D01*
X107443189Y-98083609D01*
X107443191Y-98083609D01*
X107393799Y-98070375D01*
X107315892Y-98049500D01*
X107184108Y-98049500D01*
X107106200Y-98070375D01*
X107056809Y-98083609D01*
X106942690Y-98149496D01*
X106849496Y-98242690D01*
X106783609Y-98356809D01*
X106783608Y-98356814D01*
X106749500Y-98484108D01*
X104625500Y-98484108D01*
X104625500Y-96584108D01*
X106749500Y-96584108D01*
X106749500Y-96715892D01*
X106783608Y-96843186D01*
X106786234Y-96847735D01*
X106799500Y-96897238D01*
X106799500Y-97102761D01*
X106786238Y-97152259D01*
X106783608Y-97156813D01*
X106769553Y-97209267D01*
X106749500Y-97284108D01*
X106749500Y-97415892D01*
X106760544Y-97457109D01*
X106783609Y-97543190D01*
X106849496Y-97657309D01*
X106849498Y-97657311D01*
X106849500Y-97657314D01*
X106942686Y-97750500D01*
X106942688Y-97750501D01*
X106942690Y-97750503D01*
X107056810Y-97816390D01*
X107056808Y-97816390D01*
X107056812Y-97816391D01*
X107056814Y-97816392D01*
X107184108Y-97850500D01*
X107184110Y-97850500D01*
X107315890Y-97850500D01*
X107315892Y-97850500D01*
X107443186Y-97816392D01*
X107443188Y-97816390D01*
X107443190Y-97816390D01*
X107557309Y-97750503D01*
X107557309Y-97750502D01*
X107557314Y-97750500D01*
X107650500Y-97657314D01*
X107716392Y-97543186D01*
X107750500Y-97415892D01*
X107750500Y-97284108D01*
X107734695Y-97225122D01*
X107737898Y-97164021D01*
X107776403Y-97116471D01*
X107830322Y-97100500D01*
X109672389Y-97100500D01*
X109679986Y-97102968D01*
X109687876Y-97101719D01*
X109708531Y-97112243D01*
X109730580Y-97119407D01*
X109742393Y-97129496D01*
X109801660Y-97188763D01*
X109817390Y-97209263D01*
X109874000Y-97307314D01*
X109967186Y-97400500D01*
X109967188Y-97400501D01*
X110065235Y-97457109D01*
X110085739Y-97472842D01*
X110256624Y-97643728D01*
X110282245Y-97688103D01*
X110283606Y-97693182D01*
X110283609Y-97693189D01*
X110349496Y-97807309D01*
X110349498Y-97807311D01*
X110349500Y-97807314D01*
X110442686Y-97900500D01*
X110442688Y-97900501D01*
X110442690Y-97900503D01*
X110556810Y-97966390D01*
X110556808Y-97966390D01*
X110556812Y-97966391D01*
X110556814Y-97966392D01*
X110684108Y-98000500D01*
X110684110Y-98000500D01*
X110815890Y-98000500D01*
X110815892Y-98000500D01*
X110943186Y-97966392D01*
X110943188Y-97966390D01*
X110943190Y-97966390D01*
X111057309Y-97900503D01*
X111057309Y-97900502D01*
X111057314Y-97900500D01*
X111150500Y-97807314D01*
X111216392Y-97693186D01*
X111250500Y-97565892D01*
X111250500Y-97434108D01*
X111216392Y-97306814D01*
X111216390Y-97306811D01*
X111216390Y-97306809D01*
X111150503Y-97192690D01*
X111150501Y-97192688D01*
X111150500Y-97192686D01*
X111057314Y-97099500D01*
X111057311Y-97099498D01*
X111057309Y-97099496D01*
X110943189Y-97033609D01*
X110943182Y-97033606D01*
X110938103Y-97032245D01*
X110893728Y-97006624D01*
X110776843Y-96889740D01*
X110751219Y-96845356D01*
X110740894Y-96806820D01*
X110740893Y-96806817D01*
X110740892Y-96806816D01*
X110740892Y-96806814D01*
X110675000Y-96692686D01*
X110581814Y-96599500D01*
X110581811Y-96599498D01*
X110581809Y-96599496D01*
X110467689Y-96533609D01*
X110467685Y-96533607D01*
X110429140Y-96523279D01*
X110384761Y-96497657D01*
X110176614Y-96289511D01*
X110176609Y-96289507D01*
X110073890Y-96230202D01*
X110073886Y-96230200D01*
X110049673Y-96223712D01*
X110049673Y-96223713D01*
X109959309Y-96199500D01*
X109959307Y-96199500D01*
X107497239Y-96199500D01*
X107447741Y-96186238D01*
X107443186Y-96183608D01*
X107315892Y-96149500D01*
X107184108Y-96149500D01*
X107106200Y-96170375D01*
X107056809Y-96183609D01*
X106942690Y-96249496D01*
X106849496Y-96342690D01*
X106783609Y-96456809D01*
X106783608Y-96456814D01*
X106749500Y-96584108D01*
X104625500Y-96584108D01*
X104625500Y-89570835D01*
X104627968Y-89563237D01*
X104626719Y-89555348D01*
X104637243Y-89534692D01*
X104644407Y-89512644D01*
X104654496Y-89500831D01*
X104675831Y-89479496D01*
X104730348Y-89451719D01*
X104745835Y-89450500D01*
X105444747Y-89450500D01*
X105444748Y-89450500D01*
X105503231Y-89438867D01*
X105569552Y-89394552D01*
X105613867Y-89328231D01*
X105625500Y-89269748D01*
X105625500Y-88230252D01*
X105613867Y-88171769D01*
X105569552Y-88105448D01*
X105533472Y-88081340D01*
X105499786Y-88058831D01*
X105461907Y-88010781D01*
X105459505Y-87949643D01*
X105472471Y-87921516D01*
X105545775Y-87811811D01*
X105598580Y-87684328D01*
X105625500Y-87548993D01*
X105625500Y-87411007D01*
X105610741Y-87336810D01*
X105612805Y-87319362D01*
X105610057Y-87302008D01*
X105616311Y-87289731D01*
X105617931Y-87276049D01*
X105637831Y-87247494D01*
X106435189Y-86450138D01*
X106580832Y-86304496D01*
X106587948Y-86300870D01*
X106592644Y-86294407D01*
X106614693Y-86287242D01*
X106635348Y-86276719D01*
X106650835Y-86275500D01*
X106755367Y-86275500D01*
X106813558Y-86294407D01*
X106849522Y-86343907D01*
X106849522Y-86405093D01*
X106837683Y-86429501D01*
X106790432Y-86500216D01*
X106741132Y-86619236D01*
X106716000Y-86745584D01*
X106716000Y-86934999D01*
X106716001Y-86935000D01*
X107120000Y-86935000D01*
X107120000Y-87285000D01*
X106716001Y-87285000D01*
X106716000Y-87285001D01*
X106716000Y-87474415D01*
X106741132Y-87600763D01*
X106790432Y-87719784D01*
X106862005Y-87826899D01*
X106862008Y-87826903D01*
X106953096Y-87917991D01*
X106953100Y-87917994D01*
X107060217Y-87989568D01*
X107153938Y-88028388D01*
X107200464Y-88068124D01*
X107214748Y-88127619D01*
X107211680Y-88145474D01*
X107174500Y-88284234D01*
X107174500Y-88435766D01*
X107186846Y-88481841D01*
X107213720Y-88582139D01*
X107289481Y-88713360D01*
X107289483Y-88713362D01*
X107289485Y-88713365D01*
X107396635Y-88820515D01*
X107396637Y-88820516D01*
X107396639Y-88820518D01*
X107527861Y-88896279D01*
X107527859Y-88896279D01*
X107527863Y-88896280D01*
X107527865Y-88896281D01*
X107674234Y-88935500D01*
X107674236Y-88935500D01*
X108125764Y-88935500D01*
X108125766Y-88935500D01*
X108272135Y-88896281D01*
X108272137Y-88896279D01*
X108272139Y-88896279D01*
X108403360Y-88820518D01*
X108403360Y-88820517D01*
X108403365Y-88820515D01*
X108510515Y-88713365D01*
X108586281Y-88582135D01*
X108625500Y-88435766D01*
X108625500Y-88284234D01*
X108586281Y-88137865D01*
X108586279Y-88137862D01*
X108586279Y-88137860D01*
X108510518Y-88006639D01*
X108510516Y-88006637D01*
X108510515Y-88006635D01*
X108403365Y-87899485D01*
X108403362Y-87899483D01*
X108403360Y-87899481D01*
X108272138Y-87823720D01*
X108272140Y-87823720D01*
X108187099Y-87800934D01*
X108125766Y-87784500D01*
X108070925Y-87784500D01*
X108012734Y-87765593D01*
X107976770Y-87716093D01*
X107976770Y-87654907D01*
X107979461Y-87647614D01*
X107998867Y-87600763D01*
X108023999Y-87474415D01*
X108024000Y-87474411D01*
X108024000Y-87285001D01*
X108023999Y-87285000D01*
X107620000Y-87285000D01*
X107620000Y-86935000D01*
X108023999Y-86935000D01*
X108024000Y-86934999D01*
X108024000Y-86745588D01*
X108023999Y-86745584D01*
X107998867Y-86619236D01*
X107949567Y-86500216D01*
X107902317Y-86429501D01*
X107885709Y-86370613D01*
X107906887Y-86313210D01*
X107957760Y-86279217D01*
X107984633Y-86275500D01*
X108699165Y-86275500D01*
X108706762Y-86277968D01*
X108714652Y-86276719D01*
X108735307Y-86287243D01*
X108757356Y-86294407D01*
X108769169Y-86304496D01*
X108821004Y-86356331D01*
X108848781Y-86410848D01*
X108850000Y-86426335D01*
X108850000Y-89491989D01*
X108831093Y-89550180D01*
X108821004Y-89561993D01*
X108214531Y-90168466D01*
X108171683Y-90242680D01*
X108171682Y-90242685D01*
X108149500Y-90325471D01*
X108149500Y-91588823D01*
X108149500Y-91674529D01*
X108154612Y-91693607D01*
X108171683Y-91757319D01*
X108214531Y-91831533D01*
X108214533Y-91831535D01*
X108214535Y-91831538D01*
X109170505Y-92787508D01*
X109198281Y-92842023D01*
X109199500Y-92857510D01*
X109199500Y-93292619D01*
X109199500Y-93378325D01*
X109216879Y-93443186D01*
X109221683Y-93461115D01*
X109264531Y-93535329D01*
X109266986Y-93538528D01*
X109287411Y-93596204D01*
X109284072Y-93624419D01*
X109283608Y-93626152D01*
X109249500Y-93753446D01*
X109249500Y-93885230D01*
X109271480Y-93967262D01*
X109283609Y-94012528D01*
X109349496Y-94126647D01*
X109349498Y-94126649D01*
X109349500Y-94126652D01*
X109442686Y-94219838D01*
X109442688Y-94219839D01*
X109442690Y-94219841D01*
X109556810Y-94285728D01*
X109556808Y-94285728D01*
X109556812Y-94285729D01*
X109556814Y-94285730D01*
X109684108Y-94319838D01*
X109684110Y-94319838D01*
X109815890Y-94319838D01*
X109815892Y-94319838D01*
X109943186Y-94285730D01*
X109943188Y-94285728D01*
X109943190Y-94285728D01*
X110057309Y-94219841D01*
X110057309Y-94219840D01*
X110057314Y-94219838D01*
X110127629Y-94149522D01*
X110182144Y-94121747D01*
X110242576Y-94131318D01*
X110267631Y-94149521D01*
X110292686Y-94174576D01*
X110292688Y-94174577D01*
X110292690Y-94174579D01*
X110406810Y-94240466D01*
X110406808Y-94240466D01*
X110406812Y-94240467D01*
X110406814Y-94240468D01*
X110534108Y-94274576D01*
X110534110Y-94274576D01*
X110665890Y-94274576D01*
X110665892Y-94274576D01*
X110793186Y-94240468D01*
X110793188Y-94240466D01*
X110793190Y-94240466D01*
X110907309Y-94174579D01*
X110907309Y-94174578D01*
X110907314Y-94174576D01*
X111000500Y-94081390D01*
X111000503Y-94081385D01*
X111066390Y-93967266D01*
X111066390Y-93967264D01*
X111066392Y-93967262D01*
X111100500Y-93839968D01*
X111100500Y-93830321D01*
X111119407Y-93772130D01*
X111168907Y-93736166D01*
X111225122Y-93734695D01*
X111284108Y-93750500D01*
X111284109Y-93750500D01*
X111415890Y-93750500D01*
X111415892Y-93750500D01*
X111543186Y-93716392D01*
X111543188Y-93716390D01*
X111543190Y-93716390D01*
X111657309Y-93650503D01*
X111657309Y-93650502D01*
X111657314Y-93650500D01*
X111679998Y-93627815D01*
X111734513Y-93600040D01*
X111794945Y-93609611D01*
X111820000Y-93627814D01*
X111842686Y-93650500D01*
X111842688Y-93650501D01*
X111842690Y-93650503D01*
X111956810Y-93716390D01*
X111956808Y-93716390D01*
X111956812Y-93716391D01*
X111956814Y-93716392D01*
X112084108Y-93750500D01*
X112084110Y-93750500D01*
X112215890Y-93750500D01*
X112215892Y-93750500D01*
X112343186Y-93716392D01*
X112343188Y-93716390D01*
X112343190Y-93716390D01*
X112457309Y-93650503D01*
X112457309Y-93650502D01*
X112457314Y-93650500D01*
X112550500Y-93557314D01*
X112616392Y-93443186D01*
X112650500Y-93315892D01*
X112650500Y-93184108D01*
X112616392Y-93056814D01*
X112616390Y-93056811D01*
X112616390Y-93056809D01*
X112563764Y-92965659D01*
X112550500Y-92916159D01*
X112550500Y-90833840D01*
X112563763Y-90784341D01*
X112616392Y-90693186D01*
X112650500Y-90565892D01*
X112650500Y-90522954D01*
X112669407Y-90464763D01*
X112718907Y-90428799D01*
X112775122Y-90427328D01*
X112833608Y-90442999D01*
X112833609Y-90442999D01*
X112965390Y-90442999D01*
X112965392Y-90442999D01*
X113092686Y-90408891D01*
X113092688Y-90408889D01*
X113092690Y-90408889D01*
X113206809Y-90343002D01*
X113206809Y-90343001D01*
X113206814Y-90342999D01*
X113300000Y-90249813D01*
X113304118Y-90242680D01*
X113365890Y-90135689D01*
X113365890Y-90135687D01*
X113365892Y-90135685D01*
X113400000Y-90008391D01*
X113400000Y-89943333D01*
X113418907Y-89885142D01*
X113428990Y-89873335D01*
X113510465Y-89791861D01*
X113553318Y-89717638D01*
X113575500Y-89634852D01*
X113575500Y-89549146D01*
X113575500Y-88284234D01*
X114524500Y-88284234D01*
X114524500Y-88435766D01*
X114536846Y-88481841D01*
X114563720Y-88582139D01*
X114639481Y-88713360D01*
X114639483Y-88713362D01*
X114639485Y-88713365D01*
X114746635Y-88820515D01*
X114746637Y-88820516D01*
X114746639Y-88820518D01*
X114877861Y-88896279D01*
X114877859Y-88896279D01*
X114877863Y-88896280D01*
X114877865Y-88896281D01*
X115024234Y-88935500D01*
X115024236Y-88935500D01*
X115175764Y-88935500D01*
X115175766Y-88935500D01*
X115322135Y-88896281D01*
X115322137Y-88896279D01*
X115322139Y-88896279D01*
X115453360Y-88820518D01*
X115453360Y-88820517D01*
X115453365Y-88820515D01*
X115560515Y-88713365D01*
X115636281Y-88582135D01*
X115675500Y-88435766D01*
X115675500Y-88284234D01*
X115647788Y-88180810D01*
X115650990Y-88119714D01*
X115689495Y-88072164D01*
X115724101Y-88058094D01*
X115820763Y-88038867D01*
X115939784Y-87989567D01*
X116046899Y-87917994D01*
X116046903Y-87917991D01*
X116137991Y-87826903D01*
X116137994Y-87826899D01*
X116209567Y-87719784D01*
X116258867Y-87600763D01*
X116283999Y-87474415D01*
X116284000Y-87474411D01*
X116284000Y-87285001D01*
X116283999Y-87285000D01*
X115880000Y-87285000D01*
X115880000Y-86935000D01*
X116283999Y-86935000D01*
X116284000Y-86934999D01*
X116284000Y-86745588D01*
X116283999Y-86745584D01*
X116258867Y-86619236D01*
X116209567Y-86500215D01*
X116137994Y-86393100D01*
X116137991Y-86393096D01*
X116046903Y-86302008D01*
X116046899Y-86302005D01*
X115939784Y-86230432D01*
X115820765Y-86181133D01*
X115805000Y-86177997D01*
X115805000Y-86631446D01*
X115771614Y-86598060D01*
X115679728Y-86560000D01*
X115580272Y-86560000D01*
X115488386Y-86598060D01*
X115455000Y-86631446D01*
X115455000Y-86177997D01*
X115439234Y-86181133D01*
X115320215Y-86230432D01*
X115213100Y-86302005D01*
X115213096Y-86302008D01*
X115122008Y-86393096D01*
X115122005Y-86393100D01*
X115050432Y-86500215D01*
X115001132Y-86619236D01*
X114976000Y-86745584D01*
X114976000Y-86934999D01*
X114976001Y-86935000D01*
X115380000Y-86935000D01*
X115380000Y-87285000D01*
X114976001Y-87285000D01*
X114976000Y-87285001D01*
X114976000Y-87474415D01*
X115001133Y-87600764D01*
X115001133Y-87600766D01*
X115028743Y-87667422D01*
X115033544Y-87728418D01*
X115001574Y-87780587D01*
X114962903Y-87800933D01*
X114922325Y-87811806D01*
X114877860Y-87823720D01*
X114746639Y-87899481D01*
X114639481Y-88006639D01*
X114563720Y-88137860D01*
X114554634Y-88171772D01*
X114524500Y-88284234D01*
X113575500Y-88284234D01*
X113575500Y-86823890D01*
X113594407Y-86765699D01*
X113631915Y-86734517D01*
X113640104Y-86730614D01*
X113693186Y-86716392D01*
X113807314Y-86650500D01*
X113900500Y-86557314D01*
X113913765Y-86534339D01*
X113966390Y-86443190D01*
X113966390Y-86443188D01*
X113966392Y-86443186D01*
X114000500Y-86315892D01*
X114000500Y-86184108D01*
X113966392Y-86056814D01*
X113966390Y-86056811D01*
X113966390Y-86056809D01*
X113900503Y-85942690D01*
X113900501Y-85942688D01*
X113900500Y-85942686D01*
X113807314Y-85849500D01*
X113807311Y-85849498D01*
X113807309Y-85849496D01*
X113693189Y-85783609D01*
X113693191Y-85783609D01*
X113617984Y-85763458D01*
X113565892Y-85749500D01*
X113434108Y-85749500D01*
X113382016Y-85763458D01*
X113306809Y-85783609D01*
X113192690Y-85849496D01*
X113099496Y-85942690D01*
X113033609Y-86056809D01*
X113033608Y-86056814D01*
X113001138Y-86177997D01*
X112999500Y-86184109D01*
X112999500Y-86256350D01*
X112986237Y-86305850D01*
X112946681Y-86374362D01*
X112938582Y-86404585D01*
X112938583Y-86404586D01*
X112924500Y-86457147D01*
X112924500Y-89343212D01*
X112905593Y-89401403D01*
X112856093Y-89437367D01*
X112853243Y-89438245D01*
X112840384Y-89441999D01*
X112833608Y-89441999D01*
X112706314Y-89476107D01*
X112688686Y-89486284D01*
X112677243Y-89489625D01*
X112657988Y-89489045D01*
X112639147Y-89493049D01*
X112628135Y-89488145D01*
X112616086Y-89487783D01*
X112600849Y-89475995D01*
X112583252Y-89468160D01*
X112577224Y-89457719D01*
X112567691Y-89450344D01*
X112562293Y-89431853D01*
X112552662Y-89415170D01*
X112550500Y-89394592D01*
X112550500Y-86583840D01*
X112563763Y-86534341D01*
X112616392Y-86443186D01*
X112650500Y-86315892D01*
X112650500Y-86184108D01*
X112616392Y-86056814D01*
X112616390Y-86056811D01*
X112616390Y-86056809D01*
X112550503Y-85942690D01*
X112550501Y-85942688D01*
X112550500Y-85942686D01*
X112457314Y-85849500D01*
X112457311Y-85849498D01*
X112457309Y-85849496D01*
X112343189Y-85783609D01*
X112343191Y-85783609D01*
X112267984Y-85763458D01*
X112215892Y-85749500D01*
X112084108Y-85749500D01*
X112032016Y-85763458D01*
X111956809Y-85783609D01*
X111842690Y-85849496D01*
X111842684Y-85849501D01*
X111820002Y-85872183D01*
X111765485Y-85899959D01*
X111705053Y-85890387D01*
X111679998Y-85872183D01*
X111657315Y-85849501D01*
X111657309Y-85849496D01*
X111543189Y-85783609D01*
X111543191Y-85783609D01*
X111467984Y-85763458D01*
X111415892Y-85749500D01*
X111284108Y-85749500D01*
X111232016Y-85763458D01*
X111156809Y-85783609D01*
X111042690Y-85849496D01*
X111042689Y-85849497D01*
X111042686Y-85849499D01*
X111042686Y-85849500D01*
X111020001Y-85872184D01*
X110965487Y-85899960D01*
X110905055Y-85890389D01*
X110861790Y-85847124D01*
X110851000Y-85802179D01*
X110851000Y-85648461D01*
X110851000Y-85648459D01*
X110847260Y-85634500D01*
X110828818Y-85565673D01*
X110828816Y-85565670D01*
X110828816Y-85565668D01*
X110785968Y-85491454D01*
X110785966Y-85491452D01*
X110785965Y-85491450D01*
X109634050Y-84339535D01*
X109634047Y-84339533D01*
X109634045Y-84339531D01*
X109559830Y-84296683D01*
X109559832Y-84296683D01*
X109527709Y-84288076D01*
X109477041Y-84274500D01*
X109477039Y-84274500D01*
X106867637Y-84274500D01*
X106860039Y-84272031D01*
X106852149Y-84273281D01*
X106831495Y-84262757D01*
X106809446Y-84255593D01*
X106797633Y-84245503D01*
X106729496Y-84177365D01*
X106701719Y-84122848D01*
X106700500Y-84107362D01*
X106700500Y-82650840D01*
X106700501Y-82650827D01*
X106700501Y-82557146D01*
X106700500Y-82557144D01*
X106678320Y-82474368D01*
X106678319Y-82474365D01*
X106678318Y-82474362D01*
X106678314Y-82474355D01*
X106671677Y-82462857D01*
X106671673Y-82462853D01*
X106635465Y-82400138D01*
X106574862Y-82339535D01*
X106574859Y-82339533D01*
X105631198Y-81395872D01*
X105623220Y-81380215D01*
X105611295Y-81367314D01*
X105609675Y-81353631D01*
X105603421Y-81341355D01*
X105604105Y-81306552D01*
X105610445Y-81274681D01*
X105610445Y-81274679D01*
X105614580Y-81253891D01*
X105625500Y-81198993D01*
X105625500Y-81061007D01*
X105598580Y-80925672D01*
X105564019Y-80842234D01*
X105558375Y-80828608D01*
X105545777Y-80798193D01*
X105545771Y-80798182D01*
X105544035Y-80795584D01*
X106356000Y-80795584D01*
X106356000Y-80984999D01*
X106356001Y-80985000D01*
X106760000Y-80985000D01*
X106760000Y-81335000D01*
X106356001Y-81335000D01*
X106356000Y-81335001D01*
X106356000Y-81524415D01*
X106381132Y-81650763D01*
X106430432Y-81769784D01*
X106502005Y-81876899D01*
X106502008Y-81876903D01*
X106593096Y-81967991D01*
X106593100Y-81967994D01*
X106700215Y-82039567D01*
X106819233Y-82088866D01*
X106835000Y-82092001D01*
X106835000Y-81638554D01*
X106868386Y-81671940D01*
X106960272Y-81710000D01*
X107059728Y-81710000D01*
X107151614Y-81671940D01*
X107185000Y-81638554D01*
X107185000Y-82092001D01*
X107200766Y-82088866D01*
X107319784Y-82039567D01*
X107426899Y-81967994D01*
X107426903Y-81967991D01*
X107517991Y-81876903D01*
X107517994Y-81876899D01*
X107589567Y-81769784D01*
X107638867Y-81650763D01*
X107663999Y-81524415D01*
X107664000Y-81524411D01*
X107664000Y-81335001D01*
X107663999Y-81335000D01*
X107260000Y-81335000D01*
X107260000Y-80985000D01*
X107663999Y-80985000D01*
X107664000Y-80984999D01*
X107664000Y-80795588D01*
X107663999Y-80795584D01*
X115336000Y-80795584D01*
X115336000Y-80984999D01*
X115336001Y-80985000D01*
X115740000Y-80985000D01*
X115740000Y-81335000D01*
X115336001Y-81335000D01*
X115336000Y-81335001D01*
X115336000Y-81524415D01*
X115361132Y-81650763D01*
X115410432Y-81769784D01*
X115482005Y-81876899D01*
X115482008Y-81876903D01*
X115573096Y-81967991D01*
X115573100Y-81967994D01*
X115680215Y-82039567D01*
X115799233Y-82088866D01*
X115815000Y-82092001D01*
X115815000Y-81638554D01*
X115848386Y-81671940D01*
X115940272Y-81710000D01*
X116039728Y-81710000D01*
X116131614Y-81671940D01*
X116165000Y-81638554D01*
X116165000Y-82092001D01*
X116180766Y-82088866D01*
X116299784Y-82039567D01*
X116406899Y-81967994D01*
X116406903Y-81967991D01*
X116497991Y-81876903D01*
X116497994Y-81876899D01*
X116569567Y-81769784D01*
X116618867Y-81650763D01*
X116643999Y-81524415D01*
X116644000Y-81524411D01*
X116644000Y-81335001D01*
X116643999Y-81335000D01*
X116240000Y-81335000D01*
X116240000Y-81168594D01*
X117423500Y-81168594D01*
X117423500Y-81331405D01*
X117455262Y-81491080D01*
X117455262Y-81491082D01*
X117517563Y-81641492D01*
X117517563Y-81641493D01*
X117590584Y-81750775D01*
X117608016Y-81776863D01*
X117723137Y-81891984D01*
X117858505Y-81982435D01*
X118008919Y-82044738D01*
X118168597Y-82076500D01*
X118168598Y-82076500D01*
X118331402Y-82076500D01*
X118331403Y-82076500D01*
X118491081Y-82044738D01*
X118641495Y-81982435D01*
X118776863Y-81891984D01*
X118891984Y-81776863D01*
X118982435Y-81641495D01*
X119044738Y-81491081D01*
X119076500Y-81331403D01*
X119076500Y-81168597D01*
X119044738Y-81008919D01*
X119010255Y-80925670D01*
X118982436Y-80858507D01*
X118982436Y-80858506D01*
X118891984Y-80723137D01*
X118776862Y-80608015D01*
X118641492Y-80517563D01*
X118491081Y-80455262D01*
X118331405Y-80423500D01*
X118331403Y-80423500D01*
X118168597Y-80423500D01*
X118168594Y-80423500D01*
X118008919Y-80455262D01*
X118008917Y-80455262D01*
X117858507Y-80517563D01*
X117858506Y-80517563D01*
X117723137Y-80608015D01*
X117608015Y-80723137D01*
X117517563Y-80858506D01*
X117517563Y-80858507D01*
X117455262Y-81008917D01*
X117455262Y-81008919D01*
X117423500Y-81168594D01*
X116240000Y-81168594D01*
X116240000Y-80985000D01*
X116643999Y-80985000D01*
X116644000Y-80984999D01*
X116644000Y-80795588D01*
X116643999Y-80795584D01*
X116618867Y-80669236D01*
X116569567Y-80550215D01*
X116497994Y-80443100D01*
X116497991Y-80443096D01*
X116406903Y-80352008D01*
X116406899Y-80352005D01*
X116299784Y-80280432D01*
X116180765Y-80231133D01*
X116165000Y-80227997D01*
X116165000Y-80681446D01*
X116131614Y-80648060D01*
X116039728Y-80610000D01*
X115940272Y-80610000D01*
X115848386Y-80648060D01*
X115815000Y-80681446D01*
X115815000Y-80227997D01*
X115799234Y-80231133D01*
X115680215Y-80280432D01*
X115573100Y-80352005D01*
X115573096Y-80352008D01*
X115482008Y-80443096D01*
X115482005Y-80443100D01*
X115410432Y-80550215D01*
X115361132Y-80669236D01*
X115336000Y-80795584D01*
X107663999Y-80795584D01*
X107638867Y-80669236D01*
X107589567Y-80550215D01*
X107517994Y-80443100D01*
X107517991Y-80443096D01*
X107426903Y-80352008D01*
X107426899Y-80352005D01*
X107319784Y-80280432D01*
X107200765Y-80231133D01*
X107185000Y-80227997D01*
X107185000Y-80681446D01*
X107151614Y-80648060D01*
X107059728Y-80610000D01*
X106960272Y-80610000D01*
X106868386Y-80648060D01*
X106835000Y-80681446D01*
X106835000Y-80227997D01*
X106819234Y-80231133D01*
X106700215Y-80280432D01*
X106593100Y-80352005D01*
X106593096Y-80352008D01*
X106502008Y-80443096D01*
X106502005Y-80443100D01*
X106430432Y-80550215D01*
X106381132Y-80669236D01*
X106356000Y-80795584D01*
X105544035Y-80795584D01*
X105469114Y-80683458D01*
X105371541Y-80585885D01*
X105256817Y-80509228D01*
X105256806Y-80509222D01*
X105129328Y-80456420D01*
X104993995Y-80429500D01*
X104993993Y-80429500D01*
X104856007Y-80429500D01*
X104856004Y-80429500D01*
X104720672Y-80456420D01*
X104720670Y-80456420D01*
X104593193Y-80509222D01*
X104593182Y-80509228D01*
X104478458Y-80585885D01*
X104380885Y-80683458D01*
X104304228Y-80798182D01*
X104304222Y-80798193D01*
X104251420Y-80925670D01*
X104251420Y-80925672D01*
X104224500Y-81061004D01*
X104224500Y-81198995D01*
X104251420Y-81334327D01*
X104251420Y-81334329D01*
X104304222Y-81461806D01*
X104304228Y-81461817D01*
X104380885Y-81576541D01*
X104380886Y-81576542D01*
X104478458Y-81674114D01*
X104491286Y-81682685D01*
X104529165Y-81730735D01*
X104531567Y-81791873D01*
X104497574Y-81842747D01*
X104491293Y-81847309D01*
X104478458Y-81855886D01*
X104478454Y-81855889D01*
X104380885Y-81953458D01*
X104304228Y-82068182D01*
X104304222Y-82068193D01*
X104251420Y-82195670D01*
X104251420Y-82195672D01*
X104224500Y-82331004D01*
X104224500Y-82468995D01*
X104251420Y-82604327D01*
X104251420Y-82604329D01*
X104304222Y-82731806D01*
X104304228Y-82731817D01*
X104380885Y-82846541D01*
X104380893Y-82846550D01*
X104463550Y-82929206D01*
X104491328Y-82983722D01*
X104481757Y-83044155D01*
X104448557Y-83081520D01*
X104444354Y-83084328D01*
X104339333Y-83189349D01*
X104339330Y-83189353D01*
X104256817Y-83312839D01*
X104256811Y-83312851D01*
X104199976Y-83450064D01*
X104199976Y-83450066D01*
X104191037Y-83495000D01*
X104650760Y-83495000D01*
X104622149Y-83544555D01*
X104600000Y-83627213D01*
X104600000Y-83712787D01*
X104622149Y-83795445D01*
X104650760Y-83845000D01*
X104191038Y-83845000D01*
X104199976Y-83889933D01*
X104199976Y-83889935D01*
X104256811Y-84027148D01*
X104256817Y-84027160D01*
X104339330Y-84150646D01*
X104339333Y-84150650D01*
X104444350Y-84255667D01*
X104448548Y-84258472D01*
X104486428Y-84306521D01*
X104488830Y-84367660D01*
X104463551Y-84410791D01*
X104380894Y-84493448D01*
X104380885Y-84493458D01*
X104304228Y-84608182D01*
X104304222Y-84608193D01*
X104251420Y-84735670D01*
X104251420Y-84735672D01*
X104224500Y-84871004D01*
X104224500Y-85008995D01*
X104251420Y-85144327D01*
X104251420Y-85144329D01*
X104304222Y-85271806D01*
X104304228Y-85271817D01*
X104380885Y-85386541D01*
X104380886Y-85386542D01*
X104478458Y-85484114D01*
X104491286Y-85492685D01*
X104529165Y-85540735D01*
X104531567Y-85601873D01*
X104497574Y-85652747D01*
X104491293Y-85657309D01*
X104478458Y-85665886D01*
X104478454Y-85665889D01*
X104380889Y-85763454D01*
X104380886Y-85763458D01*
X104323395Y-85849500D01*
X104316044Y-85860501D01*
X104267994Y-85898380D01*
X104233729Y-85904499D01*
X104227147Y-85904499D01*
X104171956Y-85919287D01*
X104144360Y-85926682D01*
X104139446Y-85929520D01*
X104139445Y-85929519D01*
X104070136Y-85969535D01*
X104009534Y-86030137D01*
X104009535Y-86030138D01*
X103669504Y-86370169D01*
X103614987Y-86397946D01*
X103554555Y-86388375D01*
X103511290Y-86345110D01*
X103500500Y-86300165D01*
X103500500Y-81253891D01*
X103500805Y-81246124D01*
X103506906Y-81168597D01*
X103514129Y-81076821D01*
X103515325Y-81067419D01*
X103521818Y-81030597D01*
X103523035Y-81024741D01*
X103558044Y-80878922D01*
X103561271Y-80868201D01*
X103570722Y-80842234D01*
X103572267Y-80838260D01*
X103633709Y-80689926D01*
X103640749Y-80676109D01*
X103735069Y-80522193D01*
X103744187Y-80509644D01*
X103861418Y-80372384D01*
X103872384Y-80361418D01*
X104009644Y-80244187D01*
X104022199Y-80235065D01*
X104176104Y-80140752D01*
X104189926Y-80133709D01*
X104338252Y-80072271D01*
X104342237Y-80070721D01*
X104368209Y-80061268D01*
X104378912Y-80058046D01*
X104524760Y-80023031D01*
X104530591Y-80021819D01*
X104567412Y-80015326D01*
X104576824Y-80014128D01*
X104746124Y-80000804D01*
X104753891Y-80000500D01*
X105999793Y-80000500D01*
X118246109Y-80000500D01*
X118253875Y-80000804D01*
G37*
%TD.AperFunction*%
%TD*%
%TA.AperFunction,Conductor*%
%TO.N,GND*%
G36*
X122762170Y-92752421D02*
G01*
X122797142Y-92759377D01*
X122821088Y-92764140D01*
X122866508Y-92782953D01*
X122905937Y-92809298D01*
X122911927Y-92815288D01*
X122916737Y-92817382D01*
X122940702Y-92844063D01*
X122967046Y-92883491D01*
X122985859Y-92928909D01*
X122997579Y-92987827D01*
X123000000Y-93012409D01*
X123000000Y-97987590D01*
X122997579Y-98012172D01*
X122985859Y-98071090D01*
X122982617Y-98078915D01*
X122982524Y-98084157D01*
X122967046Y-98116508D01*
X122940702Y-98155936D01*
X122905936Y-98190702D01*
X122866508Y-98217046D01*
X122821090Y-98235859D01*
X122776927Y-98244643D01*
X122762170Y-98247579D01*
X122737590Y-98250000D01*
X117762410Y-98250000D01*
X117737829Y-98247579D01*
X117715173Y-98243072D01*
X117678909Y-98235859D01*
X117633491Y-98217046D01*
X117594063Y-98190702D01*
X117559298Y-98155937D01*
X117532953Y-98116508D01*
X117514140Y-98071088D01*
X117502421Y-98012170D01*
X117500000Y-97987590D01*
X117500000Y-96250000D01*
X117500000Y-93012409D01*
X117502421Y-92987829D01*
X117514140Y-92928911D01*
X117514141Y-92928909D01*
X117532953Y-92883491D01*
X117559300Y-92844059D01*
X117594059Y-92809300D01*
X117633492Y-92782952D01*
X117678909Y-92764140D01*
X117713926Y-92757175D01*
X117737830Y-92752421D01*
X117762410Y-92750000D01*
X122737590Y-92750000D01*
X122762170Y-92752421D01*
G37*
%TD.AperFunction*%
%TD*%
%TA.AperFunction,Conductor*%
%TO.N,/RADIO-RX-PTT1*%
G36*
X122762170Y-104502421D02*
G01*
X122797142Y-104509377D01*
X122821088Y-104514140D01*
X122866508Y-104532953D01*
X122905937Y-104559298D01*
X122911927Y-104565288D01*
X122916737Y-104567382D01*
X122940702Y-104594063D01*
X122967046Y-104633491D01*
X122985859Y-104678909D01*
X122997579Y-104737827D01*
X123000000Y-104762409D01*
X123000000Y-109737590D01*
X122997579Y-109762172D01*
X122985859Y-109821090D01*
X122982617Y-109828915D01*
X122982524Y-109834157D01*
X122967046Y-109866508D01*
X122940702Y-109905936D01*
X122905936Y-109940702D01*
X122866508Y-109967046D01*
X122821090Y-109985859D01*
X122776927Y-109994643D01*
X122762170Y-109997579D01*
X122737590Y-110000000D01*
X117762410Y-110000000D01*
X117737829Y-109997579D01*
X117715173Y-109993072D01*
X117678909Y-109985859D01*
X117633491Y-109967046D01*
X117594063Y-109940702D01*
X117559298Y-109905937D01*
X117532953Y-109866508D01*
X117514140Y-109821088D01*
X117502421Y-109762170D01*
X117500000Y-109737590D01*
X117500000Y-104762409D01*
X117502421Y-104737829D01*
X117514140Y-104678911D01*
X117514141Y-104678909D01*
X117532953Y-104633491D01*
X117559300Y-104594059D01*
X117594059Y-104559300D01*
X117633492Y-104532952D01*
X117678909Y-104514140D01*
X117713926Y-104507175D01*
X117737830Y-104502421D01*
X117762410Y-104500000D01*
X122737590Y-104500000D01*
X122762170Y-104502421D01*
G37*
%TD.AperFunction*%
%TD*%
M02*
