%TF.GenerationSoftware,KiCad,Pcbnew,9.0.4*%
%TF.CreationDate,2025-09-03T15:39:21-07:00*%
%TF.ProjectId,k1-aioc-dev-0.1,6b312d61-696f-4632-9d64-65762d302e31,rev?*%
%TF.SameCoordinates,Original*%
%TF.FileFunction,Legend,Bot*%
%TF.FilePolarity,Positive*%
%FSLAX46Y46*%
G04 Gerber Fmt 4.6, Leading zero omitted, Abs format (unit mm)*
G04 Created by KiCad (PCBNEW 9.0.4) date 2025-09-03 15:39:21*
%MOMM*%
%LPD*%
G01*
G04 APERTURE LIST*
%ADD10C,0.150000*%
%ADD11C,0.100000*%
%ADD12C,0.200000*%
%ADD13C,0.120000*%
%ADD14C,0.010000*%
G04 APERTURE END LIST*
D10*
X105900000Y-85150000D02*
X105900000Y-87250000D01*
X105750000Y-87400000D02*
X105750000Y-85150000D01*
X105750000Y-85150000D02*
X106050000Y-85150000D01*
X105750000Y-88750000D02*
X106500000Y-88000000D01*
X105750000Y-81250000D02*
X106500000Y-82000000D01*
X105750000Y-83500000D02*
X105750000Y-81250000D01*
X106500000Y-82000000D02*
X106500000Y-84000000D01*
X105750000Y-83500000D02*
X106050000Y-83500000D01*
X106500000Y-88000000D02*
X106500000Y-86000000D01*
X106050000Y-87100000D02*
X106050000Y-85150000D01*
X105750000Y-87400000D02*
X106050000Y-87100000D01*
X105900000Y-81400000D02*
X105900000Y-83500000D01*
X106050000Y-83500000D02*
X106050000Y-81550000D01*
D11*
X103820152Y-86469047D02*
X104010628Y-86602380D01*
X103820152Y-86697618D02*
X104220152Y-86697618D01*
X104220152Y-86697618D02*
X104220152Y-86545237D01*
X104220152Y-86545237D02*
X104201104Y-86507142D01*
X104201104Y-86507142D02*
X104182057Y-86488095D01*
X104182057Y-86488095D02*
X104143961Y-86469047D01*
X104143961Y-86469047D02*
X104086819Y-86469047D01*
X104086819Y-86469047D02*
X104048723Y-86488095D01*
X104048723Y-86488095D02*
X104029676Y-86507142D01*
X104029676Y-86507142D02*
X104010628Y-86545237D01*
X104010628Y-86545237D02*
X104010628Y-86697618D01*
X103839200Y-86316666D02*
X103820152Y-86259523D01*
X103820152Y-86259523D02*
X103820152Y-86164285D01*
X103820152Y-86164285D02*
X103839200Y-86126190D01*
X103839200Y-86126190D02*
X103858247Y-86107142D01*
X103858247Y-86107142D02*
X103896342Y-86088095D01*
X103896342Y-86088095D02*
X103934438Y-86088095D01*
X103934438Y-86088095D02*
X103972533Y-86107142D01*
X103972533Y-86107142D02*
X103991580Y-86126190D01*
X103991580Y-86126190D02*
X104010628Y-86164285D01*
X104010628Y-86164285D02*
X104029676Y-86240476D01*
X104029676Y-86240476D02*
X104048723Y-86278571D01*
X104048723Y-86278571D02*
X104067771Y-86297618D01*
X104067771Y-86297618D02*
X104105866Y-86316666D01*
X104105866Y-86316666D02*
X104143961Y-86316666D01*
X104143961Y-86316666D02*
X104182057Y-86297618D01*
X104182057Y-86297618D02*
X104201104Y-86278571D01*
X104201104Y-86278571D02*
X104220152Y-86240476D01*
X104220152Y-86240476D02*
X104220152Y-86145237D01*
X104220152Y-86145237D02*
X104201104Y-86088095D01*
X104220152Y-85973809D02*
X104220152Y-85745238D01*
X103820152Y-85859524D02*
X104220152Y-85859524D01*
X103839200Y-85542856D02*
X103820152Y-85485713D01*
X103820152Y-85485713D02*
X103820152Y-85390475D01*
X103820152Y-85390475D02*
X103839200Y-85352380D01*
X103839200Y-85352380D02*
X103858247Y-85333332D01*
X103858247Y-85333332D02*
X103896342Y-85314285D01*
X103896342Y-85314285D02*
X103934438Y-85314285D01*
X103934438Y-85314285D02*
X103972533Y-85333332D01*
X103972533Y-85333332D02*
X103991580Y-85352380D01*
X103991580Y-85352380D02*
X104010628Y-85390475D01*
X104010628Y-85390475D02*
X104029676Y-85466666D01*
X104029676Y-85466666D02*
X104048723Y-85504761D01*
X104048723Y-85504761D02*
X104067771Y-85523808D01*
X104067771Y-85523808D02*
X104105866Y-85542856D01*
X104105866Y-85542856D02*
X104143961Y-85542856D01*
X104143961Y-85542856D02*
X104182057Y-85523808D01*
X104182057Y-85523808D02*
X104201104Y-85504761D01*
X104201104Y-85504761D02*
X104220152Y-85466666D01*
X104220152Y-85466666D02*
X104220152Y-85371427D01*
X104220152Y-85371427D02*
X104201104Y-85314285D01*
X104220152Y-85180952D02*
X103820152Y-85085714D01*
X103820152Y-85085714D02*
X104105866Y-85009523D01*
X104105866Y-85009523D02*
X103820152Y-84933333D01*
X103820152Y-84933333D02*
X104220152Y-84838095D01*
X103820152Y-84685713D02*
X104220152Y-84685713D01*
X104220152Y-84685713D02*
X104220152Y-84590475D01*
X104220152Y-84590475D02*
X104201104Y-84533332D01*
X104201104Y-84533332D02*
X104163009Y-84495237D01*
X104163009Y-84495237D02*
X104124914Y-84476190D01*
X104124914Y-84476190D02*
X104048723Y-84457142D01*
X104048723Y-84457142D02*
X103991580Y-84457142D01*
X103991580Y-84457142D02*
X103915390Y-84476190D01*
X103915390Y-84476190D02*
X103877295Y-84495237D01*
X103877295Y-84495237D02*
X103839200Y-84533332D01*
X103839200Y-84533332D02*
X103820152Y-84590475D01*
X103820152Y-84590475D02*
X103820152Y-84685713D01*
X103839200Y-88052380D02*
X103820152Y-87995237D01*
X103820152Y-87995237D02*
X103820152Y-87899999D01*
X103820152Y-87899999D02*
X103839200Y-87861904D01*
X103839200Y-87861904D02*
X103858247Y-87842856D01*
X103858247Y-87842856D02*
X103896342Y-87823809D01*
X103896342Y-87823809D02*
X103934438Y-87823809D01*
X103934438Y-87823809D02*
X103972533Y-87842856D01*
X103972533Y-87842856D02*
X103991580Y-87861904D01*
X103991580Y-87861904D02*
X104010628Y-87899999D01*
X104010628Y-87899999D02*
X104029676Y-87976190D01*
X104029676Y-87976190D02*
X104048723Y-88014285D01*
X104048723Y-88014285D02*
X104067771Y-88033332D01*
X104067771Y-88033332D02*
X104105866Y-88052380D01*
X104105866Y-88052380D02*
X104143961Y-88052380D01*
X104143961Y-88052380D02*
X104182057Y-88033332D01*
X104182057Y-88033332D02*
X104201104Y-88014285D01*
X104201104Y-88014285D02*
X104220152Y-87976190D01*
X104220152Y-87976190D02*
X104220152Y-87880951D01*
X104220152Y-87880951D02*
X104201104Y-87823809D01*
X104220152Y-87690476D02*
X103820152Y-87595238D01*
X103820152Y-87595238D02*
X104105866Y-87519047D01*
X104105866Y-87519047D02*
X103820152Y-87442857D01*
X103820152Y-87442857D02*
X104220152Y-87347619D01*
X104220152Y-87119047D02*
X104220152Y-87042856D01*
X104220152Y-87042856D02*
X104201104Y-87004761D01*
X104201104Y-87004761D02*
X104163009Y-86966666D01*
X104163009Y-86966666D02*
X104086819Y-86947618D01*
X104086819Y-86947618D02*
X103953485Y-86947618D01*
X103953485Y-86947618D02*
X103877295Y-86966666D01*
X103877295Y-86966666D02*
X103839200Y-87004761D01*
X103839200Y-87004761D02*
X103820152Y-87042856D01*
X103820152Y-87042856D02*
X103820152Y-87119047D01*
X103820152Y-87119047D02*
X103839200Y-87157142D01*
X103839200Y-87157142D02*
X103877295Y-87195237D01*
X103877295Y-87195237D02*
X103953485Y-87214285D01*
X103953485Y-87214285D02*
X104086819Y-87214285D01*
X104086819Y-87214285D02*
X104163009Y-87195237D01*
X104163009Y-87195237D02*
X104201104Y-87157142D01*
X104201104Y-87157142D02*
X104220152Y-87119047D01*
X104201104Y-84054762D02*
X104220152Y-84092857D01*
X104220152Y-84092857D02*
X104220152Y-84150000D01*
X104220152Y-84150000D02*
X104201104Y-84207143D01*
X104201104Y-84207143D02*
X104163009Y-84245238D01*
X104163009Y-84245238D02*
X104124914Y-84264285D01*
X104124914Y-84264285D02*
X104048723Y-84283333D01*
X104048723Y-84283333D02*
X103991580Y-84283333D01*
X103991580Y-84283333D02*
X103915390Y-84264285D01*
X103915390Y-84264285D02*
X103877295Y-84245238D01*
X103877295Y-84245238D02*
X103839200Y-84207143D01*
X103839200Y-84207143D02*
X103820152Y-84150000D01*
X103820152Y-84150000D02*
X103820152Y-84111904D01*
X103820152Y-84111904D02*
X103839200Y-84054762D01*
X103839200Y-84054762D02*
X103858247Y-84035714D01*
X103858247Y-84035714D02*
X103991580Y-84035714D01*
X103991580Y-84035714D02*
X103991580Y-84111904D01*
X103820152Y-83864285D02*
X104220152Y-83864285D01*
X104220152Y-83864285D02*
X103820152Y-83635714D01*
X103820152Y-83635714D02*
X104220152Y-83635714D01*
X103820152Y-83445237D02*
X104220152Y-83445237D01*
X104220152Y-83445237D02*
X104220152Y-83349999D01*
X104220152Y-83349999D02*
X104201104Y-83292856D01*
X104201104Y-83292856D02*
X104163009Y-83254761D01*
X104163009Y-83254761D02*
X104124914Y-83235714D01*
X104124914Y-83235714D02*
X104048723Y-83216666D01*
X104048723Y-83216666D02*
X103991580Y-83216666D01*
X103991580Y-83216666D02*
X103915390Y-83235714D01*
X103915390Y-83235714D02*
X103877295Y-83254761D01*
X103877295Y-83254761D02*
X103839200Y-83292856D01*
X103839200Y-83292856D02*
X103820152Y-83349999D01*
X103820152Y-83349999D02*
X103820152Y-83445237D01*
D10*
X116377506Y-109369819D02*
X116377506Y-110084104D01*
X116377506Y-110084104D02*
X116425125Y-110226961D01*
X116425125Y-110226961D02*
X116520363Y-110322200D01*
X116520363Y-110322200D02*
X116663220Y-110369819D01*
X116663220Y-110369819D02*
X116758458Y-110369819D01*
X115425125Y-110369819D02*
X115901315Y-110369819D01*
X115901315Y-110369819D02*
X115901315Y-109369819D01*
X114520363Y-110274580D02*
X114567982Y-110322200D01*
X114567982Y-110322200D02*
X114710839Y-110369819D01*
X114710839Y-110369819D02*
X114806077Y-110369819D01*
X114806077Y-110369819D02*
X114948934Y-110322200D01*
X114948934Y-110322200D02*
X115044172Y-110226961D01*
X115044172Y-110226961D02*
X115091791Y-110131723D01*
X115091791Y-110131723D02*
X115139410Y-109941247D01*
X115139410Y-109941247D02*
X115139410Y-109798390D01*
X115139410Y-109798390D02*
X115091791Y-109607914D01*
X115091791Y-109607914D02*
X115044172Y-109512676D01*
X115044172Y-109512676D02*
X114948934Y-109417438D01*
X114948934Y-109417438D02*
X114806077Y-109369819D01*
X114806077Y-109369819D02*
X114710839Y-109369819D01*
X114710839Y-109369819D02*
X114567982Y-109417438D01*
X114567982Y-109417438D02*
X114520363Y-109465057D01*
X113806077Y-109369819D02*
X113806077Y-110084104D01*
X113806077Y-110084104D02*
X113853696Y-110226961D01*
X113853696Y-110226961D02*
X113948934Y-110322200D01*
X113948934Y-110322200D02*
X114091791Y-110369819D01*
X114091791Y-110369819D02*
X114187029Y-110369819D01*
X112853696Y-110369819D02*
X113329886Y-110369819D01*
X113329886Y-110369819D02*
X113329886Y-109369819D01*
X111948934Y-110274580D02*
X111996553Y-110322200D01*
X111996553Y-110322200D02*
X112139410Y-110369819D01*
X112139410Y-110369819D02*
X112234648Y-110369819D01*
X112234648Y-110369819D02*
X112377505Y-110322200D01*
X112377505Y-110322200D02*
X112472743Y-110226961D01*
X112472743Y-110226961D02*
X112520362Y-110131723D01*
X112520362Y-110131723D02*
X112567981Y-109941247D01*
X112567981Y-109941247D02*
X112567981Y-109798390D01*
X112567981Y-109798390D02*
X112520362Y-109607914D01*
X112520362Y-109607914D02*
X112472743Y-109512676D01*
X112472743Y-109512676D02*
X112377505Y-109417438D01*
X112377505Y-109417438D02*
X112234648Y-109369819D01*
X112234648Y-109369819D02*
X112139410Y-109369819D01*
X112139410Y-109369819D02*
X111996553Y-109417438D01*
X111996553Y-109417438D02*
X111948934Y-109465057D01*
X111234648Y-109369819D02*
X111234648Y-110084104D01*
X111234648Y-110084104D02*
X111282267Y-110226961D01*
X111282267Y-110226961D02*
X111377505Y-110322200D01*
X111377505Y-110322200D02*
X111520362Y-110369819D01*
X111520362Y-110369819D02*
X111615600Y-110369819D01*
X110282267Y-110369819D02*
X110758457Y-110369819D01*
X110758457Y-110369819D02*
X110758457Y-109369819D01*
X109377505Y-110274580D02*
X109425124Y-110322200D01*
X109425124Y-110322200D02*
X109567981Y-110369819D01*
X109567981Y-110369819D02*
X109663219Y-110369819D01*
X109663219Y-110369819D02*
X109806076Y-110322200D01*
X109806076Y-110322200D02*
X109901314Y-110226961D01*
X109901314Y-110226961D02*
X109948933Y-110131723D01*
X109948933Y-110131723D02*
X109996552Y-109941247D01*
X109996552Y-109941247D02*
X109996552Y-109798390D01*
X109996552Y-109798390D02*
X109948933Y-109607914D01*
X109948933Y-109607914D02*
X109901314Y-109512676D01*
X109901314Y-109512676D02*
X109806076Y-109417438D01*
X109806076Y-109417438D02*
X109663219Y-109369819D01*
X109663219Y-109369819D02*
X109567981Y-109369819D01*
X109567981Y-109369819D02*
X109425124Y-109417438D01*
X109425124Y-109417438D02*
X109377505Y-109465057D01*
X108663219Y-109369819D02*
X108663219Y-110084104D01*
X108663219Y-110084104D02*
X108710838Y-110226961D01*
X108710838Y-110226961D02*
X108806076Y-110322200D01*
X108806076Y-110322200D02*
X108948933Y-110369819D01*
X108948933Y-110369819D02*
X109044171Y-110369819D01*
X107710838Y-110369819D02*
X108187028Y-110369819D01*
X108187028Y-110369819D02*
X108187028Y-109369819D01*
X106806076Y-110274580D02*
X106853695Y-110322200D01*
X106853695Y-110322200D02*
X106996552Y-110369819D01*
X106996552Y-110369819D02*
X107091790Y-110369819D01*
X107091790Y-110369819D02*
X107234647Y-110322200D01*
X107234647Y-110322200D02*
X107329885Y-110226961D01*
X107329885Y-110226961D02*
X107377504Y-110131723D01*
X107377504Y-110131723D02*
X107425123Y-109941247D01*
X107425123Y-109941247D02*
X107425123Y-109798390D01*
X107425123Y-109798390D02*
X107377504Y-109607914D01*
X107377504Y-109607914D02*
X107329885Y-109512676D01*
X107329885Y-109512676D02*
X107234647Y-109417438D01*
X107234647Y-109417438D02*
X107091790Y-109369819D01*
X107091790Y-109369819D02*
X106996552Y-109369819D01*
X106996552Y-109369819D02*
X106853695Y-109417438D01*
X106853695Y-109417438D02*
X106806076Y-109465057D01*
D11*
X104029676Y-89083333D02*
X104010628Y-89026190D01*
X104010628Y-89026190D02*
X103991580Y-89007143D01*
X103991580Y-89007143D02*
X103953485Y-88988095D01*
X103953485Y-88988095D02*
X103896342Y-88988095D01*
X103896342Y-88988095D02*
X103858247Y-89007143D01*
X103858247Y-89007143D02*
X103839200Y-89026190D01*
X103839200Y-89026190D02*
X103820152Y-89064285D01*
X103820152Y-89064285D02*
X103820152Y-89216666D01*
X103820152Y-89216666D02*
X104220152Y-89216666D01*
X104220152Y-89216666D02*
X104220152Y-89083333D01*
X104220152Y-89083333D02*
X104201104Y-89045238D01*
X104201104Y-89045238D02*
X104182057Y-89026190D01*
X104182057Y-89026190D02*
X104143961Y-89007143D01*
X104143961Y-89007143D02*
X104105866Y-89007143D01*
X104105866Y-89007143D02*
X104067771Y-89026190D01*
X104067771Y-89026190D02*
X104048723Y-89045238D01*
X104048723Y-89045238D02*
X104029676Y-89083333D01*
X104029676Y-89083333D02*
X104029676Y-89216666D01*
X103820152Y-88626190D02*
X103820152Y-88816666D01*
X103820152Y-88816666D02*
X104220152Y-88816666D01*
X103820152Y-88492856D02*
X104220152Y-88492856D01*
X104220152Y-88492856D02*
X104220152Y-88397618D01*
X104220152Y-88397618D02*
X104201104Y-88340475D01*
X104201104Y-88340475D02*
X104163009Y-88302380D01*
X104163009Y-88302380D02*
X104124914Y-88283333D01*
X104124914Y-88283333D02*
X104048723Y-88264285D01*
X104048723Y-88264285D02*
X103991580Y-88264285D01*
X103991580Y-88264285D02*
X103915390Y-88283333D01*
X103915390Y-88283333D02*
X103877295Y-88302380D01*
X103877295Y-88302380D02*
X103839200Y-88340475D01*
X103839200Y-88340475D02*
X103820152Y-88397618D01*
X103820152Y-88397618D02*
X103820152Y-88492856D01*
X104220152Y-81745237D02*
X104220152Y-81497618D01*
X104220152Y-81497618D02*
X104067771Y-81630951D01*
X104067771Y-81630951D02*
X104067771Y-81573808D01*
X104067771Y-81573808D02*
X104048723Y-81535713D01*
X104048723Y-81535713D02*
X104029676Y-81516665D01*
X104029676Y-81516665D02*
X103991580Y-81497618D01*
X103991580Y-81497618D02*
X103896342Y-81497618D01*
X103896342Y-81497618D02*
X103858247Y-81516665D01*
X103858247Y-81516665D02*
X103839200Y-81535713D01*
X103839200Y-81535713D02*
X103820152Y-81573808D01*
X103820152Y-81573808D02*
X103820152Y-81688094D01*
X103820152Y-81688094D02*
X103839200Y-81726189D01*
X103839200Y-81726189D02*
X103858247Y-81745237D01*
X104220152Y-81383332D02*
X103820152Y-81249999D01*
X103820152Y-81249999D02*
X104220152Y-81116666D01*
X104220152Y-81021428D02*
X104220152Y-80773809D01*
X104220152Y-80773809D02*
X104067771Y-80907142D01*
X104067771Y-80907142D02*
X104067771Y-80849999D01*
X104067771Y-80849999D02*
X104048723Y-80811904D01*
X104048723Y-80811904D02*
X104029676Y-80792856D01*
X104029676Y-80792856D02*
X103991580Y-80773809D01*
X103991580Y-80773809D02*
X103896342Y-80773809D01*
X103896342Y-80773809D02*
X103858247Y-80792856D01*
X103858247Y-80792856D02*
X103839200Y-80811904D01*
X103839200Y-80811904D02*
X103820152Y-80849999D01*
X103820152Y-80849999D02*
X103820152Y-80964285D01*
X103820152Y-80964285D02*
X103839200Y-81002380D01*
X103839200Y-81002380D02*
X103858247Y-81021428D01*
D12*
X114999999Y-81416504D02*
X114523809Y-81416504D01*
X115095237Y-81702219D02*
X114761904Y-80702219D01*
X114761904Y-80702219D02*
X114428571Y-81702219D01*
X114095237Y-81702219D02*
X114095237Y-80702219D01*
X113428571Y-80702219D02*
X113238095Y-80702219D01*
X113238095Y-80702219D02*
X113142857Y-80749838D01*
X113142857Y-80749838D02*
X113047619Y-80845076D01*
X113047619Y-80845076D02*
X113000000Y-81035552D01*
X113000000Y-81035552D02*
X113000000Y-81368885D01*
X113000000Y-81368885D02*
X113047619Y-81559361D01*
X113047619Y-81559361D02*
X113142857Y-81654600D01*
X113142857Y-81654600D02*
X113238095Y-81702219D01*
X113238095Y-81702219D02*
X113428571Y-81702219D01*
X113428571Y-81702219D02*
X113523809Y-81654600D01*
X113523809Y-81654600D02*
X113619047Y-81559361D01*
X113619047Y-81559361D02*
X113666666Y-81368885D01*
X113666666Y-81368885D02*
X113666666Y-81035552D01*
X113666666Y-81035552D02*
X113619047Y-80845076D01*
X113619047Y-80845076D02*
X113523809Y-80749838D01*
X113523809Y-80749838D02*
X113428571Y-80702219D01*
X112000000Y-81606980D02*
X112047619Y-81654600D01*
X112047619Y-81654600D02*
X112190476Y-81702219D01*
X112190476Y-81702219D02*
X112285714Y-81702219D01*
X112285714Y-81702219D02*
X112428571Y-81654600D01*
X112428571Y-81654600D02*
X112523809Y-81559361D01*
X112523809Y-81559361D02*
X112571428Y-81464123D01*
X112571428Y-81464123D02*
X112619047Y-81273647D01*
X112619047Y-81273647D02*
X112619047Y-81130790D01*
X112619047Y-81130790D02*
X112571428Y-80940314D01*
X112571428Y-80940314D02*
X112523809Y-80845076D01*
X112523809Y-80845076D02*
X112428571Y-80749838D01*
X112428571Y-80749838D02*
X112285714Y-80702219D01*
X112285714Y-80702219D02*
X112190476Y-80702219D01*
X112190476Y-80702219D02*
X112047619Y-80749838D01*
X112047619Y-80749838D02*
X112000000Y-80797457D01*
X110952380Y-80702219D02*
X110619047Y-81702219D01*
X110619047Y-81702219D02*
X110285714Y-80702219D01*
X109428571Y-81702219D02*
X109999999Y-81702219D01*
X109714285Y-81702219D02*
X109714285Y-80702219D01*
X109714285Y-80702219D02*
X109809523Y-80845076D01*
X109809523Y-80845076D02*
X109904761Y-80940314D01*
X109904761Y-80940314D02*
X109999999Y-80987933D01*
X108999999Y-81606980D02*
X108952380Y-81654600D01*
X108952380Y-81654600D02*
X108999999Y-81702219D01*
X108999999Y-81702219D02*
X109047618Y-81654600D01*
X109047618Y-81654600D02*
X108999999Y-81606980D01*
X108999999Y-81606980D02*
X108999999Y-81702219D01*
X108333333Y-80702219D02*
X108238095Y-80702219D01*
X108238095Y-80702219D02*
X108142857Y-80749838D01*
X108142857Y-80749838D02*
X108095238Y-80797457D01*
X108095238Y-80797457D02*
X108047619Y-80892695D01*
X108047619Y-80892695D02*
X108000000Y-81083171D01*
X108000000Y-81083171D02*
X108000000Y-81321266D01*
X108000000Y-81321266D02*
X108047619Y-81511742D01*
X108047619Y-81511742D02*
X108095238Y-81606980D01*
X108095238Y-81606980D02*
X108142857Y-81654600D01*
X108142857Y-81654600D02*
X108238095Y-81702219D01*
X108238095Y-81702219D02*
X108333333Y-81702219D01*
X108333333Y-81702219D02*
X108428571Y-81654600D01*
X108428571Y-81654600D02*
X108476190Y-81606980D01*
X108476190Y-81606980D02*
X108523809Y-81511742D01*
X108523809Y-81511742D02*
X108571428Y-81321266D01*
X108571428Y-81321266D02*
X108571428Y-81083171D01*
X108571428Y-81083171D02*
X108523809Y-80892695D01*
X108523809Y-80892695D02*
X108476190Y-80797457D01*
X108476190Y-80797457D02*
X108428571Y-80749838D01*
X108428571Y-80749838D02*
X108333333Y-80702219D01*
X123154762Y-110309695D02*
X122659524Y-110309695D01*
X122659524Y-110309695D02*
X122926190Y-110614457D01*
X122926190Y-110614457D02*
X122811905Y-110614457D01*
X122811905Y-110614457D02*
X122735714Y-110652552D01*
X122735714Y-110652552D02*
X122697619Y-110690647D01*
X122697619Y-110690647D02*
X122659524Y-110766838D01*
X122659524Y-110766838D02*
X122659524Y-110957314D01*
X122659524Y-110957314D02*
X122697619Y-111033504D01*
X122697619Y-111033504D02*
X122735714Y-111071600D01*
X122735714Y-111071600D02*
X122811905Y-111109695D01*
X122811905Y-111109695D02*
X123040476Y-111109695D01*
X123040476Y-111109695D02*
X123116667Y-111071600D01*
X123116667Y-111071600D02*
X123154762Y-111033504D01*
X122316666Y-111033504D02*
X122278571Y-111071600D01*
X122278571Y-111071600D02*
X122316666Y-111109695D01*
X122316666Y-111109695D02*
X122354762Y-111071600D01*
X122354762Y-111071600D02*
X122316666Y-111033504D01*
X122316666Y-111033504D02*
X122316666Y-111109695D01*
X121554762Y-110309695D02*
X121935714Y-110309695D01*
X121935714Y-110309695D02*
X121973810Y-110690647D01*
X121973810Y-110690647D02*
X121935714Y-110652552D01*
X121935714Y-110652552D02*
X121859524Y-110614457D01*
X121859524Y-110614457D02*
X121669048Y-110614457D01*
X121669048Y-110614457D02*
X121592857Y-110652552D01*
X121592857Y-110652552D02*
X121554762Y-110690647D01*
X121554762Y-110690647D02*
X121516667Y-110766838D01*
X121516667Y-110766838D02*
X121516667Y-110957314D01*
X121516667Y-110957314D02*
X121554762Y-111033504D01*
X121554762Y-111033504D02*
X121592857Y-111071600D01*
X121592857Y-111071600D02*
X121669048Y-111109695D01*
X121669048Y-111109695D02*
X121859524Y-111109695D01*
X121859524Y-111109695D02*
X121935714Y-111071600D01*
X121935714Y-111071600D02*
X121973810Y-111033504D01*
X121173809Y-111109695D02*
X121173809Y-110576361D01*
X121173809Y-110652552D02*
X121135714Y-110614457D01*
X121135714Y-110614457D02*
X121059524Y-110576361D01*
X121059524Y-110576361D02*
X120945238Y-110576361D01*
X120945238Y-110576361D02*
X120869047Y-110614457D01*
X120869047Y-110614457D02*
X120830952Y-110690647D01*
X120830952Y-110690647D02*
X120830952Y-111109695D01*
X120830952Y-110690647D02*
X120792857Y-110614457D01*
X120792857Y-110614457D02*
X120716666Y-110576361D01*
X120716666Y-110576361D02*
X120602381Y-110576361D01*
X120602381Y-110576361D02*
X120526190Y-110614457D01*
X120526190Y-110614457D02*
X120488095Y-110690647D01*
X120488095Y-110690647D02*
X120488095Y-111109695D01*
X120107142Y-111109695D02*
X120107142Y-110576361D01*
X120107142Y-110652552D02*
X120069047Y-110614457D01*
X120069047Y-110614457D02*
X119992857Y-110576361D01*
X119992857Y-110576361D02*
X119878571Y-110576361D01*
X119878571Y-110576361D02*
X119802380Y-110614457D01*
X119802380Y-110614457D02*
X119764285Y-110690647D01*
X119764285Y-110690647D02*
X119764285Y-111109695D01*
X119764285Y-110690647D02*
X119726190Y-110614457D01*
X119726190Y-110614457D02*
X119649999Y-110576361D01*
X119649999Y-110576361D02*
X119535714Y-110576361D01*
X119535714Y-110576361D02*
X119459523Y-110614457D01*
X119459523Y-110614457D02*
X119421428Y-110690647D01*
X119421428Y-110690647D02*
X119421428Y-111109695D01*
D11*
X105739200Y-84842856D02*
X105720152Y-84785713D01*
X105720152Y-84785713D02*
X105720152Y-84690475D01*
X105720152Y-84690475D02*
X105739200Y-84652380D01*
X105739200Y-84652380D02*
X105758247Y-84633332D01*
X105758247Y-84633332D02*
X105796342Y-84614285D01*
X105796342Y-84614285D02*
X105834438Y-84614285D01*
X105834438Y-84614285D02*
X105872533Y-84633332D01*
X105872533Y-84633332D02*
X105891580Y-84652380D01*
X105891580Y-84652380D02*
X105910628Y-84690475D01*
X105910628Y-84690475D02*
X105929676Y-84766666D01*
X105929676Y-84766666D02*
X105948723Y-84804761D01*
X105948723Y-84804761D02*
X105967771Y-84823808D01*
X105967771Y-84823808D02*
X106005866Y-84842856D01*
X106005866Y-84842856D02*
X106043961Y-84842856D01*
X106043961Y-84842856D02*
X106082057Y-84823808D01*
X106082057Y-84823808D02*
X106101104Y-84804761D01*
X106101104Y-84804761D02*
X106120152Y-84766666D01*
X106120152Y-84766666D02*
X106120152Y-84671427D01*
X106120152Y-84671427D02*
X106101104Y-84614285D01*
X106120152Y-84480952D02*
X105720152Y-84385714D01*
X105720152Y-84385714D02*
X106005866Y-84309523D01*
X106005866Y-84309523D02*
X105720152Y-84233333D01*
X105720152Y-84233333D02*
X106120152Y-84138095D01*
X105720152Y-83985713D02*
X106120152Y-83985713D01*
X106120152Y-83985713D02*
X106120152Y-83890475D01*
X106120152Y-83890475D02*
X106101104Y-83833332D01*
X106101104Y-83833332D02*
X106063009Y-83795237D01*
X106063009Y-83795237D02*
X106024914Y-83776190D01*
X106024914Y-83776190D02*
X105948723Y-83757142D01*
X105948723Y-83757142D02*
X105891580Y-83757142D01*
X105891580Y-83757142D02*
X105815390Y-83776190D01*
X105815390Y-83776190D02*
X105777295Y-83795237D01*
X105777295Y-83795237D02*
X105739200Y-83833332D01*
X105739200Y-83833332D02*
X105720152Y-83890475D01*
X105720152Y-83890475D02*
X105720152Y-83985713D01*
D12*
X115833333Y-83154600D02*
X115690476Y-83202219D01*
X115690476Y-83202219D02*
X115452381Y-83202219D01*
X115452381Y-83202219D02*
X115357143Y-83154600D01*
X115357143Y-83154600D02*
X115309524Y-83106980D01*
X115309524Y-83106980D02*
X115261905Y-83011742D01*
X115261905Y-83011742D02*
X115261905Y-82916504D01*
X115261905Y-82916504D02*
X115309524Y-82821266D01*
X115309524Y-82821266D02*
X115357143Y-82773647D01*
X115357143Y-82773647D02*
X115452381Y-82726028D01*
X115452381Y-82726028D02*
X115642857Y-82678409D01*
X115642857Y-82678409D02*
X115738095Y-82630790D01*
X115738095Y-82630790D02*
X115785714Y-82583171D01*
X115785714Y-82583171D02*
X115833333Y-82487933D01*
X115833333Y-82487933D02*
X115833333Y-82392695D01*
X115833333Y-82392695D02*
X115785714Y-82297457D01*
X115785714Y-82297457D02*
X115738095Y-82249838D01*
X115738095Y-82249838D02*
X115642857Y-82202219D01*
X115642857Y-82202219D02*
X115404762Y-82202219D01*
X115404762Y-82202219D02*
X115261905Y-82249838D01*
X114833333Y-83106980D02*
X114785714Y-83154600D01*
X114785714Y-83154600D02*
X114833333Y-83202219D01*
X114833333Y-83202219D02*
X114880952Y-83154600D01*
X114880952Y-83154600D02*
X114833333Y-83106980D01*
X114833333Y-83106980D02*
X114833333Y-83202219D01*
X113595238Y-83202219D02*
X113595238Y-82202219D01*
X113023810Y-83202219D02*
X113452381Y-82630790D01*
X113023810Y-82202219D02*
X113595238Y-82773647D01*
X112166667Y-82535552D02*
X112166667Y-83202219D01*
X112595238Y-82535552D02*
X112595238Y-83059361D01*
X112595238Y-83059361D02*
X112547619Y-83154600D01*
X112547619Y-83154600D02*
X112452381Y-83202219D01*
X112452381Y-83202219D02*
X112309524Y-83202219D01*
X112309524Y-83202219D02*
X112214286Y-83154600D01*
X112214286Y-83154600D02*
X112166667Y-83106980D01*
X111309524Y-83154600D02*
X111404762Y-83202219D01*
X111404762Y-83202219D02*
X111595238Y-83202219D01*
X111595238Y-83202219D02*
X111690476Y-83154600D01*
X111690476Y-83154600D02*
X111738095Y-83059361D01*
X111738095Y-83059361D02*
X111738095Y-82678409D01*
X111738095Y-82678409D02*
X111690476Y-82583171D01*
X111690476Y-82583171D02*
X111595238Y-82535552D01*
X111595238Y-82535552D02*
X111404762Y-82535552D01*
X111404762Y-82535552D02*
X111309524Y-82583171D01*
X111309524Y-82583171D02*
X111261905Y-82678409D01*
X111261905Y-82678409D02*
X111261905Y-82773647D01*
X111261905Y-82773647D02*
X111738095Y-82868885D01*
X110833333Y-82535552D02*
X110833333Y-83535552D01*
X110833333Y-82583171D02*
X110738095Y-82535552D01*
X110738095Y-82535552D02*
X110547619Y-82535552D01*
X110547619Y-82535552D02*
X110452381Y-82583171D01*
X110452381Y-82583171D02*
X110404762Y-82630790D01*
X110404762Y-82630790D02*
X110357143Y-82726028D01*
X110357143Y-82726028D02*
X110357143Y-83011742D01*
X110357143Y-83011742D02*
X110404762Y-83106980D01*
X110404762Y-83106980D02*
X110452381Y-83154600D01*
X110452381Y-83154600D02*
X110547619Y-83202219D01*
X110547619Y-83202219D02*
X110738095Y-83202219D01*
X110738095Y-83202219D02*
X110833333Y-83154600D01*
X109928571Y-82535552D02*
X109928571Y-83535552D01*
X109928571Y-82583171D02*
X109833333Y-82535552D01*
X109833333Y-82535552D02*
X109642857Y-82535552D01*
X109642857Y-82535552D02*
X109547619Y-82583171D01*
X109547619Y-82583171D02*
X109500000Y-82630790D01*
X109500000Y-82630790D02*
X109452381Y-82726028D01*
X109452381Y-82726028D02*
X109452381Y-83011742D01*
X109452381Y-83011742D02*
X109500000Y-83106980D01*
X109500000Y-83106980D02*
X109547619Y-83154600D01*
X109547619Y-83154600D02*
X109642857Y-83202219D01*
X109642857Y-83202219D02*
X109833333Y-83202219D01*
X109833333Y-83202219D02*
X109928571Y-83154600D01*
X108642857Y-83154600D02*
X108738095Y-83202219D01*
X108738095Y-83202219D02*
X108928571Y-83202219D01*
X108928571Y-83202219D02*
X109023809Y-83154600D01*
X109023809Y-83154600D02*
X109071428Y-83059361D01*
X109071428Y-83059361D02*
X109071428Y-82678409D01*
X109071428Y-82678409D02*
X109023809Y-82583171D01*
X109023809Y-82583171D02*
X108928571Y-82535552D01*
X108928571Y-82535552D02*
X108738095Y-82535552D01*
X108738095Y-82535552D02*
X108642857Y-82583171D01*
X108642857Y-82583171D02*
X108595238Y-82678409D01*
X108595238Y-82678409D02*
X108595238Y-82773647D01*
X108595238Y-82773647D02*
X109071428Y-82868885D01*
X108166666Y-83202219D02*
X108166666Y-82535552D01*
X108166666Y-82726028D02*
X108119047Y-82630790D01*
X108119047Y-82630790D02*
X108071428Y-82583171D01*
X108071428Y-82583171D02*
X107976190Y-82535552D01*
X107976190Y-82535552D02*
X107880952Y-82535552D01*
X107595237Y-83154600D02*
X107499999Y-83202219D01*
X107499999Y-83202219D02*
X107309523Y-83202219D01*
X107309523Y-83202219D02*
X107214285Y-83154600D01*
X107214285Y-83154600D02*
X107166666Y-83059361D01*
X107166666Y-83059361D02*
X107166666Y-83011742D01*
X107166666Y-83011742D02*
X107214285Y-82916504D01*
X107214285Y-82916504D02*
X107309523Y-82868885D01*
X107309523Y-82868885D02*
X107452380Y-82868885D01*
X107452380Y-82868885D02*
X107547618Y-82821266D01*
X107547618Y-82821266D02*
X107595237Y-82726028D01*
X107595237Y-82726028D02*
X107595237Y-82678409D01*
X107595237Y-82678409D02*
X107547618Y-82583171D01*
X107547618Y-82583171D02*
X107452380Y-82535552D01*
X107452380Y-82535552D02*
X107309523Y-82535552D01*
X107309523Y-82535552D02*
X107214285Y-82583171D01*
X117047780Y-89452380D02*
X118047780Y-89452380D01*
X117047780Y-88880952D02*
X117619209Y-89309523D01*
X118047780Y-88880952D02*
X117476352Y-89452380D01*
X117047780Y-87928571D02*
X117047780Y-88499999D01*
X117047780Y-88214285D02*
X118047780Y-88214285D01*
X118047780Y-88214285D02*
X117904923Y-88309523D01*
X117904923Y-88309523D02*
X117809685Y-88404761D01*
X117809685Y-88404761D02*
X117762066Y-88499999D01*
X117428733Y-87499999D02*
X117428733Y-86738095D01*
X117143019Y-85690476D02*
X117095400Y-85738095D01*
X117095400Y-85738095D02*
X117047780Y-85880952D01*
X117047780Y-85880952D02*
X117047780Y-85976190D01*
X117047780Y-85976190D02*
X117095400Y-86119047D01*
X117095400Y-86119047D02*
X117190638Y-86214285D01*
X117190638Y-86214285D02*
X117285876Y-86261904D01*
X117285876Y-86261904D02*
X117476352Y-86309523D01*
X117476352Y-86309523D02*
X117619209Y-86309523D01*
X117619209Y-86309523D02*
X117809685Y-86261904D01*
X117809685Y-86261904D02*
X117904923Y-86214285D01*
X117904923Y-86214285D02*
X118000161Y-86119047D01*
X118000161Y-86119047D02*
X118047780Y-85976190D01*
X118047780Y-85976190D02*
X118047780Y-85880952D01*
X118047780Y-85880952D02*
X118000161Y-85738095D01*
X118000161Y-85738095D02*
X117952542Y-85690476D01*
X117047780Y-85119047D02*
X117095400Y-85214285D01*
X117095400Y-85214285D02*
X117143019Y-85261904D01*
X117143019Y-85261904D02*
X117238257Y-85309523D01*
X117238257Y-85309523D02*
X117523971Y-85309523D01*
X117523971Y-85309523D02*
X117619209Y-85261904D01*
X117619209Y-85261904D02*
X117666828Y-85214285D01*
X117666828Y-85214285D02*
X117714447Y-85119047D01*
X117714447Y-85119047D02*
X117714447Y-84976190D01*
X117714447Y-84976190D02*
X117666828Y-84880952D01*
X117666828Y-84880952D02*
X117619209Y-84833333D01*
X117619209Y-84833333D02*
X117523971Y-84785714D01*
X117523971Y-84785714D02*
X117238257Y-84785714D01*
X117238257Y-84785714D02*
X117143019Y-84833333D01*
X117143019Y-84833333D02*
X117095400Y-84880952D01*
X117095400Y-84880952D02*
X117047780Y-84976190D01*
X117047780Y-84976190D02*
X117047780Y-85119047D01*
X117714447Y-84357142D02*
X117047780Y-84357142D01*
X117619209Y-84357142D02*
X117666828Y-84309523D01*
X117666828Y-84309523D02*
X117714447Y-84214285D01*
X117714447Y-84214285D02*
X117714447Y-84071428D01*
X117714447Y-84071428D02*
X117666828Y-83976190D01*
X117666828Y-83976190D02*
X117571590Y-83928571D01*
X117571590Y-83928571D02*
X117047780Y-83928571D01*
X117714447Y-83452380D02*
X117047780Y-83452380D01*
X117619209Y-83452380D02*
X117666828Y-83404761D01*
X117666828Y-83404761D02*
X117714447Y-83309523D01*
X117714447Y-83309523D02*
X117714447Y-83166666D01*
X117714447Y-83166666D02*
X117666828Y-83071428D01*
X117666828Y-83071428D02*
X117571590Y-83023809D01*
X117571590Y-83023809D02*
X117047780Y-83023809D01*
X117143019Y-82547618D02*
X117095400Y-82499999D01*
X117095400Y-82499999D02*
X117047780Y-82547618D01*
X117047780Y-82547618D02*
X117095400Y-82595237D01*
X117095400Y-82595237D02*
X117143019Y-82547618D01*
X117143019Y-82547618D02*
X117047780Y-82547618D01*
D10*
X115734649Y-103712256D02*
X115829887Y-103759875D01*
X115829887Y-103759875D02*
X116020363Y-103759875D01*
X116020363Y-103759875D02*
X116115601Y-103712256D01*
X116115601Y-103712256D02*
X116163220Y-103664636D01*
X116163220Y-103664636D02*
X116210839Y-103569398D01*
X116210839Y-103569398D02*
X116210839Y-103283684D01*
X116210839Y-103283684D02*
X116163220Y-103188446D01*
X116163220Y-103188446D02*
X116115601Y-103140827D01*
X116115601Y-103140827D02*
X116020363Y-103093208D01*
X116020363Y-103093208D02*
X115829887Y-103093208D01*
X115829887Y-103093208D02*
X115734649Y-103140827D01*
X115306077Y-103093208D02*
X115306077Y-103950351D01*
X115306077Y-103950351D02*
X115353696Y-104045589D01*
X115353696Y-104045589D02*
X115448934Y-104093208D01*
X115448934Y-104093208D02*
X115496553Y-104093208D01*
X115306077Y-102759875D02*
X115353696Y-102807494D01*
X115353696Y-102807494D02*
X115306077Y-102855113D01*
X115306077Y-102855113D02*
X115258458Y-102807494D01*
X115258458Y-102807494D02*
X115306077Y-102759875D01*
X115306077Y-102759875D02*
X115306077Y-102855113D01*
X114448935Y-103712256D02*
X114544173Y-103759875D01*
X114544173Y-103759875D02*
X114734649Y-103759875D01*
X114734649Y-103759875D02*
X114829887Y-103712256D01*
X114829887Y-103712256D02*
X114877506Y-103617017D01*
X114877506Y-103617017D02*
X114877506Y-103236065D01*
X114877506Y-103236065D02*
X114829887Y-103140827D01*
X114829887Y-103140827D02*
X114734649Y-103093208D01*
X114734649Y-103093208D02*
X114544173Y-103093208D01*
X114544173Y-103093208D02*
X114448935Y-103140827D01*
X114448935Y-103140827D02*
X114401316Y-103236065D01*
X114401316Y-103236065D02*
X114401316Y-103331303D01*
X114401316Y-103331303D02*
X114877506Y-103426541D01*
X113972744Y-103759875D02*
X113972744Y-103093208D01*
X113972744Y-103188446D02*
X113925125Y-103140827D01*
X113925125Y-103140827D02*
X113829887Y-103093208D01*
X113829887Y-103093208D02*
X113687030Y-103093208D01*
X113687030Y-103093208D02*
X113591792Y-103140827D01*
X113591792Y-103140827D02*
X113544173Y-103236065D01*
X113544173Y-103236065D02*
X113544173Y-103759875D01*
X113544173Y-103236065D02*
X113496554Y-103140827D01*
X113496554Y-103140827D02*
X113401316Y-103093208D01*
X113401316Y-103093208D02*
X113258459Y-103093208D01*
X113258459Y-103093208D02*
X113163220Y-103140827D01*
X113163220Y-103140827D02*
X113115601Y-103236065D01*
X113115601Y-103236065D02*
X113115601Y-103759875D01*
X112496554Y-103759875D02*
X112591792Y-103712256D01*
X112591792Y-103712256D02*
X112639411Y-103664636D01*
X112639411Y-103664636D02*
X112687030Y-103569398D01*
X112687030Y-103569398D02*
X112687030Y-103283684D01*
X112687030Y-103283684D02*
X112639411Y-103188446D01*
X112639411Y-103188446D02*
X112591792Y-103140827D01*
X112591792Y-103140827D02*
X112496554Y-103093208D01*
X112496554Y-103093208D02*
X112353697Y-103093208D01*
X112353697Y-103093208D02*
X112258459Y-103140827D01*
X112258459Y-103140827D02*
X112210840Y-103188446D01*
X112210840Y-103188446D02*
X112163221Y-103283684D01*
X112163221Y-103283684D02*
X112163221Y-103569398D01*
X112163221Y-103569398D02*
X112210840Y-103664636D01*
X112210840Y-103664636D02*
X112258459Y-103712256D01*
X112258459Y-103712256D02*
X112353697Y-103759875D01*
X112353697Y-103759875D02*
X112496554Y-103759875D01*
X111734649Y-103759875D02*
X111734649Y-103093208D01*
X111734649Y-103283684D02*
X111687030Y-103188446D01*
X111687030Y-103188446D02*
X111639411Y-103140827D01*
X111639411Y-103140827D02*
X111544173Y-103093208D01*
X111544173Y-103093208D02*
X111448935Y-103093208D01*
X111258458Y-103093208D02*
X110877506Y-103093208D01*
X111115601Y-102759875D02*
X111115601Y-103617017D01*
X111115601Y-103617017D02*
X111067982Y-103712256D01*
X111067982Y-103712256D02*
X110972744Y-103759875D01*
X110972744Y-103759875D02*
X110877506Y-103759875D01*
X110401315Y-103759875D02*
X110496553Y-103712256D01*
X110496553Y-103712256D02*
X110544172Y-103664636D01*
X110544172Y-103664636D02*
X110591791Y-103569398D01*
X110591791Y-103569398D02*
X110591791Y-103283684D01*
X110591791Y-103283684D02*
X110544172Y-103188446D01*
X110544172Y-103188446D02*
X110496553Y-103140827D01*
X110496553Y-103140827D02*
X110401315Y-103093208D01*
X110401315Y-103093208D02*
X110258458Y-103093208D01*
X110258458Y-103093208D02*
X110163220Y-103140827D01*
X110163220Y-103140827D02*
X110115601Y-103188446D01*
X110115601Y-103188446D02*
X110067982Y-103283684D01*
X110067982Y-103283684D02*
X110067982Y-103569398D01*
X110067982Y-103569398D02*
X110115601Y-103664636D01*
X110115601Y-103664636D02*
X110163220Y-103712256D01*
X110163220Y-103712256D02*
X110258458Y-103759875D01*
X110258458Y-103759875D02*
X110401315Y-103759875D01*
X109639410Y-103093208D02*
X109639410Y-103759875D01*
X109639410Y-103188446D02*
X109591791Y-103140827D01*
X109591791Y-103140827D02*
X109496553Y-103093208D01*
X109496553Y-103093208D02*
X109353696Y-103093208D01*
X109353696Y-103093208D02*
X109258458Y-103140827D01*
X109258458Y-103140827D02*
X109210839Y-103236065D01*
X109210839Y-103236065D02*
X109210839Y-103759875D01*
X115734649Y-105369819D02*
X115734649Y-104369819D01*
X115734649Y-105322200D02*
X115829887Y-105369819D01*
X115829887Y-105369819D02*
X116020363Y-105369819D01*
X116020363Y-105369819D02*
X116115601Y-105322200D01*
X116115601Y-105322200D02*
X116163220Y-105274580D01*
X116163220Y-105274580D02*
X116210839Y-105179342D01*
X116210839Y-105179342D02*
X116210839Y-104893628D01*
X116210839Y-104893628D02*
X116163220Y-104798390D01*
X116163220Y-104798390D02*
X116115601Y-104750771D01*
X116115601Y-104750771D02*
X116020363Y-104703152D01*
X116020363Y-104703152D02*
X115829887Y-104703152D01*
X115829887Y-104703152D02*
X115734649Y-104750771D01*
X114877506Y-105322200D02*
X114972744Y-105369819D01*
X114972744Y-105369819D02*
X115163220Y-105369819D01*
X115163220Y-105369819D02*
X115258458Y-105322200D01*
X115258458Y-105322200D02*
X115306077Y-105226961D01*
X115306077Y-105226961D02*
X115306077Y-104846009D01*
X115306077Y-104846009D02*
X115258458Y-104750771D01*
X115258458Y-104750771D02*
X115163220Y-104703152D01*
X115163220Y-104703152D02*
X114972744Y-104703152D01*
X114972744Y-104703152D02*
X114877506Y-104750771D01*
X114877506Y-104750771D02*
X114829887Y-104846009D01*
X114829887Y-104846009D02*
X114829887Y-104941247D01*
X114829887Y-104941247D02*
X115306077Y-105036485D01*
X114496553Y-104703152D02*
X114258458Y-105369819D01*
X114258458Y-105369819D02*
X114020363Y-104703152D01*
X113639410Y-104988866D02*
X112877506Y-104988866D01*
X112210839Y-104369819D02*
X112115601Y-104369819D01*
X112115601Y-104369819D02*
X112020363Y-104417438D01*
X112020363Y-104417438D02*
X111972744Y-104465057D01*
X111972744Y-104465057D02*
X111925125Y-104560295D01*
X111925125Y-104560295D02*
X111877506Y-104750771D01*
X111877506Y-104750771D02*
X111877506Y-104988866D01*
X111877506Y-104988866D02*
X111925125Y-105179342D01*
X111925125Y-105179342D02*
X111972744Y-105274580D01*
X111972744Y-105274580D02*
X112020363Y-105322200D01*
X112020363Y-105322200D02*
X112115601Y-105369819D01*
X112115601Y-105369819D02*
X112210839Y-105369819D01*
X112210839Y-105369819D02*
X112306077Y-105322200D01*
X112306077Y-105322200D02*
X112353696Y-105274580D01*
X112353696Y-105274580D02*
X112401315Y-105179342D01*
X112401315Y-105179342D02*
X112448934Y-104988866D01*
X112448934Y-104988866D02*
X112448934Y-104750771D01*
X112448934Y-104750771D02*
X112401315Y-104560295D01*
X112401315Y-104560295D02*
X112353696Y-104465057D01*
X112353696Y-104465057D02*
X112306077Y-104417438D01*
X112306077Y-104417438D02*
X112210839Y-104369819D01*
X111448934Y-105274580D02*
X111401315Y-105322200D01*
X111401315Y-105322200D02*
X111448934Y-105369819D01*
X111448934Y-105369819D02*
X111496553Y-105322200D01*
X111496553Y-105322200D02*
X111448934Y-105274580D01*
X111448934Y-105274580D02*
X111448934Y-105369819D01*
X110448935Y-105369819D02*
X111020363Y-105369819D01*
X110734649Y-105369819D02*
X110734649Y-104369819D01*
X110734649Y-104369819D02*
X110829887Y-104512676D01*
X110829887Y-104512676D02*
X110925125Y-104607914D01*
X110925125Y-104607914D02*
X111020363Y-104655533D01*
D12*
X123116667Y-98635885D02*
X123078571Y-98597790D01*
X123078571Y-98597790D02*
X123002381Y-98559695D01*
X123002381Y-98559695D02*
X122811905Y-98559695D01*
X122811905Y-98559695D02*
X122735714Y-98597790D01*
X122735714Y-98597790D02*
X122697619Y-98635885D01*
X122697619Y-98635885D02*
X122659524Y-98712076D01*
X122659524Y-98712076D02*
X122659524Y-98788266D01*
X122659524Y-98788266D02*
X122697619Y-98902552D01*
X122697619Y-98902552D02*
X123154762Y-99359695D01*
X123154762Y-99359695D02*
X122659524Y-99359695D01*
X122316666Y-99283504D02*
X122278571Y-99321600D01*
X122278571Y-99321600D02*
X122316666Y-99359695D01*
X122316666Y-99359695D02*
X122354762Y-99321600D01*
X122354762Y-99321600D02*
X122316666Y-99283504D01*
X122316666Y-99283504D02*
X122316666Y-99359695D01*
X121554762Y-98559695D02*
X121935714Y-98559695D01*
X121935714Y-98559695D02*
X121973810Y-98940647D01*
X121973810Y-98940647D02*
X121935714Y-98902552D01*
X121935714Y-98902552D02*
X121859524Y-98864457D01*
X121859524Y-98864457D02*
X121669048Y-98864457D01*
X121669048Y-98864457D02*
X121592857Y-98902552D01*
X121592857Y-98902552D02*
X121554762Y-98940647D01*
X121554762Y-98940647D02*
X121516667Y-99016838D01*
X121516667Y-99016838D02*
X121516667Y-99207314D01*
X121516667Y-99207314D02*
X121554762Y-99283504D01*
X121554762Y-99283504D02*
X121592857Y-99321600D01*
X121592857Y-99321600D02*
X121669048Y-99359695D01*
X121669048Y-99359695D02*
X121859524Y-99359695D01*
X121859524Y-99359695D02*
X121935714Y-99321600D01*
X121935714Y-99321600D02*
X121973810Y-99283504D01*
X121173809Y-99359695D02*
X121173809Y-98826361D01*
X121173809Y-98902552D02*
X121135714Y-98864457D01*
X121135714Y-98864457D02*
X121059524Y-98826361D01*
X121059524Y-98826361D02*
X120945238Y-98826361D01*
X120945238Y-98826361D02*
X120869047Y-98864457D01*
X120869047Y-98864457D02*
X120830952Y-98940647D01*
X120830952Y-98940647D02*
X120830952Y-99359695D01*
X120830952Y-98940647D02*
X120792857Y-98864457D01*
X120792857Y-98864457D02*
X120716666Y-98826361D01*
X120716666Y-98826361D02*
X120602381Y-98826361D01*
X120602381Y-98826361D02*
X120526190Y-98864457D01*
X120526190Y-98864457D02*
X120488095Y-98940647D01*
X120488095Y-98940647D02*
X120488095Y-99359695D01*
X120107142Y-99359695D02*
X120107142Y-98826361D01*
X120107142Y-98902552D02*
X120069047Y-98864457D01*
X120069047Y-98864457D02*
X119992857Y-98826361D01*
X119992857Y-98826361D02*
X119878571Y-98826361D01*
X119878571Y-98826361D02*
X119802380Y-98864457D01*
X119802380Y-98864457D02*
X119764285Y-98940647D01*
X119764285Y-98940647D02*
X119764285Y-99359695D01*
X119764285Y-98940647D02*
X119726190Y-98864457D01*
X119726190Y-98864457D02*
X119649999Y-98826361D01*
X119649999Y-98826361D02*
X119535714Y-98826361D01*
X119535714Y-98826361D02*
X119459523Y-98864457D01*
X119459523Y-98864457D02*
X119421428Y-98940647D01*
X119421428Y-98940647D02*
X119421428Y-99359695D01*
D11*
X103839200Y-83042856D02*
X103820152Y-82985713D01*
X103820152Y-82985713D02*
X103820152Y-82890475D01*
X103820152Y-82890475D02*
X103839200Y-82852380D01*
X103839200Y-82852380D02*
X103858247Y-82833332D01*
X103858247Y-82833332D02*
X103896342Y-82814285D01*
X103896342Y-82814285D02*
X103934438Y-82814285D01*
X103934438Y-82814285D02*
X103972533Y-82833332D01*
X103972533Y-82833332D02*
X103991580Y-82852380D01*
X103991580Y-82852380D02*
X104010628Y-82890475D01*
X104010628Y-82890475D02*
X104029676Y-82966666D01*
X104029676Y-82966666D02*
X104048723Y-83004761D01*
X104048723Y-83004761D02*
X104067771Y-83023808D01*
X104067771Y-83023808D02*
X104105866Y-83042856D01*
X104105866Y-83042856D02*
X104143961Y-83042856D01*
X104143961Y-83042856D02*
X104182057Y-83023808D01*
X104182057Y-83023808D02*
X104201104Y-83004761D01*
X104201104Y-83004761D02*
X104220152Y-82966666D01*
X104220152Y-82966666D02*
X104220152Y-82871427D01*
X104220152Y-82871427D02*
X104201104Y-82814285D01*
X104220152Y-82680952D02*
X103820152Y-82585714D01*
X103820152Y-82585714D02*
X104105866Y-82509523D01*
X104105866Y-82509523D02*
X103820152Y-82433333D01*
X103820152Y-82433333D02*
X104220152Y-82338095D01*
X103858247Y-81957142D02*
X103839200Y-81976190D01*
X103839200Y-81976190D02*
X103820152Y-82033332D01*
X103820152Y-82033332D02*
X103820152Y-82071428D01*
X103820152Y-82071428D02*
X103839200Y-82128571D01*
X103839200Y-82128571D02*
X103877295Y-82166666D01*
X103877295Y-82166666D02*
X103915390Y-82185713D01*
X103915390Y-82185713D02*
X103991580Y-82204761D01*
X103991580Y-82204761D02*
X104048723Y-82204761D01*
X104048723Y-82204761D02*
X104124914Y-82185713D01*
X104124914Y-82185713D02*
X104163009Y-82166666D01*
X104163009Y-82166666D02*
X104201104Y-82128571D01*
X104201104Y-82128571D02*
X104220152Y-82071428D01*
X104220152Y-82071428D02*
X104220152Y-82033332D01*
X104220152Y-82033332D02*
X104201104Y-81976190D01*
X104201104Y-81976190D02*
X104182057Y-81957142D01*
X106529676Y-85542857D02*
X106510628Y-85485714D01*
X106510628Y-85485714D02*
X106491580Y-85466667D01*
X106491580Y-85466667D02*
X106453485Y-85447619D01*
X106453485Y-85447619D02*
X106396342Y-85447619D01*
X106396342Y-85447619D02*
X106358247Y-85466667D01*
X106358247Y-85466667D02*
X106339200Y-85485714D01*
X106339200Y-85485714D02*
X106320152Y-85523809D01*
X106320152Y-85523809D02*
X106320152Y-85676190D01*
X106320152Y-85676190D02*
X106720152Y-85676190D01*
X106720152Y-85676190D02*
X106720152Y-85542857D01*
X106720152Y-85542857D02*
X106701104Y-85504762D01*
X106701104Y-85504762D02*
X106682057Y-85485714D01*
X106682057Y-85485714D02*
X106643961Y-85466667D01*
X106643961Y-85466667D02*
X106605866Y-85466667D01*
X106605866Y-85466667D02*
X106567771Y-85485714D01*
X106567771Y-85485714D02*
X106548723Y-85504762D01*
X106548723Y-85504762D02*
X106529676Y-85542857D01*
X106529676Y-85542857D02*
X106529676Y-85676190D01*
X106720152Y-85200000D02*
X106720152Y-85123809D01*
X106720152Y-85123809D02*
X106701104Y-85085714D01*
X106701104Y-85085714D02*
X106663009Y-85047619D01*
X106663009Y-85047619D02*
X106586819Y-85028571D01*
X106586819Y-85028571D02*
X106453485Y-85028571D01*
X106453485Y-85028571D02*
X106377295Y-85047619D01*
X106377295Y-85047619D02*
X106339200Y-85085714D01*
X106339200Y-85085714D02*
X106320152Y-85123809D01*
X106320152Y-85123809D02*
X106320152Y-85200000D01*
X106320152Y-85200000D02*
X106339200Y-85238095D01*
X106339200Y-85238095D02*
X106377295Y-85276190D01*
X106377295Y-85276190D02*
X106453485Y-85295238D01*
X106453485Y-85295238D02*
X106586819Y-85295238D01*
X106586819Y-85295238D02*
X106663009Y-85276190D01*
X106663009Y-85276190D02*
X106701104Y-85238095D01*
X106701104Y-85238095D02*
X106720152Y-85200000D01*
X106720152Y-84780952D02*
X106720152Y-84704761D01*
X106720152Y-84704761D02*
X106701104Y-84666666D01*
X106701104Y-84666666D02*
X106663009Y-84628571D01*
X106663009Y-84628571D02*
X106586819Y-84609523D01*
X106586819Y-84609523D02*
X106453485Y-84609523D01*
X106453485Y-84609523D02*
X106377295Y-84628571D01*
X106377295Y-84628571D02*
X106339200Y-84666666D01*
X106339200Y-84666666D02*
X106320152Y-84704761D01*
X106320152Y-84704761D02*
X106320152Y-84780952D01*
X106320152Y-84780952D02*
X106339200Y-84819047D01*
X106339200Y-84819047D02*
X106377295Y-84857142D01*
X106377295Y-84857142D02*
X106453485Y-84876190D01*
X106453485Y-84876190D02*
X106586819Y-84876190D01*
X106586819Y-84876190D02*
X106663009Y-84857142D01*
X106663009Y-84857142D02*
X106701104Y-84819047D01*
X106701104Y-84819047D02*
X106720152Y-84780952D01*
X106720152Y-84495237D02*
X106720152Y-84266666D01*
X106320152Y-84380952D02*
X106720152Y-84380952D01*
D13*
%TO.C,D4*%
X104700000Y-104265000D02*
X106985000Y-104265000D01*
X106985000Y-104265000D02*
X106985000Y-105735000D01*
X106985000Y-105735000D02*
X104700000Y-105735000D01*
%TO.C,D3*%
X104015000Y-102765000D02*
X106300000Y-102765000D01*
X104015000Y-104235000D02*
X104015000Y-102765000D01*
X106300000Y-104235000D02*
X104015000Y-104235000D01*
D14*
%TO.C,REF\u002A\u002A*%
X108111501Y-90626476D02*
X108192167Y-90656440D01*
X108225714Y-90678954D01*
X108259687Y-90711212D01*
X108283919Y-90752246D01*
X108300001Y-90808108D01*
X108309521Y-90884851D01*
X108314068Y-90988525D01*
X108315231Y-91125184D01*
X108315003Y-91195805D01*
X108313860Y-91292308D01*
X108311919Y-91369323D01*
X108309365Y-91420319D01*
X108306381Y-91438769D01*
X108286962Y-91432667D01*
X108247766Y-91416095D01*
X108246589Y-91415558D01*
X108226235Y-91404903D01*
X108212546Y-91390282D01*
X108204199Y-91364673D01*
X108199874Y-91321054D01*
X108198248Y-91252403D01*
X108198000Y-91151698D01*
X108197500Y-91087813D01*
X108192164Y-90967751D01*
X108179945Y-90879809D01*
X108159552Y-90819375D01*
X108129695Y-90781836D01*
X108089082Y-90762581D01*
X108083448Y-90761239D01*
X108007378Y-90760191D01*
X107948052Y-90794271D01*
X107907077Y-90862598D01*
X107899770Y-90882351D01*
X107883114Y-90926066D01*
X107874679Y-90946155D01*
X107857356Y-90943387D01*
X107819525Y-90928365D01*
X107784240Y-90903556D01*
X107768154Y-90856670D01*
X107772952Y-90823087D01*
X107802431Y-90754967D01*
X107850098Y-90691134D01*
X107905839Y-90646988D01*
X107929193Y-90636782D01*
X108017619Y-90619718D01*
X108111501Y-90626476D01*
G36*
X108111501Y-90626476D02*
G01*
X108192167Y-90656440D01*
X108225714Y-90678954D01*
X108259687Y-90711212D01*
X108283919Y-90752246D01*
X108300001Y-90808108D01*
X108309521Y-90884851D01*
X108314068Y-90988525D01*
X108315231Y-91125184D01*
X108315003Y-91195805D01*
X108313860Y-91292308D01*
X108311919Y-91369323D01*
X108309365Y-91420319D01*
X108306381Y-91438769D01*
X108286962Y-91432667D01*
X108247766Y-91416095D01*
X108246589Y-91415558D01*
X108226235Y-91404903D01*
X108212546Y-91390282D01*
X108204199Y-91364673D01*
X108199874Y-91321054D01*
X108198248Y-91252403D01*
X108198000Y-91151698D01*
X108197500Y-91087813D01*
X108192164Y-90967751D01*
X108179945Y-90879809D01*
X108159552Y-90819375D01*
X108129695Y-90781836D01*
X108089082Y-90762581D01*
X108083448Y-90761239D01*
X108007378Y-90760191D01*
X107948052Y-90794271D01*
X107907077Y-90862598D01*
X107899770Y-90882351D01*
X107883114Y-90926066D01*
X107874679Y-90946155D01*
X107857356Y-90943387D01*
X107819525Y-90928365D01*
X107784240Y-90903556D01*
X107768154Y-90856670D01*
X107772952Y-90823087D01*
X107802431Y-90754967D01*
X107850098Y-90691134D01*
X107905839Y-90646988D01*
X107929193Y-90636782D01*
X108017619Y-90619718D01*
X108111501Y-90626476D01*
G37*
X113426372Y-90581684D02*
X113517629Y-90624569D01*
X113592416Y-90698729D01*
X113607917Y-90721944D01*
X113620774Y-90748256D01*
X113629893Y-90781420D01*
X113636102Y-90827881D01*
X113640233Y-90894082D01*
X113643116Y-90986468D01*
X113645579Y-91111485D01*
X113651697Y-91458278D01*
X113600303Y-91438738D01*
X113553246Y-91420787D01*
X113518015Y-91403511D01*
X113495017Y-91381242D01*
X113481655Y-91347165D01*
X113475328Y-91294463D01*
X113473437Y-91216323D01*
X113473385Y-91105928D01*
X113473117Y-91017935D01*
X113471521Y-90933502D01*
X113467712Y-90875834D01*
X113460820Y-90837988D01*
X113449975Y-90813024D01*
X113434308Y-90794000D01*
X113395792Y-90767153D01*
X113331091Y-90757034D01*
X113267081Y-90782606D01*
X113262856Y-90785880D01*
X113249689Y-90801007D01*
X113239975Y-90825268D01*
X113232903Y-90864650D01*
X113227656Y-90925141D01*
X113223421Y-91012729D01*
X113219385Y-91133402D01*
X113209615Y-91456515D01*
X113043539Y-91382065D01*
X113043539Y-91087062D01*
X113043883Y-91006919D01*
X113046847Y-90895431D01*
X113054351Y-90812421D01*
X113068190Y-90751199D01*
X113090155Y-90705075D01*
X113122039Y-90667358D01*
X113165633Y-90631358D01*
X113228336Y-90595089D01*
X113327117Y-90571412D01*
X113426372Y-90581684D01*
G36*
X113426372Y-90581684D02*
G01*
X113517629Y-90624569D01*
X113592416Y-90698729D01*
X113607917Y-90721944D01*
X113620774Y-90748256D01*
X113629893Y-90781420D01*
X113636102Y-90827881D01*
X113640233Y-90894082D01*
X113643116Y-90986468D01*
X113645579Y-91111485D01*
X113651697Y-91458278D01*
X113600303Y-91438738D01*
X113553246Y-91420787D01*
X113518015Y-91403511D01*
X113495017Y-91381242D01*
X113481655Y-91347165D01*
X113475328Y-91294463D01*
X113473437Y-91216323D01*
X113473385Y-91105928D01*
X113473117Y-91017935D01*
X113471521Y-90933502D01*
X113467712Y-90875834D01*
X113460820Y-90837988D01*
X113449975Y-90813024D01*
X113434308Y-90794000D01*
X113395792Y-90767153D01*
X113331091Y-90757034D01*
X113267081Y-90782606D01*
X113262856Y-90785880D01*
X113249689Y-90801007D01*
X113239975Y-90825268D01*
X113232903Y-90864650D01*
X113227656Y-90925141D01*
X113223421Y-91012729D01*
X113219385Y-91133402D01*
X113209615Y-91456515D01*
X113043539Y-91382065D01*
X113043539Y-91087062D01*
X113043883Y-91006919D01*
X113046847Y-90895431D01*
X113054351Y-90812421D01*
X113068190Y-90751199D01*
X113090155Y-90705075D01*
X113122039Y-90667358D01*
X113165633Y-90631358D01*
X113228336Y-90595089D01*
X113327117Y-90571412D01*
X113426372Y-90581684D01*
G37*
X110971892Y-90647167D02*
X110978060Y-90650581D01*
X111028447Y-90689692D01*
X111073498Y-90739975D01*
X111081355Y-90751339D01*
X111096376Y-90777860D01*
X111107107Y-90809336D01*
X111114486Y-90852591D01*
X111119452Y-90914449D01*
X111122942Y-91001733D01*
X111125893Y-91121269D01*
X111126311Y-91141478D01*
X111127654Y-91272499D01*
X111125761Y-91365296D01*
X111120605Y-91420507D01*
X111112158Y-91438769D01*
X111086594Y-91433301D01*
X111043166Y-91416733D01*
X111032940Y-91411888D01*
X111016967Y-91400920D01*
X111005954Y-91382890D01*
X110998750Y-91351396D01*
X110994208Y-91300036D01*
X110991180Y-91222410D01*
X110988516Y-91112115D01*
X110987785Y-91079875D01*
X110984965Y-90978050D01*
X110981304Y-90906788D01*
X110975694Y-90859332D01*
X110967029Y-90828925D01*
X110954202Y-90808810D01*
X110936105Y-90792229D01*
X110882525Y-90763161D01*
X110816612Y-90757564D01*
X110757635Y-90779807D01*
X110715203Y-90825859D01*
X110698923Y-90891692D01*
X110698470Y-90909587D01*
X110689578Y-90941982D01*
X110663325Y-90946925D01*
X110611919Y-90927633D01*
X110600013Y-90921446D01*
X110567835Y-90885058D01*
X110567198Y-90830954D01*
X110597856Y-90756128D01*
X110625978Y-90715350D01*
X110697883Y-90657421D01*
X110786638Y-90624670D01*
X110881542Y-90620212D01*
X110971892Y-90647167D01*
G36*
X110971892Y-90647167D02*
G01*
X110978060Y-90650581D01*
X111028447Y-90689692D01*
X111073498Y-90739975D01*
X111081355Y-90751339D01*
X111096376Y-90777860D01*
X111107107Y-90809336D01*
X111114486Y-90852591D01*
X111119452Y-90914449D01*
X111122942Y-91001733D01*
X111125893Y-91121269D01*
X111126311Y-91141478D01*
X111127654Y-91272499D01*
X111125761Y-91365296D01*
X111120605Y-91420507D01*
X111112158Y-91438769D01*
X111086594Y-91433301D01*
X111043166Y-91416733D01*
X111032940Y-91411888D01*
X111016967Y-91400920D01*
X111005954Y-91382890D01*
X110998750Y-91351396D01*
X110994208Y-91300036D01*
X110991180Y-91222410D01*
X110988516Y-91112115D01*
X110987785Y-91079875D01*
X110984965Y-90978050D01*
X110981304Y-90906788D01*
X110975694Y-90859332D01*
X110967029Y-90828925D01*
X110954202Y-90808810D01*
X110936105Y-90792229D01*
X110882525Y-90763161D01*
X110816612Y-90757564D01*
X110757635Y-90779807D01*
X110715203Y-90825859D01*
X110698923Y-90891692D01*
X110698470Y-90909587D01*
X110689578Y-90941982D01*
X110663325Y-90946925D01*
X110611919Y-90927633D01*
X110600013Y-90921446D01*
X110567835Y-90885058D01*
X110567198Y-90830954D01*
X110597856Y-90756128D01*
X110625978Y-90715350D01*
X110697883Y-90657421D01*
X110786638Y-90624670D01*
X110881542Y-90620212D01*
X110971892Y-90647167D01*
G37*
X112476923Y-90381806D02*
X112476923Y-90916455D01*
X112476660Y-91055094D01*
X112475958Y-91179805D01*
X112474883Y-91285557D01*
X112473500Y-91367322D01*
X112471874Y-91420069D01*
X112470070Y-91438769D01*
X112469364Y-91438706D01*
X112445387Y-91431912D01*
X112401685Y-91417320D01*
X112340154Y-91395870D01*
X112340154Y-91120617D01*
X112339763Y-91012466D01*
X112337946Y-90934026D01*
X112333767Y-90880647D01*
X112326286Y-90845256D01*
X112314567Y-90820779D01*
X112297671Y-90800144D01*
X112286152Y-90789170D01*
X112223864Y-90758775D01*
X112155211Y-90761466D01*
X112092298Y-90797406D01*
X112083139Y-90806325D01*
X112068471Y-90824844D01*
X112058433Y-90849326D01*
X112052151Y-90886393D01*
X112048748Y-90942667D01*
X112047349Y-91024771D01*
X112047077Y-91139329D01*
X112046947Y-91197430D01*
X112046099Y-91292993D01*
X112044594Y-91369526D01*
X112042585Y-91420345D01*
X112040223Y-91438769D01*
X112039518Y-91438706D01*
X112015541Y-91431912D01*
X111971839Y-91417320D01*
X111910308Y-91395870D01*
X111910338Y-91119358D01*
X111910384Y-91094742D01*
X111912970Y-90966419D01*
X111920913Y-90869384D01*
X111936155Y-90797057D01*
X111960636Y-90742855D01*
X111996298Y-90700198D01*
X112045082Y-90662505D01*
X112092661Y-90638910D01*
X112168732Y-90620672D01*
X112243556Y-90619636D01*
X112301077Y-90637378D01*
X112305402Y-90639829D01*
X112318738Y-90639566D01*
X112327851Y-90619039D01*
X112334428Y-90571980D01*
X112340154Y-90492120D01*
X112349923Y-90328236D01*
X112476923Y-90381806D01*
G36*
X112476923Y-90381806D02*
G01*
X112476923Y-90916455D01*
X112476660Y-91055094D01*
X112475958Y-91179805D01*
X112474883Y-91285557D01*
X112473500Y-91367322D01*
X112471874Y-91420069D01*
X112470070Y-91438769D01*
X112469364Y-91438706D01*
X112445387Y-91431912D01*
X112401685Y-91417320D01*
X112340154Y-91395870D01*
X112340154Y-91120617D01*
X112339763Y-91012466D01*
X112337946Y-90934026D01*
X112333767Y-90880647D01*
X112326286Y-90845256D01*
X112314567Y-90820779D01*
X112297671Y-90800144D01*
X112286152Y-90789170D01*
X112223864Y-90758775D01*
X112155211Y-90761466D01*
X112092298Y-90797406D01*
X112083139Y-90806325D01*
X112068471Y-90824844D01*
X112058433Y-90849326D01*
X112052151Y-90886393D01*
X112048748Y-90942667D01*
X112047349Y-91024771D01*
X112047077Y-91139329D01*
X112046947Y-91197430D01*
X112046099Y-91292993D01*
X112044594Y-91369526D01*
X112042585Y-91420345D01*
X112040223Y-91438769D01*
X112039518Y-91438706D01*
X112015541Y-91431912D01*
X111971839Y-91417320D01*
X111910308Y-91395870D01*
X111910338Y-91119358D01*
X111910384Y-91094742D01*
X111912970Y-90966419D01*
X111920913Y-90869384D01*
X111936155Y-90797057D01*
X111960636Y-90742855D01*
X111996298Y-90700198D01*
X112045082Y-90662505D01*
X112092661Y-90638910D01*
X112168732Y-90620672D01*
X112243556Y-90619636D01*
X112301077Y-90637378D01*
X112305402Y-90639829D01*
X112318738Y-90639566D01*
X112327851Y-90619039D01*
X112334428Y-90571980D01*
X112340154Y-90492120D01*
X112349923Y-90328236D01*
X112476923Y-90381806D01*
G37*
X109687998Y-90624034D02*
X109730850Y-90640829D01*
X109780615Y-90663503D01*
X109780615Y-91318533D01*
X109718785Y-91380363D01*
X109704662Y-91394228D01*
X109665536Y-91425046D01*
X109626078Y-91435028D01*
X109567362Y-91430433D01*
X109543456Y-91427462D01*
X109481801Y-91421176D01*
X109438692Y-91418672D01*
X109425905Y-91419055D01*
X109373446Y-91423200D01*
X109310022Y-91430433D01*
X109289730Y-91432918D01*
X109238610Y-91433895D01*
X109201207Y-91418462D01*
X109158599Y-91380363D01*
X109096769Y-91318533D01*
X109096769Y-90968343D01*
X109097251Y-90864857D01*
X109098753Y-90766192D01*
X109101089Y-90688068D01*
X109104071Y-90636662D01*
X109107509Y-90618154D01*
X109108230Y-90618204D01*
X109133203Y-90627413D01*
X109175399Y-90647707D01*
X109232549Y-90677261D01*
X109237928Y-90984746D01*
X109243308Y-91292231D01*
X109360539Y-91292231D01*
X109365885Y-90955192D01*
X109367579Y-90863574D01*
X109370005Y-90765649D01*
X109372634Y-90687906D01*
X109375246Y-90636642D01*
X109377623Y-90618154D01*
X109378306Y-90618219D01*
X109401996Y-90625020D01*
X109445546Y-90639604D01*
X109507077Y-90661054D01*
X109507376Y-90957104D01*
X109507676Y-91008532D01*
X109509754Y-91108466D01*
X109513470Y-91191925D01*
X109518430Y-91251377D01*
X109524240Y-91279287D01*
X109545024Y-91294214D01*
X109587440Y-91298825D01*
X109634077Y-91292231D01*
X109639423Y-90955192D01*
X109641336Y-90869546D01*
X109645303Y-90768172D01*
X109650491Y-90688655D01*
X109656499Y-90636736D01*
X109662927Y-90618154D01*
X109687998Y-90624034D01*
G36*
X109687998Y-90624034D02*
G01*
X109730850Y-90640829D01*
X109780615Y-90663503D01*
X109780615Y-91318533D01*
X109718785Y-91380363D01*
X109704662Y-91394228D01*
X109665536Y-91425046D01*
X109626078Y-91435028D01*
X109567362Y-91430433D01*
X109543456Y-91427462D01*
X109481801Y-91421176D01*
X109438692Y-91418672D01*
X109425905Y-91419055D01*
X109373446Y-91423200D01*
X109310022Y-91430433D01*
X109289730Y-91432918D01*
X109238610Y-91433895D01*
X109201207Y-91418462D01*
X109158599Y-91380363D01*
X109096769Y-91318533D01*
X109096769Y-90968343D01*
X109097251Y-90864857D01*
X109098753Y-90766192D01*
X109101089Y-90688068D01*
X109104071Y-90636662D01*
X109107509Y-90618154D01*
X109108230Y-90618204D01*
X109133203Y-90627413D01*
X109175399Y-90647707D01*
X109232549Y-90677261D01*
X109237928Y-90984746D01*
X109243308Y-91292231D01*
X109360539Y-91292231D01*
X109365885Y-90955192D01*
X109367579Y-90863574D01*
X109370005Y-90765649D01*
X109372634Y-90687906D01*
X109375246Y-90636642D01*
X109377623Y-90618154D01*
X109378306Y-90618219D01*
X109401996Y-90625020D01*
X109445546Y-90639604D01*
X109507077Y-90661054D01*
X109507376Y-90957104D01*
X109507676Y-91008532D01*
X109509754Y-91108466D01*
X109513470Y-91191925D01*
X109518430Y-91251377D01*
X109524240Y-91279287D01*
X109545024Y-91294214D01*
X109587440Y-91298825D01*
X109634077Y-91292231D01*
X109639423Y-90955192D01*
X109641336Y-90869546D01*
X109645303Y-90768172D01*
X109650491Y-90688655D01*
X109656499Y-90636736D01*
X109662927Y-90618154D01*
X109687998Y-90624034D01*
G37*
X115896154Y-91008923D02*
X115896135Y-91030105D01*
X115895076Y-91124584D01*
X115891436Y-91190414D01*
X115883892Y-91236394D01*
X115871122Y-91271321D01*
X115851803Y-91303995D01*
X115847050Y-91310775D01*
X115796759Y-91364231D01*
X115739457Y-91404547D01*
X115710032Y-91417629D01*
X115604299Y-91439450D01*
X115499734Y-91425336D01*
X115403368Y-91377105D01*
X115322235Y-91296579D01*
X115315385Y-91285791D01*
X115293097Y-91223153D01*
X115278079Y-91135935D01*
X115270792Y-91035210D01*
X115271611Y-90942037D01*
X115468796Y-90942037D01*
X115470349Y-91071114D01*
X115470974Y-91079420D01*
X115480077Y-91150643D01*
X115496288Y-91195809D01*
X115523660Y-91226752D01*
X115569553Y-91255737D01*
X115614942Y-91257261D01*
X115661692Y-91223846D01*
X115669824Y-91215053D01*
X115685754Y-91188741D01*
X115695159Y-91150520D01*
X115699632Y-91091349D01*
X115700769Y-91002182D01*
X115698822Y-90918664D01*
X115689105Y-90839095D01*
X115669047Y-90788808D01*
X115636240Y-90762513D01*
X115588280Y-90754923D01*
X115570016Y-90756432D01*
X115518848Y-90784107D01*
X115485035Y-90846172D01*
X115468796Y-90942037D01*
X115271611Y-90942037D01*
X115271699Y-90932052D01*
X115281262Y-90837533D01*
X115299943Y-90762727D01*
X115323951Y-90712905D01*
X115391536Y-90635409D01*
X115483114Y-90587256D01*
X115595213Y-90570703D01*
X115625151Y-90571599D01*
X115713315Y-90589929D01*
X115785733Y-90636104D01*
X115852192Y-90715648D01*
X115856147Y-90721548D01*
X115874040Y-90753288D01*
X115885678Y-90789163D01*
X115892371Y-90837906D01*
X115895426Y-90908249D01*
X115896106Y-91002182D01*
X115896154Y-91008923D01*
G36*
X115896154Y-91008923D02*
G01*
X115896135Y-91030105D01*
X115895076Y-91124584D01*
X115891436Y-91190414D01*
X115883892Y-91236394D01*
X115871122Y-91271321D01*
X115851803Y-91303995D01*
X115847050Y-91310775D01*
X115796759Y-91364231D01*
X115739457Y-91404547D01*
X115710032Y-91417629D01*
X115604299Y-91439450D01*
X115499734Y-91425336D01*
X115403368Y-91377105D01*
X115322235Y-91296579D01*
X115315385Y-91285791D01*
X115293097Y-91223153D01*
X115278079Y-91135935D01*
X115270792Y-91035210D01*
X115271611Y-90942037D01*
X115468796Y-90942037D01*
X115470349Y-91071114D01*
X115470974Y-91079420D01*
X115480077Y-91150643D01*
X115496288Y-91195809D01*
X115523660Y-91226752D01*
X115569553Y-91255737D01*
X115614942Y-91257261D01*
X115661692Y-91223846D01*
X115669824Y-91215053D01*
X115685754Y-91188741D01*
X115695159Y-91150520D01*
X115699632Y-91091349D01*
X115700769Y-91002182D01*
X115698822Y-90918664D01*
X115689105Y-90839095D01*
X115669047Y-90788808D01*
X115636240Y-90762513D01*
X115588280Y-90754923D01*
X115570016Y-90756432D01*
X115518848Y-90784107D01*
X115485035Y-90846172D01*
X115468796Y-90942037D01*
X115271611Y-90942037D01*
X115271699Y-90932052D01*
X115281262Y-90837533D01*
X115299943Y-90762727D01*
X115323951Y-90712905D01*
X115391536Y-90635409D01*
X115483114Y-90587256D01*
X115595213Y-90570703D01*
X115625151Y-90571599D01*
X115713315Y-90589929D01*
X115785733Y-90636104D01*
X115852192Y-90715648D01*
X115856147Y-90721548D01*
X115874040Y-90753288D01*
X115885678Y-90789163D01*
X115892371Y-90837906D01*
X115895426Y-90908249D01*
X115896106Y-91002182D01*
X115896154Y-91008923D01*
G37*
X107650794Y-91032376D02*
X107650413Y-91084449D01*
X107645641Y-91187047D01*
X107633150Y-91262126D01*
X107610121Y-91317748D01*
X107573732Y-91361975D01*
X107521162Y-91402869D01*
X107487714Y-91421466D01*
X107434098Y-91433991D01*
X107358780Y-91433003D01*
X107316672Y-91429035D01*
X107265879Y-91416920D01*
X107225280Y-91390585D01*
X107178049Y-91341514D01*
X107171738Y-91334346D01*
X107129277Y-91279189D01*
X107109018Y-91231150D01*
X107103846Y-91174184D01*
X107103846Y-91090471D01*
X107162346Y-91112552D01*
X107204994Y-91138364D01*
X107242064Y-91198928D01*
X107249803Y-91218320D01*
X107293074Y-91273235D01*
X107351976Y-91300879D01*
X107416111Y-91298393D01*
X107475077Y-91262923D01*
X107495342Y-91240805D01*
X107513720Y-91207436D01*
X107507971Y-91177117D01*
X107474887Y-91145913D01*
X107411261Y-91109887D01*
X107313885Y-91065103D01*
X107113615Y-90977445D01*
X107108301Y-90890607D01*
X107110299Y-90835296D01*
X107240783Y-90835296D01*
X107250688Y-90869538D01*
X107295756Y-90906096D01*
X107377557Y-90947692D01*
X107391092Y-90953718D01*
X107455818Y-90981753D01*
X107504247Y-91001472D01*
X107526751Y-91008923D01*
X107530161Y-91003438D01*
X107531529Y-90969948D01*
X107526651Y-90916116D01*
X107514364Y-90863473D01*
X107476041Y-90797151D01*
X107420720Y-90759780D01*
X107354640Y-90754721D01*
X107284040Y-90785339D01*
X107264474Y-90800648D01*
X107240783Y-90835296D01*
X107110299Y-90835296D01*
X107110647Y-90825663D01*
X107140186Y-90743590D01*
X107177472Y-90698361D01*
X107254776Y-90647838D01*
X107346478Y-90622316D01*
X107441274Y-90624336D01*
X107527859Y-90656440D01*
X107546920Y-90668767D01*
X107590640Y-90706912D01*
X107620540Y-90755167D01*
X107638968Y-90820710D01*
X107648270Y-90910720D01*
X107649499Y-90969948D01*
X107650794Y-91032376D01*
G36*
X107650794Y-91032376D02*
G01*
X107650413Y-91084449D01*
X107645641Y-91187047D01*
X107633150Y-91262126D01*
X107610121Y-91317748D01*
X107573732Y-91361975D01*
X107521162Y-91402869D01*
X107487714Y-91421466D01*
X107434098Y-91433991D01*
X107358780Y-91433003D01*
X107316672Y-91429035D01*
X107265879Y-91416920D01*
X107225280Y-91390585D01*
X107178049Y-91341514D01*
X107171738Y-91334346D01*
X107129277Y-91279189D01*
X107109018Y-91231150D01*
X107103846Y-91174184D01*
X107103846Y-91090471D01*
X107162346Y-91112552D01*
X107204994Y-91138364D01*
X107242064Y-91198928D01*
X107249803Y-91218320D01*
X107293074Y-91273235D01*
X107351976Y-91300879D01*
X107416111Y-91298393D01*
X107475077Y-91262923D01*
X107495342Y-91240805D01*
X107513720Y-91207436D01*
X107507971Y-91177117D01*
X107474887Y-91145913D01*
X107411261Y-91109887D01*
X107313885Y-91065103D01*
X107113615Y-90977445D01*
X107108301Y-90890607D01*
X107110299Y-90835296D01*
X107240783Y-90835296D01*
X107250688Y-90869538D01*
X107295756Y-90906096D01*
X107377557Y-90947692D01*
X107391092Y-90953718D01*
X107455818Y-90981753D01*
X107504247Y-91001472D01*
X107526751Y-91008923D01*
X107530161Y-91003438D01*
X107531529Y-90969948D01*
X107526651Y-90916116D01*
X107514364Y-90863473D01*
X107476041Y-90797151D01*
X107420720Y-90759780D01*
X107354640Y-90754721D01*
X107284040Y-90785339D01*
X107264474Y-90800648D01*
X107240783Y-90835296D01*
X107110299Y-90835296D01*
X107110647Y-90825663D01*
X107140186Y-90743590D01*
X107177472Y-90698361D01*
X107254776Y-90647838D01*
X107346478Y-90622316D01*
X107441274Y-90624336D01*
X107527859Y-90656440D01*
X107546920Y-90668767D01*
X107590640Y-90706912D01*
X107620540Y-90755167D01*
X107638968Y-90820710D01*
X107648270Y-90910720D01*
X107649499Y-90969948D01*
X107650794Y-91032376D01*
G37*
X110464401Y-91028462D02*
X110462839Y-91104652D01*
X110451810Y-91208507D01*
X110427814Y-91286333D01*
X110388043Y-91345760D01*
X110329688Y-91394418D01*
X110274100Y-91422546D01*
X110180751Y-91438199D01*
X110087530Y-91421084D01*
X110003272Y-91373388D01*
X109936818Y-91297294D01*
X109928793Y-91283262D01*
X109918196Y-91258679D01*
X109910335Y-91227309D01*
X109904807Y-91183769D01*
X109901206Y-91122678D01*
X109899128Y-91038655D01*
X109899064Y-91031200D01*
X110034615Y-91031200D01*
X110035077Y-91102316D01*
X110037999Y-91166641D01*
X110045221Y-91208166D01*
X110058561Y-91236067D01*
X110079836Y-91259517D01*
X110084821Y-91264025D01*
X110148863Y-91297295D01*
X110216625Y-91293890D01*
X110279734Y-91254042D01*
X110298526Y-91233398D01*
X110314254Y-91206029D01*
X110323039Y-91168192D01*
X110326859Y-91110355D01*
X110327692Y-91022986D01*
X110327281Y-90956319D01*
X110324434Y-90891245D01*
X110317256Y-90849251D01*
X110303889Y-90821063D01*
X110282472Y-90797406D01*
X110269890Y-90786753D01*
X110204699Y-90758057D01*
X110136400Y-90762575D01*
X110077098Y-90800144D01*
X110064333Y-90815040D01*
X110048764Y-90843089D01*
X110039762Y-90882258D01*
X110035617Y-90941858D01*
X110034615Y-91031200D01*
X109899064Y-91031200D01*
X109898167Y-90926320D01*
X109897919Y-90780289D01*
X109897846Y-90326963D01*
X109961346Y-90353564D01*
X109978136Y-90360845D01*
X110004859Y-90377287D01*
X110020156Y-90402187D01*
X110028563Y-90445732D01*
X110034615Y-90518106D01*
X110040144Y-90583089D01*
X110047450Y-90625750D01*
X110057918Y-90641670D01*
X110073692Y-90637400D01*
X110113890Y-90622397D01*
X110185728Y-90618678D01*
X110263010Y-90632572D01*
X110329688Y-90662505D01*
X110366371Y-90690211D01*
X110413472Y-90744269D01*
X110443638Y-90813577D01*
X110459678Y-90905765D01*
X110464191Y-91022986D01*
X110464401Y-91028462D01*
G36*
X110464401Y-91028462D02*
G01*
X110462839Y-91104652D01*
X110451810Y-91208507D01*
X110427814Y-91286333D01*
X110388043Y-91345760D01*
X110329688Y-91394418D01*
X110274100Y-91422546D01*
X110180751Y-91438199D01*
X110087530Y-91421084D01*
X110003272Y-91373388D01*
X109936818Y-91297294D01*
X109928793Y-91283262D01*
X109918196Y-91258679D01*
X109910335Y-91227309D01*
X109904807Y-91183769D01*
X109901206Y-91122678D01*
X109899128Y-91038655D01*
X109899064Y-91031200D01*
X110034615Y-91031200D01*
X110035077Y-91102316D01*
X110037999Y-91166641D01*
X110045221Y-91208166D01*
X110058561Y-91236067D01*
X110079836Y-91259517D01*
X110084821Y-91264025D01*
X110148863Y-91297295D01*
X110216625Y-91293890D01*
X110279734Y-91254042D01*
X110298526Y-91233398D01*
X110314254Y-91206029D01*
X110323039Y-91168192D01*
X110326859Y-91110355D01*
X110327692Y-91022986D01*
X110327281Y-90956319D01*
X110324434Y-90891245D01*
X110317256Y-90849251D01*
X110303889Y-90821063D01*
X110282472Y-90797406D01*
X110269890Y-90786753D01*
X110204699Y-90758057D01*
X110136400Y-90762575D01*
X110077098Y-90800144D01*
X110064333Y-90815040D01*
X110048764Y-90843089D01*
X110039762Y-90882258D01*
X110035617Y-90941858D01*
X110034615Y-91031200D01*
X109899064Y-91031200D01*
X109898167Y-90926320D01*
X109897919Y-90780289D01*
X109897846Y-90326963D01*
X109961346Y-90353564D01*
X109978136Y-90360845D01*
X110004859Y-90377287D01*
X110020156Y-90402187D01*
X110028563Y-90445732D01*
X110034615Y-90518106D01*
X110040144Y-90583089D01*
X110047450Y-90625750D01*
X110057918Y-90641670D01*
X110073692Y-90637400D01*
X110113890Y-90622397D01*
X110185728Y-90618678D01*
X110263010Y-90632572D01*
X110329688Y-90662505D01*
X110366371Y-90690211D01*
X110413472Y-90744269D01*
X110443638Y-90813577D01*
X110459678Y-90905765D01*
X110464191Y-91022986D01*
X110464401Y-91028462D01*
G37*
X114410787Y-90953536D02*
X114404574Y-91101643D01*
X114401066Y-91133021D01*
X114374927Y-91244705D01*
X114327694Y-91329642D01*
X114255862Y-91394741D01*
X114251802Y-91397428D01*
X114160487Y-91435634D01*
X114065144Y-91439034D01*
X113973274Y-91409939D01*
X113892379Y-91350660D01*
X113829962Y-91263510D01*
X113828914Y-91261409D01*
X113808173Y-91207289D01*
X113792980Y-91145781D01*
X113784921Y-91088039D01*
X113785582Y-91045215D01*
X113796548Y-91028462D01*
X113806290Y-91029480D01*
X113852877Y-91048009D01*
X113905682Y-91082081D01*
X113950603Y-91121522D01*
X113973535Y-91156155D01*
X113997373Y-91203133D01*
X114046230Y-91245862D01*
X114102963Y-91262923D01*
X114123758Y-91257990D01*
X114164804Y-91233157D01*
X114200557Y-91198685D01*
X114215846Y-91167411D01*
X114215842Y-91167295D01*
X114198495Y-91152933D01*
X114152247Y-91127025D01*
X114084067Y-91093210D01*
X114000923Y-91055129D01*
X114000466Y-91054927D01*
X113910138Y-91014709D01*
X113849592Y-90985733D01*
X113812888Y-90963474D01*
X113794086Y-90943407D01*
X113787246Y-90921009D01*
X113786429Y-90891756D01*
X113792113Y-90836363D01*
X113985000Y-90836363D01*
X114004911Y-90853777D01*
X114054521Y-90879872D01*
X114055976Y-90880610D01*
X114114506Y-90908483D01*
X114166868Y-90930719D01*
X114200086Y-90940126D01*
X114213410Y-90927552D01*
X114215846Y-90884468D01*
X114205724Y-90830847D01*
X114170631Y-90782119D01*
X114119823Y-90756856D01*
X114063181Y-90759406D01*
X114010584Y-90794120D01*
X113989910Y-90818107D01*
X113985000Y-90836363D01*
X113792113Y-90836363D01*
X113793622Y-90821654D01*
X113829184Y-90726412D01*
X113888714Y-90651567D01*
X113965746Y-90599745D01*
X114053815Y-90573573D01*
X114146454Y-90575676D01*
X114237198Y-90608681D01*
X114319579Y-90675215D01*
X114365222Y-90741055D01*
X114398008Y-90835036D01*
X114403339Y-90884468D01*
X114410787Y-90953536D01*
G36*
X114410787Y-90953536D02*
G01*
X114404574Y-91101643D01*
X114401066Y-91133021D01*
X114374927Y-91244705D01*
X114327694Y-91329642D01*
X114255862Y-91394741D01*
X114251802Y-91397428D01*
X114160487Y-91435634D01*
X114065144Y-91439034D01*
X113973274Y-91409939D01*
X113892379Y-91350660D01*
X113829962Y-91263510D01*
X113828914Y-91261409D01*
X113808173Y-91207289D01*
X113792980Y-91145781D01*
X113784921Y-91088039D01*
X113785582Y-91045215D01*
X113796548Y-91028462D01*
X113806290Y-91029480D01*
X113852877Y-91048009D01*
X113905682Y-91082081D01*
X113950603Y-91121522D01*
X113973535Y-91156155D01*
X113997373Y-91203133D01*
X114046230Y-91245862D01*
X114102963Y-91262923D01*
X114123758Y-91257990D01*
X114164804Y-91233157D01*
X114200557Y-91198685D01*
X114215846Y-91167411D01*
X114215842Y-91167295D01*
X114198495Y-91152933D01*
X114152247Y-91127025D01*
X114084067Y-91093210D01*
X114000923Y-91055129D01*
X114000466Y-91054927D01*
X113910138Y-91014709D01*
X113849592Y-90985733D01*
X113812888Y-90963474D01*
X113794086Y-90943407D01*
X113787246Y-90921009D01*
X113786429Y-90891756D01*
X113792113Y-90836363D01*
X113985000Y-90836363D01*
X114004911Y-90853777D01*
X114054521Y-90879872D01*
X114055976Y-90880610D01*
X114114506Y-90908483D01*
X114166868Y-90930719D01*
X114200086Y-90940126D01*
X114213410Y-90927552D01*
X114215846Y-90884468D01*
X114205724Y-90830847D01*
X114170631Y-90782119D01*
X114119823Y-90756856D01*
X114063181Y-90759406D01*
X114010584Y-90794120D01*
X113989910Y-90818107D01*
X113985000Y-90836363D01*
X113792113Y-90836363D01*
X113793622Y-90821654D01*
X113829184Y-90726412D01*
X113888714Y-90651567D01*
X113965746Y-90599745D01*
X114053815Y-90573573D01*
X114146454Y-90575676D01*
X114237198Y-90608681D01*
X114319579Y-90675215D01*
X114365222Y-90741055D01*
X114398008Y-90835036D01*
X114403339Y-90884468D01*
X114410787Y-90953536D01*
G37*
X111620458Y-90639228D02*
X111687622Y-90678389D01*
X111717169Y-90708902D01*
X111773948Y-90800110D01*
X111793077Y-90899548D01*
X111793077Y-90967960D01*
X111730191Y-90941518D01*
X111686700Y-90914837D01*
X111652426Y-90859446D01*
X111648907Y-90848024D01*
X111611028Y-90789838D01*
X111553936Y-90758407D01*
X111488383Y-90757058D01*
X111425117Y-90789116D01*
X111415672Y-90797383D01*
X111384087Y-90833311D01*
X111378871Y-90864635D01*
X111402765Y-90895391D01*
X111458510Y-90929617D01*
X111548846Y-90971350D01*
X111554956Y-90973993D01*
X111655241Y-91020755D01*
X111723735Y-91062181D01*
X111765899Y-91103542D01*
X111787193Y-91150111D01*
X111793077Y-91207160D01*
X111785366Y-91270408D01*
X111746430Y-91351364D01*
X111677932Y-91409522D01*
X111628388Y-91426983D01*
X111558469Y-91436537D01*
X111490575Y-91434496D01*
X111442093Y-91420082D01*
X111436943Y-91416493D01*
X111423267Y-91391416D01*
X111432757Y-91347218D01*
X111449246Y-91312527D01*
X111475687Y-91298084D01*
X111525834Y-91298803D01*
X111595453Y-91294660D01*
X111640943Y-91266054D01*
X111656308Y-91213104D01*
X111656294Y-91211582D01*
X111646983Y-91180845D01*
X111615311Y-91152643D01*
X111553731Y-91120136D01*
X111469986Y-91080998D01*
X111414518Y-91059706D01*
X111382497Y-91061079D01*
X111367534Y-91089203D01*
X111363242Y-91148170D01*
X111363231Y-91242068D01*
X111362752Y-91300031D01*
X111360556Y-91371612D01*
X111356986Y-91420606D01*
X111352491Y-91438769D01*
X111351290Y-91438646D01*
X111325319Y-91428802D01*
X111282305Y-91408028D01*
X111222859Y-91377287D01*
X111229923Y-91100298D01*
X111230414Y-91081928D01*
X111236025Y-90952992D01*
X111245938Y-90855814D01*
X111262175Y-90783925D01*
X111286759Y-90730852D01*
X111321715Y-90690127D01*
X111369064Y-90655279D01*
X111369940Y-90654733D01*
X111446499Y-90626303D01*
X111535044Y-90621500D01*
X111620458Y-90639228D01*
G36*
X111620458Y-90639228D02*
G01*
X111687622Y-90678389D01*
X111717169Y-90708902D01*
X111773948Y-90800110D01*
X111793077Y-90899548D01*
X111793077Y-90967960D01*
X111730191Y-90941518D01*
X111686700Y-90914837D01*
X111652426Y-90859446D01*
X111648907Y-90848024D01*
X111611028Y-90789838D01*
X111553936Y-90758407D01*
X111488383Y-90757058D01*
X111425117Y-90789116D01*
X111415672Y-90797383D01*
X111384087Y-90833311D01*
X111378871Y-90864635D01*
X111402765Y-90895391D01*
X111458510Y-90929617D01*
X111548846Y-90971350D01*
X111554956Y-90973993D01*
X111655241Y-91020755D01*
X111723735Y-91062181D01*
X111765899Y-91103542D01*
X111787193Y-91150111D01*
X111793077Y-91207160D01*
X111785366Y-91270408D01*
X111746430Y-91351364D01*
X111677932Y-91409522D01*
X111628388Y-91426983D01*
X111558469Y-91436537D01*
X111490575Y-91434496D01*
X111442093Y-91420082D01*
X111436943Y-91416493D01*
X111423267Y-91391416D01*
X111432757Y-91347218D01*
X111449246Y-91312527D01*
X111475687Y-91298084D01*
X111525834Y-91298803D01*
X111595453Y-91294660D01*
X111640943Y-91266054D01*
X111656308Y-91213104D01*
X111656294Y-91211582D01*
X111646983Y-91180845D01*
X111615311Y-91152643D01*
X111553731Y-91120136D01*
X111469986Y-91080998D01*
X111414518Y-91059706D01*
X111382497Y-91061079D01*
X111367534Y-91089203D01*
X111363242Y-91148170D01*
X111363231Y-91242068D01*
X111362752Y-91300031D01*
X111360556Y-91371612D01*
X111356986Y-91420606D01*
X111352491Y-91438769D01*
X111351290Y-91438646D01*
X111325319Y-91428802D01*
X111282305Y-91408028D01*
X111222859Y-91377287D01*
X111229923Y-91100298D01*
X111230414Y-91081928D01*
X111236025Y-90952992D01*
X111245938Y-90855814D01*
X111262175Y-90783925D01*
X111286759Y-90730852D01*
X111321715Y-90690127D01*
X111369064Y-90655279D01*
X111369940Y-90654733D01*
X111446499Y-90626303D01*
X111535044Y-90621500D01*
X111620458Y-90639228D01*
G37*
X108763936Y-90619911D02*
X108805807Y-90630547D01*
X108844791Y-90657062D01*
X108894965Y-90706420D01*
X108927232Y-90741279D01*
X108960844Y-90786534D01*
X108976003Y-90828951D01*
X108979539Y-90882768D01*
X108979539Y-90970850D01*
X108919470Y-90939787D01*
X108871867Y-90901936D01*
X108839261Y-90850950D01*
X108833661Y-90837088D01*
X108790992Y-90783358D01*
X108731707Y-90756417D01*
X108667061Y-90759039D01*
X108608308Y-90794000D01*
X108583450Y-90822394D01*
X108568970Y-90858718D01*
X108584470Y-90891046D01*
X108632667Y-90923565D01*
X108716274Y-90960461D01*
X108728962Y-90965557D01*
X108805078Y-90998907D01*
X108870396Y-91031793D01*
X108911953Y-91057769D01*
X108953576Y-91104167D01*
X108981247Y-91178211D01*
X108978310Y-91257670D01*
X108945571Y-91332868D01*
X108883841Y-91394131D01*
X108833858Y-91420210D01*
X108737303Y-91438470D01*
X108683647Y-91436007D01*
X108633976Y-91422687D01*
X108614919Y-91394739D01*
X108622045Y-91348710D01*
X108624118Y-91342624D01*
X108640556Y-91310349D01*
X108667926Y-91298133D01*
X108720068Y-91298950D01*
X108756884Y-91300061D01*
X108799961Y-91290528D01*
X108829475Y-91262026D01*
X108846286Y-91226935D01*
X108848161Y-91190175D01*
X108848074Y-91189961D01*
X108826279Y-91170098D01*
X108779632Y-91141192D01*
X108719278Y-91108886D01*
X108656360Y-91078823D01*
X108602023Y-91056646D01*
X108567410Y-91048000D01*
X108562260Y-91056467D01*
X108555778Y-91096309D01*
X108551339Y-91161371D01*
X108549692Y-91243385D01*
X108549309Y-91300153D01*
X108547505Y-91371648D01*
X108544558Y-91420610D01*
X108540843Y-91438769D01*
X108521424Y-91432667D01*
X108482227Y-91416095D01*
X108432462Y-91393420D01*
X108432462Y-91102509D01*
X108432780Y-91027940D01*
X108435789Y-90914701D01*
X108443454Y-90830692D01*
X108457562Y-90769520D01*
X108479899Y-90724795D01*
X108512253Y-90690124D01*
X108556410Y-90659117D01*
X108612667Y-90633528D01*
X108716540Y-90618154D01*
X108763936Y-90619911D01*
G36*
X108763936Y-90619911D02*
G01*
X108805807Y-90630547D01*
X108844791Y-90657062D01*
X108894965Y-90706420D01*
X108927232Y-90741279D01*
X108960844Y-90786534D01*
X108976003Y-90828951D01*
X108979539Y-90882768D01*
X108979539Y-90970850D01*
X108919470Y-90939787D01*
X108871867Y-90901936D01*
X108839261Y-90850950D01*
X108833661Y-90837088D01*
X108790992Y-90783358D01*
X108731707Y-90756417D01*
X108667061Y-90759039D01*
X108608308Y-90794000D01*
X108583450Y-90822394D01*
X108568970Y-90858718D01*
X108584470Y-90891046D01*
X108632667Y-90923565D01*
X108716274Y-90960461D01*
X108728962Y-90965557D01*
X108805078Y-90998907D01*
X108870396Y-91031793D01*
X108911953Y-91057769D01*
X108953576Y-91104167D01*
X108981247Y-91178211D01*
X108978310Y-91257670D01*
X108945571Y-91332868D01*
X108883841Y-91394131D01*
X108833858Y-91420210D01*
X108737303Y-91438470D01*
X108683647Y-91436007D01*
X108633976Y-91422687D01*
X108614919Y-91394739D01*
X108622045Y-91348710D01*
X108624118Y-91342624D01*
X108640556Y-91310349D01*
X108667926Y-91298133D01*
X108720068Y-91298950D01*
X108756884Y-91300061D01*
X108799961Y-91290528D01*
X108829475Y-91262026D01*
X108846286Y-91226935D01*
X108848161Y-91190175D01*
X108848074Y-91189961D01*
X108826279Y-91170098D01*
X108779632Y-91141192D01*
X108719278Y-91108886D01*
X108656360Y-91078823D01*
X108602023Y-91056646D01*
X108567410Y-91048000D01*
X108562260Y-91056467D01*
X108555778Y-91096309D01*
X108551339Y-91161371D01*
X108549692Y-91243385D01*
X108549309Y-91300153D01*
X108547505Y-91371648D01*
X108544558Y-91420610D01*
X108540843Y-91438769D01*
X108521424Y-91432667D01*
X108482227Y-91416095D01*
X108432462Y-91393420D01*
X108432462Y-91102509D01*
X108432780Y-91027940D01*
X108435789Y-90914701D01*
X108443454Y-90830692D01*
X108457562Y-90769520D01*
X108479899Y-90724795D01*
X108512253Y-90690124D01*
X108556410Y-90659117D01*
X108612667Y-90633528D01*
X108716540Y-90618154D01*
X108763936Y-90619911D01*
G37*
X115147828Y-91098205D02*
X115149763Y-91248269D01*
X115150300Y-91291802D01*
X115152019Y-91437344D01*
X115152365Y-91548711D01*
X115150277Y-91629804D01*
X115144698Y-91684522D01*
X115134567Y-91716761D01*
X115118826Y-91730422D01*
X115096417Y-91729403D01*
X115066280Y-91717603D01*
X115027355Y-91698920D01*
X115019038Y-91694933D01*
X114984402Y-91675419D01*
X114966314Y-91652202D01*
X114959392Y-91613492D01*
X114958256Y-91547497D01*
X114958205Y-91429000D01*
X114836141Y-91429000D01*
X114761055Y-91425712D01*
X114702015Y-91412377D01*
X114652986Y-91385423D01*
X114649330Y-91382788D01*
X114599581Y-91338286D01*
X114564959Y-91284523D01*
X114543123Y-91214154D01*
X114531737Y-91119830D01*
X114528959Y-91013271D01*
X114723846Y-91013271D01*
X114723880Y-91031131D01*
X114725735Y-91111748D01*
X114731693Y-91164447D01*
X114743506Y-91198668D01*
X114762923Y-91223846D01*
X114764133Y-91225049D01*
X114811858Y-91257628D01*
X114858110Y-91254417D01*
X114910350Y-91214965D01*
X114923128Y-91201482D01*
X114941949Y-91173837D01*
X114952562Y-91137880D01*
X114957252Y-91083364D01*
X114958308Y-91000042D01*
X114957394Y-90949598D01*
X114947477Y-90857857D01*
X114924842Y-90797752D01*
X114887238Y-90764900D01*
X114832416Y-90754923D01*
X114809317Y-90757050D01*
X114769350Y-90778147D01*
X114742926Y-90825161D01*
X114728330Y-90902175D01*
X114723846Y-91013271D01*
X114528959Y-91013271D01*
X114528462Y-90994206D01*
X114529187Y-90902536D01*
X114532490Y-90833098D01*
X114539828Y-90784945D01*
X114552655Y-90748866D01*
X114572423Y-90715648D01*
X114590569Y-90690261D01*
X114656461Y-90621727D01*
X114731114Y-90584505D01*
X114824904Y-90572722D01*
X114932240Y-90584467D01*
X115025031Y-90626595D01*
X115098421Y-90700898D01*
X115103954Y-90708764D01*
X115116857Y-90729668D01*
X115126742Y-90753555D01*
X115134093Y-90785582D01*
X115139394Y-90830905D01*
X115143127Y-90894679D01*
X115145778Y-90982060D01*
X115146096Y-91000042D01*
X115147828Y-91098205D01*
G36*
X115147828Y-91098205D02*
G01*
X115149763Y-91248269D01*
X115150300Y-91291802D01*
X115152019Y-91437344D01*
X115152365Y-91548711D01*
X115150277Y-91629804D01*
X115144698Y-91684522D01*
X115134567Y-91716761D01*
X115118826Y-91730422D01*
X115096417Y-91729403D01*
X115066280Y-91717603D01*
X115027355Y-91698920D01*
X115019038Y-91694933D01*
X114984402Y-91675419D01*
X114966314Y-91652202D01*
X114959392Y-91613492D01*
X114958256Y-91547497D01*
X114958205Y-91429000D01*
X114836141Y-91429000D01*
X114761055Y-91425712D01*
X114702015Y-91412377D01*
X114652986Y-91385423D01*
X114649330Y-91382788D01*
X114599581Y-91338286D01*
X114564959Y-91284523D01*
X114543123Y-91214154D01*
X114531737Y-91119830D01*
X114528959Y-91013271D01*
X114723846Y-91013271D01*
X114723880Y-91031131D01*
X114725735Y-91111748D01*
X114731693Y-91164447D01*
X114743506Y-91198668D01*
X114762923Y-91223846D01*
X114764133Y-91225049D01*
X114811858Y-91257628D01*
X114858110Y-91254417D01*
X114910350Y-91214965D01*
X114923128Y-91201482D01*
X114941949Y-91173837D01*
X114952562Y-91137880D01*
X114957252Y-91083364D01*
X114958308Y-91000042D01*
X114957394Y-90949598D01*
X114947477Y-90857857D01*
X114924842Y-90797752D01*
X114887238Y-90764900D01*
X114832416Y-90754923D01*
X114809317Y-90757050D01*
X114769350Y-90778147D01*
X114742926Y-90825161D01*
X114728330Y-90902175D01*
X114723846Y-91013271D01*
X114528959Y-91013271D01*
X114528462Y-90994206D01*
X114529187Y-90902536D01*
X114532490Y-90833098D01*
X114539828Y-90784945D01*
X114552655Y-90748866D01*
X114572423Y-90715648D01*
X114590569Y-90690261D01*
X114656461Y-90621727D01*
X114731114Y-90584505D01*
X114824904Y-90572722D01*
X114932240Y-90584467D01*
X115025031Y-90626595D01*
X115098421Y-90700898D01*
X115103954Y-90708764D01*
X115116857Y-90729668D01*
X115126742Y-90753555D01*
X115134093Y-90785582D01*
X115139394Y-90830905D01*
X115143127Y-90894679D01*
X115145778Y-90982060D01*
X115146096Y-91000042D01*
X115147828Y-91098205D01*
G37*
X111517575Y-84287693D02*
X111653371Y-84287807D01*
X111755576Y-84288472D01*
X111829122Y-84290182D01*
X111878942Y-84293429D01*
X111909967Y-84298706D01*
X111927129Y-84306507D01*
X111935361Y-84317325D01*
X111939594Y-84331654D01*
X111939716Y-84332168D01*
X111946672Y-84365851D01*
X111959320Y-84430917D01*
X111976360Y-84520542D01*
X111996496Y-84627904D01*
X112018429Y-84746178D01*
X112020218Y-84755856D01*
X112042083Y-84870650D01*
X112062430Y-84971480D01*
X112079934Y-85052217D01*
X112093271Y-85106734D01*
X112101116Y-85128901D01*
X112101158Y-85128936D01*
X112125884Y-85141200D01*
X112176631Y-85161576D01*
X112242462Y-85185674D01*
X112246169Y-85186983D01*
X112330331Y-85218791D01*
X112428230Y-85258685D01*
X112519435Y-85298353D01*
X112669407Y-85366420D01*
X113001499Y-85139639D01*
X113024889Y-85123688D01*
X113125080Y-85055890D01*
X113214480Y-84996208D01*
X113287745Y-84948156D01*
X113339527Y-84915250D01*
X113364480Y-84901004D01*
X113381577Y-84904270D01*
X113420395Y-84929571D01*
X113480385Y-84979675D01*
X113563210Y-85055989D01*
X113670535Y-85159922D01*
X113680139Y-85169382D01*
X113765302Y-85254145D01*
X113840949Y-85330937D01*
X113902449Y-85394947D01*
X113945173Y-85441361D01*
X113964489Y-85465369D01*
X113964552Y-85465485D01*
X113967006Y-85483763D01*
X113957956Y-85513411D01*
X113935119Y-85558486D01*
X113896213Y-85623044D01*
X113838954Y-85711140D01*
X113761059Y-85826830D01*
X113747785Y-85846357D01*
X113680652Y-85945278D01*
X113621410Y-86032848D01*
X113573588Y-86103831D01*
X113540715Y-86152991D01*
X113526318Y-86175095D01*
X113525232Y-86179777D01*
X113532044Y-86214710D01*
X113552450Y-86271753D01*
X113583123Y-86341172D01*
X113624808Y-86431959D01*
X113671352Y-86539686D01*
X113710877Y-86637192D01*
X113720676Y-86662430D01*
X113746340Y-86726870D01*
X113765193Y-86771763D01*
X113773710Y-86788616D01*
X113783111Y-86789875D01*
X113825363Y-86797159D01*
X113894521Y-86809739D01*
X113983387Y-86826246D01*
X114084768Y-86845312D01*
X114191467Y-86865569D01*
X114296288Y-86885647D01*
X114392036Y-86904179D01*
X114471516Y-86919795D01*
X114527530Y-86931127D01*
X114552885Y-86936807D01*
X114557088Y-86938408D01*
X114567334Y-86947045D01*
X114574957Y-86965433D01*
X114580338Y-86998460D01*
X114583859Y-87051013D01*
X114585901Y-87127979D01*
X114586847Y-87234246D01*
X114587077Y-87374701D01*
X114587077Y-87801845D01*
X114484500Y-87822091D01*
X114472092Y-87824518D01*
X114406199Y-87837088D01*
X114315084Y-87854170D01*
X114209104Y-87873829D01*
X114098615Y-87894132D01*
X114055105Y-87902299D01*
X113957882Y-87922167D01*
X113876858Y-87940954D01*
X113819477Y-87956859D01*
X113793187Y-87968079D01*
X113781273Y-87986411D01*
X113759583Y-88034916D01*
X113737395Y-88097692D01*
X113729585Y-88121200D01*
X113700835Y-88198366D01*
X113663752Y-88289694D01*
X113624375Y-88380093D01*
X113603315Y-88427310D01*
X113573311Y-88497837D01*
X113552692Y-88550655D01*
X113545026Y-88576912D01*
X113545452Y-88578894D01*
X113559993Y-88606751D01*
X113592783Y-88660510D01*
X113640493Y-88734963D01*
X113699798Y-88824897D01*
X113767369Y-88925104D01*
X113989713Y-89251416D01*
X113697601Y-89544016D01*
X113669349Y-89572171D01*
X113582961Y-89656449D01*
X113505756Y-89729128D01*
X113442258Y-89786112D01*
X113396990Y-89823307D01*
X113374474Y-89836616D01*
X113350023Y-89826490D01*
X113298819Y-89797421D01*
X113226747Y-89752896D01*
X113139460Y-89696411D01*
X113042612Y-89631462D01*
X112947486Y-89567314D01*
X112861669Y-89510827D01*
X112791652Y-89466184D01*
X112742876Y-89436855D01*
X112720783Y-89426308D01*
X112719488Y-89426404D01*
X112690139Y-89436802D01*
X112638093Y-89461012D01*
X112573708Y-89494249D01*
X112573032Y-89494613D01*
X112487521Y-89537441D01*
X112428926Y-89558365D01*
X112392571Y-89558423D01*
X112373775Y-89538654D01*
X112365819Y-89519195D01*
X112344347Y-89467080D01*
X112311273Y-89386964D01*
X112268356Y-89283107D01*
X112217356Y-89159767D01*
X112160033Y-89021201D01*
X112098146Y-88871670D01*
X112042052Y-88735636D01*
X111984977Y-88596050D01*
X111934479Y-88471315D01*
X111892254Y-88365672D01*
X111859995Y-88283365D01*
X111839397Y-88228635D01*
X111832154Y-88205726D01*
X111845986Y-88184718D01*
X111884412Y-88149642D01*
X111938807Y-88108887D01*
X112069395Y-88002267D01*
X112186260Y-87866025D01*
X112271780Y-87716118D01*
X112325431Y-87556971D01*
X112346684Y-87393012D01*
X112335014Y-87228667D01*
X112289894Y-87068361D01*
X112210797Y-86916520D01*
X112097197Y-86777572D01*
X112037965Y-86723460D01*
X111896054Y-86627782D01*
X111744206Y-86565405D01*
X111586861Y-86534844D01*
X111428456Y-86534615D01*
X111273429Y-86563232D01*
X111126220Y-86619210D01*
X110991266Y-86701064D01*
X110873005Y-86807309D01*
X110775877Y-86936459D01*
X110704318Y-87087031D01*
X110662769Y-87257539D01*
X110655143Y-87339722D01*
X110665634Y-87517775D01*
X110712882Y-87686704D01*
X110795489Y-87843522D01*
X110912059Y-87985245D01*
X111061193Y-88108887D01*
X111113561Y-88147982D01*
X111152832Y-88183443D01*
X111167846Y-88205692D01*
X111161859Y-88225088D01*
X111142432Y-88277059D01*
X111111194Y-88357002D01*
X111069839Y-88460673D01*
X111020061Y-88583832D01*
X110963553Y-88722234D01*
X110902009Y-88871637D01*
X110846008Y-89007020D01*
X110788184Y-89146852D01*
X110736500Y-89271872D01*
X110692718Y-89377822D01*
X110658597Y-89460441D01*
X110635898Y-89515472D01*
X110626380Y-89538654D01*
X110626269Y-89538928D01*
X110607228Y-89558503D01*
X110570694Y-89558279D01*
X110511954Y-89537210D01*
X110426292Y-89494249D01*
X110419549Y-89490631D01*
X110355938Y-89458087D01*
X110305707Y-89435050D01*
X110279218Y-89426308D01*
X110257506Y-89436639D01*
X110208984Y-89465788D01*
X110139163Y-89510287D01*
X110053484Y-89566668D01*
X109957388Y-89631462D01*
X109862706Y-89694984D01*
X109775132Y-89751705D01*
X109702642Y-89796547D01*
X109650889Y-89826016D01*
X109625526Y-89836616D01*
X109621206Y-89835270D01*
X109591092Y-89814056D01*
X109539640Y-89770237D01*
X109471375Y-89707909D01*
X109390820Y-89631170D01*
X109302500Y-89544116D01*
X109010488Y-89251617D01*
X109465360Y-88582525D01*
X109396208Y-88432916D01*
X109396003Y-88432473D01*
X109354477Y-88337101D01*
X109312044Y-88230896D01*
X109277858Y-88136769D01*
X109272684Y-88121588D01*
X109246601Y-88051109D01*
X109223081Y-87996342D01*
X109206677Y-87968079D01*
X109199996Y-87964088D01*
X109159892Y-87950697D01*
X109091795Y-87933373D01*
X109003145Y-87913917D01*
X108901385Y-87894132D01*
X108870904Y-87888551D01*
X108760628Y-87868233D01*
X108657731Y-87849095D01*
X108572569Y-87833070D01*
X108515500Y-87822091D01*
X108412923Y-87801845D01*
X108412923Y-87374701D01*
X108412946Y-87322180D01*
X108413379Y-87194047D01*
X108414659Y-87098420D01*
X108417168Y-87030411D01*
X108421286Y-86985133D01*
X108427395Y-86957697D01*
X108435878Y-86943218D01*
X108447115Y-86936807D01*
X108457994Y-86934209D01*
X108502347Y-86925022D01*
X108573106Y-86910991D01*
X108663074Y-86893486D01*
X108765056Y-86873874D01*
X108871857Y-86853525D01*
X108976281Y-86833807D01*
X109071132Y-86816089D01*
X109149214Y-86801738D01*
X109203332Y-86792124D01*
X109226291Y-86788616D01*
X109227842Y-86786497D01*
X109240325Y-86759006D01*
X109261927Y-86706406D01*
X109289123Y-86637192D01*
X109326866Y-86543937D01*
X109373328Y-86436159D01*
X109416878Y-86341172D01*
X109426858Y-86319851D01*
X109454862Y-86253086D01*
X109471641Y-86201590D01*
X109473854Y-86175095D01*
X109472713Y-86173218D01*
X109454584Y-86145565D01*
X109418644Y-86091849D01*
X109368418Y-86017303D01*
X109307430Y-85927162D01*
X109239205Y-85826657D01*
X109162330Y-85712470D01*
X109104663Y-85623770D01*
X109065426Y-85558721D01*
X109042350Y-85513295D01*
X109033166Y-85483463D01*
X109035604Y-85465195D01*
X109036424Y-85463825D01*
X109058477Y-85437205D01*
X109103436Y-85388697D01*
X109166673Y-85323108D01*
X109243559Y-85245247D01*
X109329465Y-85159922D01*
X109418579Y-85073334D01*
X109505872Y-84991947D01*
X109570018Y-84937035D01*
X109612679Y-84907190D01*
X109635521Y-84901004D01*
X109638505Y-84902394D01*
X109669936Y-84921127D01*
X109726997Y-84957733D01*
X109804343Y-85008697D01*
X109896626Y-85070504D01*
X109998502Y-85139639D01*
X110330593Y-85366420D01*
X110480566Y-85298353D01*
X110484923Y-85296381D01*
X110577000Y-85256491D01*
X110674683Y-85216818D01*
X110757539Y-85185674D01*
X110757905Y-85185545D01*
X110823685Y-85161456D01*
X110874323Y-85141110D01*
X110898884Y-85128901D01*
X110899282Y-85128458D01*
X110907619Y-85103456D01*
X110921341Y-85046598D01*
X110939123Y-84964014D01*
X110959641Y-84861831D01*
X110981571Y-84746178D01*
X110982336Y-84742033D01*
X111004229Y-84624019D01*
X111024281Y-84517151D01*
X111041192Y-84428252D01*
X111053667Y-84364145D01*
X111060406Y-84331654D01*
X111060837Y-84329853D01*
X111065273Y-84315944D01*
X111074263Y-84305489D01*
X111092737Y-84297996D01*
X111125628Y-84292972D01*
X111177868Y-84289922D01*
X111254388Y-84288355D01*
X111360122Y-84287776D01*
X111500000Y-84287692D01*
X111517575Y-84287693D01*
G36*
X111517575Y-84287693D02*
G01*
X111653371Y-84287807D01*
X111755576Y-84288472D01*
X111829122Y-84290182D01*
X111878942Y-84293429D01*
X111909967Y-84298706D01*
X111927129Y-84306507D01*
X111935361Y-84317325D01*
X111939594Y-84331654D01*
X111939716Y-84332168D01*
X111946672Y-84365851D01*
X111959320Y-84430917D01*
X111976360Y-84520542D01*
X111996496Y-84627904D01*
X112018429Y-84746178D01*
X112020218Y-84755856D01*
X112042083Y-84870650D01*
X112062430Y-84971480D01*
X112079934Y-85052217D01*
X112093271Y-85106734D01*
X112101116Y-85128901D01*
X112101158Y-85128936D01*
X112125884Y-85141200D01*
X112176631Y-85161576D01*
X112242462Y-85185674D01*
X112246169Y-85186983D01*
X112330331Y-85218791D01*
X112428230Y-85258685D01*
X112519435Y-85298353D01*
X112669407Y-85366420D01*
X113001499Y-85139639D01*
X113024889Y-85123688D01*
X113125080Y-85055890D01*
X113214480Y-84996208D01*
X113287745Y-84948156D01*
X113339527Y-84915250D01*
X113364480Y-84901004D01*
X113381577Y-84904270D01*
X113420395Y-84929571D01*
X113480385Y-84979675D01*
X113563210Y-85055989D01*
X113670535Y-85159922D01*
X113680139Y-85169382D01*
X113765302Y-85254145D01*
X113840949Y-85330937D01*
X113902449Y-85394947D01*
X113945173Y-85441361D01*
X113964489Y-85465369D01*
X113964552Y-85465485D01*
X113967006Y-85483763D01*
X113957956Y-85513411D01*
X113935119Y-85558486D01*
X113896213Y-85623044D01*
X113838954Y-85711140D01*
X113761059Y-85826830D01*
X113747785Y-85846357D01*
X113680652Y-85945278D01*
X113621410Y-86032848D01*
X113573588Y-86103831D01*
X113540715Y-86152991D01*
X113526318Y-86175095D01*
X113525232Y-86179777D01*
X113532044Y-86214710D01*
X113552450Y-86271753D01*
X113583123Y-86341172D01*
X113624808Y-86431959D01*
X113671352Y-86539686D01*
X113710877Y-86637192D01*
X113720676Y-86662430D01*
X113746340Y-86726870D01*
X113765193Y-86771763D01*
X113773710Y-86788616D01*
X113783111Y-86789875D01*
X113825363Y-86797159D01*
X113894521Y-86809739D01*
X113983387Y-86826246D01*
X114084768Y-86845312D01*
X114191467Y-86865569D01*
X114296288Y-86885647D01*
X114392036Y-86904179D01*
X114471516Y-86919795D01*
X114527530Y-86931127D01*
X114552885Y-86936807D01*
X114557088Y-86938408D01*
X114567334Y-86947045D01*
X114574957Y-86965433D01*
X114580338Y-86998460D01*
X114583859Y-87051013D01*
X114585901Y-87127979D01*
X114586847Y-87234246D01*
X114587077Y-87374701D01*
X114587077Y-87801845D01*
X114484500Y-87822091D01*
X114472092Y-87824518D01*
X114406199Y-87837088D01*
X114315084Y-87854170D01*
X114209104Y-87873829D01*
X114098615Y-87894132D01*
X114055105Y-87902299D01*
X113957882Y-87922167D01*
X113876858Y-87940954D01*
X113819477Y-87956859D01*
X113793187Y-87968079D01*
X113781273Y-87986411D01*
X113759583Y-88034916D01*
X113737395Y-88097692D01*
X113729585Y-88121200D01*
X113700835Y-88198366D01*
X113663752Y-88289694D01*
X113624375Y-88380093D01*
X113603315Y-88427310D01*
X113573311Y-88497837D01*
X113552692Y-88550655D01*
X113545026Y-88576912D01*
X113545452Y-88578894D01*
X113559993Y-88606751D01*
X113592783Y-88660510D01*
X113640493Y-88734963D01*
X113699798Y-88824897D01*
X113767369Y-88925104D01*
X113989713Y-89251416D01*
X113697601Y-89544016D01*
X113669349Y-89572171D01*
X113582961Y-89656449D01*
X113505756Y-89729128D01*
X113442258Y-89786112D01*
X113396990Y-89823307D01*
X113374474Y-89836616D01*
X113350023Y-89826490D01*
X113298819Y-89797421D01*
X113226747Y-89752896D01*
X113139460Y-89696411D01*
X113042612Y-89631462D01*
X112947486Y-89567314D01*
X112861669Y-89510827D01*
X112791652Y-89466184D01*
X112742876Y-89436855D01*
X112720783Y-89426308D01*
X112719488Y-89426404D01*
X112690139Y-89436802D01*
X112638093Y-89461012D01*
X112573708Y-89494249D01*
X112573032Y-89494613D01*
X112487521Y-89537441D01*
X112428926Y-89558365D01*
X112392571Y-89558423D01*
X112373775Y-89538654D01*
X112365819Y-89519195D01*
X112344347Y-89467080D01*
X112311273Y-89386964D01*
X112268356Y-89283107D01*
X112217356Y-89159767D01*
X112160033Y-89021201D01*
X112098146Y-88871670D01*
X112042052Y-88735636D01*
X111984977Y-88596050D01*
X111934479Y-88471315D01*
X111892254Y-88365672D01*
X111859995Y-88283365D01*
X111839397Y-88228635D01*
X111832154Y-88205726D01*
X111845986Y-88184718D01*
X111884412Y-88149642D01*
X111938807Y-88108887D01*
X112069395Y-88002267D01*
X112186260Y-87866025D01*
X112271780Y-87716118D01*
X112325431Y-87556971D01*
X112346684Y-87393012D01*
X112335014Y-87228667D01*
X112289894Y-87068361D01*
X112210797Y-86916520D01*
X112097197Y-86777572D01*
X112037965Y-86723460D01*
X111896054Y-86627782D01*
X111744206Y-86565405D01*
X111586861Y-86534844D01*
X111428456Y-86534615D01*
X111273429Y-86563232D01*
X111126220Y-86619210D01*
X110991266Y-86701064D01*
X110873005Y-86807309D01*
X110775877Y-86936459D01*
X110704318Y-87087031D01*
X110662769Y-87257539D01*
X110655143Y-87339722D01*
X110665634Y-87517775D01*
X110712882Y-87686704D01*
X110795489Y-87843522D01*
X110912059Y-87985245D01*
X111061193Y-88108887D01*
X111113561Y-88147982D01*
X111152832Y-88183443D01*
X111167846Y-88205692D01*
X111161859Y-88225088D01*
X111142432Y-88277059D01*
X111111194Y-88357002D01*
X111069839Y-88460673D01*
X111020061Y-88583832D01*
X110963553Y-88722234D01*
X110902009Y-88871637D01*
X110846008Y-89007020D01*
X110788184Y-89146852D01*
X110736500Y-89271872D01*
X110692718Y-89377822D01*
X110658597Y-89460441D01*
X110635898Y-89515472D01*
X110626380Y-89538654D01*
X110626269Y-89538928D01*
X110607228Y-89558503D01*
X110570694Y-89558279D01*
X110511954Y-89537210D01*
X110426292Y-89494249D01*
X110419549Y-89490631D01*
X110355938Y-89458087D01*
X110305707Y-89435050D01*
X110279218Y-89426308D01*
X110257506Y-89436639D01*
X110208984Y-89465788D01*
X110139163Y-89510287D01*
X110053484Y-89566668D01*
X109957388Y-89631462D01*
X109862706Y-89694984D01*
X109775132Y-89751705D01*
X109702642Y-89796547D01*
X109650889Y-89826016D01*
X109625526Y-89836616D01*
X109621206Y-89835270D01*
X109591092Y-89814056D01*
X109539640Y-89770237D01*
X109471375Y-89707909D01*
X109390820Y-89631170D01*
X109302500Y-89544116D01*
X109010488Y-89251617D01*
X109465360Y-88582525D01*
X109396208Y-88432916D01*
X109396003Y-88432473D01*
X109354477Y-88337101D01*
X109312044Y-88230896D01*
X109277858Y-88136769D01*
X109272684Y-88121588D01*
X109246601Y-88051109D01*
X109223081Y-87996342D01*
X109206677Y-87968079D01*
X109199996Y-87964088D01*
X109159892Y-87950697D01*
X109091795Y-87933373D01*
X109003145Y-87913917D01*
X108901385Y-87894132D01*
X108870904Y-87888551D01*
X108760628Y-87868233D01*
X108657731Y-87849095D01*
X108572569Y-87833070D01*
X108515500Y-87822091D01*
X108412923Y-87801845D01*
X108412923Y-87374701D01*
X108412946Y-87322180D01*
X108413379Y-87194047D01*
X108414659Y-87098420D01*
X108417168Y-87030411D01*
X108421286Y-86985133D01*
X108427395Y-86957697D01*
X108435878Y-86943218D01*
X108447115Y-86936807D01*
X108457994Y-86934209D01*
X108502347Y-86925022D01*
X108573106Y-86910991D01*
X108663074Y-86893486D01*
X108765056Y-86873874D01*
X108871857Y-86853525D01*
X108976281Y-86833807D01*
X109071132Y-86816089D01*
X109149214Y-86801738D01*
X109203332Y-86792124D01*
X109226291Y-86788616D01*
X109227842Y-86786497D01*
X109240325Y-86759006D01*
X109261927Y-86706406D01*
X109289123Y-86637192D01*
X109326866Y-86543937D01*
X109373328Y-86436159D01*
X109416878Y-86341172D01*
X109426858Y-86319851D01*
X109454862Y-86253086D01*
X109471641Y-86201590D01*
X109473854Y-86175095D01*
X109472713Y-86173218D01*
X109454584Y-86145565D01*
X109418644Y-86091849D01*
X109368418Y-86017303D01*
X109307430Y-85927162D01*
X109239205Y-85826657D01*
X109162330Y-85712470D01*
X109104663Y-85623770D01*
X109065426Y-85558721D01*
X109042350Y-85513295D01*
X109033166Y-85483463D01*
X109035604Y-85465195D01*
X109036424Y-85463825D01*
X109058477Y-85437205D01*
X109103436Y-85388697D01*
X109166673Y-85323108D01*
X109243559Y-85245247D01*
X109329465Y-85159922D01*
X109418579Y-85073334D01*
X109505872Y-84991947D01*
X109570018Y-84937035D01*
X109612679Y-84907190D01*
X109635521Y-84901004D01*
X109638505Y-84902394D01*
X109669936Y-84921127D01*
X109726997Y-84957733D01*
X109804343Y-85008697D01*
X109896626Y-85070504D01*
X109998502Y-85139639D01*
X110330593Y-85366420D01*
X110480566Y-85298353D01*
X110484923Y-85296381D01*
X110577000Y-85256491D01*
X110674683Y-85216818D01*
X110757539Y-85185674D01*
X110757905Y-85185545D01*
X110823685Y-85161456D01*
X110874323Y-85141110D01*
X110898884Y-85128901D01*
X110899282Y-85128458D01*
X110907619Y-85103456D01*
X110921341Y-85046598D01*
X110939123Y-84964014D01*
X110959641Y-84861831D01*
X110981571Y-84746178D01*
X110982336Y-84742033D01*
X111004229Y-84624019D01*
X111024281Y-84517151D01*
X111041192Y-84428252D01*
X111053667Y-84364145D01*
X111060406Y-84331654D01*
X111060837Y-84329853D01*
X111065273Y-84315944D01*
X111074263Y-84305489D01*
X111092737Y-84297996D01*
X111125628Y-84292972D01*
X111177868Y-84289922D01*
X111254388Y-84288355D01*
X111360122Y-84287776D01*
X111500000Y-84287692D01*
X111517575Y-84287693D01*
G37*
%TD*%
%LPC*%
G36*
X104960747Y-109555261D02*
G01*
X105092234Y-109609725D01*
X105210570Y-109688794D01*
X105311206Y-109789430D01*
X105390275Y-109907766D01*
X105444739Y-110039253D01*
X105472504Y-110178840D01*
X105472504Y-110321160D01*
X105444739Y-110460747D01*
X105390275Y-110592234D01*
X105311206Y-110710570D01*
X105210570Y-110811206D01*
X105092234Y-110890275D01*
X104960747Y-110944739D01*
X104821160Y-110972504D01*
X104678840Y-110972504D01*
X104539253Y-110944739D01*
X104407766Y-110890275D01*
X104289430Y-110811206D01*
X104188794Y-110710570D01*
X104109725Y-110592234D01*
X104055261Y-110460747D01*
X104027496Y-110321160D01*
X104027496Y-110178840D01*
X104055261Y-110039253D01*
X104109725Y-109907766D01*
X104188794Y-109789430D01*
X104289430Y-109688794D01*
X104407766Y-109609725D01*
X104539253Y-109555261D01*
X104678840Y-109527496D01*
X104821160Y-109527496D01*
X104960747Y-109555261D01*
G37*
G36*
X123014632Y-104426441D02*
G01*
X123041668Y-104437640D01*
X123062360Y-104458332D01*
X123073559Y-104485368D01*
X123075000Y-104500000D01*
X123075000Y-110000000D01*
X123073559Y-110014632D01*
X123062360Y-110041668D01*
X123041668Y-110062360D01*
X123014632Y-110073559D01*
X123000000Y-110075000D01*
X122997546Y-110075000D01*
X117502454Y-110075000D01*
X117500000Y-110075000D01*
X117485368Y-110073559D01*
X117458332Y-110062360D01*
X117437640Y-110041668D01*
X117426441Y-110014632D01*
X117425000Y-110000000D01*
X117425000Y-104500000D01*
X117426441Y-104485368D01*
X117437640Y-104458332D01*
X117458332Y-104437640D01*
X117485368Y-104426441D01*
X117500000Y-104425000D01*
X123000000Y-104425000D01*
X123014632Y-104426441D01*
G37*
G36*
X104937660Y-104476275D02*
G01*
X104999590Y-104484428D01*
X105015167Y-104491692D01*
X105034096Y-104495457D01*
X105059167Y-104512208D01*
X105084955Y-104524234D01*
X105100644Y-104539923D01*
X105121285Y-104553715D01*
X105135076Y-104574355D01*
X105150765Y-104590044D01*
X105162789Y-104615830D01*
X105179543Y-104640904D01*
X105183308Y-104659834D01*
X105190571Y-104675409D01*
X105198722Y-104737326D01*
X105200000Y-104743750D01*
X105200000Y-105256250D01*
X105198722Y-105262674D01*
X105190571Y-105324590D01*
X105183308Y-105340164D01*
X105179543Y-105359096D01*
X105162787Y-105384171D01*
X105150765Y-105409955D01*
X105135078Y-105425641D01*
X105121285Y-105446285D01*
X105100641Y-105460078D01*
X105084955Y-105475765D01*
X105059171Y-105487787D01*
X105034096Y-105504543D01*
X105015164Y-105508308D01*
X104999590Y-105515571D01*
X104937674Y-105523722D01*
X104931250Y-105525000D01*
X104493750Y-105525000D01*
X104487326Y-105523722D01*
X104425409Y-105515571D01*
X104409834Y-105508308D01*
X104390904Y-105504543D01*
X104365830Y-105487789D01*
X104340044Y-105475765D01*
X104324355Y-105460076D01*
X104303715Y-105446285D01*
X104289923Y-105425644D01*
X104274234Y-105409955D01*
X104262208Y-105384167D01*
X104245457Y-105359096D01*
X104241692Y-105340167D01*
X104234428Y-105324590D01*
X104226275Y-105262660D01*
X104225000Y-105256250D01*
X104225000Y-104743750D01*
X104226274Y-104737341D01*
X104234428Y-104675409D01*
X104241692Y-104659830D01*
X104245457Y-104640904D01*
X104262207Y-104615835D01*
X104274234Y-104590044D01*
X104289925Y-104574352D01*
X104303715Y-104553715D01*
X104324352Y-104539925D01*
X104340044Y-104524234D01*
X104365835Y-104512207D01*
X104390904Y-104495457D01*
X104409830Y-104491692D01*
X104425409Y-104484428D01*
X104487341Y-104476274D01*
X104493750Y-104475000D01*
X104931250Y-104475000D01*
X104937660Y-104476275D01*
G37*
G36*
X106512660Y-104476275D02*
G01*
X106574590Y-104484428D01*
X106590167Y-104491692D01*
X106609096Y-104495457D01*
X106634167Y-104512208D01*
X106659955Y-104524234D01*
X106675644Y-104539923D01*
X106696285Y-104553715D01*
X106710076Y-104574355D01*
X106725765Y-104590044D01*
X106737789Y-104615830D01*
X106754543Y-104640904D01*
X106758308Y-104659834D01*
X106765571Y-104675409D01*
X106773722Y-104737326D01*
X106775000Y-104743750D01*
X106775000Y-105256250D01*
X106773722Y-105262674D01*
X106765571Y-105324590D01*
X106758308Y-105340164D01*
X106754543Y-105359096D01*
X106737787Y-105384171D01*
X106725765Y-105409955D01*
X106710078Y-105425641D01*
X106696285Y-105446285D01*
X106675641Y-105460078D01*
X106659955Y-105475765D01*
X106634171Y-105487787D01*
X106609096Y-105504543D01*
X106590164Y-105508308D01*
X106574590Y-105515571D01*
X106512674Y-105523722D01*
X106506250Y-105525000D01*
X106068750Y-105525000D01*
X106062326Y-105523722D01*
X106000409Y-105515571D01*
X105984834Y-105508308D01*
X105965904Y-105504543D01*
X105940830Y-105487789D01*
X105915044Y-105475765D01*
X105899355Y-105460076D01*
X105878715Y-105446285D01*
X105864923Y-105425644D01*
X105849234Y-105409955D01*
X105837208Y-105384167D01*
X105820457Y-105359096D01*
X105816692Y-105340167D01*
X105809428Y-105324590D01*
X105801275Y-105262660D01*
X105800000Y-105256250D01*
X105800000Y-104743750D01*
X105801274Y-104737341D01*
X105809428Y-104675409D01*
X105816692Y-104659830D01*
X105820457Y-104640904D01*
X105837207Y-104615835D01*
X105849234Y-104590044D01*
X105864925Y-104574352D01*
X105878715Y-104553715D01*
X105899352Y-104539925D01*
X105915044Y-104524234D01*
X105940835Y-104512207D01*
X105965904Y-104495457D01*
X105984830Y-104491692D01*
X106000409Y-104484428D01*
X106062341Y-104476274D01*
X106068750Y-104475000D01*
X106506250Y-104475000D01*
X106512660Y-104476275D01*
G37*
G36*
X104937660Y-102976275D02*
G01*
X104999590Y-102984428D01*
X105015167Y-102991692D01*
X105034096Y-102995457D01*
X105059167Y-103012208D01*
X105084955Y-103024234D01*
X105100644Y-103039923D01*
X105121285Y-103053715D01*
X105135076Y-103074355D01*
X105150765Y-103090044D01*
X105162789Y-103115830D01*
X105179543Y-103140904D01*
X105183308Y-103159834D01*
X105190571Y-103175409D01*
X105198722Y-103237326D01*
X105200000Y-103243750D01*
X105200000Y-103756250D01*
X105198722Y-103762674D01*
X105190571Y-103824590D01*
X105183308Y-103840164D01*
X105179543Y-103859096D01*
X105162787Y-103884171D01*
X105150765Y-103909955D01*
X105135078Y-103925641D01*
X105121285Y-103946285D01*
X105100641Y-103960078D01*
X105084955Y-103975765D01*
X105059171Y-103987787D01*
X105034096Y-104004543D01*
X105015164Y-104008308D01*
X104999590Y-104015571D01*
X104937674Y-104023722D01*
X104931250Y-104025000D01*
X104493750Y-104025000D01*
X104487326Y-104023722D01*
X104425409Y-104015571D01*
X104409834Y-104008308D01*
X104390904Y-104004543D01*
X104365830Y-103987789D01*
X104340044Y-103975765D01*
X104324355Y-103960076D01*
X104303715Y-103946285D01*
X104289923Y-103925644D01*
X104274234Y-103909955D01*
X104262208Y-103884167D01*
X104245457Y-103859096D01*
X104241692Y-103840167D01*
X104234428Y-103824590D01*
X104226275Y-103762660D01*
X104225000Y-103756250D01*
X104225000Y-103243750D01*
X104226274Y-103237341D01*
X104234428Y-103175409D01*
X104241692Y-103159830D01*
X104245457Y-103140904D01*
X104262207Y-103115835D01*
X104274234Y-103090044D01*
X104289925Y-103074352D01*
X104303715Y-103053715D01*
X104324352Y-103039925D01*
X104340044Y-103024234D01*
X104365835Y-103012207D01*
X104390904Y-102995457D01*
X104409830Y-102991692D01*
X104425409Y-102984428D01*
X104487341Y-102976274D01*
X104493750Y-102975000D01*
X104931250Y-102975000D01*
X104937660Y-102976275D01*
G37*
G36*
X106512660Y-102976275D02*
G01*
X106574590Y-102984428D01*
X106590167Y-102991692D01*
X106609096Y-102995457D01*
X106634167Y-103012208D01*
X106659955Y-103024234D01*
X106675644Y-103039923D01*
X106696285Y-103053715D01*
X106710076Y-103074355D01*
X106725765Y-103090044D01*
X106737789Y-103115830D01*
X106754543Y-103140904D01*
X106758308Y-103159834D01*
X106765571Y-103175409D01*
X106773722Y-103237326D01*
X106775000Y-103243750D01*
X106775000Y-103756250D01*
X106773722Y-103762674D01*
X106765571Y-103824590D01*
X106758308Y-103840164D01*
X106754543Y-103859096D01*
X106737787Y-103884171D01*
X106725765Y-103909955D01*
X106710078Y-103925641D01*
X106696285Y-103946285D01*
X106675641Y-103960078D01*
X106659955Y-103975765D01*
X106634171Y-103987787D01*
X106609096Y-104004543D01*
X106590164Y-104008308D01*
X106574590Y-104015571D01*
X106512674Y-104023722D01*
X106506250Y-104025000D01*
X106068750Y-104025000D01*
X106062326Y-104023722D01*
X106000409Y-104015571D01*
X105984834Y-104008308D01*
X105965904Y-104004543D01*
X105940830Y-103987789D01*
X105915044Y-103975765D01*
X105899355Y-103960076D01*
X105878715Y-103946285D01*
X105864923Y-103925644D01*
X105849234Y-103909955D01*
X105837208Y-103884167D01*
X105820457Y-103859096D01*
X105816692Y-103840167D01*
X105809428Y-103824590D01*
X105801275Y-103762660D01*
X105800000Y-103756250D01*
X105800000Y-103243750D01*
X105801274Y-103237341D01*
X105809428Y-103175409D01*
X105816692Y-103159830D01*
X105820457Y-103140904D01*
X105837207Y-103115835D01*
X105849234Y-103090044D01*
X105864925Y-103074352D01*
X105878715Y-103053715D01*
X105899352Y-103039925D01*
X105915044Y-103024234D01*
X105940835Y-103012207D01*
X105965904Y-102995457D01*
X105984830Y-102991692D01*
X106000409Y-102984428D01*
X106062341Y-102976274D01*
X106068750Y-102975000D01*
X106506250Y-102975000D01*
X106512660Y-102976275D01*
G37*
G36*
X123014632Y-92676441D02*
G01*
X123041668Y-92687640D01*
X123062360Y-92708332D01*
X123073559Y-92735368D01*
X123075000Y-92750000D01*
X123075000Y-98250000D01*
X123073559Y-98264632D01*
X123062360Y-98291668D01*
X123041668Y-98312360D01*
X123014632Y-98323559D01*
X123000000Y-98325000D01*
X122997546Y-98325000D01*
X117502454Y-98325000D01*
X117500000Y-98325000D01*
X117485368Y-98323559D01*
X117458332Y-98312360D01*
X117437640Y-98291668D01*
X117426441Y-98264632D01*
X117425000Y-98250000D01*
X117425000Y-92750000D01*
X117426441Y-92735368D01*
X117437640Y-92708332D01*
X117458332Y-92687640D01*
X117485368Y-92676441D01*
X117500000Y-92675000D01*
X123000000Y-92675000D01*
X123014632Y-92676441D01*
G37*
G36*
X105444134Y-88203806D02*
G01*
X105460355Y-88214645D01*
X105471194Y-88230866D01*
X105475000Y-88250000D01*
X105475000Y-89250000D01*
X105471194Y-89269134D01*
X105460355Y-89285355D01*
X105444134Y-89296194D01*
X105425000Y-89300000D01*
X104425000Y-89300000D01*
X104405866Y-89296194D01*
X104389645Y-89285355D01*
X104378806Y-89269134D01*
X104375000Y-89250000D01*
X104375000Y-88250000D01*
X104378806Y-88230866D01*
X104389645Y-88214645D01*
X104405866Y-88203806D01*
X104425000Y-88200000D01*
X105425000Y-88200000D01*
X105444134Y-88203806D01*
G37*
G36*
X105135476Y-86971866D02*
G01*
X105259819Y-87043656D01*
X105361344Y-87145181D01*
X105433134Y-87269524D01*
X105470295Y-87408211D01*
X105470295Y-87551789D01*
X105433134Y-87690476D01*
X105361344Y-87814819D01*
X105259819Y-87916344D01*
X105135476Y-87988134D01*
X104996789Y-88025295D01*
X104853211Y-88025295D01*
X104714524Y-87988134D01*
X104590181Y-87916344D01*
X104488656Y-87814819D01*
X104416866Y-87690476D01*
X104379705Y-87551789D01*
X104379705Y-87408211D01*
X104416866Y-87269524D01*
X104488656Y-87145181D01*
X104590181Y-87043656D01*
X104714524Y-86971866D01*
X104853211Y-86934705D01*
X104996789Y-86934705D01*
X105135476Y-86971866D01*
G37*
G36*
X107580476Y-85421866D02*
G01*
X107704819Y-85493656D01*
X107806344Y-85595181D01*
X107878134Y-85719524D01*
X107915295Y-85858211D01*
X107920000Y-85930000D01*
X107920000Y-86530000D01*
X107915295Y-86601789D01*
X107878134Y-86740476D01*
X107806344Y-86864819D01*
X107704819Y-86966344D01*
X107703382Y-86967173D01*
X107691668Y-86978888D01*
X107729811Y-87044956D01*
X107771263Y-87033850D01*
X107888737Y-87033850D01*
X108002208Y-87064254D01*
X108103943Y-87122991D01*
X108187009Y-87206057D01*
X108245746Y-87307792D01*
X108276150Y-87421263D01*
X108276150Y-87538737D01*
X108245746Y-87652208D01*
X108187009Y-87753943D01*
X108103943Y-87837009D01*
X108002208Y-87895746D01*
X107888737Y-87926150D01*
X107771263Y-87926150D01*
X107657792Y-87895746D01*
X107556057Y-87837009D01*
X107472991Y-87753943D01*
X107414254Y-87652208D01*
X107383850Y-87538737D01*
X107383850Y-87421263D01*
X107414254Y-87307792D01*
X107472991Y-87206057D01*
X107556057Y-87122991D01*
X107557486Y-87122165D01*
X107559650Y-87120002D01*
X107521505Y-87053935D01*
X107441789Y-87075295D01*
X107298211Y-87075295D01*
X107159524Y-87038134D01*
X107035181Y-86966344D01*
X106933656Y-86864819D01*
X106861866Y-86740476D01*
X106824705Y-86601789D01*
X106820000Y-86530000D01*
X106820000Y-85930000D01*
X106824705Y-85858211D01*
X106861866Y-85719524D01*
X106933656Y-85595181D01*
X107035181Y-85493656D01*
X107159524Y-85421866D01*
X107298211Y-85384705D01*
X107441789Y-85384705D01*
X107580476Y-85421866D01*
G37*
G36*
X115840476Y-85421866D02*
G01*
X115964819Y-85493656D01*
X116066344Y-85595181D01*
X116138134Y-85719524D01*
X116175295Y-85858211D01*
X116180000Y-85930000D01*
X116180000Y-86530000D01*
X116175295Y-86601789D01*
X116138134Y-86740476D01*
X116066344Y-86864819D01*
X115964819Y-86966344D01*
X115840476Y-87038134D01*
X115701789Y-87075295D01*
X115558211Y-87075295D01*
X115478492Y-87053934D01*
X115440349Y-87120002D01*
X115442511Y-87122164D01*
X115443943Y-87122991D01*
X115527009Y-87206057D01*
X115585746Y-87307792D01*
X115616150Y-87421263D01*
X115616150Y-87538737D01*
X115585746Y-87652208D01*
X115527009Y-87753943D01*
X115443943Y-87837009D01*
X115342208Y-87895746D01*
X115228737Y-87926150D01*
X115111263Y-87926150D01*
X114997792Y-87895746D01*
X114896057Y-87837009D01*
X114812991Y-87753943D01*
X114754254Y-87652208D01*
X114723850Y-87538737D01*
X114723850Y-87421263D01*
X114754254Y-87307792D01*
X114812991Y-87206057D01*
X114896057Y-87122991D01*
X114997792Y-87064254D01*
X115111263Y-87033850D01*
X115228737Y-87033850D01*
X115270186Y-87044956D01*
X115308331Y-86978889D01*
X115296612Y-86967170D01*
X115295181Y-86966344D01*
X115193656Y-86864819D01*
X115121866Y-86740476D01*
X115084705Y-86601789D01*
X115080000Y-86530000D01*
X115080000Y-85930000D01*
X115084705Y-85858211D01*
X115121866Y-85719524D01*
X115193656Y-85595181D01*
X115295181Y-85493656D01*
X115419524Y-85421866D01*
X115558211Y-85384705D01*
X115701789Y-85384705D01*
X115840476Y-85421866D01*
G37*
G36*
X108833939Y-86506642D02*
G01*
X108913067Y-86552326D01*
X108977674Y-86616933D01*
X109023358Y-86696061D01*
X109047006Y-86784316D01*
X109047006Y-86875684D01*
X109023358Y-86963939D01*
X108977674Y-87043067D01*
X108913067Y-87107674D01*
X108833939Y-87153358D01*
X108745684Y-87177006D01*
X108654316Y-87177006D01*
X108566061Y-87153358D01*
X108486933Y-87107674D01*
X108422326Y-87043067D01*
X108376642Y-86963939D01*
X108352994Y-86875684D01*
X108352994Y-86784316D01*
X108376642Y-86696061D01*
X108422326Y-86616933D01*
X108486933Y-86552326D01*
X108566061Y-86506642D01*
X108654316Y-86482994D01*
X108745684Y-86482994D01*
X108833939Y-86506642D01*
G37*
G36*
X110433939Y-86506642D02*
G01*
X110513067Y-86552326D01*
X110577674Y-86616933D01*
X110623358Y-86696061D01*
X110647006Y-86784316D01*
X110647006Y-86875684D01*
X110623358Y-86963939D01*
X110577674Y-87043067D01*
X110513067Y-87107674D01*
X110433939Y-87153358D01*
X110345684Y-87177006D01*
X110254316Y-87177006D01*
X110166061Y-87153358D01*
X110086933Y-87107674D01*
X110022326Y-87043067D01*
X109976642Y-86963939D01*
X109952994Y-86875684D01*
X109952994Y-86784316D01*
X109976642Y-86696061D01*
X110022326Y-86616933D01*
X110086933Y-86552326D01*
X110166061Y-86506642D01*
X110254316Y-86482994D01*
X110345684Y-86482994D01*
X110433939Y-86506642D01*
G37*
G36*
X111233939Y-86506642D02*
G01*
X111313067Y-86552326D01*
X111377674Y-86616933D01*
X111423358Y-86696061D01*
X111447006Y-86784316D01*
X111447006Y-86875684D01*
X111423358Y-86963939D01*
X111377674Y-87043067D01*
X111313067Y-87107674D01*
X111233939Y-87153358D01*
X111145684Y-87177006D01*
X111054316Y-87177006D01*
X110966061Y-87153358D01*
X110886933Y-87107674D01*
X110822326Y-87043067D01*
X110776642Y-86963939D01*
X110752994Y-86875684D01*
X110752994Y-86784316D01*
X110776642Y-86696061D01*
X110822326Y-86616933D01*
X110886933Y-86552326D01*
X110966061Y-86506642D01*
X111054316Y-86482994D01*
X111145684Y-86482994D01*
X111233939Y-86506642D01*
G37*
G36*
X112033939Y-86506642D02*
G01*
X112113067Y-86552326D01*
X112177674Y-86616933D01*
X112223358Y-86696061D01*
X112247006Y-86784316D01*
X112247006Y-86875684D01*
X112223358Y-86963939D01*
X112177674Y-87043067D01*
X112113067Y-87107674D01*
X112033939Y-87153358D01*
X111945684Y-87177006D01*
X111854316Y-87177006D01*
X111766061Y-87153358D01*
X111686933Y-87107674D01*
X111622326Y-87043067D01*
X111576642Y-86963939D01*
X111552994Y-86875684D01*
X111552994Y-86784316D01*
X111576642Y-86696061D01*
X111622326Y-86616933D01*
X111686933Y-86552326D01*
X111766061Y-86506642D01*
X111854316Y-86482994D01*
X111945684Y-86482994D01*
X112033939Y-86506642D01*
G37*
G36*
X112833939Y-86506642D02*
G01*
X112913067Y-86552326D01*
X112977674Y-86616933D01*
X113023358Y-86696061D01*
X113047006Y-86784316D01*
X113047006Y-86875684D01*
X113023358Y-86963939D01*
X112977674Y-87043067D01*
X112913067Y-87107674D01*
X112833939Y-87153358D01*
X112745684Y-87177006D01*
X112654316Y-87177006D01*
X112566061Y-87153358D01*
X112486933Y-87107674D01*
X112422326Y-87043067D01*
X112376642Y-86963939D01*
X112352994Y-86875684D01*
X112352994Y-86784316D01*
X112376642Y-86696061D01*
X112422326Y-86616933D01*
X112486933Y-86552326D01*
X112566061Y-86506642D01*
X112654316Y-86482994D01*
X112745684Y-86482994D01*
X112833939Y-86506642D01*
G37*
G36*
X114433939Y-86506642D02*
G01*
X114513067Y-86552326D01*
X114577674Y-86616933D01*
X114623358Y-86696061D01*
X114647006Y-86784316D01*
X114647006Y-86875684D01*
X114623358Y-86963939D01*
X114577674Y-87043067D01*
X114513067Y-87107674D01*
X114433939Y-87153358D01*
X114345684Y-87177006D01*
X114254316Y-87177006D01*
X114166061Y-87153358D01*
X114086933Y-87107674D01*
X114022326Y-87043067D01*
X113976642Y-86963939D01*
X113952994Y-86875684D01*
X113952994Y-86784316D01*
X113976642Y-86696061D01*
X114022326Y-86616933D01*
X114086933Y-86552326D01*
X114166061Y-86506642D01*
X114254316Y-86482994D01*
X114345684Y-86482994D01*
X114433939Y-86506642D01*
G37*
G36*
X105135476Y-85701866D02*
G01*
X105259819Y-85773656D01*
X105361344Y-85875181D01*
X105433134Y-85999524D01*
X105470295Y-86138211D01*
X105470295Y-86281789D01*
X105433134Y-86420476D01*
X105361344Y-86544819D01*
X105259819Y-86646344D01*
X105135476Y-86718134D01*
X104996789Y-86755295D01*
X104853211Y-86755295D01*
X104714524Y-86718134D01*
X104590181Y-86646344D01*
X104488656Y-86544819D01*
X104416866Y-86420476D01*
X104379705Y-86281789D01*
X104379705Y-86138211D01*
X104416866Y-85999524D01*
X104488656Y-85875181D01*
X104590181Y-85773656D01*
X104714524Y-85701866D01*
X104853211Y-85664705D01*
X104996789Y-85664705D01*
X105135476Y-85701866D01*
G37*
G36*
X109233939Y-85806642D02*
G01*
X109313067Y-85852326D01*
X109377674Y-85916933D01*
X109423358Y-85996061D01*
X109447006Y-86084316D01*
X109447006Y-86175684D01*
X109423358Y-86263939D01*
X109377674Y-86343067D01*
X109313067Y-86407674D01*
X109233939Y-86453358D01*
X109145684Y-86477006D01*
X109054316Y-86477006D01*
X108966061Y-86453358D01*
X108886933Y-86407674D01*
X108822326Y-86343067D01*
X108776642Y-86263939D01*
X108752994Y-86175684D01*
X108752994Y-86084316D01*
X108776642Y-85996061D01*
X108822326Y-85916933D01*
X108886933Y-85852326D01*
X108966061Y-85806642D01*
X109054316Y-85782994D01*
X109145684Y-85782994D01*
X109233939Y-85806642D01*
G37*
G36*
X110033939Y-85806642D02*
G01*
X110113067Y-85852326D01*
X110177674Y-85916933D01*
X110223358Y-85996061D01*
X110247006Y-86084316D01*
X110247006Y-86175684D01*
X110223358Y-86263939D01*
X110177674Y-86343067D01*
X110113067Y-86407674D01*
X110033939Y-86453358D01*
X109945684Y-86477006D01*
X109854316Y-86477006D01*
X109766061Y-86453358D01*
X109686933Y-86407674D01*
X109622326Y-86343067D01*
X109576642Y-86263939D01*
X109552994Y-86175684D01*
X109552994Y-86084316D01*
X109576642Y-85996061D01*
X109622326Y-85916933D01*
X109686933Y-85852326D01*
X109766061Y-85806642D01*
X109854316Y-85782994D01*
X109945684Y-85782994D01*
X110033939Y-85806642D01*
G37*
G36*
X110833939Y-85806642D02*
G01*
X110913067Y-85852326D01*
X110977674Y-85916933D01*
X111023358Y-85996061D01*
X111047006Y-86084316D01*
X111047006Y-86175684D01*
X111023358Y-86263939D01*
X110977674Y-86343067D01*
X110913067Y-86407674D01*
X110833939Y-86453358D01*
X110745684Y-86477006D01*
X110654316Y-86477006D01*
X110566061Y-86453358D01*
X110486933Y-86407674D01*
X110422326Y-86343067D01*
X110376642Y-86263939D01*
X110352994Y-86175684D01*
X110352994Y-86084316D01*
X110376642Y-85996061D01*
X110422326Y-85916933D01*
X110486933Y-85852326D01*
X110566061Y-85806642D01*
X110654316Y-85782994D01*
X110745684Y-85782994D01*
X110833939Y-85806642D01*
G37*
G36*
X112433939Y-85806642D02*
G01*
X112513067Y-85852326D01*
X112577674Y-85916933D01*
X112623358Y-85996061D01*
X112647006Y-86084316D01*
X112647006Y-86175684D01*
X112623358Y-86263939D01*
X112577674Y-86343067D01*
X112513067Y-86407674D01*
X112433939Y-86453358D01*
X112345684Y-86477006D01*
X112254316Y-86477006D01*
X112166061Y-86453358D01*
X112086933Y-86407674D01*
X112022326Y-86343067D01*
X111976642Y-86263939D01*
X111952994Y-86175684D01*
X111952994Y-86084316D01*
X111976642Y-85996061D01*
X112022326Y-85916933D01*
X112086933Y-85852326D01*
X112166061Y-85806642D01*
X112254316Y-85782994D01*
X112345684Y-85782994D01*
X112433939Y-85806642D01*
G37*
G36*
X113233939Y-85806642D02*
G01*
X113313067Y-85852326D01*
X113377674Y-85916933D01*
X113423358Y-85996061D01*
X113447006Y-86084316D01*
X113447006Y-86175684D01*
X113423358Y-86263939D01*
X113377674Y-86343067D01*
X113313067Y-86407674D01*
X113233939Y-86453358D01*
X113145684Y-86477006D01*
X113054316Y-86477006D01*
X112966061Y-86453358D01*
X112886933Y-86407674D01*
X112822326Y-86343067D01*
X112776642Y-86263939D01*
X112752994Y-86175684D01*
X112752994Y-86084316D01*
X112776642Y-85996061D01*
X112822326Y-85916933D01*
X112886933Y-85852326D01*
X112966061Y-85806642D01*
X113054316Y-85782994D01*
X113145684Y-85782994D01*
X113233939Y-85806642D01*
G37*
G36*
X114033939Y-85806642D02*
G01*
X114113067Y-85852326D01*
X114177674Y-85916933D01*
X114223358Y-85996061D01*
X114247006Y-86084316D01*
X114247006Y-86175684D01*
X114223358Y-86263939D01*
X114177674Y-86343067D01*
X114113067Y-86407674D01*
X114033939Y-86453358D01*
X113945684Y-86477006D01*
X113854316Y-86477006D01*
X113766061Y-86453358D01*
X113686933Y-86407674D01*
X113622326Y-86343067D01*
X113576642Y-86263939D01*
X113552994Y-86175684D01*
X113552994Y-86084316D01*
X113576642Y-85996061D01*
X113622326Y-85916933D01*
X113686933Y-85852326D01*
X113766061Y-85806642D01*
X113854316Y-85782994D01*
X113945684Y-85782994D01*
X114033939Y-85806642D01*
G37*
G36*
X105135476Y-84431866D02*
G01*
X105259819Y-84503656D01*
X105361344Y-84605181D01*
X105433134Y-84729524D01*
X105470295Y-84868211D01*
X105470295Y-85011789D01*
X105433134Y-85150476D01*
X105361344Y-85274819D01*
X105259819Y-85376344D01*
X105135476Y-85448134D01*
X104996789Y-85485295D01*
X104853211Y-85485295D01*
X104714524Y-85448134D01*
X104590181Y-85376344D01*
X104488656Y-85274819D01*
X104416866Y-85150476D01*
X104379705Y-85011789D01*
X104379705Y-84868211D01*
X104416866Y-84729524D01*
X104488656Y-84605181D01*
X104590181Y-84503656D01*
X104714524Y-84431866D01*
X104853211Y-84394705D01*
X104996789Y-84394705D01*
X105135476Y-84431866D01*
G37*
G36*
X105135476Y-83161866D02*
G01*
X105259819Y-83233656D01*
X105361344Y-83335181D01*
X105433134Y-83459524D01*
X105470295Y-83598211D01*
X105470295Y-83741789D01*
X105433134Y-83880476D01*
X105361344Y-84004819D01*
X105259819Y-84106344D01*
X105135476Y-84178134D01*
X104996789Y-84215295D01*
X104853211Y-84215295D01*
X104714524Y-84178134D01*
X104590181Y-84106344D01*
X104488656Y-84004819D01*
X104416866Y-83880476D01*
X104379705Y-83741789D01*
X104379705Y-83598211D01*
X104416866Y-83459524D01*
X104488656Y-83335181D01*
X104590181Y-83233656D01*
X104714524Y-83161866D01*
X104853211Y-83124705D01*
X104996789Y-83124705D01*
X105135476Y-83161866D01*
G37*
G36*
X105135476Y-81891866D02*
G01*
X105259819Y-81963656D01*
X105361344Y-82065181D01*
X105433134Y-82189524D01*
X105470295Y-82328211D01*
X105470295Y-82471789D01*
X105433134Y-82610476D01*
X105361344Y-82734819D01*
X105259819Y-82836344D01*
X105135476Y-82908134D01*
X104996789Y-82945295D01*
X104853211Y-82945295D01*
X104714524Y-82908134D01*
X104590181Y-82836344D01*
X104488656Y-82734819D01*
X104416866Y-82610476D01*
X104379705Y-82471789D01*
X104379705Y-82328211D01*
X104416866Y-82189524D01*
X104488656Y-82065181D01*
X104590181Y-81963656D01*
X104714524Y-81891866D01*
X104853211Y-81854705D01*
X104996789Y-81854705D01*
X105135476Y-81891866D01*
G37*
G36*
X107220476Y-81031866D02*
G01*
X107344819Y-81103656D01*
X107446344Y-81205181D01*
X107518134Y-81329524D01*
X107555295Y-81468211D01*
X107560000Y-81540000D01*
X107560000Y-82140000D01*
X107555295Y-82211789D01*
X107518134Y-82350476D01*
X107446344Y-82474819D01*
X107344819Y-82576344D01*
X107220476Y-82648134D01*
X107081789Y-82685295D01*
X106938211Y-82685295D01*
X106799524Y-82648134D01*
X106675181Y-82576344D01*
X106573656Y-82474819D01*
X106501866Y-82350476D01*
X106464705Y-82211789D01*
X106460000Y-82140000D01*
X106460000Y-81540000D01*
X106464705Y-81468211D01*
X106501866Y-81329524D01*
X106573656Y-81205181D01*
X106675181Y-81103656D01*
X106799524Y-81031866D01*
X106938211Y-80994705D01*
X107081789Y-80994705D01*
X107220476Y-81031866D01*
G37*
G36*
X116200476Y-81031866D02*
G01*
X116324819Y-81103656D01*
X116426344Y-81205181D01*
X116498134Y-81329524D01*
X116535295Y-81468211D01*
X116540000Y-81540000D01*
X116540000Y-82140000D01*
X116535295Y-82211789D01*
X116498134Y-82350476D01*
X116426344Y-82474819D01*
X116324819Y-82576344D01*
X116200476Y-82648134D01*
X116061789Y-82685295D01*
X115918211Y-82685295D01*
X115779524Y-82648134D01*
X115655181Y-82576344D01*
X115553656Y-82474819D01*
X115481866Y-82350476D01*
X115444705Y-82211789D01*
X115440000Y-82140000D01*
X115440000Y-81540000D01*
X115444705Y-81468211D01*
X115481866Y-81329524D01*
X115553656Y-81205181D01*
X115655181Y-81103656D01*
X115779524Y-81031866D01*
X115918211Y-80994705D01*
X116061789Y-80994705D01*
X116200476Y-81031866D01*
G37*
G36*
X118460747Y-80555261D02*
G01*
X118592234Y-80609725D01*
X118710570Y-80688794D01*
X118811206Y-80789430D01*
X118890275Y-80907766D01*
X118944739Y-81039253D01*
X118972504Y-81178840D01*
X118972504Y-81321160D01*
X118944739Y-81460747D01*
X118890275Y-81592234D01*
X118811206Y-81710570D01*
X118710570Y-81811206D01*
X118592234Y-81890275D01*
X118460747Y-81944739D01*
X118321160Y-81972504D01*
X118178840Y-81972504D01*
X118039253Y-81944739D01*
X117907766Y-81890275D01*
X117789430Y-81811206D01*
X117688794Y-81710570D01*
X117609725Y-81592234D01*
X117555261Y-81460747D01*
X117527496Y-81321160D01*
X117527496Y-81178840D01*
X117555261Y-81039253D01*
X117609725Y-80907766D01*
X117688794Y-80789430D01*
X117789430Y-80688794D01*
X117907766Y-80609725D01*
X118039253Y-80555261D01*
X118178840Y-80527496D01*
X118321160Y-80527496D01*
X118460747Y-80555261D01*
G37*
G36*
X105135476Y-80621866D02*
G01*
X105259819Y-80693656D01*
X105361344Y-80795181D01*
X105433134Y-80919524D01*
X105470295Y-81058211D01*
X105470295Y-81201789D01*
X105433134Y-81340476D01*
X105361344Y-81464819D01*
X105259819Y-81566344D01*
X105135476Y-81638134D01*
X104996789Y-81675295D01*
X104853211Y-81675295D01*
X104714524Y-81638134D01*
X104590181Y-81566344D01*
X104488656Y-81464819D01*
X104416866Y-81340476D01*
X104379705Y-81201789D01*
X104379705Y-81058211D01*
X104416866Y-80919524D01*
X104488656Y-80795181D01*
X104590181Y-80693656D01*
X104714524Y-80621866D01*
X104853211Y-80584705D01*
X104996789Y-80584705D01*
X105135476Y-80621866D01*
G37*
%LPD*%
M02*
