%TF.GenerationSoftware,KiCad,Pcbnew,9.0.4*%
%TF.CreationDate,2025-09-03T13:38:36-07:00*%
%TF.ProjectId,k1-aioc,6b312d61-696f-4632-9e6b-696361645f70,rev?*%
%TF.SameCoordinates,Original*%
%TF.FileFunction,Legend,Top*%
%TF.FilePolarity,Positive*%
%FSLAX46Y46*%
G04 Gerber Fmt 4.6, Leading zero omitted, Abs format (unit mm)*
G04 Created by KiCad (PCBNEW 9.0.4) date 2025-09-03 13:38:36*
%MOMM*%
%LPD*%
G01*
G04 APERTURE LIST*
%ADD10C,0.200000*%
%ADD11C,0.150000*%
%ADD12C,0.250000*%
%ADD13C,0.120000*%
G04 APERTURE END LIST*
D10*
X105850000Y-80750000D02*
G75*
G02*
X105650000Y-80750000I-100000J0D01*
G01*
X105650000Y-80750000D02*
G75*
G02*
X105850000Y-80750000I100000J0D01*
G01*
D11*
X104738095Y-99154819D02*
X104738095Y-99964342D01*
X104738095Y-99964342D02*
X104785714Y-100059580D01*
X104785714Y-100059580D02*
X104833333Y-100107200D01*
X104833333Y-100107200D02*
X104928571Y-100154819D01*
X104928571Y-100154819D02*
X105119047Y-100154819D01*
X105119047Y-100154819D02*
X105214285Y-100107200D01*
X105214285Y-100107200D02*
X105261904Y-100059580D01*
X105261904Y-100059580D02*
X105309523Y-99964342D01*
X105309523Y-99964342D02*
X105309523Y-99154819D01*
X106309523Y-100154819D02*
X105738095Y-100154819D01*
X106023809Y-100154819D02*
X106023809Y-99154819D01*
X106023809Y-99154819D02*
X105928571Y-99297676D01*
X105928571Y-99297676D02*
X105833333Y-99392914D01*
X105833333Y-99392914D02*
X105738095Y-99440533D01*
X111166666Y-91614819D02*
X111166666Y-92329104D01*
X111166666Y-92329104D02*
X111119047Y-92471961D01*
X111119047Y-92471961D02*
X111023809Y-92567200D01*
X111023809Y-92567200D02*
X110880952Y-92614819D01*
X110880952Y-92614819D02*
X110785714Y-92614819D01*
X112166666Y-92614819D02*
X111595238Y-92614819D01*
X111880952Y-92614819D02*
X111880952Y-91614819D01*
X111880952Y-91614819D02*
X111785714Y-91757676D01*
X111785714Y-91757676D02*
X111690476Y-91852914D01*
X111690476Y-91852914D02*
X111595238Y-91900533D01*
D12*
%TO.C,U1*%
X104300000Y-93750000D02*
X104300000Y-95750000D01*
X106700000Y-93750000D02*
X106700000Y-95750000D01*
X106700000Y-95750000D02*
X106620000Y-95750000D01*
X104380000Y-95750000D02*
X104300000Y-95750000D01*
X106700000Y-93750000D02*
X106620000Y-93750000D01*
X104380000Y-93750000D02*
X104300000Y-93750000D01*
D10*
X106660000Y-93400000D02*
G75*
G02*
X106460000Y-93400000I-100000J0D01*
G01*
X106460000Y-93400000D02*
G75*
G02*
X106660000Y-93400000I100000J0D01*
G01*
D12*
%TO.C,J1*%
X115960000Y-79310000D02*
X107040000Y-79310000D01*
X115960000Y-89160000D02*
X107040000Y-89160000D01*
X107040000Y-89160000D02*
X107040000Y-87190000D01*
X107040000Y-85280000D02*
X107040000Y-82880000D01*
X107040000Y-80810000D02*
X107040000Y-79310000D01*
X115960000Y-89160000D02*
X115960000Y-87190000D01*
X115960000Y-85280000D02*
X115960000Y-82880000D01*
X115960000Y-80810000D02*
X115960000Y-79310000D01*
X114940000Y-85690000D02*
X114240000Y-85690000D01*
X113560000Y-85690000D02*
X113440000Y-85690000D01*
X112760000Y-85690000D02*
X112640000Y-85690000D01*
X111960000Y-85690000D02*
X111040000Y-85690000D01*
X110360000Y-85690000D02*
X110240000Y-85690000D01*
X109560000Y-85690000D02*
X109440000Y-85690000D01*
X108760000Y-85690000D02*
X108060000Y-85690000D01*
D13*
%TO.C,R2*%
X119987258Y-101477500D02*
X119512742Y-101477500D01*
X119987258Y-102522500D02*
X119512742Y-102522500D01*
%TO.C,D2*%
X104700000Y-105735000D02*
X106985000Y-105735000D01*
X106985000Y-104265000D02*
X104700000Y-104265000D01*
X106985000Y-105735000D02*
X106985000Y-104265000D01*
%TO.C,C11*%
X118890580Y-91490000D02*
X118609420Y-91490000D01*
X118890580Y-92510000D02*
X118609420Y-92510000D01*
%TO.C,R15*%
X105262742Y-101477500D02*
X105737258Y-101477500D01*
X105262742Y-102522500D02*
X105737258Y-102522500D01*
%TO.C,C1*%
X107640580Y-105990000D02*
X107359420Y-105990000D01*
X107640580Y-107010000D02*
X107359420Y-107010000D01*
%TO.C,D1*%
X104015000Y-102765000D02*
X104015000Y-104235000D01*
X104015000Y-104235000D02*
X106300000Y-104235000D01*
X106300000Y-102765000D02*
X104015000Y-102765000D01*
%TO.C,C9*%
X112990000Y-106109420D02*
X112990000Y-106390580D01*
X114010000Y-106109420D02*
X114010000Y-106390580D01*
%TO.C,C12*%
X122609420Y-102990000D02*
X122890580Y-102990000D01*
X122609420Y-104010000D02*
X122890580Y-104010000D01*
%TO.C,R13*%
X117477500Y-109262742D02*
X117477500Y-109737258D01*
X118522500Y-109262742D02*
X118522500Y-109737258D01*
%TO.C,FB2*%
X107240000Y-91662779D02*
X107240000Y-91337221D01*
X108260000Y-91662779D02*
X108260000Y-91337221D01*
%TO.C,R8*%
X114227500Y-91762742D02*
X114227500Y-92237258D01*
X115272500Y-91762742D02*
X115272500Y-92237258D01*
%TO.C,R11*%
X115977500Y-106012742D02*
X115977500Y-106487258D01*
X117022500Y-106012742D02*
X117022500Y-106487258D01*
%TO.C,R9*%
X112727500Y-91762742D02*
X112727500Y-92237258D01*
X113772500Y-91762742D02*
X113772500Y-92237258D01*
%TO.C,U2*%
X109140000Y-95640000D02*
X109590000Y-95640000D01*
X109140000Y-96090000D02*
X109140000Y-95640000D01*
X109140000Y-102410000D02*
X109140000Y-102860000D01*
X109140000Y-102860000D02*
X109590000Y-102860000D01*
X109590000Y-102860000D02*
X109590000Y-104150000D01*
X116360000Y-95640000D02*
X115910000Y-95640000D01*
X116360000Y-96090000D02*
X116360000Y-95640000D01*
X116360000Y-102410000D02*
X116360000Y-102860000D01*
X116360000Y-102860000D02*
X115910000Y-102860000D01*
%TO.C,C6*%
X105740000Y-91640580D02*
X105740000Y-91359420D01*
X106760000Y-91640580D02*
X106760000Y-91359420D01*
%TO.C,R4*%
X122987258Y-101477500D02*
X122512742Y-101477500D01*
X122987258Y-102522500D02*
X122512742Y-102522500D01*
%TO.C,FB1*%
X105740000Y-98162779D02*
X105740000Y-97837221D01*
X106760000Y-98162779D02*
X106760000Y-97837221D01*
%TO.C,C3*%
X104240000Y-91640580D02*
X104240000Y-91359420D01*
X105260000Y-91640580D02*
X105260000Y-91359420D01*
%TO.C,C2*%
X110859420Y-105990000D02*
X111140580Y-105990000D01*
X110859420Y-107010000D02*
X111140580Y-107010000D01*
%TO.C,R10*%
X114477500Y-106012742D02*
X114477500Y-106487258D01*
X115522500Y-106012742D02*
X115522500Y-106487258D01*
%TO.C,C4*%
X107240000Y-94640580D02*
X107240000Y-94359420D01*
X108260000Y-94640580D02*
X108260000Y-94359420D01*
%TO.C,R1*%
X110512742Y-91477500D02*
X110987258Y-91477500D01*
X110512742Y-92522500D02*
X110987258Y-92522500D01*
%TO.C,C5*%
X104240000Y-97859420D02*
X104240000Y-98140580D01*
X105260000Y-97859420D02*
X105260000Y-98140580D01*
%TO.C,Q1*%
X115050000Y-110660000D02*
X116450000Y-110660000D01*
X116450000Y-108340000D02*
X114550000Y-108340000D01*
%TO.C,C14*%
X121609420Y-91490000D02*
X121890580Y-91490000D01*
X121609420Y-92510000D02*
X121890580Y-92510000D01*
%TO.C,R17*%
X119987258Y-102977500D02*
X119512742Y-102977500D01*
X119987258Y-104022500D02*
X119512742Y-104022500D01*
%TO.C,R5*%
X118512742Y-89977500D02*
X118987258Y-89977500D01*
X118512742Y-91022500D02*
X118987258Y-91022500D01*
%TO.C,C15*%
X104240000Y-107390580D02*
X104240000Y-107109420D01*
X105260000Y-107390580D02*
X105260000Y-107109420D01*
%TO.C,C7*%
X119609420Y-99990000D02*
X119890580Y-99990000D01*
X119609420Y-101010000D02*
X119890580Y-101010000D01*
%TO.C,J2*%
X103815000Y-87990000D02*
X103815000Y-80435000D01*
X104361529Y-87990000D02*
X103815000Y-87990000D01*
X104617470Y-80435000D02*
X103815000Y-80435000D01*
X106035000Y-80435000D02*
X105232530Y-80435000D01*
X106035000Y-87990000D02*
X105488471Y-87990000D01*
X106035000Y-87990000D02*
X106035000Y-80435000D01*
X106035000Y-88750000D02*
X106035000Y-89510000D01*
X106035000Y-89510000D02*
X104925000Y-89510000D01*
%TO.C,C8*%
X107740000Y-103859420D02*
X107740000Y-104140580D01*
X108760000Y-103859420D02*
X108760000Y-104140580D01*
%TO.C,R16*%
X118512742Y-92977500D02*
X118987258Y-92977500D01*
X118512742Y-94022500D02*
X118987258Y-94022500D01*
%TO.C,R3*%
X118512742Y-94477500D02*
X118987258Y-94477500D01*
X118512742Y-95522500D02*
X118987258Y-95522500D01*
%TO.C,C10*%
X115740000Y-92140580D02*
X115740000Y-91859420D01*
X116760000Y-92140580D02*
X116760000Y-91859420D01*
%TO.C,R14*%
X105262742Y-99977500D02*
X105737258Y-99977500D01*
X105262742Y-101022500D02*
X105737258Y-101022500D01*
%TO.C,R6*%
X117227500Y-84262742D02*
X117227500Y-84737258D01*
X118272500Y-84262742D02*
X118272500Y-84737258D01*
%TO.C,C13*%
X118990000Y-106109420D02*
X118990000Y-106390580D01*
X120010000Y-106109420D02*
X120010000Y-106390580D01*
%TO.C,Y1*%
X106200000Y-107450000D02*
X106200000Y-111050000D01*
X106200000Y-111050000D02*
X111950000Y-111050000D01*
X111950000Y-107450000D02*
X106200000Y-107450000D01*
%TO.C,R12*%
X117477500Y-106012742D02*
X117477500Y-106487258D01*
X118522500Y-106012742D02*
X118522500Y-106487258D01*
%TO.C,R7*%
X117227500Y-87737258D02*
X117227500Y-87262742D01*
X118272500Y-87737258D02*
X118272500Y-87262742D01*
%TD*%
%LPC*%
G36*
X124514632Y-109176441D02*
G01*
X124541668Y-109187640D01*
X124562360Y-109208332D01*
X124573559Y-109235368D01*
X124575000Y-109250000D01*
X124575000Y-111250000D01*
X124573559Y-111264632D01*
X124562360Y-111291668D01*
X124541668Y-111312360D01*
X124514632Y-111323559D01*
X124500000Y-111325000D01*
X124497546Y-111325000D01*
X119502454Y-111325000D01*
X119500000Y-111325000D01*
X119485368Y-111323559D01*
X119458332Y-111312360D01*
X119437640Y-111291668D01*
X119426441Y-111264632D01*
X119425000Y-111250000D01*
X119425000Y-109250000D01*
X119426441Y-109235368D01*
X119437640Y-109208332D01*
X119458332Y-109187640D01*
X119485368Y-109176441D01*
X119500000Y-109175000D01*
X124500000Y-109175000D01*
X124514632Y-109176441D01*
G37*
G36*
X104960747Y-109555261D02*
G01*
X105092234Y-109609725D01*
X105210570Y-109688794D01*
X105311206Y-109789430D01*
X105390275Y-109907766D01*
X105444739Y-110039253D01*
X105472504Y-110178840D01*
X105472504Y-110321160D01*
X105444739Y-110460747D01*
X105390275Y-110592234D01*
X105311206Y-110710570D01*
X105210570Y-110811206D01*
X105092234Y-110890275D01*
X104960747Y-110944739D01*
X104821160Y-110972504D01*
X104678840Y-110972504D01*
X104539253Y-110944739D01*
X104407766Y-110890275D01*
X104289430Y-110811206D01*
X104188794Y-110710570D01*
X104109725Y-110592234D01*
X104055261Y-110460747D01*
X104027496Y-110321160D01*
X104027496Y-110178840D01*
X104055261Y-110039253D01*
X104109725Y-109907766D01*
X104188794Y-109789430D01*
X104289430Y-109688794D01*
X104407766Y-109609725D01*
X104539253Y-109555261D01*
X104678840Y-109527496D01*
X104821160Y-109527496D01*
X104960747Y-109555261D01*
G37*
G36*
X118279047Y-109875805D02*
G01*
X118330408Y-109881764D01*
X118347954Y-109889511D01*
X118370671Y-109894030D01*
X118394991Y-109910280D01*
X118415793Y-109919465D01*
X118430000Y-109933672D01*
X118451777Y-109948223D01*
X118466327Y-109969999D01*
X118480534Y-109984206D01*
X118489718Y-110005006D01*
X118505970Y-110029329D01*
X118510489Y-110052048D01*
X118518235Y-110069591D01*
X118524192Y-110120940D01*
X118525000Y-110125000D01*
X118525000Y-110525000D01*
X118524192Y-110529059D01*
X118518235Y-110580408D01*
X118510489Y-110597950D01*
X118505970Y-110620671D01*
X118489716Y-110644995D01*
X118480534Y-110665793D01*
X118466329Y-110679997D01*
X118451777Y-110701777D01*
X118429997Y-110716329D01*
X118415793Y-110730534D01*
X118394995Y-110739716D01*
X118370671Y-110755970D01*
X118347950Y-110760489D01*
X118330408Y-110768235D01*
X118279061Y-110774192D01*
X118275000Y-110775000D01*
X117725000Y-110775000D01*
X117720941Y-110774192D01*
X117669591Y-110768235D01*
X117652048Y-110760489D01*
X117629329Y-110755970D01*
X117605006Y-110739718D01*
X117584206Y-110730534D01*
X117569999Y-110716327D01*
X117548223Y-110701777D01*
X117533672Y-110680000D01*
X117519465Y-110665793D01*
X117510280Y-110644991D01*
X117494030Y-110620671D01*
X117489511Y-110597954D01*
X117481764Y-110580408D01*
X117475805Y-110529049D01*
X117475000Y-110525000D01*
X117475000Y-110125000D01*
X117475804Y-110120953D01*
X117481764Y-110069591D01*
X117489511Y-110052043D01*
X117494030Y-110029329D01*
X117510278Y-110005010D01*
X117519465Y-109984206D01*
X117533674Y-109969996D01*
X117548223Y-109948223D01*
X117569996Y-109933674D01*
X117584206Y-109919465D01*
X117605010Y-109910278D01*
X117629329Y-109894030D01*
X117652043Y-109889511D01*
X117669591Y-109881764D01*
X117720952Y-109875805D01*
X117725000Y-109875000D01*
X118275000Y-109875000D01*
X118279047Y-109875805D01*
G37*
G36*
X108419134Y-108003806D02*
G01*
X108435355Y-108014645D01*
X108446194Y-108030866D01*
X108450000Y-108050000D01*
X108450000Y-110450000D01*
X108446194Y-110469134D01*
X108435355Y-110485355D01*
X108419134Y-110496194D01*
X108400000Y-110500000D01*
X106400000Y-110500000D01*
X106380866Y-110496194D01*
X106364645Y-110485355D01*
X106353806Y-110469134D01*
X106350000Y-110450000D01*
X106350000Y-108050000D01*
X106353806Y-108030866D01*
X106364645Y-108014645D01*
X106380866Y-108003806D01*
X106400000Y-108000000D01*
X108400000Y-108000000D01*
X108419134Y-108003806D01*
G37*
G36*
X112119134Y-108003806D02*
G01*
X112135355Y-108014645D01*
X112146194Y-108030866D01*
X112150000Y-108050000D01*
X112150000Y-110450000D01*
X112146194Y-110469134D01*
X112135355Y-110485355D01*
X112119134Y-110496194D01*
X112100000Y-110500000D01*
X110100000Y-110500000D01*
X110080866Y-110496194D01*
X110064645Y-110485355D01*
X110053806Y-110469134D01*
X110050000Y-110450000D01*
X110050000Y-108050000D01*
X110053806Y-108030866D01*
X110064645Y-108014645D01*
X110080866Y-108003806D01*
X110100000Y-108000000D01*
X112100000Y-108000000D01*
X112119134Y-108003806D01*
G37*
G36*
X115144134Y-109903806D02*
G01*
X115160355Y-109914645D01*
X115171194Y-109930866D01*
X115175000Y-109950000D01*
X115175000Y-110350000D01*
X115171194Y-110369134D01*
X115160355Y-110385355D01*
X115144134Y-110396194D01*
X115125000Y-110400000D01*
X114475000Y-110400000D01*
X114455866Y-110396194D01*
X114439645Y-110385355D01*
X114428806Y-110369134D01*
X114425000Y-110350000D01*
X114425000Y-109950000D01*
X114428806Y-109930866D01*
X114439645Y-109914645D01*
X114455866Y-109903806D01*
X114475000Y-109900000D01*
X115125000Y-109900000D01*
X115144134Y-109903806D01*
G37*
G36*
X117044134Y-109903806D02*
G01*
X117060355Y-109914645D01*
X117071194Y-109930866D01*
X117075000Y-109950000D01*
X117075000Y-110350000D01*
X117071194Y-110369134D01*
X117060355Y-110385355D01*
X117044134Y-110396194D01*
X117025000Y-110400000D01*
X116375000Y-110400000D01*
X116355866Y-110396194D01*
X116339645Y-110385355D01*
X116328806Y-110369134D01*
X116325000Y-110350000D01*
X116325000Y-109950000D01*
X116328806Y-109930866D01*
X116339645Y-109914645D01*
X116355866Y-109903806D01*
X116375000Y-109900000D01*
X117025000Y-109900000D01*
X117044134Y-109903806D01*
G37*
G36*
X115144134Y-109253806D02*
G01*
X115160355Y-109264645D01*
X115171194Y-109280866D01*
X115175000Y-109300000D01*
X115175000Y-109700000D01*
X115171194Y-109719134D01*
X115160355Y-109735355D01*
X115144134Y-109746194D01*
X115125000Y-109750000D01*
X114475000Y-109750000D01*
X114455866Y-109746194D01*
X114439645Y-109735355D01*
X114428806Y-109719134D01*
X114425000Y-109700000D01*
X114425000Y-109300000D01*
X114428806Y-109280866D01*
X114439645Y-109264645D01*
X114455866Y-109253806D01*
X114475000Y-109250000D01*
X115125000Y-109250000D01*
X115144134Y-109253806D01*
G37*
G36*
X117044134Y-109253806D02*
G01*
X117060355Y-109264645D01*
X117071194Y-109280866D01*
X117075000Y-109300000D01*
X117075000Y-109700000D01*
X117071194Y-109719134D01*
X117060355Y-109735355D01*
X117044134Y-109746194D01*
X117025000Y-109750000D01*
X116375000Y-109750000D01*
X116355866Y-109746194D01*
X116339645Y-109735355D01*
X116328806Y-109719134D01*
X116325000Y-109700000D01*
X116325000Y-109300000D01*
X116328806Y-109280866D01*
X116339645Y-109264645D01*
X116355866Y-109253806D01*
X116375000Y-109250000D01*
X117025000Y-109250000D01*
X117044134Y-109253806D01*
G37*
G36*
X118279047Y-108225805D02*
G01*
X118330408Y-108231764D01*
X118347954Y-108239511D01*
X118370671Y-108244030D01*
X118394991Y-108260280D01*
X118415793Y-108269465D01*
X118430000Y-108283672D01*
X118451777Y-108298223D01*
X118466327Y-108319999D01*
X118480534Y-108334206D01*
X118489718Y-108355006D01*
X118505970Y-108379329D01*
X118510489Y-108402048D01*
X118518235Y-108419591D01*
X118524192Y-108470940D01*
X118525000Y-108475000D01*
X118525000Y-108875000D01*
X118524192Y-108879059D01*
X118518235Y-108930408D01*
X118510489Y-108947950D01*
X118505970Y-108970671D01*
X118489716Y-108994995D01*
X118480534Y-109015793D01*
X118466329Y-109029997D01*
X118451777Y-109051777D01*
X118429997Y-109066329D01*
X118415793Y-109080534D01*
X118394995Y-109089716D01*
X118370671Y-109105970D01*
X118347950Y-109110489D01*
X118330408Y-109118235D01*
X118279061Y-109124192D01*
X118275000Y-109125000D01*
X117725000Y-109125000D01*
X117720941Y-109124192D01*
X117669591Y-109118235D01*
X117652048Y-109110489D01*
X117629329Y-109105970D01*
X117605006Y-109089718D01*
X117584206Y-109080534D01*
X117569999Y-109066327D01*
X117548223Y-109051777D01*
X117533672Y-109030000D01*
X117519465Y-109015793D01*
X117510280Y-108994991D01*
X117494030Y-108970671D01*
X117489511Y-108947954D01*
X117481764Y-108930408D01*
X117475805Y-108879049D01*
X117475000Y-108875000D01*
X117475000Y-108475000D01*
X117475804Y-108470953D01*
X117481764Y-108419591D01*
X117489511Y-108402043D01*
X117494030Y-108379329D01*
X117510278Y-108355010D01*
X117519465Y-108334206D01*
X117533674Y-108319996D01*
X117548223Y-108298223D01*
X117569996Y-108283674D01*
X117584206Y-108269465D01*
X117605010Y-108260278D01*
X117629329Y-108244030D01*
X117652043Y-108239511D01*
X117669591Y-108231764D01*
X117720952Y-108225805D01*
X117725000Y-108225000D01*
X118275000Y-108225000D01*
X118279047Y-108225805D01*
G37*
G36*
X115144134Y-108603806D02*
G01*
X115160355Y-108614645D01*
X115171194Y-108630866D01*
X115175000Y-108650000D01*
X115175000Y-109050000D01*
X115171194Y-109069134D01*
X115160355Y-109085355D01*
X115144134Y-109096194D01*
X115125000Y-109100000D01*
X114475000Y-109100000D01*
X114455866Y-109096194D01*
X114439645Y-109085355D01*
X114428806Y-109069134D01*
X114425000Y-109050000D01*
X114425000Y-108650000D01*
X114428806Y-108630866D01*
X114439645Y-108614645D01*
X114455866Y-108603806D01*
X114475000Y-108600000D01*
X115125000Y-108600000D01*
X115144134Y-108603806D01*
G37*
G36*
X117044134Y-108603806D02*
G01*
X117060355Y-108614645D01*
X117071194Y-108630866D01*
X117075000Y-108650000D01*
X117075000Y-109050000D01*
X117071194Y-109069134D01*
X117060355Y-109085355D01*
X117044134Y-109096194D01*
X117025000Y-109100000D01*
X116375000Y-109100000D01*
X116355866Y-109096194D01*
X116339645Y-109085355D01*
X116328806Y-109069134D01*
X116325000Y-109050000D01*
X116325000Y-108650000D01*
X116328806Y-108630866D01*
X116339645Y-108614645D01*
X116355866Y-108603806D01*
X116375000Y-108600000D01*
X117025000Y-108600000D01*
X117044134Y-108603806D01*
G37*
G36*
X124514632Y-104676441D02*
G01*
X124541668Y-104687640D01*
X124562360Y-104708332D01*
X124573559Y-104735368D01*
X124575000Y-104750000D01*
X124575000Y-108750000D01*
X124573559Y-108764632D01*
X124562360Y-108791668D01*
X124541668Y-108812360D01*
X124514632Y-108823559D01*
X124500000Y-108825000D01*
X124497546Y-108825000D01*
X120502454Y-108825000D01*
X120500000Y-108825000D01*
X120485368Y-108823559D01*
X120458332Y-108812360D01*
X120437640Y-108791668D01*
X120426441Y-108764632D01*
X120425000Y-108750000D01*
X120425000Y-104750000D01*
X120426441Y-104735368D01*
X120437640Y-104708332D01*
X120458332Y-104687640D01*
X120485368Y-104676441D01*
X120500000Y-104675000D01*
X124500000Y-104675000D01*
X124514632Y-104676441D01*
G37*
G36*
X105006409Y-107526275D02*
G01*
X105069958Y-107534641D01*
X105085943Y-107542095D01*
X105105238Y-107545933D01*
X105130792Y-107563008D01*
X105157290Y-107575364D01*
X105173412Y-107591486D01*
X105194454Y-107605546D01*
X105208513Y-107626587D01*
X105224635Y-107642709D01*
X105236990Y-107669204D01*
X105254067Y-107694762D01*
X105257905Y-107714058D01*
X105265358Y-107730041D01*
X105273722Y-107793577D01*
X105275000Y-107800000D01*
X105275000Y-108250000D01*
X105273722Y-108256424D01*
X105265358Y-108319958D01*
X105257905Y-108335939D01*
X105254067Y-108355238D01*
X105236988Y-108380797D01*
X105224635Y-108407290D01*
X105208516Y-108423408D01*
X105194454Y-108444454D01*
X105173408Y-108458516D01*
X105157290Y-108474635D01*
X105130797Y-108486988D01*
X105105238Y-108504067D01*
X105085939Y-108507905D01*
X105069958Y-108515358D01*
X105006424Y-108523722D01*
X105000000Y-108525000D01*
X104500000Y-108525000D01*
X104493577Y-108523722D01*
X104430041Y-108515358D01*
X104414058Y-108507905D01*
X104394762Y-108504067D01*
X104369204Y-108486990D01*
X104342709Y-108474635D01*
X104326587Y-108458513D01*
X104305546Y-108444454D01*
X104291486Y-108423412D01*
X104275364Y-108407290D01*
X104263008Y-108380792D01*
X104245933Y-108355238D01*
X104242095Y-108335943D01*
X104234641Y-108319958D01*
X104226275Y-108256409D01*
X104225000Y-108250000D01*
X104225000Y-107800000D01*
X104226274Y-107793592D01*
X104234641Y-107730041D01*
X104242095Y-107714054D01*
X104245933Y-107694762D01*
X104263006Y-107669209D01*
X104275364Y-107642709D01*
X104291488Y-107626584D01*
X104305546Y-107605546D01*
X104326584Y-107591488D01*
X104342709Y-107575364D01*
X104369209Y-107563006D01*
X104394762Y-107545933D01*
X104414054Y-107542095D01*
X104430041Y-107534641D01*
X104493592Y-107526274D01*
X104500000Y-107525000D01*
X105000000Y-107525000D01*
X105006409Y-107526275D01*
G37*
G36*
X113756409Y-106526275D02*
G01*
X113819958Y-106534641D01*
X113835943Y-106542095D01*
X113855238Y-106545933D01*
X113880792Y-106563008D01*
X113907290Y-106575364D01*
X113923412Y-106591486D01*
X113944454Y-106605546D01*
X113958513Y-106626587D01*
X113974635Y-106642709D01*
X113986990Y-106669204D01*
X114004067Y-106694762D01*
X114007905Y-106714058D01*
X114015358Y-106730041D01*
X114023722Y-106793577D01*
X114025000Y-106800000D01*
X114025000Y-107250000D01*
X114023722Y-107256424D01*
X114015358Y-107319958D01*
X114007905Y-107335939D01*
X114004067Y-107355238D01*
X113986988Y-107380797D01*
X113974635Y-107407290D01*
X113958516Y-107423408D01*
X113944454Y-107444454D01*
X113923408Y-107458516D01*
X113907290Y-107474635D01*
X113880797Y-107486988D01*
X113855238Y-107504067D01*
X113835939Y-107507905D01*
X113819958Y-107515358D01*
X113756424Y-107523722D01*
X113750000Y-107525000D01*
X113250000Y-107525000D01*
X113243577Y-107523722D01*
X113180041Y-107515358D01*
X113164058Y-107507905D01*
X113144762Y-107504067D01*
X113119204Y-107486990D01*
X113092709Y-107474635D01*
X113076587Y-107458513D01*
X113055546Y-107444454D01*
X113041486Y-107423412D01*
X113025364Y-107407290D01*
X113013008Y-107380792D01*
X112995933Y-107355238D01*
X112992095Y-107335943D01*
X112984641Y-107319958D01*
X112976275Y-107256409D01*
X112975000Y-107250000D01*
X112975000Y-106800000D01*
X112976274Y-106793592D01*
X112984641Y-106730041D01*
X112992095Y-106714054D01*
X112995933Y-106694762D01*
X113013006Y-106669209D01*
X113025364Y-106642709D01*
X113041488Y-106626584D01*
X113055546Y-106605546D01*
X113076584Y-106591488D01*
X113092709Y-106575364D01*
X113119209Y-106563006D01*
X113144762Y-106545933D01*
X113164054Y-106542095D01*
X113180041Y-106534641D01*
X113243592Y-106526274D01*
X113250000Y-106525000D01*
X113750000Y-106525000D01*
X113756409Y-106526275D01*
G37*
G36*
X115279047Y-106625805D02*
G01*
X115330408Y-106631764D01*
X115347954Y-106639511D01*
X115370671Y-106644030D01*
X115394991Y-106660280D01*
X115415793Y-106669465D01*
X115430000Y-106683672D01*
X115451777Y-106698223D01*
X115466327Y-106719999D01*
X115480534Y-106734206D01*
X115489718Y-106755006D01*
X115505970Y-106779329D01*
X115510489Y-106802048D01*
X115518235Y-106819591D01*
X115524192Y-106870940D01*
X115525000Y-106875000D01*
X115525000Y-107275000D01*
X115524192Y-107279059D01*
X115518235Y-107330408D01*
X115510489Y-107347950D01*
X115505970Y-107370671D01*
X115489716Y-107394995D01*
X115480534Y-107415793D01*
X115466329Y-107429997D01*
X115451777Y-107451777D01*
X115429997Y-107466329D01*
X115415793Y-107480534D01*
X115394995Y-107489716D01*
X115370671Y-107505970D01*
X115347950Y-107510489D01*
X115330408Y-107518235D01*
X115279061Y-107524192D01*
X115275000Y-107525000D01*
X114725000Y-107525000D01*
X114720941Y-107524192D01*
X114669591Y-107518235D01*
X114652048Y-107510489D01*
X114629329Y-107505970D01*
X114605006Y-107489718D01*
X114584206Y-107480534D01*
X114569999Y-107466327D01*
X114548223Y-107451777D01*
X114533672Y-107430000D01*
X114519465Y-107415793D01*
X114510280Y-107394991D01*
X114494030Y-107370671D01*
X114489511Y-107347954D01*
X114481764Y-107330408D01*
X114475805Y-107279049D01*
X114475000Y-107275000D01*
X114475000Y-106875000D01*
X114475804Y-106870953D01*
X114481764Y-106819591D01*
X114489511Y-106802043D01*
X114494030Y-106779329D01*
X114510278Y-106755010D01*
X114519465Y-106734206D01*
X114533674Y-106719996D01*
X114548223Y-106698223D01*
X114569996Y-106683674D01*
X114584206Y-106669465D01*
X114605010Y-106660278D01*
X114629329Y-106644030D01*
X114652043Y-106639511D01*
X114669591Y-106631764D01*
X114720952Y-106625805D01*
X114725000Y-106625000D01*
X115275000Y-106625000D01*
X115279047Y-106625805D01*
G37*
G36*
X116779047Y-106625805D02*
G01*
X116830408Y-106631764D01*
X116847954Y-106639511D01*
X116870671Y-106644030D01*
X116894991Y-106660280D01*
X116915793Y-106669465D01*
X116930000Y-106683672D01*
X116951777Y-106698223D01*
X116966327Y-106719999D01*
X116980534Y-106734206D01*
X116989718Y-106755006D01*
X117005970Y-106779329D01*
X117010489Y-106802048D01*
X117018235Y-106819591D01*
X117024192Y-106870940D01*
X117025000Y-106875000D01*
X117025000Y-107275000D01*
X117024192Y-107279059D01*
X117018235Y-107330408D01*
X117010489Y-107347950D01*
X117005970Y-107370671D01*
X116989716Y-107394995D01*
X116980534Y-107415793D01*
X116966329Y-107429997D01*
X116951777Y-107451777D01*
X116929997Y-107466329D01*
X116915793Y-107480534D01*
X116894995Y-107489716D01*
X116870671Y-107505970D01*
X116847950Y-107510489D01*
X116830408Y-107518235D01*
X116779061Y-107524192D01*
X116775000Y-107525000D01*
X116225000Y-107525000D01*
X116220941Y-107524192D01*
X116169591Y-107518235D01*
X116152048Y-107510489D01*
X116129329Y-107505970D01*
X116105006Y-107489718D01*
X116084206Y-107480534D01*
X116069999Y-107466327D01*
X116048223Y-107451777D01*
X116033672Y-107430000D01*
X116019465Y-107415793D01*
X116010280Y-107394991D01*
X115994030Y-107370671D01*
X115989511Y-107347954D01*
X115981764Y-107330408D01*
X115975805Y-107279049D01*
X115975000Y-107275000D01*
X115975000Y-106875000D01*
X115975804Y-106870953D01*
X115981764Y-106819591D01*
X115989511Y-106802043D01*
X115994030Y-106779329D01*
X116010278Y-106755010D01*
X116019465Y-106734206D01*
X116033674Y-106719996D01*
X116048223Y-106698223D01*
X116069996Y-106683674D01*
X116084206Y-106669465D01*
X116105010Y-106660278D01*
X116129329Y-106644030D01*
X116152043Y-106639511D01*
X116169591Y-106631764D01*
X116220952Y-106625805D01*
X116225000Y-106625000D01*
X116775000Y-106625000D01*
X116779047Y-106625805D01*
G37*
G36*
X118279047Y-106625805D02*
G01*
X118330408Y-106631764D01*
X118347954Y-106639511D01*
X118370671Y-106644030D01*
X118394991Y-106660280D01*
X118415793Y-106669465D01*
X118430000Y-106683672D01*
X118451777Y-106698223D01*
X118466327Y-106719999D01*
X118480534Y-106734206D01*
X118489718Y-106755006D01*
X118505970Y-106779329D01*
X118510489Y-106802048D01*
X118518235Y-106819591D01*
X118524192Y-106870940D01*
X118525000Y-106875000D01*
X118525000Y-107275000D01*
X118524192Y-107279059D01*
X118518235Y-107330408D01*
X118510489Y-107347950D01*
X118505970Y-107370671D01*
X118489716Y-107394995D01*
X118480534Y-107415793D01*
X118466329Y-107429997D01*
X118451777Y-107451777D01*
X118429997Y-107466329D01*
X118415793Y-107480534D01*
X118394995Y-107489716D01*
X118370671Y-107505970D01*
X118347950Y-107510489D01*
X118330408Y-107518235D01*
X118279061Y-107524192D01*
X118275000Y-107525000D01*
X117725000Y-107525000D01*
X117720941Y-107524192D01*
X117669591Y-107518235D01*
X117652048Y-107510489D01*
X117629329Y-107505970D01*
X117605006Y-107489718D01*
X117584206Y-107480534D01*
X117569999Y-107466327D01*
X117548223Y-107451777D01*
X117533672Y-107430000D01*
X117519465Y-107415793D01*
X117510280Y-107394991D01*
X117494030Y-107370671D01*
X117489511Y-107347954D01*
X117481764Y-107330408D01*
X117475805Y-107279049D01*
X117475000Y-107275000D01*
X117475000Y-106875000D01*
X117475804Y-106870953D01*
X117481764Y-106819591D01*
X117489511Y-106802043D01*
X117494030Y-106779329D01*
X117510278Y-106755010D01*
X117519465Y-106734206D01*
X117533674Y-106719996D01*
X117548223Y-106698223D01*
X117569996Y-106683674D01*
X117584206Y-106669465D01*
X117605010Y-106660278D01*
X117629329Y-106644030D01*
X117652043Y-106639511D01*
X117669591Y-106631764D01*
X117720952Y-106625805D01*
X117725000Y-106625000D01*
X118275000Y-106625000D01*
X118279047Y-106625805D01*
G37*
G36*
X119756409Y-106526275D02*
G01*
X119819958Y-106534641D01*
X119835943Y-106542095D01*
X119855238Y-106545933D01*
X119880792Y-106563008D01*
X119907290Y-106575364D01*
X119923412Y-106591486D01*
X119944454Y-106605546D01*
X119958513Y-106626587D01*
X119974635Y-106642709D01*
X119986990Y-106669204D01*
X120004067Y-106694762D01*
X120007905Y-106714058D01*
X120015358Y-106730041D01*
X120023722Y-106793577D01*
X120025000Y-106800000D01*
X120025000Y-107250000D01*
X120023722Y-107256424D01*
X120015358Y-107319958D01*
X120007905Y-107335939D01*
X120004067Y-107355238D01*
X119986988Y-107380797D01*
X119974635Y-107407290D01*
X119958516Y-107423408D01*
X119944454Y-107444454D01*
X119923408Y-107458516D01*
X119907290Y-107474635D01*
X119880797Y-107486988D01*
X119855238Y-107504067D01*
X119835939Y-107507905D01*
X119819958Y-107515358D01*
X119756424Y-107523722D01*
X119750000Y-107525000D01*
X119250000Y-107525000D01*
X119243577Y-107523722D01*
X119180041Y-107515358D01*
X119164058Y-107507905D01*
X119144762Y-107504067D01*
X119119204Y-107486990D01*
X119092709Y-107474635D01*
X119076587Y-107458513D01*
X119055546Y-107444454D01*
X119041486Y-107423412D01*
X119025364Y-107407290D01*
X119013008Y-107380792D01*
X118995933Y-107355238D01*
X118992095Y-107335943D01*
X118984641Y-107319958D01*
X118976275Y-107256409D01*
X118975000Y-107250000D01*
X118975000Y-106800000D01*
X118976274Y-106793592D01*
X118984641Y-106730041D01*
X118992095Y-106714054D01*
X118995933Y-106694762D01*
X119013006Y-106669209D01*
X119025364Y-106642709D01*
X119041488Y-106626584D01*
X119055546Y-106605546D01*
X119076584Y-106591488D01*
X119092709Y-106575364D01*
X119119209Y-106563006D01*
X119144762Y-106545933D01*
X119164054Y-106542095D01*
X119180041Y-106534641D01*
X119243592Y-106526274D01*
X119250000Y-106525000D01*
X119750000Y-106525000D01*
X119756409Y-106526275D01*
G37*
G36*
X106956409Y-105976275D02*
G01*
X107019958Y-105984641D01*
X107035943Y-105992095D01*
X107055238Y-105995933D01*
X107080792Y-106013008D01*
X107107290Y-106025364D01*
X107123412Y-106041486D01*
X107144454Y-106055546D01*
X107158513Y-106076587D01*
X107174635Y-106092709D01*
X107186990Y-106119204D01*
X107204067Y-106144762D01*
X107207905Y-106164058D01*
X107215358Y-106180041D01*
X107223722Y-106243577D01*
X107225000Y-106250000D01*
X107225000Y-106750000D01*
X107223722Y-106756424D01*
X107215358Y-106819958D01*
X107207905Y-106835939D01*
X107204067Y-106855238D01*
X107186988Y-106880797D01*
X107174635Y-106907290D01*
X107158516Y-106923408D01*
X107144454Y-106944454D01*
X107123408Y-106958516D01*
X107107290Y-106974635D01*
X107080797Y-106986988D01*
X107055238Y-107004067D01*
X107035939Y-107007905D01*
X107019958Y-107015358D01*
X106956424Y-107023722D01*
X106950000Y-107025000D01*
X106500000Y-107025000D01*
X106493577Y-107023722D01*
X106430041Y-107015358D01*
X106414058Y-107007905D01*
X106394762Y-107004067D01*
X106369204Y-106986990D01*
X106342709Y-106974635D01*
X106326587Y-106958513D01*
X106305546Y-106944454D01*
X106291486Y-106923412D01*
X106275364Y-106907290D01*
X106263008Y-106880792D01*
X106245933Y-106855238D01*
X106242095Y-106835943D01*
X106234641Y-106819958D01*
X106226275Y-106756409D01*
X106225000Y-106750000D01*
X106225000Y-106250000D01*
X106226274Y-106243592D01*
X106234641Y-106180041D01*
X106242095Y-106164054D01*
X106245933Y-106144762D01*
X106263006Y-106119209D01*
X106275364Y-106092709D01*
X106291488Y-106076584D01*
X106305546Y-106055546D01*
X106326584Y-106041488D01*
X106342709Y-106025364D01*
X106369209Y-106013006D01*
X106394762Y-105995933D01*
X106414054Y-105992095D01*
X106430041Y-105984641D01*
X106493592Y-105976274D01*
X106500000Y-105975000D01*
X106950000Y-105975000D01*
X106956409Y-105976275D01*
G37*
G36*
X108506409Y-105976275D02*
G01*
X108569958Y-105984641D01*
X108585943Y-105992095D01*
X108605238Y-105995933D01*
X108630792Y-106013008D01*
X108657290Y-106025364D01*
X108673412Y-106041486D01*
X108694454Y-106055546D01*
X108708513Y-106076587D01*
X108724635Y-106092709D01*
X108736990Y-106119204D01*
X108754067Y-106144762D01*
X108757905Y-106164058D01*
X108765358Y-106180041D01*
X108773722Y-106243577D01*
X108775000Y-106250000D01*
X108775000Y-106750000D01*
X108773722Y-106756424D01*
X108765358Y-106819958D01*
X108757905Y-106835939D01*
X108754067Y-106855238D01*
X108736988Y-106880797D01*
X108724635Y-106907290D01*
X108708516Y-106923408D01*
X108694454Y-106944454D01*
X108673408Y-106958516D01*
X108657290Y-106974635D01*
X108630797Y-106986988D01*
X108605238Y-107004067D01*
X108585939Y-107007905D01*
X108569958Y-107015358D01*
X108506424Y-107023722D01*
X108500000Y-107025000D01*
X108050000Y-107025000D01*
X108043577Y-107023722D01*
X107980041Y-107015358D01*
X107964058Y-107007905D01*
X107944762Y-107004067D01*
X107919204Y-106986990D01*
X107892709Y-106974635D01*
X107876587Y-106958513D01*
X107855546Y-106944454D01*
X107841486Y-106923412D01*
X107825364Y-106907290D01*
X107813008Y-106880792D01*
X107795933Y-106855238D01*
X107792095Y-106835943D01*
X107784641Y-106819958D01*
X107776275Y-106756409D01*
X107775000Y-106750000D01*
X107775000Y-106250000D01*
X107776274Y-106243592D01*
X107784641Y-106180041D01*
X107792095Y-106164054D01*
X107795933Y-106144762D01*
X107813006Y-106119209D01*
X107825364Y-106092709D01*
X107841488Y-106076584D01*
X107855546Y-106055546D01*
X107876584Y-106041488D01*
X107892709Y-106025364D01*
X107919209Y-106013006D01*
X107944762Y-105995933D01*
X107964054Y-105992095D01*
X107980041Y-105984641D01*
X108043592Y-105976274D01*
X108050000Y-105975000D01*
X108500000Y-105975000D01*
X108506409Y-105976275D01*
G37*
G36*
X110456409Y-105976275D02*
G01*
X110519958Y-105984641D01*
X110535943Y-105992095D01*
X110555238Y-105995933D01*
X110580792Y-106013008D01*
X110607290Y-106025364D01*
X110623412Y-106041486D01*
X110644454Y-106055546D01*
X110658513Y-106076587D01*
X110674635Y-106092709D01*
X110686990Y-106119204D01*
X110704067Y-106144762D01*
X110707905Y-106164058D01*
X110715358Y-106180041D01*
X110723722Y-106243577D01*
X110725000Y-106250000D01*
X110725000Y-106750000D01*
X110723722Y-106756424D01*
X110715358Y-106819958D01*
X110707905Y-106835939D01*
X110704067Y-106855238D01*
X110686988Y-106880797D01*
X110674635Y-106907290D01*
X110658516Y-106923408D01*
X110644454Y-106944454D01*
X110623408Y-106958516D01*
X110607290Y-106974635D01*
X110580797Y-106986988D01*
X110555238Y-107004067D01*
X110535939Y-107007905D01*
X110519958Y-107015358D01*
X110456424Y-107023722D01*
X110450000Y-107025000D01*
X110000000Y-107025000D01*
X109993577Y-107023722D01*
X109930041Y-107015358D01*
X109914058Y-107007905D01*
X109894762Y-107004067D01*
X109869204Y-106986990D01*
X109842709Y-106974635D01*
X109826587Y-106958513D01*
X109805546Y-106944454D01*
X109791486Y-106923412D01*
X109775364Y-106907290D01*
X109763008Y-106880792D01*
X109745933Y-106855238D01*
X109742095Y-106835943D01*
X109734641Y-106819958D01*
X109726275Y-106756409D01*
X109725000Y-106750000D01*
X109725000Y-106250000D01*
X109726274Y-106243592D01*
X109734641Y-106180041D01*
X109742095Y-106164054D01*
X109745933Y-106144762D01*
X109763006Y-106119209D01*
X109775364Y-106092709D01*
X109791488Y-106076584D01*
X109805546Y-106055546D01*
X109826584Y-106041488D01*
X109842709Y-106025364D01*
X109869209Y-106013006D01*
X109894762Y-105995933D01*
X109914054Y-105992095D01*
X109930041Y-105984641D01*
X109993592Y-105976274D01*
X110000000Y-105975000D01*
X110450000Y-105975000D01*
X110456409Y-105976275D01*
G37*
G36*
X112006409Y-105976275D02*
G01*
X112069958Y-105984641D01*
X112085943Y-105992095D01*
X112105238Y-105995933D01*
X112130792Y-106013008D01*
X112157290Y-106025364D01*
X112173412Y-106041486D01*
X112194454Y-106055546D01*
X112208513Y-106076587D01*
X112224635Y-106092709D01*
X112236990Y-106119204D01*
X112254067Y-106144762D01*
X112257905Y-106164058D01*
X112265358Y-106180041D01*
X112273722Y-106243577D01*
X112275000Y-106250000D01*
X112275000Y-106750000D01*
X112273722Y-106756424D01*
X112265358Y-106819958D01*
X112257905Y-106835939D01*
X112254067Y-106855238D01*
X112236988Y-106880797D01*
X112224635Y-106907290D01*
X112208516Y-106923408D01*
X112194454Y-106944454D01*
X112173408Y-106958516D01*
X112157290Y-106974635D01*
X112130797Y-106986988D01*
X112105238Y-107004067D01*
X112085939Y-107007905D01*
X112069958Y-107015358D01*
X112006424Y-107023722D01*
X112000000Y-107025000D01*
X111550000Y-107025000D01*
X111543577Y-107023722D01*
X111480041Y-107015358D01*
X111464058Y-107007905D01*
X111444762Y-107004067D01*
X111419204Y-106986990D01*
X111392709Y-106974635D01*
X111376587Y-106958513D01*
X111355546Y-106944454D01*
X111341486Y-106923412D01*
X111325364Y-106907290D01*
X111313008Y-106880792D01*
X111295933Y-106855238D01*
X111292095Y-106835943D01*
X111284641Y-106819958D01*
X111276275Y-106756409D01*
X111275000Y-106750000D01*
X111275000Y-106250000D01*
X111276274Y-106243592D01*
X111284641Y-106180041D01*
X111292095Y-106164054D01*
X111295933Y-106144762D01*
X111313006Y-106119209D01*
X111325364Y-106092709D01*
X111341488Y-106076584D01*
X111355546Y-106055546D01*
X111376584Y-106041488D01*
X111392709Y-106025364D01*
X111419209Y-106013006D01*
X111444762Y-105995933D01*
X111464054Y-105992095D01*
X111480041Y-105984641D01*
X111543592Y-105976274D01*
X111550000Y-105975000D01*
X112000000Y-105975000D01*
X112006409Y-105976275D01*
G37*
G36*
X105006409Y-105976275D02*
G01*
X105069958Y-105984641D01*
X105085943Y-105992095D01*
X105105238Y-105995933D01*
X105130792Y-106013008D01*
X105157290Y-106025364D01*
X105173412Y-106041486D01*
X105194454Y-106055546D01*
X105208513Y-106076587D01*
X105224635Y-106092709D01*
X105236990Y-106119204D01*
X105254067Y-106144762D01*
X105257905Y-106164058D01*
X105265358Y-106180041D01*
X105273722Y-106243577D01*
X105275000Y-106250000D01*
X105275000Y-106700000D01*
X105273722Y-106706424D01*
X105265358Y-106769958D01*
X105257905Y-106785939D01*
X105254067Y-106805238D01*
X105236988Y-106830797D01*
X105224635Y-106857290D01*
X105208516Y-106873408D01*
X105194454Y-106894454D01*
X105173408Y-106908516D01*
X105157290Y-106924635D01*
X105130797Y-106936988D01*
X105105238Y-106954067D01*
X105085939Y-106957905D01*
X105069958Y-106965358D01*
X105006424Y-106973722D01*
X105000000Y-106975000D01*
X104500000Y-106975000D01*
X104493577Y-106973722D01*
X104430041Y-106965358D01*
X104414058Y-106957905D01*
X104394762Y-106954067D01*
X104369204Y-106936990D01*
X104342709Y-106924635D01*
X104326587Y-106908513D01*
X104305546Y-106894454D01*
X104291486Y-106873412D01*
X104275364Y-106857290D01*
X104263008Y-106830792D01*
X104245933Y-106805238D01*
X104242095Y-106785943D01*
X104234641Y-106769958D01*
X104226275Y-106706409D01*
X104225000Y-106700000D01*
X104225000Y-106250000D01*
X104226274Y-106243592D01*
X104234641Y-106180041D01*
X104242095Y-106164054D01*
X104245933Y-106144762D01*
X104263006Y-106119209D01*
X104275364Y-106092709D01*
X104291488Y-106076584D01*
X104305546Y-106055546D01*
X104326584Y-106041488D01*
X104342709Y-106025364D01*
X104369209Y-106013006D01*
X104394762Y-105995933D01*
X104414054Y-105992095D01*
X104430041Y-105984641D01*
X104493592Y-105976274D01*
X104500000Y-105975000D01*
X105000000Y-105975000D01*
X105006409Y-105976275D01*
G37*
G36*
X113756409Y-104976275D02*
G01*
X113819958Y-104984641D01*
X113835943Y-104992095D01*
X113855238Y-104995933D01*
X113880792Y-105013008D01*
X113907290Y-105025364D01*
X113923412Y-105041486D01*
X113944454Y-105055546D01*
X113958513Y-105076587D01*
X113974635Y-105092709D01*
X113986990Y-105119204D01*
X114004067Y-105144762D01*
X114007905Y-105164058D01*
X114015358Y-105180041D01*
X114023722Y-105243577D01*
X114025000Y-105250000D01*
X114025000Y-105700000D01*
X114023722Y-105706424D01*
X114015358Y-105769958D01*
X114007905Y-105785939D01*
X114004067Y-105805238D01*
X113986988Y-105830797D01*
X113974635Y-105857290D01*
X113958516Y-105873408D01*
X113944454Y-105894454D01*
X113923408Y-105908516D01*
X113907290Y-105924635D01*
X113880797Y-105936988D01*
X113855238Y-105954067D01*
X113835939Y-105957905D01*
X113819958Y-105965358D01*
X113756424Y-105973722D01*
X113750000Y-105975000D01*
X113250000Y-105975000D01*
X113243577Y-105973722D01*
X113180041Y-105965358D01*
X113164058Y-105957905D01*
X113144762Y-105954067D01*
X113119204Y-105936990D01*
X113092709Y-105924635D01*
X113076587Y-105908513D01*
X113055546Y-105894454D01*
X113041486Y-105873412D01*
X113025364Y-105857290D01*
X113013008Y-105830792D01*
X112995933Y-105805238D01*
X112992095Y-105785943D01*
X112984641Y-105769958D01*
X112976275Y-105706409D01*
X112975000Y-105700000D01*
X112975000Y-105250000D01*
X112976274Y-105243592D01*
X112984641Y-105180041D01*
X112992095Y-105164054D01*
X112995933Y-105144762D01*
X113013006Y-105119209D01*
X113025364Y-105092709D01*
X113041488Y-105076584D01*
X113055546Y-105055546D01*
X113076584Y-105041488D01*
X113092709Y-105025364D01*
X113119209Y-105013006D01*
X113144762Y-104995933D01*
X113164054Y-104992095D01*
X113180041Y-104984641D01*
X113243592Y-104976274D01*
X113250000Y-104975000D01*
X113750000Y-104975000D01*
X113756409Y-104976275D01*
G37*
G36*
X119756409Y-104976275D02*
G01*
X119819958Y-104984641D01*
X119835943Y-104992095D01*
X119855238Y-104995933D01*
X119880792Y-105013008D01*
X119907290Y-105025364D01*
X119923412Y-105041486D01*
X119944454Y-105055546D01*
X119958513Y-105076587D01*
X119974635Y-105092709D01*
X119986990Y-105119204D01*
X120004067Y-105144762D01*
X120007905Y-105164058D01*
X120015358Y-105180041D01*
X120023722Y-105243577D01*
X120025000Y-105250000D01*
X120025000Y-105700000D01*
X120023722Y-105706424D01*
X120015358Y-105769958D01*
X120007905Y-105785939D01*
X120004067Y-105805238D01*
X119986988Y-105830797D01*
X119974635Y-105857290D01*
X119958516Y-105873408D01*
X119944454Y-105894454D01*
X119923408Y-105908516D01*
X119907290Y-105924635D01*
X119880797Y-105936988D01*
X119855238Y-105954067D01*
X119835939Y-105957905D01*
X119819958Y-105965358D01*
X119756424Y-105973722D01*
X119750000Y-105975000D01*
X119250000Y-105975000D01*
X119243577Y-105973722D01*
X119180041Y-105965358D01*
X119164058Y-105957905D01*
X119144762Y-105954067D01*
X119119204Y-105936990D01*
X119092709Y-105924635D01*
X119076587Y-105908513D01*
X119055546Y-105894454D01*
X119041486Y-105873412D01*
X119025364Y-105857290D01*
X119013008Y-105830792D01*
X118995933Y-105805238D01*
X118992095Y-105785943D01*
X118984641Y-105769958D01*
X118976275Y-105706409D01*
X118975000Y-105700000D01*
X118975000Y-105250000D01*
X118976274Y-105243592D01*
X118984641Y-105180041D01*
X118992095Y-105164054D01*
X118995933Y-105144762D01*
X119013006Y-105119209D01*
X119025364Y-105092709D01*
X119041488Y-105076584D01*
X119055546Y-105055546D01*
X119076584Y-105041488D01*
X119092709Y-105025364D01*
X119119209Y-105013006D01*
X119144762Y-104995933D01*
X119164054Y-104992095D01*
X119180041Y-104984641D01*
X119243592Y-104976274D01*
X119250000Y-104975000D01*
X119750000Y-104975000D01*
X119756409Y-104976275D01*
G37*
G36*
X115279047Y-104975805D02*
G01*
X115330408Y-104981764D01*
X115347954Y-104989511D01*
X115370671Y-104994030D01*
X115394991Y-105010280D01*
X115415793Y-105019465D01*
X115430000Y-105033672D01*
X115451777Y-105048223D01*
X115466327Y-105069999D01*
X115480534Y-105084206D01*
X115489718Y-105105006D01*
X115505970Y-105129329D01*
X115510489Y-105152048D01*
X115518235Y-105169591D01*
X115524192Y-105220940D01*
X115525000Y-105225000D01*
X115525000Y-105625000D01*
X115524192Y-105629059D01*
X115518235Y-105680408D01*
X115510489Y-105697950D01*
X115505970Y-105720671D01*
X115489716Y-105744995D01*
X115480534Y-105765793D01*
X115466329Y-105779997D01*
X115451777Y-105801777D01*
X115429997Y-105816329D01*
X115415793Y-105830534D01*
X115394995Y-105839716D01*
X115370671Y-105855970D01*
X115347950Y-105860489D01*
X115330408Y-105868235D01*
X115279061Y-105874192D01*
X115275000Y-105875000D01*
X114725000Y-105875000D01*
X114720941Y-105874192D01*
X114669591Y-105868235D01*
X114652048Y-105860489D01*
X114629329Y-105855970D01*
X114605006Y-105839718D01*
X114584206Y-105830534D01*
X114569999Y-105816327D01*
X114548223Y-105801777D01*
X114533672Y-105780000D01*
X114519465Y-105765793D01*
X114510280Y-105744991D01*
X114494030Y-105720671D01*
X114489511Y-105697954D01*
X114481764Y-105680408D01*
X114475805Y-105629049D01*
X114475000Y-105625000D01*
X114475000Y-105225000D01*
X114475804Y-105220953D01*
X114481764Y-105169591D01*
X114489511Y-105152043D01*
X114494030Y-105129329D01*
X114510278Y-105105010D01*
X114519465Y-105084206D01*
X114533674Y-105069996D01*
X114548223Y-105048223D01*
X114569996Y-105033674D01*
X114584206Y-105019465D01*
X114605010Y-105010278D01*
X114629329Y-104994030D01*
X114652043Y-104989511D01*
X114669591Y-104981764D01*
X114720952Y-104975805D01*
X114725000Y-104975000D01*
X115275000Y-104975000D01*
X115279047Y-104975805D01*
G37*
G36*
X116779047Y-104975805D02*
G01*
X116830408Y-104981764D01*
X116847954Y-104989511D01*
X116870671Y-104994030D01*
X116894991Y-105010280D01*
X116915793Y-105019465D01*
X116930000Y-105033672D01*
X116951777Y-105048223D01*
X116966327Y-105069999D01*
X116980534Y-105084206D01*
X116989718Y-105105006D01*
X117005970Y-105129329D01*
X117010489Y-105152048D01*
X117018235Y-105169591D01*
X117024192Y-105220940D01*
X117025000Y-105225000D01*
X117025000Y-105625000D01*
X117024192Y-105629059D01*
X117018235Y-105680408D01*
X117010489Y-105697950D01*
X117005970Y-105720671D01*
X116989716Y-105744995D01*
X116980534Y-105765793D01*
X116966329Y-105779997D01*
X116951777Y-105801777D01*
X116929997Y-105816329D01*
X116915793Y-105830534D01*
X116894995Y-105839716D01*
X116870671Y-105855970D01*
X116847950Y-105860489D01*
X116830408Y-105868235D01*
X116779061Y-105874192D01*
X116775000Y-105875000D01*
X116225000Y-105875000D01*
X116220941Y-105874192D01*
X116169591Y-105868235D01*
X116152048Y-105860489D01*
X116129329Y-105855970D01*
X116105006Y-105839718D01*
X116084206Y-105830534D01*
X116069999Y-105816327D01*
X116048223Y-105801777D01*
X116033672Y-105780000D01*
X116019465Y-105765793D01*
X116010280Y-105744991D01*
X115994030Y-105720671D01*
X115989511Y-105697954D01*
X115981764Y-105680408D01*
X115975805Y-105629049D01*
X115975000Y-105625000D01*
X115975000Y-105225000D01*
X115975804Y-105220953D01*
X115981764Y-105169591D01*
X115989511Y-105152043D01*
X115994030Y-105129329D01*
X116010278Y-105105010D01*
X116019465Y-105084206D01*
X116033674Y-105069996D01*
X116048223Y-105048223D01*
X116069996Y-105033674D01*
X116084206Y-105019465D01*
X116105010Y-105010278D01*
X116129329Y-104994030D01*
X116152043Y-104989511D01*
X116169591Y-104981764D01*
X116220952Y-104975805D01*
X116225000Y-104975000D01*
X116775000Y-104975000D01*
X116779047Y-104975805D01*
G37*
G36*
X118279047Y-104975805D02*
G01*
X118330408Y-104981764D01*
X118347954Y-104989511D01*
X118370671Y-104994030D01*
X118394991Y-105010280D01*
X118415793Y-105019465D01*
X118430000Y-105033672D01*
X118451777Y-105048223D01*
X118466327Y-105069999D01*
X118480534Y-105084206D01*
X118489718Y-105105006D01*
X118505970Y-105129329D01*
X118510489Y-105152048D01*
X118518235Y-105169591D01*
X118524192Y-105220940D01*
X118525000Y-105225000D01*
X118525000Y-105625000D01*
X118524192Y-105629059D01*
X118518235Y-105680408D01*
X118510489Y-105697950D01*
X118505970Y-105720671D01*
X118489716Y-105744995D01*
X118480534Y-105765793D01*
X118466329Y-105779997D01*
X118451777Y-105801777D01*
X118429997Y-105816329D01*
X118415793Y-105830534D01*
X118394995Y-105839716D01*
X118370671Y-105855970D01*
X118347950Y-105860489D01*
X118330408Y-105868235D01*
X118279061Y-105874192D01*
X118275000Y-105875000D01*
X117725000Y-105875000D01*
X117720941Y-105874192D01*
X117669591Y-105868235D01*
X117652048Y-105860489D01*
X117629329Y-105855970D01*
X117605006Y-105839718D01*
X117584206Y-105830534D01*
X117569999Y-105816327D01*
X117548223Y-105801777D01*
X117533672Y-105780000D01*
X117519465Y-105765793D01*
X117510280Y-105744991D01*
X117494030Y-105720671D01*
X117489511Y-105697954D01*
X117481764Y-105680408D01*
X117475805Y-105629049D01*
X117475000Y-105625000D01*
X117475000Y-105225000D01*
X117475804Y-105220953D01*
X117481764Y-105169591D01*
X117489511Y-105152043D01*
X117494030Y-105129329D01*
X117510278Y-105105010D01*
X117519465Y-105084206D01*
X117533674Y-105069996D01*
X117548223Y-105048223D01*
X117569996Y-105033674D01*
X117584206Y-105019465D01*
X117605010Y-105010278D01*
X117629329Y-104994030D01*
X117652043Y-104989511D01*
X117669591Y-104981764D01*
X117720952Y-104975805D01*
X117725000Y-104975000D01*
X118275000Y-104975000D01*
X118279047Y-104975805D01*
G37*
G36*
X104937660Y-104476275D02*
G01*
X104999590Y-104484428D01*
X105015167Y-104491692D01*
X105034096Y-104495457D01*
X105059167Y-104512208D01*
X105084955Y-104524234D01*
X105100644Y-104539923D01*
X105121285Y-104553715D01*
X105135076Y-104574355D01*
X105150765Y-104590044D01*
X105162789Y-104615830D01*
X105179543Y-104640904D01*
X105183308Y-104659834D01*
X105190571Y-104675409D01*
X105198722Y-104737326D01*
X105200000Y-104743750D01*
X105200000Y-105256250D01*
X105198722Y-105262674D01*
X105190571Y-105324590D01*
X105183308Y-105340164D01*
X105179543Y-105359096D01*
X105162787Y-105384171D01*
X105150765Y-105409955D01*
X105135078Y-105425641D01*
X105121285Y-105446285D01*
X105100641Y-105460078D01*
X105084955Y-105475765D01*
X105059171Y-105487787D01*
X105034096Y-105504543D01*
X105015164Y-105508308D01*
X104999590Y-105515571D01*
X104937674Y-105523722D01*
X104931250Y-105525000D01*
X104493750Y-105525000D01*
X104487326Y-105523722D01*
X104425409Y-105515571D01*
X104409834Y-105508308D01*
X104390904Y-105504543D01*
X104365830Y-105487789D01*
X104340044Y-105475765D01*
X104324355Y-105460076D01*
X104303715Y-105446285D01*
X104289923Y-105425644D01*
X104274234Y-105409955D01*
X104262208Y-105384167D01*
X104245457Y-105359096D01*
X104241692Y-105340167D01*
X104234428Y-105324590D01*
X104226275Y-105262660D01*
X104225000Y-105256250D01*
X104225000Y-104743750D01*
X104226274Y-104737341D01*
X104234428Y-104675409D01*
X104241692Y-104659830D01*
X104245457Y-104640904D01*
X104262207Y-104615835D01*
X104274234Y-104590044D01*
X104289925Y-104574352D01*
X104303715Y-104553715D01*
X104324352Y-104539925D01*
X104340044Y-104524234D01*
X104365835Y-104512207D01*
X104390904Y-104495457D01*
X104409830Y-104491692D01*
X104425409Y-104484428D01*
X104487341Y-104476274D01*
X104493750Y-104475000D01*
X104931250Y-104475000D01*
X104937660Y-104476275D01*
G37*
G36*
X106512660Y-104476275D02*
G01*
X106574590Y-104484428D01*
X106590167Y-104491692D01*
X106609096Y-104495457D01*
X106634167Y-104512208D01*
X106659955Y-104524234D01*
X106675644Y-104539923D01*
X106696285Y-104553715D01*
X106710076Y-104574355D01*
X106725765Y-104590044D01*
X106737789Y-104615830D01*
X106754543Y-104640904D01*
X106758308Y-104659834D01*
X106765571Y-104675409D01*
X106773722Y-104737326D01*
X106775000Y-104743750D01*
X106775000Y-105256250D01*
X106773722Y-105262674D01*
X106765571Y-105324590D01*
X106758308Y-105340164D01*
X106754543Y-105359096D01*
X106737787Y-105384171D01*
X106725765Y-105409955D01*
X106710078Y-105425641D01*
X106696285Y-105446285D01*
X106675641Y-105460078D01*
X106659955Y-105475765D01*
X106634171Y-105487787D01*
X106609096Y-105504543D01*
X106590164Y-105508308D01*
X106574590Y-105515571D01*
X106512674Y-105523722D01*
X106506250Y-105525000D01*
X106068750Y-105525000D01*
X106062326Y-105523722D01*
X106000409Y-105515571D01*
X105984834Y-105508308D01*
X105965904Y-105504543D01*
X105940830Y-105487789D01*
X105915044Y-105475765D01*
X105899355Y-105460076D01*
X105878715Y-105446285D01*
X105864923Y-105425644D01*
X105849234Y-105409955D01*
X105837208Y-105384167D01*
X105820457Y-105359096D01*
X105816692Y-105340167D01*
X105809428Y-105324590D01*
X105801275Y-105262660D01*
X105800000Y-105256250D01*
X105800000Y-104743750D01*
X105801274Y-104737341D01*
X105809428Y-104675409D01*
X105816692Y-104659830D01*
X105820457Y-104640904D01*
X105837207Y-104615835D01*
X105849234Y-104590044D01*
X105864925Y-104574352D01*
X105878715Y-104553715D01*
X105899352Y-104539925D01*
X105915044Y-104524234D01*
X105940835Y-104512207D01*
X105965904Y-104495457D01*
X105984830Y-104491692D01*
X106000409Y-104484428D01*
X106062341Y-104476274D01*
X106068750Y-104475000D01*
X106506250Y-104475000D01*
X106512660Y-104476275D01*
G37*
G36*
X108506409Y-104276275D02*
G01*
X108569958Y-104284641D01*
X108585943Y-104292095D01*
X108605238Y-104295933D01*
X108630792Y-104313008D01*
X108657290Y-104325364D01*
X108673412Y-104341486D01*
X108694454Y-104355546D01*
X108708513Y-104376587D01*
X108724635Y-104392709D01*
X108736990Y-104419204D01*
X108754067Y-104444762D01*
X108757905Y-104464058D01*
X108765358Y-104480041D01*
X108773722Y-104543577D01*
X108775000Y-104550000D01*
X108775000Y-105000000D01*
X108773722Y-105006424D01*
X108765358Y-105069958D01*
X108757905Y-105085939D01*
X108754067Y-105105238D01*
X108736988Y-105130797D01*
X108724635Y-105157290D01*
X108708516Y-105173408D01*
X108694454Y-105194454D01*
X108673408Y-105208516D01*
X108657290Y-105224635D01*
X108630797Y-105236988D01*
X108605238Y-105254067D01*
X108585939Y-105257905D01*
X108569958Y-105265358D01*
X108506424Y-105273722D01*
X108500000Y-105275000D01*
X108000000Y-105275000D01*
X107993577Y-105273722D01*
X107930041Y-105265358D01*
X107914058Y-105257905D01*
X107894762Y-105254067D01*
X107869204Y-105236990D01*
X107842709Y-105224635D01*
X107826587Y-105208513D01*
X107805546Y-105194454D01*
X107791486Y-105173412D01*
X107775364Y-105157290D01*
X107763008Y-105130792D01*
X107745933Y-105105238D01*
X107742095Y-105085943D01*
X107734641Y-105069958D01*
X107726275Y-105006409D01*
X107725000Y-105000000D01*
X107725000Y-104550000D01*
X107726274Y-104543592D01*
X107734641Y-104480041D01*
X107742095Y-104464054D01*
X107745933Y-104444762D01*
X107763006Y-104419209D01*
X107775364Y-104392709D01*
X107791488Y-104376584D01*
X107805546Y-104355546D01*
X107826584Y-104341488D01*
X107842709Y-104325364D01*
X107869209Y-104313006D01*
X107894762Y-104295933D01*
X107914054Y-104292095D01*
X107930041Y-104284641D01*
X107993592Y-104276274D01*
X108000000Y-104275000D01*
X108500000Y-104275000D01*
X108506409Y-104276275D01*
G37*
G36*
X110122835Y-102634515D02*
G01*
X110163388Y-102661612D01*
X110190485Y-102702165D01*
X110200000Y-102750000D01*
X110200000Y-104075000D01*
X110190485Y-104122835D01*
X110163388Y-104163388D01*
X110122835Y-104190485D01*
X110075000Y-104200000D01*
X109925000Y-104200000D01*
X109877165Y-104190485D01*
X109836612Y-104163388D01*
X109809515Y-104122835D01*
X109800000Y-104075000D01*
X109800000Y-102750000D01*
X109809515Y-102702165D01*
X109836612Y-102661612D01*
X109877165Y-102634515D01*
X109925000Y-102625000D01*
X110075000Y-102625000D01*
X110122835Y-102634515D01*
G37*
G36*
X110622835Y-102634515D02*
G01*
X110663388Y-102661612D01*
X110690485Y-102702165D01*
X110700000Y-102750000D01*
X110700000Y-104075000D01*
X110690485Y-104122835D01*
X110663388Y-104163388D01*
X110622835Y-104190485D01*
X110575000Y-104200000D01*
X110425000Y-104200000D01*
X110377165Y-104190485D01*
X110336612Y-104163388D01*
X110309515Y-104122835D01*
X110300000Y-104075000D01*
X110300000Y-102750000D01*
X110309515Y-102702165D01*
X110336612Y-102661612D01*
X110377165Y-102634515D01*
X110425000Y-102625000D01*
X110575000Y-102625000D01*
X110622835Y-102634515D01*
G37*
G36*
X111122835Y-102634515D02*
G01*
X111163388Y-102661612D01*
X111190485Y-102702165D01*
X111200000Y-102750000D01*
X111200000Y-104075000D01*
X111190485Y-104122835D01*
X111163388Y-104163388D01*
X111122835Y-104190485D01*
X111075000Y-104200000D01*
X110925000Y-104200000D01*
X110877165Y-104190485D01*
X110836612Y-104163388D01*
X110809515Y-104122835D01*
X110800000Y-104075000D01*
X110800000Y-102750000D01*
X110809515Y-102702165D01*
X110836612Y-102661612D01*
X110877165Y-102634515D01*
X110925000Y-102625000D01*
X111075000Y-102625000D01*
X111122835Y-102634515D01*
G37*
G36*
X111622835Y-102634515D02*
G01*
X111663388Y-102661612D01*
X111690485Y-102702165D01*
X111700000Y-102750000D01*
X111700000Y-104075000D01*
X111690485Y-104122835D01*
X111663388Y-104163388D01*
X111622835Y-104190485D01*
X111575000Y-104200000D01*
X111425000Y-104200000D01*
X111377165Y-104190485D01*
X111336612Y-104163388D01*
X111309515Y-104122835D01*
X111300000Y-104075000D01*
X111300000Y-102750000D01*
X111309515Y-102702165D01*
X111336612Y-102661612D01*
X111377165Y-102634515D01*
X111425000Y-102625000D01*
X111575000Y-102625000D01*
X111622835Y-102634515D01*
G37*
G36*
X112122835Y-102634515D02*
G01*
X112163388Y-102661612D01*
X112190485Y-102702165D01*
X112200000Y-102750000D01*
X112200000Y-104075000D01*
X112190485Y-104122835D01*
X112163388Y-104163388D01*
X112122835Y-104190485D01*
X112075000Y-104200000D01*
X111925000Y-104200000D01*
X111877165Y-104190485D01*
X111836612Y-104163388D01*
X111809515Y-104122835D01*
X111800000Y-104075000D01*
X111800000Y-102750000D01*
X111809515Y-102702165D01*
X111836612Y-102661612D01*
X111877165Y-102634515D01*
X111925000Y-102625000D01*
X112075000Y-102625000D01*
X112122835Y-102634515D01*
G37*
G36*
X112622835Y-102634515D02*
G01*
X112663388Y-102661612D01*
X112690485Y-102702165D01*
X112700000Y-102750000D01*
X112700000Y-104075000D01*
X112690485Y-104122835D01*
X112663388Y-104163388D01*
X112622835Y-104190485D01*
X112575000Y-104200000D01*
X112425000Y-104200000D01*
X112377165Y-104190485D01*
X112336612Y-104163388D01*
X112309515Y-104122835D01*
X112300000Y-104075000D01*
X112300000Y-102750000D01*
X112309515Y-102702165D01*
X112336612Y-102661612D01*
X112377165Y-102634515D01*
X112425000Y-102625000D01*
X112575000Y-102625000D01*
X112622835Y-102634515D01*
G37*
G36*
X113122835Y-102634515D02*
G01*
X113163388Y-102661612D01*
X113190485Y-102702165D01*
X113200000Y-102750000D01*
X113200000Y-104075000D01*
X113190485Y-104122835D01*
X113163388Y-104163388D01*
X113122835Y-104190485D01*
X113075000Y-104200000D01*
X112925000Y-104200000D01*
X112877165Y-104190485D01*
X112836612Y-104163388D01*
X112809515Y-104122835D01*
X112800000Y-104075000D01*
X112800000Y-102750000D01*
X112809515Y-102702165D01*
X112836612Y-102661612D01*
X112877165Y-102634515D01*
X112925000Y-102625000D01*
X113075000Y-102625000D01*
X113122835Y-102634515D01*
G37*
G36*
X113622835Y-102634515D02*
G01*
X113663388Y-102661612D01*
X113690485Y-102702165D01*
X113700000Y-102750000D01*
X113700000Y-104075000D01*
X113690485Y-104122835D01*
X113663388Y-104163388D01*
X113622835Y-104190485D01*
X113575000Y-104200000D01*
X113425000Y-104200000D01*
X113377165Y-104190485D01*
X113336612Y-104163388D01*
X113309515Y-104122835D01*
X113300000Y-104075000D01*
X113300000Y-102750000D01*
X113309515Y-102702165D01*
X113336612Y-102661612D01*
X113377165Y-102634515D01*
X113425000Y-102625000D01*
X113575000Y-102625000D01*
X113622835Y-102634515D01*
G37*
G36*
X114122835Y-102634515D02*
G01*
X114163388Y-102661612D01*
X114190485Y-102702165D01*
X114200000Y-102750000D01*
X114200000Y-104075000D01*
X114190485Y-104122835D01*
X114163388Y-104163388D01*
X114122835Y-104190485D01*
X114075000Y-104200000D01*
X113925000Y-104200000D01*
X113877165Y-104190485D01*
X113836612Y-104163388D01*
X113809515Y-104122835D01*
X113800000Y-104075000D01*
X113800000Y-102750000D01*
X113809515Y-102702165D01*
X113836612Y-102661612D01*
X113877165Y-102634515D01*
X113925000Y-102625000D01*
X114075000Y-102625000D01*
X114122835Y-102634515D01*
G37*
G36*
X114622835Y-102634515D02*
G01*
X114663388Y-102661612D01*
X114690485Y-102702165D01*
X114700000Y-102750000D01*
X114700000Y-104075000D01*
X114690485Y-104122835D01*
X114663388Y-104163388D01*
X114622835Y-104190485D01*
X114575000Y-104200000D01*
X114425000Y-104200000D01*
X114377165Y-104190485D01*
X114336612Y-104163388D01*
X114309515Y-104122835D01*
X114300000Y-104075000D01*
X114300000Y-102750000D01*
X114309515Y-102702165D01*
X114336612Y-102661612D01*
X114377165Y-102634515D01*
X114425000Y-102625000D01*
X114575000Y-102625000D01*
X114622835Y-102634515D01*
G37*
G36*
X115122835Y-102634515D02*
G01*
X115163388Y-102661612D01*
X115190485Y-102702165D01*
X115200000Y-102750000D01*
X115200000Y-104075000D01*
X115190485Y-104122835D01*
X115163388Y-104163388D01*
X115122835Y-104190485D01*
X115075000Y-104200000D01*
X114925000Y-104200000D01*
X114877165Y-104190485D01*
X114836612Y-104163388D01*
X114809515Y-104122835D01*
X114800000Y-104075000D01*
X114800000Y-102750000D01*
X114809515Y-102702165D01*
X114836612Y-102661612D01*
X114877165Y-102634515D01*
X114925000Y-102625000D01*
X115075000Y-102625000D01*
X115122835Y-102634515D01*
G37*
G36*
X115622835Y-102634515D02*
G01*
X115663388Y-102661612D01*
X115690485Y-102702165D01*
X115700000Y-102750000D01*
X115700000Y-104075000D01*
X115690485Y-104122835D01*
X115663388Y-104163388D01*
X115622835Y-104190485D01*
X115575000Y-104200000D01*
X115425000Y-104200000D01*
X115377165Y-104190485D01*
X115336612Y-104163388D01*
X115309515Y-104122835D01*
X115300000Y-104075000D01*
X115300000Y-102750000D01*
X115309515Y-102702165D01*
X115336612Y-102661612D01*
X115377165Y-102634515D01*
X115425000Y-102625000D01*
X115575000Y-102625000D01*
X115622835Y-102634515D01*
G37*
G36*
X104937660Y-102976275D02*
G01*
X104999590Y-102984428D01*
X105015167Y-102991692D01*
X105034096Y-102995457D01*
X105059167Y-103012208D01*
X105084955Y-103024234D01*
X105100644Y-103039923D01*
X105121285Y-103053715D01*
X105135076Y-103074355D01*
X105150765Y-103090044D01*
X105162789Y-103115830D01*
X105179543Y-103140904D01*
X105183308Y-103159834D01*
X105190571Y-103175409D01*
X105198722Y-103237326D01*
X105200000Y-103243750D01*
X105200000Y-103756250D01*
X105198722Y-103762674D01*
X105190571Y-103824590D01*
X105183308Y-103840164D01*
X105179543Y-103859096D01*
X105162787Y-103884171D01*
X105150765Y-103909955D01*
X105135078Y-103925641D01*
X105121285Y-103946285D01*
X105100641Y-103960078D01*
X105084955Y-103975765D01*
X105059171Y-103987787D01*
X105034096Y-104004543D01*
X105015164Y-104008308D01*
X104999590Y-104015571D01*
X104937674Y-104023722D01*
X104931250Y-104025000D01*
X104493750Y-104025000D01*
X104487326Y-104023722D01*
X104425409Y-104015571D01*
X104409834Y-104008308D01*
X104390904Y-104004543D01*
X104365830Y-103987789D01*
X104340044Y-103975765D01*
X104324355Y-103960076D01*
X104303715Y-103946285D01*
X104289923Y-103925644D01*
X104274234Y-103909955D01*
X104262208Y-103884167D01*
X104245457Y-103859096D01*
X104241692Y-103840167D01*
X104234428Y-103824590D01*
X104226275Y-103762660D01*
X104225000Y-103756250D01*
X104225000Y-103243750D01*
X104226274Y-103237341D01*
X104234428Y-103175409D01*
X104241692Y-103159830D01*
X104245457Y-103140904D01*
X104262207Y-103115835D01*
X104274234Y-103090044D01*
X104289925Y-103074352D01*
X104303715Y-103053715D01*
X104324352Y-103039925D01*
X104340044Y-103024234D01*
X104365835Y-103012207D01*
X104390904Y-102995457D01*
X104409830Y-102991692D01*
X104425409Y-102984428D01*
X104487341Y-102976274D01*
X104493750Y-102975000D01*
X104931250Y-102975000D01*
X104937660Y-102976275D01*
G37*
G36*
X106512660Y-102976275D02*
G01*
X106574590Y-102984428D01*
X106590167Y-102991692D01*
X106609096Y-102995457D01*
X106634167Y-103012208D01*
X106659955Y-103024234D01*
X106675644Y-103039923D01*
X106696285Y-103053715D01*
X106710076Y-103074355D01*
X106725765Y-103090044D01*
X106737789Y-103115830D01*
X106754543Y-103140904D01*
X106758308Y-103159834D01*
X106765571Y-103175409D01*
X106773722Y-103237326D01*
X106775000Y-103243750D01*
X106775000Y-103756250D01*
X106773722Y-103762674D01*
X106765571Y-103824590D01*
X106758308Y-103840164D01*
X106754543Y-103859096D01*
X106737787Y-103884171D01*
X106725765Y-103909955D01*
X106710078Y-103925641D01*
X106696285Y-103946285D01*
X106675641Y-103960078D01*
X106659955Y-103975765D01*
X106634171Y-103987787D01*
X106609096Y-104004543D01*
X106590164Y-104008308D01*
X106574590Y-104015571D01*
X106512674Y-104023722D01*
X106506250Y-104025000D01*
X106068750Y-104025000D01*
X106062326Y-104023722D01*
X106000409Y-104015571D01*
X105984834Y-104008308D01*
X105965904Y-104004543D01*
X105940830Y-103987789D01*
X105915044Y-103975765D01*
X105899355Y-103960076D01*
X105878715Y-103946285D01*
X105864923Y-103925644D01*
X105849234Y-103909955D01*
X105837208Y-103884167D01*
X105820457Y-103859096D01*
X105816692Y-103840167D01*
X105809428Y-103824590D01*
X105801275Y-103762660D01*
X105800000Y-103756250D01*
X105800000Y-103243750D01*
X105801274Y-103237341D01*
X105809428Y-103175409D01*
X105816692Y-103159830D01*
X105820457Y-103140904D01*
X105837207Y-103115835D01*
X105849234Y-103090044D01*
X105864925Y-103074352D01*
X105878715Y-103053715D01*
X105899352Y-103039925D01*
X105915044Y-103024234D01*
X105940835Y-103012207D01*
X105965904Y-102995457D01*
X105984830Y-102991692D01*
X106000409Y-102984428D01*
X106062341Y-102976274D01*
X106068750Y-102975000D01*
X106506250Y-102975000D01*
X106512660Y-102976275D01*
G37*
G36*
X119129047Y-102975805D02*
G01*
X119180408Y-102981764D01*
X119197954Y-102989511D01*
X119220671Y-102994030D01*
X119244991Y-103010280D01*
X119265793Y-103019465D01*
X119280000Y-103033672D01*
X119301777Y-103048223D01*
X119316327Y-103069999D01*
X119330534Y-103084206D01*
X119339718Y-103105006D01*
X119355970Y-103129329D01*
X119360489Y-103152048D01*
X119368235Y-103169591D01*
X119374192Y-103220940D01*
X119375000Y-103225000D01*
X119375000Y-103775000D01*
X119374192Y-103779059D01*
X119368235Y-103830408D01*
X119360489Y-103847950D01*
X119355970Y-103870671D01*
X119339716Y-103894995D01*
X119330534Y-103915793D01*
X119316329Y-103929997D01*
X119301777Y-103951777D01*
X119279997Y-103966329D01*
X119265793Y-103980534D01*
X119244995Y-103989716D01*
X119220671Y-104005970D01*
X119197950Y-104010489D01*
X119180408Y-104018235D01*
X119129061Y-104024192D01*
X119125000Y-104025000D01*
X118725000Y-104025000D01*
X118720941Y-104024192D01*
X118669591Y-104018235D01*
X118652048Y-104010489D01*
X118629329Y-104005970D01*
X118605006Y-103989718D01*
X118584206Y-103980534D01*
X118569999Y-103966327D01*
X118548223Y-103951777D01*
X118533672Y-103930000D01*
X118519465Y-103915793D01*
X118510280Y-103894991D01*
X118494030Y-103870671D01*
X118489511Y-103847954D01*
X118481764Y-103830408D01*
X118475805Y-103779049D01*
X118475000Y-103775000D01*
X118475000Y-103225000D01*
X118475804Y-103220953D01*
X118481764Y-103169591D01*
X118489511Y-103152043D01*
X118494030Y-103129329D01*
X118510278Y-103105010D01*
X118519465Y-103084206D01*
X118533674Y-103069996D01*
X118548223Y-103048223D01*
X118569996Y-103033674D01*
X118584206Y-103019465D01*
X118605010Y-103010278D01*
X118629329Y-102994030D01*
X118652043Y-102989511D01*
X118669591Y-102981764D01*
X118720952Y-102975805D01*
X118725000Y-102975000D01*
X119125000Y-102975000D01*
X119129047Y-102975805D01*
G37*
G36*
X120779047Y-102975805D02*
G01*
X120830408Y-102981764D01*
X120847954Y-102989511D01*
X120870671Y-102994030D01*
X120894991Y-103010280D01*
X120915793Y-103019465D01*
X120930000Y-103033672D01*
X120951777Y-103048223D01*
X120966327Y-103069999D01*
X120980534Y-103084206D01*
X120989718Y-103105006D01*
X121005970Y-103129329D01*
X121010489Y-103152048D01*
X121018235Y-103169591D01*
X121024192Y-103220940D01*
X121025000Y-103225000D01*
X121025000Y-103775000D01*
X121024192Y-103779059D01*
X121018235Y-103830408D01*
X121010489Y-103847950D01*
X121005970Y-103870671D01*
X120989716Y-103894995D01*
X120980534Y-103915793D01*
X120966329Y-103929997D01*
X120951777Y-103951777D01*
X120929997Y-103966329D01*
X120915793Y-103980534D01*
X120894995Y-103989716D01*
X120870671Y-104005970D01*
X120847950Y-104010489D01*
X120830408Y-104018235D01*
X120779061Y-104024192D01*
X120775000Y-104025000D01*
X120375000Y-104025000D01*
X120370941Y-104024192D01*
X120319591Y-104018235D01*
X120302048Y-104010489D01*
X120279329Y-104005970D01*
X120255006Y-103989718D01*
X120234206Y-103980534D01*
X120219999Y-103966327D01*
X120198223Y-103951777D01*
X120183672Y-103930000D01*
X120169465Y-103915793D01*
X120160280Y-103894991D01*
X120144030Y-103870671D01*
X120139511Y-103847954D01*
X120131764Y-103830408D01*
X120125805Y-103779049D01*
X120125000Y-103775000D01*
X120125000Y-103225000D01*
X120125804Y-103220953D01*
X120131764Y-103169591D01*
X120139511Y-103152043D01*
X120144030Y-103129329D01*
X120160278Y-103105010D01*
X120169465Y-103084206D01*
X120183674Y-103069996D01*
X120198223Y-103048223D01*
X120219996Y-103033674D01*
X120234206Y-103019465D01*
X120255010Y-103010278D01*
X120279329Y-102994030D01*
X120302043Y-102989511D01*
X120319591Y-102981764D01*
X120370952Y-102975805D01*
X120375000Y-102975000D01*
X120775000Y-102975000D01*
X120779047Y-102975805D01*
G37*
G36*
X122206409Y-102976275D02*
G01*
X122269958Y-102984641D01*
X122285943Y-102992095D01*
X122305238Y-102995933D01*
X122330792Y-103013008D01*
X122357290Y-103025364D01*
X122373412Y-103041486D01*
X122394454Y-103055546D01*
X122408513Y-103076587D01*
X122424635Y-103092709D01*
X122436990Y-103119204D01*
X122454067Y-103144762D01*
X122457905Y-103164058D01*
X122465358Y-103180041D01*
X122473722Y-103243577D01*
X122475000Y-103250000D01*
X122475000Y-103750000D01*
X122473722Y-103756424D01*
X122465358Y-103819958D01*
X122457905Y-103835939D01*
X122454067Y-103855238D01*
X122436988Y-103880797D01*
X122424635Y-103907290D01*
X122408516Y-103923408D01*
X122394454Y-103944454D01*
X122373408Y-103958516D01*
X122357290Y-103974635D01*
X122330797Y-103986988D01*
X122305238Y-104004067D01*
X122285939Y-104007905D01*
X122269958Y-104015358D01*
X122206424Y-104023722D01*
X122200000Y-104025000D01*
X121750000Y-104025000D01*
X121743577Y-104023722D01*
X121680041Y-104015358D01*
X121664058Y-104007905D01*
X121644762Y-104004067D01*
X121619204Y-103986990D01*
X121592709Y-103974635D01*
X121576587Y-103958513D01*
X121555546Y-103944454D01*
X121541486Y-103923412D01*
X121525364Y-103907290D01*
X121513008Y-103880792D01*
X121495933Y-103855238D01*
X121492095Y-103835943D01*
X121484641Y-103819958D01*
X121476275Y-103756409D01*
X121475000Y-103750000D01*
X121475000Y-103250000D01*
X121476274Y-103243592D01*
X121484641Y-103180041D01*
X121492095Y-103164054D01*
X121495933Y-103144762D01*
X121513006Y-103119209D01*
X121525364Y-103092709D01*
X121541488Y-103076584D01*
X121555546Y-103055546D01*
X121576584Y-103041488D01*
X121592709Y-103025364D01*
X121619209Y-103013006D01*
X121644762Y-102995933D01*
X121664054Y-102992095D01*
X121680041Y-102984641D01*
X121743592Y-102976274D01*
X121750000Y-102975000D01*
X122200000Y-102975000D01*
X122206409Y-102976275D01*
G37*
G36*
X123756409Y-102976275D02*
G01*
X123819958Y-102984641D01*
X123835943Y-102992095D01*
X123855238Y-102995933D01*
X123880792Y-103013008D01*
X123907290Y-103025364D01*
X123923412Y-103041486D01*
X123944454Y-103055546D01*
X123958513Y-103076587D01*
X123974635Y-103092709D01*
X123986990Y-103119204D01*
X124004067Y-103144762D01*
X124007905Y-103164058D01*
X124015358Y-103180041D01*
X124023722Y-103243577D01*
X124025000Y-103250000D01*
X124025000Y-103750000D01*
X124023722Y-103756424D01*
X124015358Y-103819958D01*
X124007905Y-103835939D01*
X124004067Y-103855238D01*
X123986988Y-103880797D01*
X123974635Y-103907290D01*
X123958516Y-103923408D01*
X123944454Y-103944454D01*
X123923408Y-103958516D01*
X123907290Y-103974635D01*
X123880797Y-103986988D01*
X123855238Y-104004067D01*
X123835939Y-104007905D01*
X123819958Y-104015358D01*
X123756424Y-104023722D01*
X123750000Y-104025000D01*
X123300000Y-104025000D01*
X123293577Y-104023722D01*
X123230041Y-104015358D01*
X123214058Y-104007905D01*
X123194762Y-104004067D01*
X123169204Y-103986990D01*
X123142709Y-103974635D01*
X123126587Y-103958513D01*
X123105546Y-103944454D01*
X123091486Y-103923412D01*
X123075364Y-103907290D01*
X123063008Y-103880792D01*
X123045933Y-103855238D01*
X123042095Y-103835943D01*
X123034641Y-103819958D01*
X123026275Y-103756409D01*
X123025000Y-103750000D01*
X123025000Y-103250000D01*
X123026274Y-103243592D01*
X123034641Y-103180041D01*
X123042095Y-103164054D01*
X123045933Y-103144762D01*
X123063006Y-103119209D01*
X123075364Y-103092709D01*
X123091488Y-103076584D01*
X123105546Y-103055546D01*
X123126584Y-103041488D01*
X123142709Y-103025364D01*
X123169209Y-103013006D01*
X123194762Y-102995933D01*
X123214054Y-102992095D01*
X123230041Y-102984641D01*
X123293592Y-102976274D01*
X123300000Y-102975000D01*
X123750000Y-102975000D01*
X123756409Y-102976275D01*
G37*
G36*
X108506409Y-102726275D02*
G01*
X108569958Y-102734641D01*
X108585943Y-102742095D01*
X108605238Y-102745933D01*
X108630792Y-102763008D01*
X108657290Y-102775364D01*
X108673412Y-102791486D01*
X108694454Y-102805546D01*
X108708513Y-102826587D01*
X108724635Y-102842709D01*
X108736990Y-102869204D01*
X108754067Y-102894762D01*
X108757905Y-102914058D01*
X108765358Y-102930041D01*
X108773722Y-102993577D01*
X108775000Y-103000000D01*
X108775000Y-103450000D01*
X108773722Y-103456424D01*
X108765358Y-103519958D01*
X108757905Y-103535939D01*
X108754067Y-103555238D01*
X108736988Y-103580797D01*
X108724635Y-103607290D01*
X108708516Y-103623408D01*
X108694454Y-103644454D01*
X108673408Y-103658516D01*
X108657290Y-103674635D01*
X108630797Y-103686988D01*
X108605238Y-103704067D01*
X108585939Y-103707905D01*
X108569958Y-103715358D01*
X108506424Y-103723722D01*
X108500000Y-103725000D01*
X108000000Y-103725000D01*
X107993577Y-103723722D01*
X107930041Y-103715358D01*
X107914058Y-103707905D01*
X107894762Y-103704067D01*
X107869204Y-103686990D01*
X107842709Y-103674635D01*
X107826587Y-103658513D01*
X107805546Y-103644454D01*
X107791486Y-103623412D01*
X107775364Y-103607290D01*
X107763008Y-103580792D01*
X107745933Y-103555238D01*
X107742095Y-103535943D01*
X107734641Y-103519958D01*
X107726275Y-103456409D01*
X107725000Y-103450000D01*
X107725000Y-103000000D01*
X107726274Y-102993592D01*
X107734641Y-102930041D01*
X107742095Y-102914054D01*
X107745933Y-102894762D01*
X107763006Y-102869209D01*
X107775364Y-102842709D01*
X107791488Y-102826584D01*
X107805546Y-102805546D01*
X107826584Y-102791488D01*
X107842709Y-102775364D01*
X107869209Y-102763006D01*
X107894762Y-102745933D01*
X107914054Y-102742095D01*
X107930041Y-102734641D01*
X107993592Y-102726274D01*
X108000000Y-102725000D01*
X108500000Y-102725000D01*
X108506409Y-102726275D01*
G37*
G36*
X104879047Y-101475805D02*
G01*
X104930408Y-101481764D01*
X104947954Y-101489511D01*
X104970671Y-101494030D01*
X104994991Y-101510280D01*
X105015793Y-101519465D01*
X105030000Y-101533672D01*
X105051777Y-101548223D01*
X105066327Y-101569999D01*
X105080534Y-101584206D01*
X105089718Y-101605006D01*
X105105970Y-101629329D01*
X105110489Y-101652048D01*
X105118235Y-101669591D01*
X105124192Y-101720940D01*
X105125000Y-101725000D01*
X105125000Y-102275000D01*
X105124192Y-102279059D01*
X105118235Y-102330408D01*
X105110489Y-102347950D01*
X105105970Y-102370671D01*
X105089716Y-102394995D01*
X105080534Y-102415793D01*
X105066329Y-102429997D01*
X105051777Y-102451777D01*
X105029997Y-102466329D01*
X105015793Y-102480534D01*
X104994995Y-102489716D01*
X104970671Y-102505970D01*
X104947950Y-102510489D01*
X104930408Y-102518235D01*
X104879061Y-102524192D01*
X104875000Y-102525000D01*
X104475000Y-102525000D01*
X104470941Y-102524192D01*
X104419591Y-102518235D01*
X104402048Y-102510489D01*
X104379329Y-102505970D01*
X104355006Y-102489718D01*
X104334206Y-102480534D01*
X104319999Y-102466327D01*
X104298223Y-102451777D01*
X104283672Y-102430000D01*
X104269465Y-102415793D01*
X104260280Y-102394991D01*
X104244030Y-102370671D01*
X104239511Y-102347954D01*
X104231764Y-102330408D01*
X104225805Y-102279049D01*
X104225000Y-102275000D01*
X104225000Y-101725000D01*
X104225804Y-101720953D01*
X104231764Y-101669591D01*
X104239511Y-101652043D01*
X104244030Y-101629329D01*
X104260278Y-101605010D01*
X104269465Y-101584206D01*
X104283674Y-101569996D01*
X104298223Y-101548223D01*
X104319996Y-101533674D01*
X104334206Y-101519465D01*
X104355010Y-101510278D01*
X104379329Y-101494030D01*
X104402043Y-101489511D01*
X104419591Y-101481764D01*
X104470952Y-101475805D01*
X104475000Y-101475000D01*
X104875000Y-101475000D01*
X104879047Y-101475805D01*
G37*
G36*
X106529047Y-101475805D02*
G01*
X106580408Y-101481764D01*
X106597954Y-101489511D01*
X106620671Y-101494030D01*
X106644991Y-101510280D01*
X106665793Y-101519465D01*
X106680000Y-101533672D01*
X106701777Y-101548223D01*
X106716327Y-101569999D01*
X106730534Y-101584206D01*
X106739718Y-101605006D01*
X106755970Y-101629329D01*
X106760489Y-101652048D01*
X106768235Y-101669591D01*
X106774192Y-101720940D01*
X106775000Y-101725000D01*
X106775000Y-102275000D01*
X106774192Y-102279059D01*
X106768235Y-102330408D01*
X106760489Y-102347950D01*
X106755970Y-102370671D01*
X106739716Y-102394995D01*
X106730534Y-102415793D01*
X106716329Y-102429997D01*
X106701777Y-102451777D01*
X106679997Y-102466329D01*
X106665793Y-102480534D01*
X106644995Y-102489716D01*
X106620671Y-102505970D01*
X106597950Y-102510489D01*
X106580408Y-102518235D01*
X106529061Y-102524192D01*
X106525000Y-102525000D01*
X106125000Y-102525000D01*
X106120941Y-102524192D01*
X106069591Y-102518235D01*
X106052048Y-102510489D01*
X106029329Y-102505970D01*
X106005006Y-102489718D01*
X105984206Y-102480534D01*
X105969999Y-102466327D01*
X105948223Y-102451777D01*
X105933672Y-102430000D01*
X105919465Y-102415793D01*
X105910280Y-102394991D01*
X105894030Y-102370671D01*
X105889511Y-102347954D01*
X105881764Y-102330408D01*
X105875805Y-102279049D01*
X105875000Y-102275000D01*
X105875000Y-101725000D01*
X105875804Y-101720953D01*
X105881764Y-101669591D01*
X105889511Y-101652043D01*
X105894030Y-101629329D01*
X105910278Y-101605010D01*
X105919465Y-101584206D01*
X105933674Y-101569996D01*
X105948223Y-101548223D01*
X105969996Y-101533674D01*
X105984206Y-101519465D01*
X106005010Y-101510278D01*
X106029329Y-101494030D01*
X106052043Y-101489511D01*
X106069591Y-101481764D01*
X106120952Y-101475805D01*
X106125000Y-101475000D01*
X106525000Y-101475000D01*
X106529047Y-101475805D01*
G37*
G36*
X119129047Y-101475805D02*
G01*
X119180408Y-101481764D01*
X119197954Y-101489511D01*
X119220671Y-101494030D01*
X119244991Y-101510280D01*
X119265793Y-101519465D01*
X119280000Y-101533672D01*
X119301777Y-101548223D01*
X119316327Y-101569999D01*
X119330534Y-101584206D01*
X119339718Y-101605006D01*
X119355970Y-101629329D01*
X119360489Y-101652048D01*
X119368235Y-101669591D01*
X119374192Y-101720940D01*
X119375000Y-101725000D01*
X119375000Y-102275000D01*
X119374192Y-102279059D01*
X119368235Y-102330408D01*
X119360489Y-102347950D01*
X119355970Y-102370671D01*
X119339716Y-102394995D01*
X119330534Y-102415793D01*
X119316329Y-102429997D01*
X119301777Y-102451777D01*
X119279997Y-102466329D01*
X119265793Y-102480534D01*
X119244995Y-102489716D01*
X119220671Y-102505970D01*
X119197950Y-102510489D01*
X119180408Y-102518235D01*
X119129061Y-102524192D01*
X119125000Y-102525000D01*
X118725000Y-102525000D01*
X118720941Y-102524192D01*
X118669591Y-102518235D01*
X118652048Y-102510489D01*
X118629329Y-102505970D01*
X118605006Y-102489718D01*
X118584206Y-102480534D01*
X118569999Y-102466327D01*
X118548223Y-102451777D01*
X118533672Y-102430000D01*
X118519465Y-102415793D01*
X118510280Y-102394991D01*
X118494030Y-102370671D01*
X118489511Y-102347954D01*
X118481764Y-102330408D01*
X118475805Y-102279049D01*
X118475000Y-102275000D01*
X118475000Y-101725000D01*
X118475804Y-101720953D01*
X118481764Y-101669591D01*
X118489511Y-101652043D01*
X118494030Y-101629329D01*
X118510278Y-101605010D01*
X118519465Y-101584206D01*
X118533674Y-101569996D01*
X118548223Y-101548223D01*
X118569996Y-101533674D01*
X118584206Y-101519465D01*
X118605010Y-101510278D01*
X118629329Y-101494030D01*
X118652043Y-101489511D01*
X118669591Y-101481764D01*
X118720952Y-101475805D01*
X118725000Y-101475000D01*
X119125000Y-101475000D01*
X119129047Y-101475805D01*
G37*
G36*
X120779047Y-101475805D02*
G01*
X120830408Y-101481764D01*
X120847954Y-101489511D01*
X120870671Y-101494030D01*
X120894991Y-101510280D01*
X120915793Y-101519465D01*
X120930000Y-101533672D01*
X120951777Y-101548223D01*
X120966327Y-101569999D01*
X120980534Y-101584206D01*
X120989718Y-101605006D01*
X121005970Y-101629329D01*
X121010489Y-101652048D01*
X121018235Y-101669591D01*
X121024192Y-101720940D01*
X121025000Y-101725000D01*
X121025000Y-102275000D01*
X121024192Y-102279059D01*
X121018235Y-102330408D01*
X121010489Y-102347950D01*
X121005970Y-102370671D01*
X120989716Y-102394995D01*
X120980534Y-102415793D01*
X120966329Y-102429997D01*
X120951777Y-102451777D01*
X120929997Y-102466329D01*
X120915793Y-102480534D01*
X120894995Y-102489716D01*
X120870671Y-102505970D01*
X120847950Y-102510489D01*
X120830408Y-102518235D01*
X120779061Y-102524192D01*
X120775000Y-102525000D01*
X120375000Y-102525000D01*
X120370941Y-102524192D01*
X120319591Y-102518235D01*
X120302048Y-102510489D01*
X120279329Y-102505970D01*
X120255006Y-102489718D01*
X120234206Y-102480534D01*
X120219999Y-102466327D01*
X120198223Y-102451777D01*
X120183672Y-102430000D01*
X120169465Y-102415793D01*
X120160280Y-102394991D01*
X120144030Y-102370671D01*
X120139511Y-102347954D01*
X120131764Y-102330408D01*
X120125805Y-102279049D01*
X120125000Y-102275000D01*
X120125000Y-101725000D01*
X120125804Y-101720953D01*
X120131764Y-101669591D01*
X120139511Y-101652043D01*
X120144030Y-101629329D01*
X120160278Y-101605010D01*
X120169465Y-101584206D01*
X120183674Y-101569996D01*
X120198223Y-101548223D01*
X120219996Y-101533674D01*
X120234206Y-101519465D01*
X120255010Y-101510278D01*
X120279329Y-101494030D01*
X120302043Y-101489511D01*
X120319591Y-101481764D01*
X120370952Y-101475805D01*
X120375000Y-101475000D01*
X120775000Y-101475000D01*
X120779047Y-101475805D01*
G37*
G36*
X122129047Y-101475805D02*
G01*
X122180408Y-101481764D01*
X122197954Y-101489511D01*
X122220671Y-101494030D01*
X122244991Y-101510280D01*
X122265793Y-101519465D01*
X122280000Y-101533672D01*
X122301777Y-101548223D01*
X122316327Y-101569999D01*
X122330534Y-101584206D01*
X122339718Y-101605006D01*
X122355970Y-101629329D01*
X122360489Y-101652048D01*
X122368235Y-101669591D01*
X122374192Y-101720940D01*
X122375000Y-101725000D01*
X122375000Y-102275000D01*
X122374192Y-102279059D01*
X122368235Y-102330408D01*
X122360489Y-102347950D01*
X122355970Y-102370671D01*
X122339716Y-102394995D01*
X122330534Y-102415793D01*
X122316329Y-102429997D01*
X122301777Y-102451777D01*
X122279997Y-102466329D01*
X122265793Y-102480534D01*
X122244995Y-102489716D01*
X122220671Y-102505970D01*
X122197950Y-102510489D01*
X122180408Y-102518235D01*
X122129061Y-102524192D01*
X122125000Y-102525000D01*
X121725000Y-102525000D01*
X121720941Y-102524192D01*
X121669591Y-102518235D01*
X121652048Y-102510489D01*
X121629329Y-102505970D01*
X121605006Y-102489718D01*
X121584206Y-102480534D01*
X121569999Y-102466327D01*
X121548223Y-102451777D01*
X121533672Y-102430000D01*
X121519465Y-102415793D01*
X121510280Y-102394991D01*
X121494030Y-102370671D01*
X121489511Y-102347954D01*
X121481764Y-102330408D01*
X121475805Y-102279049D01*
X121475000Y-102275000D01*
X121475000Y-101725000D01*
X121475804Y-101720953D01*
X121481764Y-101669591D01*
X121489511Y-101652043D01*
X121494030Y-101629329D01*
X121510278Y-101605010D01*
X121519465Y-101584206D01*
X121533674Y-101569996D01*
X121548223Y-101548223D01*
X121569996Y-101533674D01*
X121584206Y-101519465D01*
X121605010Y-101510278D01*
X121629329Y-101494030D01*
X121652043Y-101489511D01*
X121669591Y-101481764D01*
X121720952Y-101475805D01*
X121725000Y-101475000D01*
X122125000Y-101475000D01*
X122129047Y-101475805D01*
G37*
G36*
X123779047Y-101475805D02*
G01*
X123830408Y-101481764D01*
X123847954Y-101489511D01*
X123870671Y-101494030D01*
X123894991Y-101510280D01*
X123915793Y-101519465D01*
X123930000Y-101533672D01*
X123951777Y-101548223D01*
X123966327Y-101569999D01*
X123980534Y-101584206D01*
X123989718Y-101605006D01*
X124005970Y-101629329D01*
X124010489Y-101652048D01*
X124018235Y-101669591D01*
X124024192Y-101720940D01*
X124025000Y-101725000D01*
X124025000Y-102275000D01*
X124024192Y-102279059D01*
X124018235Y-102330408D01*
X124010489Y-102347950D01*
X124005970Y-102370671D01*
X123989716Y-102394995D01*
X123980534Y-102415793D01*
X123966329Y-102429997D01*
X123951777Y-102451777D01*
X123929997Y-102466329D01*
X123915793Y-102480534D01*
X123894995Y-102489716D01*
X123870671Y-102505970D01*
X123847950Y-102510489D01*
X123830408Y-102518235D01*
X123779061Y-102524192D01*
X123775000Y-102525000D01*
X123375000Y-102525000D01*
X123370941Y-102524192D01*
X123319591Y-102518235D01*
X123302048Y-102510489D01*
X123279329Y-102505970D01*
X123255006Y-102489718D01*
X123234206Y-102480534D01*
X123219999Y-102466327D01*
X123198223Y-102451777D01*
X123183672Y-102430000D01*
X123169465Y-102415793D01*
X123160280Y-102394991D01*
X123144030Y-102370671D01*
X123139511Y-102347954D01*
X123131764Y-102330408D01*
X123125805Y-102279049D01*
X123125000Y-102275000D01*
X123125000Y-101725000D01*
X123125804Y-101720953D01*
X123131764Y-101669591D01*
X123139511Y-101652043D01*
X123144030Y-101629329D01*
X123160278Y-101605010D01*
X123169465Y-101584206D01*
X123183674Y-101569996D01*
X123198223Y-101548223D01*
X123219996Y-101533674D01*
X123234206Y-101519465D01*
X123255010Y-101510278D01*
X123279329Y-101494030D01*
X123302043Y-101489511D01*
X123319591Y-101481764D01*
X123370952Y-101475805D01*
X123375000Y-101475000D01*
X123775000Y-101475000D01*
X123779047Y-101475805D01*
G37*
G36*
X109297835Y-101809515D02*
G01*
X109338388Y-101836612D01*
X109365485Y-101877165D01*
X109375000Y-101925000D01*
X109375000Y-102075000D01*
X109365485Y-102122835D01*
X109338388Y-102163388D01*
X109297835Y-102190485D01*
X109250000Y-102200000D01*
X107925000Y-102200000D01*
X107877165Y-102190485D01*
X107836612Y-102163388D01*
X107809515Y-102122835D01*
X107800000Y-102075000D01*
X107800000Y-101925000D01*
X107809515Y-101877165D01*
X107836612Y-101836612D01*
X107877165Y-101809515D01*
X107925000Y-101800000D01*
X109250000Y-101800000D01*
X109297835Y-101809515D01*
G37*
G36*
X117622835Y-101809515D02*
G01*
X117663388Y-101836612D01*
X117690485Y-101877165D01*
X117700000Y-101925000D01*
X117700000Y-102075000D01*
X117690485Y-102122835D01*
X117663388Y-102163388D01*
X117622835Y-102190485D01*
X117575000Y-102200000D01*
X116250000Y-102200000D01*
X116202165Y-102190485D01*
X116161612Y-102163388D01*
X116134515Y-102122835D01*
X116125000Y-102075000D01*
X116125000Y-101925000D01*
X116134515Y-101877165D01*
X116161612Y-101836612D01*
X116202165Y-101809515D01*
X116250000Y-101800000D01*
X117575000Y-101800000D01*
X117622835Y-101809515D01*
G37*
G36*
X109297835Y-101309515D02*
G01*
X109338388Y-101336612D01*
X109365485Y-101377165D01*
X109375000Y-101425000D01*
X109375000Y-101575000D01*
X109365485Y-101622835D01*
X109338388Y-101663388D01*
X109297835Y-101690485D01*
X109250000Y-101700000D01*
X107925000Y-101700000D01*
X107877165Y-101690485D01*
X107836612Y-101663388D01*
X107809515Y-101622835D01*
X107800000Y-101575000D01*
X107800000Y-101425000D01*
X107809515Y-101377165D01*
X107836612Y-101336612D01*
X107877165Y-101309515D01*
X107925000Y-101300000D01*
X109250000Y-101300000D01*
X109297835Y-101309515D01*
G37*
G36*
X117622835Y-101309515D02*
G01*
X117663388Y-101336612D01*
X117690485Y-101377165D01*
X117700000Y-101425000D01*
X117700000Y-101575000D01*
X117690485Y-101622835D01*
X117663388Y-101663388D01*
X117622835Y-101690485D01*
X117575000Y-101700000D01*
X116250000Y-101700000D01*
X116202165Y-101690485D01*
X116161612Y-101663388D01*
X116134515Y-101622835D01*
X116125000Y-101575000D01*
X116125000Y-101425000D01*
X116134515Y-101377165D01*
X116161612Y-101336612D01*
X116202165Y-101309515D01*
X116250000Y-101300000D01*
X117575000Y-101300000D01*
X117622835Y-101309515D01*
G37*
G36*
X109297835Y-100809515D02*
G01*
X109338388Y-100836612D01*
X109365485Y-100877165D01*
X109375000Y-100925000D01*
X109375000Y-101075000D01*
X109365485Y-101122835D01*
X109338388Y-101163388D01*
X109297835Y-101190485D01*
X109250000Y-101200000D01*
X107925000Y-101200000D01*
X107877165Y-101190485D01*
X107836612Y-101163388D01*
X107809515Y-101122835D01*
X107800000Y-101075000D01*
X107800000Y-100925000D01*
X107809515Y-100877165D01*
X107836612Y-100836612D01*
X107877165Y-100809515D01*
X107925000Y-100800000D01*
X109250000Y-100800000D01*
X109297835Y-100809515D01*
G37*
G36*
X117622835Y-100809515D02*
G01*
X117663388Y-100836612D01*
X117690485Y-100877165D01*
X117700000Y-100925000D01*
X117700000Y-101075000D01*
X117690485Y-101122835D01*
X117663388Y-101163388D01*
X117622835Y-101190485D01*
X117575000Y-101200000D01*
X116250000Y-101200000D01*
X116202165Y-101190485D01*
X116161612Y-101163388D01*
X116134515Y-101122835D01*
X116125000Y-101075000D01*
X116125000Y-100925000D01*
X116134515Y-100877165D01*
X116161612Y-100836612D01*
X116202165Y-100809515D01*
X116250000Y-100800000D01*
X117575000Y-100800000D01*
X117622835Y-100809515D01*
G37*
G36*
X104879047Y-99975805D02*
G01*
X104930408Y-99981764D01*
X104947954Y-99989511D01*
X104970671Y-99994030D01*
X104994991Y-100010280D01*
X105015793Y-100019465D01*
X105030000Y-100033672D01*
X105051777Y-100048223D01*
X105066327Y-100069999D01*
X105080534Y-100084206D01*
X105089718Y-100105006D01*
X105105970Y-100129329D01*
X105110489Y-100152048D01*
X105118235Y-100169591D01*
X105124192Y-100220940D01*
X105125000Y-100225000D01*
X105125000Y-100775000D01*
X105124192Y-100779059D01*
X105118235Y-100830408D01*
X105110489Y-100847950D01*
X105105970Y-100870671D01*
X105089716Y-100894995D01*
X105080534Y-100915793D01*
X105066329Y-100929997D01*
X105051777Y-100951777D01*
X105029997Y-100966329D01*
X105015793Y-100980534D01*
X104994995Y-100989716D01*
X104970671Y-101005970D01*
X104947950Y-101010489D01*
X104930408Y-101018235D01*
X104879061Y-101024192D01*
X104875000Y-101025000D01*
X104475000Y-101025000D01*
X104470941Y-101024192D01*
X104419591Y-101018235D01*
X104402048Y-101010489D01*
X104379329Y-101005970D01*
X104355006Y-100989718D01*
X104334206Y-100980534D01*
X104319999Y-100966327D01*
X104298223Y-100951777D01*
X104283672Y-100930000D01*
X104269465Y-100915793D01*
X104260280Y-100894991D01*
X104244030Y-100870671D01*
X104239511Y-100847954D01*
X104231764Y-100830408D01*
X104225805Y-100779049D01*
X104225000Y-100775000D01*
X104225000Y-100225000D01*
X104225804Y-100220953D01*
X104231764Y-100169591D01*
X104239511Y-100152043D01*
X104244030Y-100129329D01*
X104260278Y-100105010D01*
X104269465Y-100084206D01*
X104283674Y-100069996D01*
X104298223Y-100048223D01*
X104319996Y-100033674D01*
X104334206Y-100019465D01*
X104355010Y-100010278D01*
X104379329Y-99994030D01*
X104402043Y-99989511D01*
X104419591Y-99981764D01*
X104470952Y-99975805D01*
X104475000Y-99975000D01*
X104875000Y-99975000D01*
X104879047Y-99975805D01*
G37*
G36*
X106529047Y-99975805D02*
G01*
X106580408Y-99981764D01*
X106597954Y-99989511D01*
X106620671Y-99994030D01*
X106644991Y-100010280D01*
X106665793Y-100019465D01*
X106680000Y-100033672D01*
X106701777Y-100048223D01*
X106716327Y-100069999D01*
X106730534Y-100084206D01*
X106739718Y-100105006D01*
X106755970Y-100129329D01*
X106760489Y-100152048D01*
X106768235Y-100169591D01*
X106774192Y-100220940D01*
X106775000Y-100225000D01*
X106775000Y-100775000D01*
X106774192Y-100779059D01*
X106768235Y-100830408D01*
X106760489Y-100847950D01*
X106755970Y-100870671D01*
X106739716Y-100894995D01*
X106730534Y-100915793D01*
X106716329Y-100929997D01*
X106701777Y-100951777D01*
X106679997Y-100966329D01*
X106665793Y-100980534D01*
X106644995Y-100989716D01*
X106620671Y-101005970D01*
X106597950Y-101010489D01*
X106580408Y-101018235D01*
X106529061Y-101024192D01*
X106525000Y-101025000D01*
X106125000Y-101025000D01*
X106120941Y-101024192D01*
X106069591Y-101018235D01*
X106052048Y-101010489D01*
X106029329Y-101005970D01*
X106005006Y-100989718D01*
X105984206Y-100980534D01*
X105969999Y-100966327D01*
X105948223Y-100951777D01*
X105933672Y-100930000D01*
X105919465Y-100915793D01*
X105910280Y-100894991D01*
X105894030Y-100870671D01*
X105889511Y-100847954D01*
X105881764Y-100830408D01*
X105875805Y-100779049D01*
X105875000Y-100775000D01*
X105875000Y-100225000D01*
X105875804Y-100220953D01*
X105881764Y-100169591D01*
X105889511Y-100152043D01*
X105894030Y-100129329D01*
X105910278Y-100105010D01*
X105919465Y-100084206D01*
X105933674Y-100069996D01*
X105948223Y-100048223D01*
X105969996Y-100033674D01*
X105984206Y-100019465D01*
X106005010Y-100010278D01*
X106029329Y-99994030D01*
X106052043Y-99989511D01*
X106069591Y-99981764D01*
X106120952Y-99975805D01*
X106125000Y-99975000D01*
X106525000Y-99975000D01*
X106529047Y-99975805D01*
G37*
G36*
X119206409Y-99976275D02*
G01*
X119269958Y-99984641D01*
X119285943Y-99992095D01*
X119305238Y-99995933D01*
X119330792Y-100013008D01*
X119357290Y-100025364D01*
X119373412Y-100041486D01*
X119394454Y-100055546D01*
X119408513Y-100076587D01*
X119424635Y-100092709D01*
X119436990Y-100119204D01*
X119454067Y-100144762D01*
X119457905Y-100164058D01*
X119465358Y-100180041D01*
X119473722Y-100243577D01*
X119475000Y-100250000D01*
X119475000Y-100750000D01*
X119473722Y-100756424D01*
X119465358Y-100819958D01*
X119457905Y-100835939D01*
X119454067Y-100855238D01*
X119436988Y-100880797D01*
X119424635Y-100907290D01*
X119408516Y-100923408D01*
X119394454Y-100944454D01*
X119373408Y-100958516D01*
X119357290Y-100974635D01*
X119330797Y-100986988D01*
X119305238Y-101004067D01*
X119285939Y-101007905D01*
X119269958Y-101015358D01*
X119206424Y-101023722D01*
X119200000Y-101025000D01*
X118750000Y-101025000D01*
X118743577Y-101023722D01*
X118680041Y-101015358D01*
X118664058Y-101007905D01*
X118644762Y-101004067D01*
X118619204Y-100986990D01*
X118592709Y-100974635D01*
X118576587Y-100958513D01*
X118555546Y-100944454D01*
X118541486Y-100923412D01*
X118525364Y-100907290D01*
X118513008Y-100880792D01*
X118495933Y-100855238D01*
X118492095Y-100835943D01*
X118484641Y-100819958D01*
X118476275Y-100756409D01*
X118475000Y-100750000D01*
X118475000Y-100250000D01*
X118476274Y-100243592D01*
X118484641Y-100180041D01*
X118492095Y-100164054D01*
X118495933Y-100144762D01*
X118513006Y-100119209D01*
X118525364Y-100092709D01*
X118541488Y-100076584D01*
X118555546Y-100055546D01*
X118576584Y-100041488D01*
X118592709Y-100025364D01*
X118619209Y-100013006D01*
X118644762Y-99995933D01*
X118664054Y-99992095D01*
X118680041Y-99984641D01*
X118743592Y-99976274D01*
X118750000Y-99975000D01*
X119200000Y-99975000D01*
X119206409Y-99976275D01*
G37*
G36*
X120756409Y-99976275D02*
G01*
X120819958Y-99984641D01*
X120835943Y-99992095D01*
X120855238Y-99995933D01*
X120880792Y-100013008D01*
X120907290Y-100025364D01*
X120923412Y-100041486D01*
X120944454Y-100055546D01*
X120958513Y-100076587D01*
X120974635Y-100092709D01*
X120986990Y-100119204D01*
X121004067Y-100144762D01*
X121007905Y-100164058D01*
X121015358Y-100180041D01*
X121023722Y-100243577D01*
X121025000Y-100250000D01*
X121025000Y-100750000D01*
X121023722Y-100756424D01*
X121015358Y-100819958D01*
X121007905Y-100835939D01*
X121004067Y-100855238D01*
X120986988Y-100880797D01*
X120974635Y-100907290D01*
X120958516Y-100923408D01*
X120944454Y-100944454D01*
X120923408Y-100958516D01*
X120907290Y-100974635D01*
X120880797Y-100986988D01*
X120855238Y-101004067D01*
X120835939Y-101007905D01*
X120819958Y-101015358D01*
X120756424Y-101023722D01*
X120750000Y-101025000D01*
X120300000Y-101025000D01*
X120293577Y-101023722D01*
X120230041Y-101015358D01*
X120214058Y-101007905D01*
X120194762Y-101004067D01*
X120169204Y-100986990D01*
X120142709Y-100974635D01*
X120126587Y-100958513D01*
X120105546Y-100944454D01*
X120091486Y-100923412D01*
X120075364Y-100907290D01*
X120063008Y-100880792D01*
X120045933Y-100855238D01*
X120042095Y-100835943D01*
X120034641Y-100819958D01*
X120026275Y-100756409D01*
X120025000Y-100750000D01*
X120025000Y-100250000D01*
X120026274Y-100243592D01*
X120034641Y-100180041D01*
X120042095Y-100164054D01*
X120045933Y-100144762D01*
X120063006Y-100119209D01*
X120075364Y-100092709D01*
X120091488Y-100076584D01*
X120105546Y-100055546D01*
X120126584Y-100041488D01*
X120142709Y-100025364D01*
X120169209Y-100013006D01*
X120194762Y-99995933D01*
X120214054Y-99992095D01*
X120230041Y-99984641D01*
X120293592Y-99976274D01*
X120300000Y-99975000D01*
X120750000Y-99975000D01*
X120756409Y-99976275D01*
G37*
G36*
X109297835Y-100309515D02*
G01*
X109338388Y-100336612D01*
X109365485Y-100377165D01*
X109375000Y-100425000D01*
X109375000Y-100575000D01*
X109365485Y-100622835D01*
X109338388Y-100663388D01*
X109297835Y-100690485D01*
X109250000Y-100700000D01*
X107925000Y-100700000D01*
X107877165Y-100690485D01*
X107836612Y-100663388D01*
X107809515Y-100622835D01*
X107800000Y-100575000D01*
X107800000Y-100425000D01*
X107809515Y-100377165D01*
X107836612Y-100336612D01*
X107877165Y-100309515D01*
X107925000Y-100300000D01*
X109250000Y-100300000D01*
X109297835Y-100309515D01*
G37*
G36*
X117622835Y-100309515D02*
G01*
X117663388Y-100336612D01*
X117690485Y-100377165D01*
X117700000Y-100425000D01*
X117700000Y-100575000D01*
X117690485Y-100622835D01*
X117663388Y-100663388D01*
X117622835Y-100690485D01*
X117575000Y-100700000D01*
X116250000Y-100700000D01*
X116202165Y-100690485D01*
X116161612Y-100663388D01*
X116134515Y-100622835D01*
X116125000Y-100575000D01*
X116125000Y-100425000D01*
X116134515Y-100377165D01*
X116161612Y-100336612D01*
X116202165Y-100309515D01*
X116250000Y-100300000D01*
X117575000Y-100300000D01*
X117622835Y-100309515D01*
G37*
G36*
X109297835Y-99809515D02*
G01*
X109338388Y-99836612D01*
X109365485Y-99877165D01*
X109375000Y-99925000D01*
X109375000Y-100075000D01*
X109365485Y-100122835D01*
X109338388Y-100163388D01*
X109297835Y-100190485D01*
X109250000Y-100200000D01*
X107925000Y-100200000D01*
X107877165Y-100190485D01*
X107836612Y-100163388D01*
X107809515Y-100122835D01*
X107800000Y-100075000D01*
X107800000Y-99925000D01*
X107809515Y-99877165D01*
X107836612Y-99836612D01*
X107877165Y-99809515D01*
X107925000Y-99800000D01*
X109250000Y-99800000D01*
X109297835Y-99809515D01*
G37*
G36*
X117622835Y-99809515D02*
G01*
X117663388Y-99836612D01*
X117690485Y-99877165D01*
X117700000Y-99925000D01*
X117700000Y-100075000D01*
X117690485Y-100122835D01*
X117663388Y-100163388D01*
X117622835Y-100190485D01*
X117575000Y-100200000D01*
X116250000Y-100200000D01*
X116202165Y-100190485D01*
X116161612Y-100163388D01*
X116134515Y-100122835D01*
X116125000Y-100075000D01*
X116125000Y-99925000D01*
X116134515Y-99877165D01*
X116161612Y-99836612D01*
X116202165Y-99809515D01*
X116250000Y-99800000D01*
X117575000Y-99800000D01*
X117622835Y-99809515D01*
G37*
G36*
X109297835Y-99309515D02*
G01*
X109338388Y-99336612D01*
X109365485Y-99377165D01*
X109375000Y-99425000D01*
X109375000Y-99575000D01*
X109365485Y-99622835D01*
X109338388Y-99663388D01*
X109297835Y-99690485D01*
X109250000Y-99700000D01*
X107925000Y-99700000D01*
X107877165Y-99690485D01*
X107836612Y-99663388D01*
X107809515Y-99622835D01*
X107800000Y-99575000D01*
X107800000Y-99425000D01*
X107809515Y-99377165D01*
X107836612Y-99336612D01*
X107877165Y-99309515D01*
X107925000Y-99300000D01*
X109250000Y-99300000D01*
X109297835Y-99309515D01*
G37*
G36*
X117622835Y-99309515D02*
G01*
X117663388Y-99336612D01*
X117690485Y-99377165D01*
X117700000Y-99425000D01*
X117700000Y-99575000D01*
X117690485Y-99622835D01*
X117663388Y-99663388D01*
X117622835Y-99690485D01*
X117575000Y-99700000D01*
X116250000Y-99700000D01*
X116202165Y-99690485D01*
X116161612Y-99663388D01*
X116134515Y-99622835D01*
X116125000Y-99575000D01*
X116125000Y-99425000D01*
X116134515Y-99377165D01*
X116161612Y-99336612D01*
X116202165Y-99309515D01*
X116250000Y-99300000D01*
X117575000Y-99300000D01*
X117622835Y-99309515D01*
G37*
G36*
X124514632Y-97426441D02*
G01*
X124541668Y-97437640D01*
X124562360Y-97458332D01*
X124573559Y-97485368D01*
X124575000Y-97500000D01*
X124575000Y-99500000D01*
X124573559Y-99514632D01*
X124562360Y-99541668D01*
X124541668Y-99562360D01*
X124514632Y-99573559D01*
X124500000Y-99575000D01*
X124497546Y-99575000D01*
X119502454Y-99575000D01*
X119500000Y-99575000D01*
X119485368Y-99573559D01*
X119458332Y-99562360D01*
X119437640Y-99541668D01*
X119426441Y-99514632D01*
X119425000Y-99500000D01*
X119425000Y-97500000D01*
X119426441Y-97485368D01*
X119437640Y-97458332D01*
X119458332Y-97437640D01*
X119485368Y-97426441D01*
X119500000Y-97425000D01*
X124500000Y-97425000D01*
X124514632Y-97426441D01*
G37*
G36*
X105006409Y-98276275D02*
G01*
X105069958Y-98284641D01*
X105085943Y-98292095D01*
X105105238Y-98295933D01*
X105130792Y-98313008D01*
X105157290Y-98325364D01*
X105173412Y-98341486D01*
X105194454Y-98355546D01*
X105208513Y-98376587D01*
X105224635Y-98392709D01*
X105236990Y-98419204D01*
X105254067Y-98444762D01*
X105257905Y-98464058D01*
X105265358Y-98480041D01*
X105273722Y-98543577D01*
X105275000Y-98550000D01*
X105275000Y-99000000D01*
X105273722Y-99006424D01*
X105265358Y-99069958D01*
X105257905Y-99085939D01*
X105254067Y-99105238D01*
X105236988Y-99130797D01*
X105224635Y-99157290D01*
X105208516Y-99173408D01*
X105194454Y-99194454D01*
X105173408Y-99208516D01*
X105157290Y-99224635D01*
X105130797Y-99236988D01*
X105105238Y-99254067D01*
X105085939Y-99257905D01*
X105069958Y-99265358D01*
X105006424Y-99273722D01*
X105000000Y-99275000D01*
X104500000Y-99275000D01*
X104493577Y-99273722D01*
X104430041Y-99265358D01*
X104414058Y-99257905D01*
X104394762Y-99254067D01*
X104369204Y-99236990D01*
X104342709Y-99224635D01*
X104326587Y-99208513D01*
X104305546Y-99194454D01*
X104291486Y-99173412D01*
X104275364Y-99157290D01*
X104263008Y-99130792D01*
X104245933Y-99105238D01*
X104242095Y-99085943D01*
X104234641Y-99069958D01*
X104226275Y-99006409D01*
X104225000Y-99000000D01*
X104225000Y-98550000D01*
X104226274Y-98543592D01*
X104234641Y-98480041D01*
X104242095Y-98464054D01*
X104245933Y-98444762D01*
X104263006Y-98419209D01*
X104275364Y-98392709D01*
X104291488Y-98376584D01*
X104305546Y-98355546D01*
X104326584Y-98341488D01*
X104342709Y-98325364D01*
X104369209Y-98313006D01*
X104394762Y-98295933D01*
X104414054Y-98292095D01*
X104430041Y-98284641D01*
X104493592Y-98276274D01*
X104500000Y-98275000D01*
X105000000Y-98275000D01*
X105006409Y-98276275D01*
G37*
G36*
X106512660Y-98301275D02*
G01*
X106574590Y-98309428D01*
X106590167Y-98316692D01*
X106609096Y-98320457D01*
X106634167Y-98337208D01*
X106659955Y-98349234D01*
X106675644Y-98364923D01*
X106696285Y-98378715D01*
X106710076Y-98399355D01*
X106725765Y-98415044D01*
X106737789Y-98440830D01*
X106754543Y-98465904D01*
X106758308Y-98484834D01*
X106765571Y-98500409D01*
X106773722Y-98562326D01*
X106775000Y-98568750D01*
X106775000Y-99006250D01*
X106773722Y-99012674D01*
X106765571Y-99074590D01*
X106758308Y-99090164D01*
X106754543Y-99109096D01*
X106737787Y-99134171D01*
X106725765Y-99159955D01*
X106710078Y-99175641D01*
X106696285Y-99196285D01*
X106675641Y-99210078D01*
X106659955Y-99225765D01*
X106634171Y-99237787D01*
X106609096Y-99254543D01*
X106590164Y-99258308D01*
X106574590Y-99265571D01*
X106512674Y-99273722D01*
X106506250Y-99275000D01*
X105993750Y-99275000D01*
X105987326Y-99273722D01*
X105925409Y-99265571D01*
X105909834Y-99258308D01*
X105890904Y-99254543D01*
X105865830Y-99237789D01*
X105840044Y-99225765D01*
X105824355Y-99210076D01*
X105803715Y-99196285D01*
X105789923Y-99175644D01*
X105774234Y-99159955D01*
X105762208Y-99134167D01*
X105745457Y-99109096D01*
X105741692Y-99090167D01*
X105734428Y-99074590D01*
X105726275Y-99012660D01*
X105725000Y-99006250D01*
X105725000Y-98568750D01*
X105726274Y-98562341D01*
X105734428Y-98500409D01*
X105741692Y-98484830D01*
X105745457Y-98465904D01*
X105762207Y-98440835D01*
X105774234Y-98415044D01*
X105789925Y-98399352D01*
X105803715Y-98378715D01*
X105824352Y-98364925D01*
X105840044Y-98349234D01*
X105865835Y-98337207D01*
X105890904Y-98320457D01*
X105909830Y-98316692D01*
X105925409Y-98309428D01*
X105987341Y-98301274D01*
X105993750Y-98300000D01*
X106506250Y-98300000D01*
X106512660Y-98301275D01*
G37*
G36*
X109297835Y-98809515D02*
G01*
X109338388Y-98836612D01*
X109365485Y-98877165D01*
X109375000Y-98925000D01*
X109375000Y-99075000D01*
X109365485Y-99122835D01*
X109338388Y-99163388D01*
X109297835Y-99190485D01*
X109250000Y-99200000D01*
X107925000Y-99200000D01*
X107877165Y-99190485D01*
X107836612Y-99163388D01*
X107809515Y-99122835D01*
X107800000Y-99075000D01*
X107800000Y-98925000D01*
X107809515Y-98877165D01*
X107836612Y-98836612D01*
X107877165Y-98809515D01*
X107925000Y-98800000D01*
X109250000Y-98800000D01*
X109297835Y-98809515D01*
G37*
G36*
X117622835Y-98809515D02*
G01*
X117663388Y-98836612D01*
X117690485Y-98877165D01*
X117700000Y-98925000D01*
X117700000Y-99075000D01*
X117690485Y-99122835D01*
X117663388Y-99163388D01*
X117622835Y-99190485D01*
X117575000Y-99200000D01*
X116250000Y-99200000D01*
X116202165Y-99190485D01*
X116161612Y-99163388D01*
X116134515Y-99122835D01*
X116125000Y-99075000D01*
X116125000Y-98925000D01*
X116134515Y-98877165D01*
X116161612Y-98836612D01*
X116202165Y-98809515D01*
X116250000Y-98800000D01*
X117575000Y-98800000D01*
X117622835Y-98809515D01*
G37*
G36*
X109297835Y-98309515D02*
G01*
X109338388Y-98336612D01*
X109365485Y-98377165D01*
X109375000Y-98425000D01*
X109375000Y-98575000D01*
X109365485Y-98622835D01*
X109338388Y-98663388D01*
X109297835Y-98690485D01*
X109250000Y-98700000D01*
X107925000Y-98700000D01*
X107877165Y-98690485D01*
X107836612Y-98663388D01*
X107809515Y-98622835D01*
X107800000Y-98575000D01*
X107800000Y-98425000D01*
X107809515Y-98377165D01*
X107836612Y-98336612D01*
X107877165Y-98309515D01*
X107925000Y-98300000D01*
X109250000Y-98300000D01*
X109297835Y-98309515D01*
G37*
G36*
X117622835Y-98309515D02*
G01*
X117663388Y-98336612D01*
X117690485Y-98377165D01*
X117700000Y-98425000D01*
X117700000Y-98575000D01*
X117690485Y-98622835D01*
X117663388Y-98663388D01*
X117622835Y-98690485D01*
X117575000Y-98700000D01*
X116250000Y-98700000D01*
X116202165Y-98690485D01*
X116161612Y-98663388D01*
X116134515Y-98622835D01*
X116125000Y-98575000D01*
X116125000Y-98425000D01*
X116134515Y-98377165D01*
X116161612Y-98336612D01*
X116202165Y-98309515D01*
X116250000Y-98300000D01*
X117575000Y-98300000D01*
X117622835Y-98309515D01*
G37*
G36*
X109297835Y-97809515D02*
G01*
X109338388Y-97836612D01*
X109365485Y-97877165D01*
X109375000Y-97925000D01*
X109375000Y-98075000D01*
X109365485Y-98122835D01*
X109338388Y-98163388D01*
X109297835Y-98190485D01*
X109250000Y-98200000D01*
X107925000Y-98200000D01*
X107877165Y-98190485D01*
X107836612Y-98163388D01*
X107809515Y-98122835D01*
X107800000Y-98075000D01*
X107800000Y-97925000D01*
X107809515Y-97877165D01*
X107836612Y-97836612D01*
X107877165Y-97809515D01*
X107925000Y-97800000D01*
X109250000Y-97800000D01*
X109297835Y-97809515D01*
G37*
G36*
X117622835Y-97809515D02*
G01*
X117663388Y-97836612D01*
X117690485Y-97877165D01*
X117700000Y-97925000D01*
X117700000Y-98075000D01*
X117690485Y-98122835D01*
X117663388Y-98163388D01*
X117622835Y-98190485D01*
X117575000Y-98200000D01*
X116250000Y-98200000D01*
X116202165Y-98190485D01*
X116161612Y-98163388D01*
X116134515Y-98122835D01*
X116125000Y-98075000D01*
X116125000Y-97925000D01*
X116134515Y-97877165D01*
X116161612Y-97836612D01*
X116202165Y-97809515D01*
X116250000Y-97800000D01*
X117575000Y-97800000D01*
X117622835Y-97809515D01*
G37*
G36*
X105006409Y-96726275D02*
G01*
X105069958Y-96734641D01*
X105085943Y-96742095D01*
X105105238Y-96745933D01*
X105130792Y-96763008D01*
X105157290Y-96775364D01*
X105173412Y-96791486D01*
X105194454Y-96805546D01*
X105208513Y-96826587D01*
X105224635Y-96842709D01*
X105236990Y-96869204D01*
X105254067Y-96894762D01*
X105257905Y-96914058D01*
X105265358Y-96930041D01*
X105273722Y-96993577D01*
X105275000Y-97000000D01*
X105275000Y-97450000D01*
X105273722Y-97456424D01*
X105265358Y-97519958D01*
X105257905Y-97535939D01*
X105254067Y-97555238D01*
X105236988Y-97580797D01*
X105224635Y-97607290D01*
X105208516Y-97623408D01*
X105194454Y-97644454D01*
X105173408Y-97658516D01*
X105157290Y-97674635D01*
X105130797Y-97686988D01*
X105105238Y-97704067D01*
X105085939Y-97707905D01*
X105069958Y-97715358D01*
X105006424Y-97723722D01*
X105000000Y-97725000D01*
X104500000Y-97725000D01*
X104493577Y-97723722D01*
X104430041Y-97715358D01*
X104414058Y-97707905D01*
X104394762Y-97704067D01*
X104369204Y-97686990D01*
X104342709Y-97674635D01*
X104326587Y-97658513D01*
X104305546Y-97644454D01*
X104291486Y-97623412D01*
X104275364Y-97607290D01*
X104263008Y-97580792D01*
X104245933Y-97555238D01*
X104242095Y-97535943D01*
X104234641Y-97519958D01*
X104226275Y-97456409D01*
X104225000Y-97450000D01*
X104225000Y-97000000D01*
X104226274Y-96993592D01*
X104234641Y-96930041D01*
X104242095Y-96914054D01*
X104245933Y-96894762D01*
X104263006Y-96869209D01*
X104275364Y-96842709D01*
X104291488Y-96826584D01*
X104305546Y-96805546D01*
X104326584Y-96791488D01*
X104342709Y-96775364D01*
X104369209Y-96763006D01*
X104394762Y-96745933D01*
X104414054Y-96742095D01*
X104430041Y-96734641D01*
X104493592Y-96726274D01*
X104500000Y-96725000D01*
X105000000Y-96725000D01*
X105006409Y-96726275D01*
G37*
G36*
X106512660Y-96726275D02*
G01*
X106574590Y-96734428D01*
X106590167Y-96741692D01*
X106609096Y-96745457D01*
X106634167Y-96762208D01*
X106659955Y-96774234D01*
X106675644Y-96789923D01*
X106696285Y-96803715D01*
X106710076Y-96824355D01*
X106725765Y-96840044D01*
X106737789Y-96865830D01*
X106754543Y-96890904D01*
X106758308Y-96909834D01*
X106765571Y-96925409D01*
X106773722Y-96987326D01*
X106775000Y-96993750D01*
X106775000Y-97431250D01*
X106773722Y-97437674D01*
X106765571Y-97499590D01*
X106758308Y-97515164D01*
X106754543Y-97534096D01*
X106737787Y-97559171D01*
X106725765Y-97584955D01*
X106710078Y-97600641D01*
X106696285Y-97621285D01*
X106675641Y-97635078D01*
X106659955Y-97650765D01*
X106634171Y-97662787D01*
X106609096Y-97679543D01*
X106590164Y-97683308D01*
X106574590Y-97690571D01*
X106512674Y-97698722D01*
X106506250Y-97700000D01*
X105993750Y-97700000D01*
X105987326Y-97698722D01*
X105925409Y-97690571D01*
X105909834Y-97683308D01*
X105890904Y-97679543D01*
X105865830Y-97662789D01*
X105840044Y-97650765D01*
X105824355Y-97635076D01*
X105803715Y-97621285D01*
X105789923Y-97600644D01*
X105774234Y-97584955D01*
X105762208Y-97559167D01*
X105745457Y-97534096D01*
X105741692Y-97515167D01*
X105734428Y-97499590D01*
X105726275Y-97437660D01*
X105725000Y-97431250D01*
X105725000Y-96993750D01*
X105726274Y-96987341D01*
X105734428Y-96925409D01*
X105741692Y-96909830D01*
X105745457Y-96890904D01*
X105762207Y-96865835D01*
X105774234Y-96840044D01*
X105789925Y-96824352D01*
X105803715Y-96803715D01*
X105824352Y-96789925D01*
X105840044Y-96774234D01*
X105865835Y-96762207D01*
X105890904Y-96745457D01*
X105909830Y-96741692D01*
X105925409Y-96734428D01*
X105987341Y-96726274D01*
X105993750Y-96725000D01*
X106506250Y-96725000D01*
X106512660Y-96726275D01*
G37*
G36*
X109297835Y-97309515D02*
G01*
X109338388Y-97336612D01*
X109365485Y-97377165D01*
X109375000Y-97425000D01*
X109375000Y-97575000D01*
X109365485Y-97622835D01*
X109338388Y-97663388D01*
X109297835Y-97690485D01*
X109250000Y-97700000D01*
X107925000Y-97700000D01*
X107877165Y-97690485D01*
X107836612Y-97663388D01*
X107809515Y-97622835D01*
X107800000Y-97575000D01*
X107800000Y-97425000D01*
X107809515Y-97377165D01*
X107836612Y-97336612D01*
X107877165Y-97309515D01*
X107925000Y-97300000D01*
X109250000Y-97300000D01*
X109297835Y-97309515D01*
G37*
G36*
X117622835Y-97309515D02*
G01*
X117663388Y-97336612D01*
X117690485Y-97377165D01*
X117700000Y-97425000D01*
X117700000Y-97575000D01*
X117690485Y-97622835D01*
X117663388Y-97663388D01*
X117622835Y-97690485D01*
X117575000Y-97700000D01*
X116250000Y-97700000D01*
X116202165Y-97690485D01*
X116161612Y-97663388D01*
X116134515Y-97622835D01*
X116125000Y-97575000D01*
X116125000Y-97425000D01*
X116134515Y-97377165D01*
X116161612Y-97336612D01*
X116202165Y-97309515D01*
X116250000Y-97300000D01*
X117575000Y-97300000D01*
X117622835Y-97309515D01*
G37*
G36*
X109297835Y-96809515D02*
G01*
X109338388Y-96836612D01*
X109365485Y-96877165D01*
X109375000Y-96925000D01*
X109375000Y-97075000D01*
X109365485Y-97122835D01*
X109338388Y-97163388D01*
X109297835Y-97190485D01*
X109250000Y-97200000D01*
X107925000Y-97200000D01*
X107877165Y-97190485D01*
X107836612Y-97163388D01*
X107809515Y-97122835D01*
X107800000Y-97075000D01*
X107800000Y-96925000D01*
X107809515Y-96877165D01*
X107836612Y-96836612D01*
X107877165Y-96809515D01*
X107925000Y-96800000D01*
X109250000Y-96800000D01*
X109297835Y-96809515D01*
G37*
G36*
X117622835Y-96809515D02*
G01*
X117663388Y-96836612D01*
X117690485Y-96877165D01*
X117700000Y-96925000D01*
X117700000Y-97075000D01*
X117690485Y-97122835D01*
X117663388Y-97163388D01*
X117622835Y-97190485D01*
X117575000Y-97200000D01*
X116250000Y-97200000D01*
X116202165Y-97190485D01*
X116161612Y-97163388D01*
X116134515Y-97122835D01*
X116125000Y-97075000D01*
X116125000Y-96925000D01*
X116134515Y-96877165D01*
X116161612Y-96836612D01*
X116202165Y-96809515D01*
X116250000Y-96800000D01*
X117575000Y-96800000D01*
X117622835Y-96809515D01*
G37*
G36*
X124514632Y-92926441D02*
G01*
X124541668Y-92937640D01*
X124562360Y-92958332D01*
X124573559Y-92985368D01*
X124575000Y-93000000D01*
X124575000Y-97000000D01*
X124573559Y-97014632D01*
X124562360Y-97041668D01*
X124541668Y-97062360D01*
X124514632Y-97073559D01*
X124500000Y-97075000D01*
X124497546Y-97075000D01*
X120502454Y-97075000D01*
X120500000Y-97075000D01*
X120485368Y-97073559D01*
X120458332Y-97062360D01*
X120437640Y-97041668D01*
X120426441Y-97014632D01*
X120425000Y-97000000D01*
X120425000Y-93000000D01*
X120426441Y-92985368D01*
X120437640Y-92958332D01*
X120458332Y-92937640D01*
X120485368Y-92926441D01*
X120500000Y-92925000D01*
X124500000Y-92925000D01*
X124514632Y-92926441D01*
G37*
G36*
X109297835Y-96309515D02*
G01*
X109338388Y-96336612D01*
X109365485Y-96377165D01*
X109375000Y-96425000D01*
X109375000Y-96575000D01*
X109365485Y-96622835D01*
X109338388Y-96663388D01*
X109297835Y-96690485D01*
X109250000Y-96700000D01*
X107925000Y-96700000D01*
X107877165Y-96690485D01*
X107836612Y-96663388D01*
X107809515Y-96622835D01*
X107800000Y-96575000D01*
X107800000Y-96425000D01*
X107809515Y-96377165D01*
X107836612Y-96336612D01*
X107877165Y-96309515D01*
X107925000Y-96300000D01*
X109250000Y-96300000D01*
X109297835Y-96309515D01*
G37*
G36*
X117622835Y-96309515D02*
G01*
X117663388Y-96336612D01*
X117690485Y-96377165D01*
X117700000Y-96425000D01*
X117700000Y-96575000D01*
X117690485Y-96622835D01*
X117663388Y-96663388D01*
X117622835Y-96690485D01*
X117575000Y-96700000D01*
X116250000Y-96700000D01*
X116202165Y-96690485D01*
X116161612Y-96663388D01*
X116134515Y-96622835D01*
X116125000Y-96575000D01*
X116125000Y-96425000D01*
X116134515Y-96377165D01*
X116161612Y-96336612D01*
X116202165Y-96309515D01*
X116250000Y-96300000D01*
X117575000Y-96300000D01*
X117622835Y-96309515D01*
G37*
G36*
X104894134Y-95353806D02*
G01*
X104910355Y-95364645D01*
X104921194Y-95380866D01*
X104925000Y-95400000D01*
X104925000Y-96000000D01*
X104921194Y-96019134D01*
X104910355Y-96035355D01*
X104894134Y-96046194D01*
X104875000Y-96050000D01*
X104625000Y-96050000D01*
X104605866Y-96046194D01*
X104589645Y-96035355D01*
X104578806Y-96019134D01*
X104575000Y-96000000D01*
X104575000Y-95400000D01*
X104578806Y-95380866D01*
X104589645Y-95364645D01*
X104605866Y-95353806D01*
X104625000Y-95350000D01*
X104875000Y-95350000D01*
X104894134Y-95353806D01*
G37*
G36*
X105394134Y-95353806D02*
G01*
X105410355Y-95364645D01*
X105421194Y-95380866D01*
X105425000Y-95400000D01*
X105425000Y-96000000D01*
X105421194Y-96019134D01*
X105410355Y-96035355D01*
X105394134Y-96046194D01*
X105375000Y-96050000D01*
X105125000Y-96050000D01*
X105105866Y-96046194D01*
X105089645Y-96035355D01*
X105078806Y-96019134D01*
X105075000Y-96000000D01*
X105075000Y-95400000D01*
X105078806Y-95380866D01*
X105089645Y-95364645D01*
X105105866Y-95353806D01*
X105125000Y-95350000D01*
X105375000Y-95350000D01*
X105394134Y-95353806D01*
G37*
G36*
X105894134Y-95353806D02*
G01*
X105910355Y-95364645D01*
X105921194Y-95380866D01*
X105925000Y-95400000D01*
X105925000Y-96000000D01*
X105921194Y-96019134D01*
X105910355Y-96035355D01*
X105894134Y-96046194D01*
X105875000Y-96050000D01*
X105625000Y-96050000D01*
X105605866Y-96046194D01*
X105589645Y-96035355D01*
X105578806Y-96019134D01*
X105575000Y-96000000D01*
X105575000Y-95400000D01*
X105578806Y-95380866D01*
X105589645Y-95364645D01*
X105605866Y-95353806D01*
X105625000Y-95350000D01*
X105875000Y-95350000D01*
X105894134Y-95353806D01*
G37*
G36*
X106394134Y-95353806D02*
G01*
X106410355Y-95364645D01*
X106421194Y-95380866D01*
X106425000Y-95400000D01*
X106425000Y-96000000D01*
X106421194Y-96019134D01*
X106410355Y-96035355D01*
X106394134Y-96046194D01*
X106375000Y-96050000D01*
X106125000Y-96050000D01*
X106105866Y-96046194D01*
X106089645Y-96035355D01*
X106078806Y-96019134D01*
X106075000Y-96000000D01*
X106075000Y-95400000D01*
X106078806Y-95380866D01*
X106089645Y-95364645D01*
X106105866Y-95353806D01*
X106125000Y-95350000D01*
X106375000Y-95350000D01*
X106394134Y-95353806D01*
G37*
G36*
X110122835Y-94309515D02*
G01*
X110163388Y-94336612D01*
X110190485Y-94377165D01*
X110200000Y-94425000D01*
X110200000Y-95750000D01*
X110190485Y-95797835D01*
X110163388Y-95838388D01*
X110122835Y-95865485D01*
X110075000Y-95875000D01*
X109925000Y-95875000D01*
X109877165Y-95865485D01*
X109836612Y-95838388D01*
X109809515Y-95797835D01*
X109800000Y-95750000D01*
X109800000Y-94425000D01*
X109809515Y-94377165D01*
X109836612Y-94336612D01*
X109877165Y-94309515D01*
X109925000Y-94300000D01*
X110075000Y-94300000D01*
X110122835Y-94309515D01*
G37*
G36*
X110622835Y-94309515D02*
G01*
X110663388Y-94336612D01*
X110690485Y-94377165D01*
X110700000Y-94425000D01*
X110700000Y-95750000D01*
X110690485Y-95797835D01*
X110663388Y-95838388D01*
X110622835Y-95865485D01*
X110575000Y-95875000D01*
X110425000Y-95875000D01*
X110377165Y-95865485D01*
X110336612Y-95838388D01*
X110309515Y-95797835D01*
X110300000Y-95750000D01*
X110300000Y-94425000D01*
X110309515Y-94377165D01*
X110336612Y-94336612D01*
X110377165Y-94309515D01*
X110425000Y-94300000D01*
X110575000Y-94300000D01*
X110622835Y-94309515D01*
G37*
G36*
X111122835Y-94309515D02*
G01*
X111163388Y-94336612D01*
X111190485Y-94377165D01*
X111200000Y-94425000D01*
X111200000Y-95750000D01*
X111190485Y-95797835D01*
X111163388Y-95838388D01*
X111122835Y-95865485D01*
X111075000Y-95875000D01*
X110925000Y-95875000D01*
X110877165Y-95865485D01*
X110836612Y-95838388D01*
X110809515Y-95797835D01*
X110800000Y-95750000D01*
X110800000Y-94425000D01*
X110809515Y-94377165D01*
X110836612Y-94336612D01*
X110877165Y-94309515D01*
X110925000Y-94300000D01*
X111075000Y-94300000D01*
X111122835Y-94309515D01*
G37*
G36*
X111622835Y-94309515D02*
G01*
X111663388Y-94336612D01*
X111690485Y-94377165D01*
X111700000Y-94425000D01*
X111700000Y-95750000D01*
X111690485Y-95797835D01*
X111663388Y-95838388D01*
X111622835Y-95865485D01*
X111575000Y-95875000D01*
X111425000Y-95875000D01*
X111377165Y-95865485D01*
X111336612Y-95838388D01*
X111309515Y-95797835D01*
X111300000Y-95750000D01*
X111300000Y-94425000D01*
X111309515Y-94377165D01*
X111336612Y-94336612D01*
X111377165Y-94309515D01*
X111425000Y-94300000D01*
X111575000Y-94300000D01*
X111622835Y-94309515D01*
G37*
G36*
X112122835Y-94309515D02*
G01*
X112163388Y-94336612D01*
X112190485Y-94377165D01*
X112200000Y-94425000D01*
X112200000Y-95750000D01*
X112190485Y-95797835D01*
X112163388Y-95838388D01*
X112122835Y-95865485D01*
X112075000Y-95875000D01*
X111925000Y-95875000D01*
X111877165Y-95865485D01*
X111836612Y-95838388D01*
X111809515Y-95797835D01*
X111800000Y-95750000D01*
X111800000Y-94425000D01*
X111809515Y-94377165D01*
X111836612Y-94336612D01*
X111877165Y-94309515D01*
X111925000Y-94300000D01*
X112075000Y-94300000D01*
X112122835Y-94309515D01*
G37*
G36*
X112622835Y-94309515D02*
G01*
X112663388Y-94336612D01*
X112690485Y-94377165D01*
X112700000Y-94425000D01*
X112700000Y-95750000D01*
X112690485Y-95797835D01*
X112663388Y-95838388D01*
X112622835Y-95865485D01*
X112575000Y-95875000D01*
X112425000Y-95875000D01*
X112377165Y-95865485D01*
X112336612Y-95838388D01*
X112309515Y-95797835D01*
X112300000Y-95750000D01*
X112300000Y-94425000D01*
X112309515Y-94377165D01*
X112336612Y-94336612D01*
X112377165Y-94309515D01*
X112425000Y-94300000D01*
X112575000Y-94300000D01*
X112622835Y-94309515D01*
G37*
G36*
X113122835Y-94309515D02*
G01*
X113163388Y-94336612D01*
X113190485Y-94377165D01*
X113200000Y-94425000D01*
X113200000Y-95750000D01*
X113190485Y-95797835D01*
X113163388Y-95838388D01*
X113122835Y-95865485D01*
X113075000Y-95875000D01*
X112925000Y-95875000D01*
X112877165Y-95865485D01*
X112836612Y-95838388D01*
X112809515Y-95797835D01*
X112800000Y-95750000D01*
X112800000Y-94425000D01*
X112809515Y-94377165D01*
X112836612Y-94336612D01*
X112877165Y-94309515D01*
X112925000Y-94300000D01*
X113075000Y-94300000D01*
X113122835Y-94309515D01*
G37*
G36*
X113622835Y-94309515D02*
G01*
X113663388Y-94336612D01*
X113690485Y-94377165D01*
X113700000Y-94425000D01*
X113700000Y-95750000D01*
X113690485Y-95797835D01*
X113663388Y-95838388D01*
X113622835Y-95865485D01*
X113575000Y-95875000D01*
X113425000Y-95875000D01*
X113377165Y-95865485D01*
X113336612Y-95838388D01*
X113309515Y-95797835D01*
X113300000Y-95750000D01*
X113300000Y-94425000D01*
X113309515Y-94377165D01*
X113336612Y-94336612D01*
X113377165Y-94309515D01*
X113425000Y-94300000D01*
X113575000Y-94300000D01*
X113622835Y-94309515D01*
G37*
G36*
X114122835Y-94309515D02*
G01*
X114163388Y-94336612D01*
X114190485Y-94377165D01*
X114200000Y-94425000D01*
X114200000Y-95750000D01*
X114190485Y-95797835D01*
X114163388Y-95838388D01*
X114122835Y-95865485D01*
X114075000Y-95875000D01*
X113925000Y-95875000D01*
X113877165Y-95865485D01*
X113836612Y-95838388D01*
X113809515Y-95797835D01*
X113800000Y-95750000D01*
X113800000Y-94425000D01*
X113809515Y-94377165D01*
X113836612Y-94336612D01*
X113877165Y-94309515D01*
X113925000Y-94300000D01*
X114075000Y-94300000D01*
X114122835Y-94309515D01*
G37*
G36*
X114622835Y-94309515D02*
G01*
X114663388Y-94336612D01*
X114690485Y-94377165D01*
X114700000Y-94425000D01*
X114700000Y-95750000D01*
X114690485Y-95797835D01*
X114663388Y-95838388D01*
X114622835Y-95865485D01*
X114575000Y-95875000D01*
X114425000Y-95875000D01*
X114377165Y-95865485D01*
X114336612Y-95838388D01*
X114309515Y-95797835D01*
X114300000Y-95750000D01*
X114300000Y-94425000D01*
X114309515Y-94377165D01*
X114336612Y-94336612D01*
X114377165Y-94309515D01*
X114425000Y-94300000D01*
X114575000Y-94300000D01*
X114622835Y-94309515D01*
G37*
G36*
X115122835Y-94309515D02*
G01*
X115163388Y-94336612D01*
X115190485Y-94377165D01*
X115200000Y-94425000D01*
X115200000Y-95750000D01*
X115190485Y-95797835D01*
X115163388Y-95838388D01*
X115122835Y-95865485D01*
X115075000Y-95875000D01*
X114925000Y-95875000D01*
X114877165Y-95865485D01*
X114836612Y-95838388D01*
X114809515Y-95797835D01*
X114800000Y-95750000D01*
X114800000Y-94425000D01*
X114809515Y-94377165D01*
X114836612Y-94336612D01*
X114877165Y-94309515D01*
X114925000Y-94300000D01*
X115075000Y-94300000D01*
X115122835Y-94309515D01*
G37*
G36*
X115622835Y-94309515D02*
G01*
X115663388Y-94336612D01*
X115690485Y-94377165D01*
X115700000Y-94425000D01*
X115700000Y-95750000D01*
X115690485Y-95797835D01*
X115663388Y-95838388D01*
X115622835Y-95865485D01*
X115575000Y-95875000D01*
X115425000Y-95875000D01*
X115377165Y-95865485D01*
X115336612Y-95838388D01*
X115309515Y-95797835D01*
X115300000Y-95750000D01*
X115300000Y-94425000D01*
X115309515Y-94377165D01*
X115336612Y-94336612D01*
X115377165Y-94309515D01*
X115425000Y-94300000D01*
X115575000Y-94300000D01*
X115622835Y-94309515D01*
G37*
G36*
X108006409Y-94776275D02*
G01*
X108069958Y-94784641D01*
X108085943Y-94792095D01*
X108105238Y-94795933D01*
X108130792Y-94813008D01*
X108157290Y-94825364D01*
X108173412Y-94841486D01*
X108194454Y-94855546D01*
X108208513Y-94876587D01*
X108224635Y-94892709D01*
X108236990Y-94919204D01*
X108254067Y-94944762D01*
X108257905Y-94964058D01*
X108265358Y-94980041D01*
X108273722Y-95043577D01*
X108275000Y-95050000D01*
X108275000Y-95500000D01*
X108273722Y-95506424D01*
X108265358Y-95569958D01*
X108257905Y-95585939D01*
X108254067Y-95605238D01*
X108236988Y-95630797D01*
X108224635Y-95657290D01*
X108208516Y-95673408D01*
X108194454Y-95694454D01*
X108173408Y-95708516D01*
X108157290Y-95724635D01*
X108130797Y-95736988D01*
X108105238Y-95754067D01*
X108085939Y-95757905D01*
X108069958Y-95765358D01*
X108006424Y-95773722D01*
X108000000Y-95775000D01*
X107500000Y-95775000D01*
X107493577Y-95773722D01*
X107430041Y-95765358D01*
X107414058Y-95757905D01*
X107394762Y-95754067D01*
X107369204Y-95736990D01*
X107342709Y-95724635D01*
X107326587Y-95708513D01*
X107305546Y-95694454D01*
X107291486Y-95673412D01*
X107275364Y-95657290D01*
X107263008Y-95630792D01*
X107245933Y-95605238D01*
X107242095Y-95585943D01*
X107234641Y-95569958D01*
X107226275Y-95506409D01*
X107225000Y-95500000D01*
X107225000Y-95050000D01*
X107226274Y-95043592D01*
X107234641Y-94980041D01*
X107242095Y-94964054D01*
X107245933Y-94944762D01*
X107263006Y-94919209D01*
X107275364Y-94892709D01*
X107291488Y-94876584D01*
X107305546Y-94855546D01*
X107326584Y-94841488D01*
X107342709Y-94825364D01*
X107369209Y-94813006D01*
X107394762Y-94795933D01*
X107414054Y-94792095D01*
X107430041Y-94784641D01*
X107493592Y-94776274D01*
X107500000Y-94775000D01*
X108000000Y-94775000D01*
X108006409Y-94776275D01*
G37*
G36*
X118129047Y-94475805D02*
G01*
X118180408Y-94481764D01*
X118197954Y-94489511D01*
X118220671Y-94494030D01*
X118244991Y-94510280D01*
X118265793Y-94519465D01*
X118280000Y-94533672D01*
X118301777Y-94548223D01*
X118316327Y-94569999D01*
X118330534Y-94584206D01*
X118339718Y-94605006D01*
X118355970Y-94629329D01*
X118360489Y-94652048D01*
X118368235Y-94669591D01*
X118374192Y-94720940D01*
X118375000Y-94725000D01*
X118375000Y-95275000D01*
X118374192Y-95279059D01*
X118368235Y-95330408D01*
X118360489Y-95347950D01*
X118355970Y-95370671D01*
X118339716Y-95394995D01*
X118330534Y-95415793D01*
X118316329Y-95429997D01*
X118301777Y-95451777D01*
X118279997Y-95466329D01*
X118265793Y-95480534D01*
X118244995Y-95489716D01*
X118220671Y-95505970D01*
X118197950Y-95510489D01*
X118180408Y-95518235D01*
X118129061Y-95524192D01*
X118125000Y-95525000D01*
X117725000Y-95525000D01*
X117720941Y-95524192D01*
X117669591Y-95518235D01*
X117652048Y-95510489D01*
X117629329Y-95505970D01*
X117605006Y-95489718D01*
X117584206Y-95480534D01*
X117569999Y-95466327D01*
X117548223Y-95451777D01*
X117533672Y-95430000D01*
X117519465Y-95415793D01*
X117510280Y-95394991D01*
X117494030Y-95370671D01*
X117489511Y-95347954D01*
X117481764Y-95330408D01*
X117475805Y-95279049D01*
X117475000Y-95275000D01*
X117475000Y-94725000D01*
X117475804Y-94720953D01*
X117481764Y-94669591D01*
X117489511Y-94652043D01*
X117494030Y-94629329D01*
X117510278Y-94605010D01*
X117519465Y-94584206D01*
X117533674Y-94569996D01*
X117548223Y-94548223D01*
X117569996Y-94533674D01*
X117584206Y-94519465D01*
X117605010Y-94510278D01*
X117629329Y-94494030D01*
X117652043Y-94489511D01*
X117669591Y-94481764D01*
X117720952Y-94475805D01*
X117725000Y-94475000D01*
X118125000Y-94475000D01*
X118129047Y-94475805D01*
G37*
G36*
X119779047Y-94475805D02*
G01*
X119830408Y-94481764D01*
X119847954Y-94489511D01*
X119870671Y-94494030D01*
X119894991Y-94510280D01*
X119915793Y-94519465D01*
X119930000Y-94533672D01*
X119951777Y-94548223D01*
X119966327Y-94569999D01*
X119980534Y-94584206D01*
X119989718Y-94605006D01*
X120005970Y-94629329D01*
X120010489Y-94652048D01*
X120018235Y-94669591D01*
X120024192Y-94720940D01*
X120025000Y-94725000D01*
X120025000Y-95275000D01*
X120024192Y-95279059D01*
X120018235Y-95330408D01*
X120010489Y-95347950D01*
X120005970Y-95370671D01*
X119989716Y-95394995D01*
X119980534Y-95415793D01*
X119966329Y-95429997D01*
X119951777Y-95451777D01*
X119929997Y-95466329D01*
X119915793Y-95480534D01*
X119894995Y-95489716D01*
X119870671Y-95505970D01*
X119847950Y-95510489D01*
X119830408Y-95518235D01*
X119779061Y-95524192D01*
X119775000Y-95525000D01*
X119375000Y-95525000D01*
X119370941Y-95524192D01*
X119319591Y-95518235D01*
X119302048Y-95510489D01*
X119279329Y-95505970D01*
X119255006Y-95489718D01*
X119234206Y-95480534D01*
X119219999Y-95466327D01*
X119198223Y-95451777D01*
X119183672Y-95430000D01*
X119169465Y-95415793D01*
X119160280Y-95394991D01*
X119144030Y-95370671D01*
X119139511Y-95347954D01*
X119131764Y-95330408D01*
X119125805Y-95279049D01*
X119125000Y-95275000D01*
X119125000Y-94725000D01*
X119125804Y-94720953D01*
X119131764Y-94669591D01*
X119139511Y-94652043D01*
X119144030Y-94629329D01*
X119160278Y-94605010D01*
X119169465Y-94584206D01*
X119183674Y-94569996D01*
X119198223Y-94548223D01*
X119219996Y-94533674D01*
X119234206Y-94519465D01*
X119255010Y-94510278D01*
X119279329Y-94494030D01*
X119302043Y-94489511D01*
X119319591Y-94481764D01*
X119370952Y-94475805D01*
X119375000Y-94475000D01*
X119775000Y-94475000D01*
X119779047Y-94475805D01*
G37*
G36*
X106119134Y-94403806D02*
G01*
X106135355Y-94414645D01*
X106146194Y-94430866D01*
X106150000Y-94450000D01*
X106150000Y-95050000D01*
X106146194Y-95069134D01*
X106135355Y-95085355D01*
X106119134Y-95096194D01*
X106100000Y-95100000D01*
X104900000Y-95100000D01*
X104880866Y-95096194D01*
X104864645Y-95085355D01*
X104853806Y-95069134D01*
X104850000Y-95050000D01*
X104850000Y-94450000D01*
X104853806Y-94430866D01*
X104864645Y-94414645D01*
X104880866Y-94403806D01*
X104900000Y-94400000D01*
X106100000Y-94400000D01*
X106119134Y-94403806D01*
G37*
G36*
X108006409Y-93226275D02*
G01*
X108069958Y-93234641D01*
X108085943Y-93242095D01*
X108105238Y-93245933D01*
X108130792Y-93263008D01*
X108157290Y-93275364D01*
X108173412Y-93291486D01*
X108194454Y-93305546D01*
X108208513Y-93326587D01*
X108224635Y-93342709D01*
X108236990Y-93369204D01*
X108254067Y-93394762D01*
X108257905Y-93414058D01*
X108265358Y-93430041D01*
X108273722Y-93493577D01*
X108275000Y-93500000D01*
X108275000Y-93950000D01*
X108273722Y-93956424D01*
X108265358Y-94019958D01*
X108257905Y-94035939D01*
X108254067Y-94055238D01*
X108236988Y-94080797D01*
X108224635Y-94107290D01*
X108208516Y-94123408D01*
X108194454Y-94144454D01*
X108173408Y-94158516D01*
X108157290Y-94174635D01*
X108130797Y-94186988D01*
X108105238Y-94204067D01*
X108085939Y-94207905D01*
X108069958Y-94215358D01*
X108006424Y-94223722D01*
X108000000Y-94225000D01*
X107500000Y-94225000D01*
X107493577Y-94223722D01*
X107430041Y-94215358D01*
X107414058Y-94207905D01*
X107394762Y-94204067D01*
X107369204Y-94186990D01*
X107342709Y-94174635D01*
X107326587Y-94158513D01*
X107305546Y-94144454D01*
X107291486Y-94123412D01*
X107275364Y-94107290D01*
X107263008Y-94080792D01*
X107245933Y-94055238D01*
X107242095Y-94035943D01*
X107234641Y-94019958D01*
X107226275Y-93956409D01*
X107225000Y-93950000D01*
X107225000Y-93500000D01*
X107226274Y-93493592D01*
X107234641Y-93430041D01*
X107242095Y-93414054D01*
X107245933Y-93394762D01*
X107263006Y-93369209D01*
X107275364Y-93342709D01*
X107291488Y-93326584D01*
X107305546Y-93305546D01*
X107326584Y-93291488D01*
X107342709Y-93275364D01*
X107369209Y-93263006D01*
X107394762Y-93245933D01*
X107414054Y-93242095D01*
X107430041Y-93234641D01*
X107493592Y-93226274D01*
X107500000Y-93225000D01*
X108000000Y-93225000D01*
X108006409Y-93226275D01*
G37*
G36*
X104894134Y-93453806D02*
G01*
X104910355Y-93464645D01*
X104921194Y-93480866D01*
X104925000Y-93500000D01*
X104925000Y-94100000D01*
X104921194Y-94119134D01*
X104910355Y-94135355D01*
X104894134Y-94146194D01*
X104875000Y-94150000D01*
X104625000Y-94150000D01*
X104605866Y-94146194D01*
X104589645Y-94135355D01*
X104578806Y-94119134D01*
X104575000Y-94100000D01*
X104575000Y-93500000D01*
X104578806Y-93480866D01*
X104589645Y-93464645D01*
X104605866Y-93453806D01*
X104625000Y-93450000D01*
X104875000Y-93450000D01*
X104894134Y-93453806D01*
G37*
G36*
X105394134Y-93453806D02*
G01*
X105410355Y-93464645D01*
X105421194Y-93480866D01*
X105425000Y-93500000D01*
X105425000Y-94100000D01*
X105421194Y-94119134D01*
X105410355Y-94135355D01*
X105394134Y-94146194D01*
X105375000Y-94150000D01*
X105125000Y-94150000D01*
X105105866Y-94146194D01*
X105089645Y-94135355D01*
X105078806Y-94119134D01*
X105075000Y-94100000D01*
X105075000Y-93500000D01*
X105078806Y-93480866D01*
X105089645Y-93464645D01*
X105105866Y-93453806D01*
X105125000Y-93450000D01*
X105375000Y-93450000D01*
X105394134Y-93453806D01*
G37*
G36*
X105894134Y-93453806D02*
G01*
X105910355Y-93464645D01*
X105921194Y-93480866D01*
X105925000Y-93500000D01*
X105925000Y-94100000D01*
X105921194Y-94119134D01*
X105910355Y-94135355D01*
X105894134Y-94146194D01*
X105875000Y-94150000D01*
X105625000Y-94150000D01*
X105605866Y-94146194D01*
X105589645Y-94135355D01*
X105578806Y-94119134D01*
X105575000Y-94100000D01*
X105575000Y-93500000D01*
X105578806Y-93480866D01*
X105589645Y-93464645D01*
X105605866Y-93453806D01*
X105625000Y-93450000D01*
X105875000Y-93450000D01*
X105894134Y-93453806D01*
G37*
G36*
X106394134Y-93453806D02*
G01*
X106410355Y-93464645D01*
X106421194Y-93480866D01*
X106425000Y-93500000D01*
X106425000Y-94100000D01*
X106421194Y-94119134D01*
X106410355Y-94135355D01*
X106394134Y-94146194D01*
X106375000Y-94150000D01*
X106125000Y-94150000D01*
X106105866Y-94146194D01*
X106089645Y-94135355D01*
X106078806Y-94119134D01*
X106075000Y-94100000D01*
X106075000Y-93500000D01*
X106078806Y-93480866D01*
X106089645Y-93464645D01*
X106105866Y-93453806D01*
X106125000Y-93450000D01*
X106375000Y-93450000D01*
X106394134Y-93453806D01*
G37*
G36*
X118129047Y-92975805D02*
G01*
X118180408Y-92981764D01*
X118197954Y-92989511D01*
X118220671Y-92994030D01*
X118244991Y-93010280D01*
X118265793Y-93019465D01*
X118280000Y-93033672D01*
X118301777Y-93048223D01*
X118316327Y-93069999D01*
X118330534Y-93084206D01*
X118339718Y-93105006D01*
X118355970Y-93129329D01*
X118360489Y-93152048D01*
X118368235Y-93169591D01*
X118374192Y-93220940D01*
X118375000Y-93225000D01*
X118375000Y-93775000D01*
X118374192Y-93779059D01*
X118368235Y-93830408D01*
X118360489Y-93847950D01*
X118355970Y-93870671D01*
X118339716Y-93894995D01*
X118330534Y-93915793D01*
X118316329Y-93929997D01*
X118301777Y-93951777D01*
X118279997Y-93966329D01*
X118265793Y-93980534D01*
X118244995Y-93989716D01*
X118220671Y-94005970D01*
X118197950Y-94010489D01*
X118180408Y-94018235D01*
X118129061Y-94024192D01*
X118125000Y-94025000D01*
X117725000Y-94025000D01*
X117720941Y-94024192D01*
X117669591Y-94018235D01*
X117652048Y-94010489D01*
X117629329Y-94005970D01*
X117605006Y-93989718D01*
X117584206Y-93980534D01*
X117569999Y-93966327D01*
X117548223Y-93951777D01*
X117533672Y-93930000D01*
X117519465Y-93915793D01*
X117510280Y-93894991D01*
X117494030Y-93870671D01*
X117489511Y-93847954D01*
X117481764Y-93830408D01*
X117475805Y-93779049D01*
X117475000Y-93775000D01*
X117475000Y-93225000D01*
X117475804Y-93220953D01*
X117481764Y-93169591D01*
X117489511Y-93152043D01*
X117494030Y-93129329D01*
X117510278Y-93105010D01*
X117519465Y-93084206D01*
X117533674Y-93069996D01*
X117548223Y-93048223D01*
X117569996Y-93033674D01*
X117584206Y-93019465D01*
X117605010Y-93010278D01*
X117629329Y-92994030D01*
X117652043Y-92989511D01*
X117669591Y-92981764D01*
X117720952Y-92975805D01*
X117725000Y-92975000D01*
X118125000Y-92975000D01*
X118129047Y-92975805D01*
G37*
G36*
X119779047Y-92975805D02*
G01*
X119830408Y-92981764D01*
X119847954Y-92989511D01*
X119870671Y-92994030D01*
X119894991Y-93010280D01*
X119915793Y-93019465D01*
X119930000Y-93033672D01*
X119951777Y-93048223D01*
X119966327Y-93069999D01*
X119980534Y-93084206D01*
X119989718Y-93105006D01*
X120005970Y-93129329D01*
X120010489Y-93152048D01*
X120018235Y-93169591D01*
X120024192Y-93220940D01*
X120025000Y-93225000D01*
X120025000Y-93775000D01*
X120024192Y-93779059D01*
X120018235Y-93830408D01*
X120010489Y-93847950D01*
X120005970Y-93870671D01*
X119989716Y-93894995D01*
X119980534Y-93915793D01*
X119966329Y-93929997D01*
X119951777Y-93951777D01*
X119929997Y-93966329D01*
X119915793Y-93980534D01*
X119894995Y-93989716D01*
X119870671Y-94005970D01*
X119847950Y-94010489D01*
X119830408Y-94018235D01*
X119779061Y-94024192D01*
X119775000Y-94025000D01*
X119375000Y-94025000D01*
X119370941Y-94024192D01*
X119319591Y-94018235D01*
X119302048Y-94010489D01*
X119279329Y-94005970D01*
X119255006Y-93989718D01*
X119234206Y-93980534D01*
X119219999Y-93966327D01*
X119198223Y-93951777D01*
X119183672Y-93930000D01*
X119169465Y-93915793D01*
X119160280Y-93894991D01*
X119144030Y-93870671D01*
X119139511Y-93847954D01*
X119131764Y-93830408D01*
X119125805Y-93779049D01*
X119125000Y-93775000D01*
X119125000Y-93225000D01*
X119125804Y-93220953D01*
X119131764Y-93169591D01*
X119139511Y-93152043D01*
X119144030Y-93129329D01*
X119160278Y-93105010D01*
X119169465Y-93084206D01*
X119183674Y-93069996D01*
X119198223Y-93048223D01*
X119219996Y-93033674D01*
X119234206Y-93019465D01*
X119255010Y-93010278D01*
X119279329Y-92994030D01*
X119302043Y-92989511D01*
X119319591Y-92981764D01*
X119370952Y-92975805D01*
X119375000Y-92975000D01*
X119775000Y-92975000D01*
X119779047Y-92975805D01*
G37*
G36*
X113529047Y-92375805D02*
G01*
X113580408Y-92381764D01*
X113597954Y-92389511D01*
X113620671Y-92394030D01*
X113644991Y-92410280D01*
X113665793Y-92419465D01*
X113680000Y-92433672D01*
X113701777Y-92448223D01*
X113716327Y-92469999D01*
X113730534Y-92484206D01*
X113739718Y-92505006D01*
X113755970Y-92529329D01*
X113760489Y-92552048D01*
X113768235Y-92569591D01*
X113774192Y-92620940D01*
X113775000Y-92625000D01*
X113775000Y-93025000D01*
X113774192Y-93029059D01*
X113768235Y-93080408D01*
X113760489Y-93097950D01*
X113755970Y-93120671D01*
X113739716Y-93144995D01*
X113730534Y-93165793D01*
X113716329Y-93179997D01*
X113701777Y-93201777D01*
X113679997Y-93216329D01*
X113665793Y-93230534D01*
X113644995Y-93239716D01*
X113620671Y-93255970D01*
X113597950Y-93260489D01*
X113580408Y-93268235D01*
X113529061Y-93274192D01*
X113525000Y-93275000D01*
X112975000Y-93275000D01*
X112970941Y-93274192D01*
X112919591Y-93268235D01*
X112902048Y-93260489D01*
X112879329Y-93255970D01*
X112855006Y-93239718D01*
X112834206Y-93230534D01*
X112819999Y-93216327D01*
X112798223Y-93201777D01*
X112783672Y-93180000D01*
X112769465Y-93165793D01*
X112760280Y-93144991D01*
X112744030Y-93120671D01*
X112739511Y-93097954D01*
X112731764Y-93080408D01*
X112725805Y-93029049D01*
X112725000Y-93025000D01*
X112725000Y-92625000D01*
X112725804Y-92620953D01*
X112731764Y-92569591D01*
X112739511Y-92552043D01*
X112744030Y-92529329D01*
X112760278Y-92505010D01*
X112769465Y-92484206D01*
X112783674Y-92469996D01*
X112798223Y-92448223D01*
X112819996Y-92433674D01*
X112834206Y-92419465D01*
X112855010Y-92410278D01*
X112879329Y-92394030D01*
X112902043Y-92389511D01*
X112919591Y-92381764D01*
X112970952Y-92375805D01*
X112975000Y-92375000D01*
X113525000Y-92375000D01*
X113529047Y-92375805D01*
G37*
G36*
X115029047Y-92375805D02*
G01*
X115080408Y-92381764D01*
X115097954Y-92389511D01*
X115120671Y-92394030D01*
X115144991Y-92410280D01*
X115165793Y-92419465D01*
X115180000Y-92433672D01*
X115201777Y-92448223D01*
X115216327Y-92469999D01*
X115230534Y-92484206D01*
X115239718Y-92505006D01*
X115255970Y-92529329D01*
X115260489Y-92552048D01*
X115268235Y-92569591D01*
X115274192Y-92620940D01*
X115275000Y-92625000D01*
X115275000Y-93025000D01*
X115274192Y-93029059D01*
X115268235Y-93080408D01*
X115260489Y-93097950D01*
X115255970Y-93120671D01*
X115239716Y-93144995D01*
X115230534Y-93165793D01*
X115216329Y-93179997D01*
X115201777Y-93201777D01*
X115179997Y-93216329D01*
X115165793Y-93230534D01*
X115144995Y-93239716D01*
X115120671Y-93255970D01*
X115097950Y-93260489D01*
X115080408Y-93268235D01*
X115029061Y-93274192D01*
X115025000Y-93275000D01*
X114475000Y-93275000D01*
X114470941Y-93274192D01*
X114419591Y-93268235D01*
X114402048Y-93260489D01*
X114379329Y-93255970D01*
X114355006Y-93239718D01*
X114334206Y-93230534D01*
X114319999Y-93216327D01*
X114298223Y-93201777D01*
X114283672Y-93180000D01*
X114269465Y-93165793D01*
X114260280Y-93144991D01*
X114244030Y-93120671D01*
X114239511Y-93097954D01*
X114231764Y-93080408D01*
X114225805Y-93029049D01*
X114225000Y-93025000D01*
X114225000Y-92625000D01*
X114225804Y-92620953D01*
X114231764Y-92569591D01*
X114239511Y-92552043D01*
X114244030Y-92529329D01*
X114260278Y-92505010D01*
X114269465Y-92484206D01*
X114283674Y-92469996D01*
X114298223Y-92448223D01*
X114319996Y-92433674D01*
X114334206Y-92419465D01*
X114355010Y-92410278D01*
X114379329Y-92394030D01*
X114402043Y-92389511D01*
X114419591Y-92381764D01*
X114470952Y-92375805D01*
X114475000Y-92375000D01*
X115025000Y-92375000D01*
X115029047Y-92375805D01*
G37*
G36*
X116506409Y-92276275D02*
G01*
X116569958Y-92284641D01*
X116585943Y-92292095D01*
X116605238Y-92295933D01*
X116630792Y-92313008D01*
X116657290Y-92325364D01*
X116673412Y-92341486D01*
X116694454Y-92355546D01*
X116708513Y-92376587D01*
X116724635Y-92392709D01*
X116736990Y-92419204D01*
X116754067Y-92444762D01*
X116757905Y-92464058D01*
X116765358Y-92480041D01*
X116773722Y-92543577D01*
X116775000Y-92550000D01*
X116775000Y-93000000D01*
X116773722Y-93006424D01*
X116765358Y-93069958D01*
X116757905Y-93085939D01*
X116754067Y-93105238D01*
X116736988Y-93130797D01*
X116724635Y-93157290D01*
X116708516Y-93173408D01*
X116694454Y-93194454D01*
X116673408Y-93208516D01*
X116657290Y-93224635D01*
X116630797Y-93236988D01*
X116605238Y-93254067D01*
X116585939Y-93257905D01*
X116569958Y-93265358D01*
X116506424Y-93273722D01*
X116500000Y-93275000D01*
X116000000Y-93275000D01*
X115993577Y-93273722D01*
X115930041Y-93265358D01*
X115914058Y-93257905D01*
X115894762Y-93254067D01*
X115869204Y-93236990D01*
X115842709Y-93224635D01*
X115826587Y-93208513D01*
X115805546Y-93194454D01*
X115791486Y-93173412D01*
X115775364Y-93157290D01*
X115763008Y-93130792D01*
X115745933Y-93105238D01*
X115742095Y-93085943D01*
X115734641Y-93069958D01*
X115726275Y-93006409D01*
X115725000Y-93000000D01*
X115725000Y-92550000D01*
X115726274Y-92543592D01*
X115734641Y-92480041D01*
X115742095Y-92464054D01*
X115745933Y-92444762D01*
X115763006Y-92419209D01*
X115775364Y-92392709D01*
X115791488Y-92376584D01*
X115805546Y-92355546D01*
X115826584Y-92341488D01*
X115842709Y-92325364D01*
X115869209Y-92313006D01*
X115894762Y-92295933D01*
X115914054Y-92292095D01*
X115930041Y-92284641D01*
X115993592Y-92276274D01*
X116000000Y-92275000D01*
X116500000Y-92275000D01*
X116506409Y-92276275D01*
G37*
G36*
X105006409Y-91776275D02*
G01*
X105069958Y-91784641D01*
X105085943Y-91792095D01*
X105105238Y-91795933D01*
X105130792Y-91813008D01*
X105157290Y-91825364D01*
X105173412Y-91841486D01*
X105194454Y-91855546D01*
X105208513Y-91876587D01*
X105224635Y-91892709D01*
X105236990Y-91919204D01*
X105254067Y-91944762D01*
X105257905Y-91964058D01*
X105265358Y-91980041D01*
X105273722Y-92043577D01*
X105275000Y-92050000D01*
X105275000Y-92500000D01*
X105273722Y-92506424D01*
X105265358Y-92569958D01*
X105257905Y-92585939D01*
X105254067Y-92605238D01*
X105236988Y-92630797D01*
X105224635Y-92657290D01*
X105208516Y-92673408D01*
X105194454Y-92694454D01*
X105173408Y-92708516D01*
X105157290Y-92724635D01*
X105130797Y-92736988D01*
X105105238Y-92754067D01*
X105085939Y-92757905D01*
X105069958Y-92765358D01*
X105006424Y-92773722D01*
X105000000Y-92775000D01*
X104500000Y-92775000D01*
X104493577Y-92773722D01*
X104430041Y-92765358D01*
X104414058Y-92757905D01*
X104394762Y-92754067D01*
X104369204Y-92736990D01*
X104342709Y-92724635D01*
X104326587Y-92708513D01*
X104305546Y-92694454D01*
X104291486Y-92673412D01*
X104275364Y-92657290D01*
X104263008Y-92630792D01*
X104245933Y-92605238D01*
X104242095Y-92585943D01*
X104234641Y-92569958D01*
X104226275Y-92506409D01*
X104225000Y-92500000D01*
X104225000Y-92050000D01*
X104226274Y-92043592D01*
X104234641Y-91980041D01*
X104242095Y-91964054D01*
X104245933Y-91944762D01*
X104263006Y-91919209D01*
X104275364Y-91892709D01*
X104291488Y-91876584D01*
X104305546Y-91855546D01*
X104326584Y-91841488D01*
X104342709Y-91825364D01*
X104369209Y-91813006D01*
X104394762Y-91795933D01*
X104414054Y-91792095D01*
X104430041Y-91784641D01*
X104493592Y-91776274D01*
X104500000Y-91775000D01*
X105000000Y-91775000D01*
X105006409Y-91776275D01*
G37*
G36*
X106506409Y-91776275D02*
G01*
X106569958Y-91784641D01*
X106585943Y-91792095D01*
X106605238Y-91795933D01*
X106630792Y-91813008D01*
X106657290Y-91825364D01*
X106673412Y-91841486D01*
X106694454Y-91855546D01*
X106708513Y-91876587D01*
X106724635Y-91892709D01*
X106736990Y-91919204D01*
X106754067Y-91944762D01*
X106757905Y-91964058D01*
X106765358Y-91980041D01*
X106773722Y-92043577D01*
X106775000Y-92050000D01*
X106775000Y-92500000D01*
X106773722Y-92506424D01*
X106765358Y-92569958D01*
X106757905Y-92585939D01*
X106754067Y-92605238D01*
X106736988Y-92630797D01*
X106724635Y-92657290D01*
X106708516Y-92673408D01*
X106694454Y-92694454D01*
X106673408Y-92708516D01*
X106657290Y-92724635D01*
X106630797Y-92736988D01*
X106605238Y-92754067D01*
X106585939Y-92757905D01*
X106569958Y-92765358D01*
X106506424Y-92773722D01*
X106500000Y-92775000D01*
X106000000Y-92775000D01*
X105993577Y-92773722D01*
X105930041Y-92765358D01*
X105914058Y-92757905D01*
X105894762Y-92754067D01*
X105869204Y-92736990D01*
X105842709Y-92724635D01*
X105826587Y-92708513D01*
X105805546Y-92694454D01*
X105791486Y-92673412D01*
X105775364Y-92657290D01*
X105763008Y-92630792D01*
X105745933Y-92605238D01*
X105742095Y-92585943D01*
X105734641Y-92569958D01*
X105726275Y-92506409D01*
X105725000Y-92500000D01*
X105725000Y-92050000D01*
X105726274Y-92043592D01*
X105734641Y-91980041D01*
X105742095Y-91964054D01*
X105745933Y-91944762D01*
X105763006Y-91919209D01*
X105775364Y-91892709D01*
X105791488Y-91876584D01*
X105805546Y-91855546D01*
X105826584Y-91841488D01*
X105842709Y-91825364D01*
X105869209Y-91813006D01*
X105894762Y-91795933D01*
X105914054Y-91792095D01*
X105930041Y-91784641D01*
X105993592Y-91776274D01*
X106000000Y-91775000D01*
X106500000Y-91775000D01*
X106506409Y-91776275D01*
G37*
G36*
X108012660Y-91801275D02*
G01*
X108074590Y-91809428D01*
X108090167Y-91816692D01*
X108109096Y-91820457D01*
X108134167Y-91837208D01*
X108159955Y-91849234D01*
X108175644Y-91864923D01*
X108196285Y-91878715D01*
X108210076Y-91899355D01*
X108225765Y-91915044D01*
X108237789Y-91940830D01*
X108254543Y-91965904D01*
X108258308Y-91984834D01*
X108265571Y-92000409D01*
X108273722Y-92062326D01*
X108275000Y-92068750D01*
X108275000Y-92506250D01*
X108273722Y-92512674D01*
X108265571Y-92574590D01*
X108258308Y-92590164D01*
X108254543Y-92609096D01*
X108237787Y-92634171D01*
X108225765Y-92659955D01*
X108210078Y-92675641D01*
X108196285Y-92696285D01*
X108175641Y-92710078D01*
X108159955Y-92725765D01*
X108134171Y-92737787D01*
X108109096Y-92754543D01*
X108090164Y-92758308D01*
X108074590Y-92765571D01*
X108012674Y-92773722D01*
X108006250Y-92775000D01*
X107493750Y-92775000D01*
X107487326Y-92773722D01*
X107425409Y-92765571D01*
X107409834Y-92758308D01*
X107390904Y-92754543D01*
X107365830Y-92737789D01*
X107340044Y-92725765D01*
X107324355Y-92710076D01*
X107303715Y-92696285D01*
X107289923Y-92675644D01*
X107274234Y-92659955D01*
X107262208Y-92634167D01*
X107245457Y-92609096D01*
X107241692Y-92590167D01*
X107234428Y-92574590D01*
X107226275Y-92512660D01*
X107225000Y-92506250D01*
X107225000Y-92068750D01*
X107226274Y-92062341D01*
X107234428Y-92000409D01*
X107241692Y-91984830D01*
X107245457Y-91965904D01*
X107262207Y-91940835D01*
X107274234Y-91915044D01*
X107289925Y-91899352D01*
X107303715Y-91878715D01*
X107324352Y-91864925D01*
X107340044Y-91849234D01*
X107365835Y-91837207D01*
X107390904Y-91820457D01*
X107409830Y-91816692D01*
X107425409Y-91809428D01*
X107487341Y-91801274D01*
X107493750Y-91800000D01*
X108006250Y-91800000D01*
X108012660Y-91801275D01*
G37*
G36*
X110129047Y-91475805D02*
G01*
X110180408Y-91481764D01*
X110197954Y-91489511D01*
X110220671Y-91494030D01*
X110244991Y-91510280D01*
X110265793Y-91519465D01*
X110280000Y-91533672D01*
X110301777Y-91548223D01*
X110316327Y-91569999D01*
X110330534Y-91584206D01*
X110339718Y-91605006D01*
X110355970Y-91629329D01*
X110360489Y-91652048D01*
X110368235Y-91669591D01*
X110374192Y-91720940D01*
X110375000Y-91725000D01*
X110375000Y-92275000D01*
X110374192Y-92279059D01*
X110368235Y-92330408D01*
X110360489Y-92347950D01*
X110355970Y-92370671D01*
X110339716Y-92394995D01*
X110330534Y-92415793D01*
X110316329Y-92429997D01*
X110301777Y-92451777D01*
X110279997Y-92466329D01*
X110265793Y-92480534D01*
X110244995Y-92489716D01*
X110220671Y-92505970D01*
X110197950Y-92510489D01*
X110180408Y-92518235D01*
X110129061Y-92524192D01*
X110125000Y-92525000D01*
X109725000Y-92525000D01*
X109720941Y-92524192D01*
X109669591Y-92518235D01*
X109652048Y-92510489D01*
X109629329Y-92505970D01*
X109605006Y-92489718D01*
X109584206Y-92480534D01*
X109569999Y-92466327D01*
X109548223Y-92451777D01*
X109533672Y-92430000D01*
X109519465Y-92415793D01*
X109510280Y-92394991D01*
X109494030Y-92370671D01*
X109489511Y-92347954D01*
X109481764Y-92330408D01*
X109475805Y-92279049D01*
X109475000Y-92275000D01*
X109475000Y-91725000D01*
X109475804Y-91720953D01*
X109481764Y-91669591D01*
X109489511Y-91652043D01*
X109494030Y-91629329D01*
X109510278Y-91605010D01*
X109519465Y-91584206D01*
X109533674Y-91569996D01*
X109548223Y-91548223D01*
X109569996Y-91533674D01*
X109584206Y-91519465D01*
X109605010Y-91510278D01*
X109629329Y-91494030D01*
X109652043Y-91489511D01*
X109669591Y-91481764D01*
X109720952Y-91475805D01*
X109725000Y-91475000D01*
X110125000Y-91475000D01*
X110129047Y-91475805D01*
G37*
G36*
X111779047Y-91475805D02*
G01*
X111830408Y-91481764D01*
X111847954Y-91489511D01*
X111870671Y-91494030D01*
X111894991Y-91510280D01*
X111915793Y-91519465D01*
X111930000Y-91533672D01*
X111951777Y-91548223D01*
X111966327Y-91569999D01*
X111980534Y-91584206D01*
X111989718Y-91605006D01*
X112005970Y-91629329D01*
X112010489Y-91652048D01*
X112018235Y-91669591D01*
X112024192Y-91720940D01*
X112025000Y-91725000D01*
X112025000Y-92275000D01*
X112024192Y-92279059D01*
X112018235Y-92330408D01*
X112010489Y-92347950D01*
X112005970Y-92370671D01*
X111989716Y-92394995D01*
X111980534Y-92415793D01*
X111966329Y-92429997D01*
X111951777Y-92451777D01*
X111929997Y-92466329D01*
X111915793Y-92480534D01*
X111894995Y-92489716D01*
X111870671Y-92505970D01*
X111847950Y-92510489D01*
X111830408Y-92518235D01*
X111779061Y-92524192D01*
X111775000Y-92525000D01*
X111375000Y-92525000D01*
X111370941Y-92524192D01*
X111319591Y-92518235D01*
X111302048Y-92510489D01*
X111279329Y-92505970D01*
X111255006Y-92489718D01*
X111234206Y-92480534D01*
X111219999Y-92466327D01*
X111198223Y-92451777D01*
X111183672Y-92430000D01*
X111169465Y-92415793D01*
X111160280Y-92394991D01*
X111144030Y-92370671D01*
X111139511Y-92347954D01*
X111131764Y-92330408D01*
X111125805Y-92279049D01*
X111125000Y-92275000D01*
X111125000Y-91725000D01*
X111125804Y-91720953D01*
X111131764Y-91669591D01*
X111139511Y-91652043D01*
X111144030Y-91629329D01*
X111160278Y-91605010D01*
X111169465Y-91584206D01*
X111183674Y-91569996D01*
X111198223Y-91548223D01*
X111219996Y-91533674D01*
X111234206Y-91519465D01*
X111255010Y-91510278D01*
X111279329Y-91494030D01*
X111302043Y-91489511D01*
X111319591Y-91481764D01*
X111370952Y-91475805D01*
X111375000Y-91475000D01*
X111775000Y-91475000D01*
X111779047Y-91475805D01*
G37*
G36*
X118206409Y-91476275D02*
G01*
X118269958Y-91484641D01*
X118285943Y-91492095D01*
X118305238Y-91495933D01*
X118330792Y-91513008D01*
X118357290Y-91525364D01*
X118373412Y-91541486D01*
X118394454Y-91555546D01*
X118408513Y-91576587D01*
X118424635Y-91592709D01*
X118436990Y-91619204D01*
X118454067Y-91644762D01*
X118457905Y-91664058D01*
X118465358Y-91680041D01*
X118473722Y-91743577D01*
X118475000Y-91750000D01*
X118475000Y-92250000D01*
X118473722Y-92256424D01*
X118465358Y-92319958D01*
X118457905Y-92335939D01*
X118454067Y-92355238D01*
X118436988Y-92380797D01*
X118424635Y-92407290D01*
X118408516Y-92423408D01*
X118394454Y-92444454D01*
X118373408Y-92458516D01*
X118357290Y-92474635D01*
X118330797Y-92486988D01*
X118305238Y-92504067D01*
X118285939Y-92507905D01*
X118269958Y-92515358D01*
X118206424Y-92523722D01*
X118200000Y-92525000D01*
X117750000Y-92525000D01*
X117743577Y-92523722D01*
X117680041Y-92515358D01*
X117664058Y-92507905D01*
X117644762Y-92504067D01*
X117619204Y-92486990D01*
X117592709Y-92474635D01*
X117576587Y-92458513D01*
X117555546Y-92444454D01*
X117541486Y-92423412D01*
X117525364Y-92407290D01*
X117513008Y-92380792D01*
X117495933Y-92355238D01*
X117492095Y-92335943D01*
X117484641Y-92319958D01*
X117476275Y-92256409D01*
X117475000Y-92250000D01*
X117475000Y-91750000D01*
X117476274Y-91743592D01*
X117484641Y-91680041D01*
X117492095Y-91664054D01*
X117495933Y-91644762D01*
X117513006Y-91619209D01*
X117525364Y-91592709D01*
X117541488Y-91576584D01*
X117555546Y-91555546D01*
X117576584Y-91541488D01*
X117592709Y-91525364D01*
X117619209Y-91513006D01*
X117644762Y-91495933D01*
X117664054Y-91492095D01*
X117680041Y-91484641D01*
X117743592Y-91476274D01*
X117750000Y-91475000D01*
X118200000Y-91475000D01*
X118206409Y-91476275D01*
G37*
G36*
X119756409Y-91476275D02*
G01*
X119819958Y-91484641D01*
X119835943Y-91492095D01*
X119855238Y-91495933D01*
X119880792Y-91513008D01*
X119907290Y-91525364D01*
X119923412Y-91541486D01*
X119944454Y-91555546D01*
X119958513Y-91576587D01*
X119974635Y-91592709D01*
X119986990Y-91619204D01*
X120004067Y-91644762D01*
X120007905Y-91664058D01*
X120015358Y-91680041D01*
X120023722Y-91743577D01*
X120025000Y-91750000D01*
X120025000Y-92250000D01*
X120023722Y-92256424D01*
X120015358Y-92319958D01*
X120007905Y-92335939D01*
X120004067Y-92355238D01*
X119986988Y-92380797D01*
X119974635Y-92407290D01*
X119958516Y-92423408D01*
X119944454Y-92444454D01*
X119923408Y-92458516D01*
X119907290Y-92474635D01*
X119880797Y-92486988D01*
X119855238Y-92504067D01*
X119835939Y-92507905D01*
X119819958Y-92515358D01*
X119756424Y-92523722D01*
X119750000Y-92525000D01*
X119300000Y-92525000D01*
X119293577Y-92523722D01*
X119230041Y-92515358D01*
X119214058Y-92507905D01*
X119194762Y-92504067D01*
X119169204Y-92486990D01*
X119142709Y-92474635D01*
X119126587Y-92458513D01*
X119105546Y-92444454D01*
X119091486Y-92423412D01*
X119075364Y-92407290D01*
X119063008Y-92380792D01*
X119045933Y-92355238D01*
X119042095Y-92335943D01*
X119034641Y-92319958D01*
X119026275Y-92256409D01*
X119025000Y-92250000D01*
X119025000Y-91750000D01*
X119026274Y-91743592D01*
X119034641Y-91680041D01*
X119042095Y-91664054D01*
X119045933Y-91644762D01*
X119063006Y-91619209D01*
X119075364Y-91592709D01*
X119091488Y-91576584D01*
X119105546Y-91555546D01*
X119126584Y-91541488D01*
X119142709Y-91525364D01*
X119169209Y-91513006D01*
X119194762Y-91495933D01*
X119214054Y-91492095D01*
X119230041Y-91484641D01*
X119293592Y-91476274D01*
X119300000Y-91475000D01*
X119750000Y-91475000D01*
X119756409Y-91476275D01*
G37*
G36*
X121206409Y-91476275D02*
G01*
X121269958Y-91484641D01*
X121285943Y-91492095D01*
X121305238Y-91495933D01*
X121330792Y-91513008D01*
X121357290Y-91525364D01*
X121373412Y-91541486D01*
X121394454Y-91555546D01*
X121408513Y-91576587D01*
X121424635Y-91592709D01*
X121436990Y-91619204D01*
X121454067Y-91644762D01*
X121457905Y-91664058D01*
X121465358Y-91680041D01*
X121473722Y-91743577D01*
X121475000Y-91750000D01*
X121475000Y-92250000D01*
X121473722Y-92256424D01*
X121465358Y-92319958D01*
X121457905Y-92335939D01*
X121454067Y-92355238D01*
X121436988Y-92380797D01*
X121424635Y-92407290D01*
X121408516Y-92423408D01*
X121394454Y-92444454D01*
X121373408Y-92458516D01*
X121357290Y-92474635D01*
X121330797Y-92486988D01*
X121305238Y-92504067D01*
X121285939Y-92507905D01*
X121269958Y-92515358D01*
X121206424Y-92523722D01*
X121200000Y-92525000D01*
X120750000Y-92525000D01*
X120743577Y-92523722D01*
X120680041Y-92515358D01*
X120664058Y-92507905D01*
X120644762Y-92504067D01*
X120619204Y-92486990D01*
X120592709Y-92474635D01*
X120576587Y-92458513D01*
X120555546Y-92444454D01*
X120541486Y-92423412D01*
X120525364Y-92407290D01*
X120513008Y-92380792D01*
X120495933Y-92355238D01*
X120492095Y-92335943D01*
X120484641Y-92319958D01*
X120476275Y-92256409D01*
X120475000Y-92250000D01*
X120475000Y-91750000D01*
X120476274Y-91743592D01*
X120484641Y-91680041D01*
X120492095Y-91664054D01*
X120495933Y-91644762D01*
X120513006Y-91619209D01*
X120525364Y-91592709D01*
X120541488Y-91576584D01*
X120555546Y-91555546D01*
X120576584Y-91541488D01*
X120592709Y-91525364D01*
X120619209Y-91513006D01*
X120644762Y-91495933D01*
X120664054Y-91492095D01*
X120680041Y-91484641D01*
X120743592Y-91476274D01*
X120750000Y-91475000D01*
X121200000Y-91475000D01*
X121206409Y-91476275D01*
G37*
G36*
X122756409Y-91476275D02*
G01*
X122819958Y-91484641D01*
X122835943Y-91492095D01*
X122855238Y-91495933D01*
X122880792Y-91513008D01*
X122907290Y-91525364D01*
X122923412Y-91541486D01*
X122944454Y-91555546D01*
X122958513Y-91576587D01*
X122974635Y-91592709D01*
X122986990Y-91619204D01*
X123004067Y-91644762D01*
X123007905Y-91664058D01*
X123015358Y-91680041D01*
X123023722Y-91743577D01*
X123025000Y-91750000D01*
X123025000Y-92250000D01*
X123023722Y-92256424D01*
X123015358Y-92319958D01*
X123007905Y-92335939D01*
X123004067Y-92355238D01*
X122986988Y-92380797D01*
X122974635Y-92407290D01*
X122958516Y-92423408D01*
X122944454Y-92444454D01*
X122923408Y-92458516D01*
X122907290Y-92474635D01*
X122880797Y-92486988D01*
X122855238Y-92504067D01*
X122835939Y-92507905D01*
X122819958Y-92515358D01*
X122756424Y-92523722D01*
X122750000Y-92525000D01*
X122300000Y-92525000D01*
X122293577Y-92523722D01*
X122230041Y-92515358D01*
X122214058Y-92507905D01*
X122194762Y-92504067D01*
X122169204Y-92486990D01*
X122142709Y-92474635D01*
X122126587Y-92458513D01*
X122105546Y-92444454D01*
X122091486Y-92423412D01*
X122075364Y-92407290D01*
X122063008Y-92380792D01*
X122045933Y-92355238D01*
X122042095Y-92335943D01*
X122034641Y-92319958D01*
X122026275Y-92256409D01*
X122025000Y-92250000D01*
X122025000Y-91750000D01*
X122026274Y-91743592D01*
X122034641Y-91680041D01*
X122042095Y-91664054D01*
X122045933Y-91644762D01*
X122063006Y-91619209D01*
X122075364Y-91592709D01*
X122091488Y-91576584D01*
X122105546Y-91555546D01*
X122126584Y-91541488D01*
X122142709Y-91525364D01*
X122169209Y-91513006D01*
X122194762Y-91495933D01*
X122214054Y-91492095D01*
X122230041Y-91484641D01*
X122293592Y-91476274D01*
X122300000Y-91475000D01*
X122750000Y-91475000D01*
X122756409Y-91476275D01*
G37*
G36*
X116506409Y-90726275D02*
G01*
X116569958Y-90734641D01*
X116585943Y-90742095D01*
X116605238Y-90745933D01*
X116630792Y-90763008D01*
X116657290Y-90775364D01*
X116673412Y-90791486D01*
X116694454Y-90805546D01*
X116708513Y-90826587D01*
X116724635Y-90842709D01*
X116736990Y-90869204D01*
X116754067Y-90894762D01*
X116757905Y-90914058D01*
X116765358Y-90930041D01*
X116773722Y-90993577D01*
X116775000Y-91000000D01*
X116775000Y-91450000D01*
X116773722Y-91456424D01*
X116765358Y-91519958D01*
X116757905Y-91535939D01*
X116754067Y-91555238D01*
X116736988Y-91580797D01*
X116724635Y-91607290D01*
X116708516Y-91623408D01*
X116694454Y-91644454D01*
X116673408Y-91658516D01*
X116657290Y-91674635D01*
X116630797Y-91686988D01*
X116605238Y-91704067D01*
X116585939Y-91707905D01*
X116569958Y-91715358D01*
X116506424Y-91723722D01*
X116500000Y-91725000D01*
X116000000Y-91725000D01*
X115993577Y-91723722D01*
X115930041Y-91715358D01*
X115914058Y-91707905D01*
X115894762Y-91704067D01*
X115869204Y-91686990D01*
X115842709Y-91674635D01*
X115826587Y-91658513D01*
X115805546Y-91644454D01*
X115791486Y-91623412D01*
X115775364Y-91607290D01*
X115763008Y-91580792D01*
X115745933Y-91555238D01*
X115742095Y-91535943D01*
X115734641Y-91519958D01*
X115726275Y-91456409D01*
X115725000Y-91450000D01*
X115725000Y-91000000D01*
X115726274Y-90993592D01*
X115734641Y-90930041D01*
X115742095Y-90914054D01*
X115745933Y-90894762D01*
X115763006Y-90869209D01*
X115775364Y-90842709D01*
X115791488Y-90826584D01*
X115805546Y-90805546D01*
X115826584Y-90791488D01*
X115842709Y-90775364D01*
X115869209Y-90763006D01*
X115894762Y-90745933D01*
X115914054Y-90742095D01*
X115930041Y-90734641D01*
X115993592Y-90726274D01*
X116000000Y-90725000D01*
X116500000Y-90725000D01*
X116506409Y-90726275D01*
G37*
G36*
X113529047Y-90725805D02*
G01*
X113580408Y-90731764D01*
X113597954Y-90739511D01*
X113620671Y-90744030D01*
X113644991Y-90760280D01*
X113665793Y-90769465D01*
X113680000Y-90783672D01*
X113701777Y-90798223D01*
X113716327Y-90819999D01*
X113730534Y-90834206D01*
X113739718Y-90855006D01*
X113755970Y-90879329D01*
X113760489Y-90902048D01*
X113768235Y-90919591D01*
X113774192Y-90970940D01*
X113775000Y-90975000D01*
X113775000Y-91375000D01*
X113774192Y-91379059D01*
X113768235Y-91430408D01*
X113760489Y-91447950D01*
X113755970Y-91470671D01*
X113739716Y-91494995D01*
X113730534Y-91515793D01*
X113716329Y-91529997D01*
X113701777Y-91551777D01*
X113679997Y-91566329D01*
X113665793Y-91580534D01*
X113644995Y-91589716D01*
X113620671Y-91605970D01*
X113597950Y-91610489D01*
X113580408Y-91618235D01*
X113529061Y-91624192D01*
X113525000Y-91625000D01*
X112975000Y-91625000D01*
X112970941Y-91624192D01*
X112919591Y-91618235D01*
X112902048Y-91610489D01*
X112879329Y-91605970D01*
X112855006Y-91589718D01*
X112834206Y-91580534D01*
X112819999Y-91566327D01*
X112798223Y-91551777D01*
X112783672Y-91530000D01*
X112769465Y-91515793D01*
X112760280Y-91494991D01*
X112744030Y-91470671D01*
X112739511Y-91447954D01*
X112731764Y-91430408D01*
X112725805Y-91379049D01*
X112725000Y-91375000D01*
X112725000Y-90975000D01*
X112725804Y-90970953D01*
X112731764Y-90919591D01*
X112739511Y-90902043D01*
X112744030Y-90879329D01*
X112760278Y-90855010D01*
X112769465Y-90834206D01*
X112783674Y-90819996D01*
X112798223Y-90798223D01*
X112819996Y-90783674D01*
X112834206Y-90769465D01*
X112855010Y-90760278D01*
X112879329Y-90744030D01*
X112902043Y-90739511D01*
X112919591Y-90731764D01*
X112970952Y-90725805D01*
X112975000Y-90725000D01*
X113525000Y-90725000D01*
X113529047Y-90725805D01*
G37*
G36*
X115029047Y-90725805D02*
G01*
X115080408Y-90731764D01*
X115097954Y-90739511D01*
X115120671Y-90744030D01*
X115144991Y-90760280D01*
X115165793Y-90769465D01*
X115180000Y-90783672D01*
X115201777Y-90798223D01*
X115216327Y-90819999D01*
X115230534Y-90834206D01*
X115239718Y-90855006D01*
X115255970Y-90879329D01*
X115260489Y-90902048D01*
X115268235Y-90919591D01*
X115274192Y-90970940D01*
X115275000Y-90975000D01*
X115275000Y-91375000D01*
X115274192Y-91379059D01*
X115268235Y-91430408D01*
X115260489Y-91447950D01*
X115255970Y-91470671D01*
X115239716Y-91494995D01*
X115230534Y-91515793D01*
X115216329Y-91529997D01*
X115201777Y-91551777D01*
X115179997Y-91566329D01*
X115165793Y-91580534D01*
X115144995Y-91589716D01*
X115120671Y-91605970D01*
X115097950Y-91610489D01*
X115080408Y-91618235D01*
X115029061Y-91624192D01*
X115025000Y-91625000D01*
X114475000Y-91625000D01*
X114470941Y-91624192D01*
X114419591Y-91618235D01*
X114402048Y-91610489D01*
X114379329Y-91605970D01*
X114355006Y-91589718D01*
X114334206Y-91580534D01*
X114319999Y-91566327D01*
X114298223Y-91551777D01*
X114283672Y-91530000D01*
X114269465Y-91515793D01*
X114260280Y-91494991D01*
X114244030Y-91470671D01*
X114239511Y-91447954D01*
X114231764Y-91430408D01*
X114225805Y-91379049D01*
X114225000Y-91375000D01*
X114225000Y-90975000D01*
X114225804Y-90970953D01*
X114231764Y-90919591D01*
X114239511Y-90902043D01*
X114244030Y-90879329D01*
X114260278Y-90855010D01*
X114269465Y-90834206D01*
X114283674Y-90819996D01*
X114298223Y-90798223D01*
X114319996Y-90783674D01*
X114334206Y-90769465D01*
X114355010Y-90760278D01*
X114379329Y-90744030D01*
X114402043Y-90739511D01*
X114419591Y-90731764D01*
X114470952Y-90725805D01*
X114475000Y-90725000D01*
X115025000Y-90725000D01*
X115029047Y-90725805D01*
G37*
G36*
X105006409Y-90226275D02*
G01*
X105069958Y-90234641D01*
X105085943Y-90242095D01*
X105105238Y-90245933D01*
X105130792Y-90263008D01*
X105157290Y-90275364D01*
X105173412Y-90291486D01*
X105194454Y-90305546D01*
X105208513Y-90326587D01*
X105224635Y-90342709D01*
X105236990Y-90369204D01*
X105254067Y-90394762D01*
X105257905Y-90414058D01*
X105265358Y-90430041D01*
X105273722Y-90493577D01*
X105275000Y-90500000D01*
X105275000Y-90950000D01*
X105273722Y-90956424D01*
X105265358Y-91019958D01*
X105257905Y-91035939D01*
X105254067Y-91055238D01*
X105236988Y-91080797D01*
X105224635Y-91107290D01*
X105208516Y-91123408D01*
X105194454Y-91144454D01*
X105173408Y-91158516D01*
X105157290Y-91174635D01*
X105130797Y-91186988D01*
X105105238Y-91204067D01*
X105085939Y-91207905D01*
X105069958Y-91215358D01*
X105006424Y-91223722D01*
X105000000Y-91225000D01*
X104500000Y-91225000D01*
X104493577Y-91223722D01*
X104430041Y-91215358D01*
X104414058Y-91207905D01*
X104394762Y-91204067D01*
X104369204Y-91186990D01*
X104342709Y-91174635D01*
X104326587Y-91158513D01*
X104305546Y-91144454D01*
X104291486Y-91123412D01*
X104275364Y-91107290D01*
X104263008Y-91080792D01*
X104245933Y-91055238D01*
X104242095Y-91035943D01*
X104234641Y-91019958D01*
X104226275Y-90956409D01*
X104225000Y-90950000D01*
X104225000Y-90500000D01*
X104226274Y-90493592D01*
X104234641Y-90430041D01*
X104242095Y-90414054D01*
X104245933Y-90394762D01*
X104263006Y-90369209D01*
X104275364Y-90342709D01*
X104291488Y-90326584D01*
X104305546Y-90305546D01*
X104326584Y-90291488D01*
X104342709Y-90275364D01*
X104369209Y-90263006D01*
X104394762Y-90245933D01*
X104414054Y-90242095D01*
X104430041Y-90234641D01*
X104493592Y-90226274D01*
X104500000Y-90225000D01*
X105000000Y-90225000D01*
X105006409Y-90226275D01*
G37*
G36*
X106506409Y-90226275D02*
G01*
X106569958Y-90234641D01*
X106585943Y-90242095D01*
X106605238Y-90245933D01*
X106630792Y-90263008D01*
X106657290Y-90275364D01*
X106673412Y-90291486D01*
X106694454Y-90305546D01*
X106708513Y-90326587D01*
X106724635Y-90342709D01*
X106736990Y-90369204D01*
X106754067Y-90394762D01*
X106757905Y-90414058D01*
X106765358Y-90430041D01*
X106773722Y-90493577D01*
X106775000Y-90500000D01*
X106775000Y-90950000D01*
X106773722Y-90956424D01*
X106765358Y-91019958D01*
X106757905Y-91035939D01*
X106754067Y-91055238D01*
X106736988Y-91080797D01*
X106724635Y-91107290D01*
X106708516Y-91123408D01*
X106694454Y-91144454D01*
X106673408Y-91158516D01*
X106657290Y-91174635D01*
X106630797Y-91186988D01*
X106605238Y-91204067D01*
X106585939Y-91207905D01*
X106569958Y-91215358D01*
X106506424Y-91223722D01*
X106500000Y-91225000D01*
X106000000Y-91225000D01*
X105993577Y-91223722D01*
X105930041Y-91215358D01*
X105914058Y-91207905D01*
X105894762Y-91204067D01*
X105869204Y-91186990D01*
X105842709Y-91174635D01*
X105826587Y-91158513D01*
X105805546Y-91144454D01*
X105791486Y-91123412D01*
X105775364Y-91107290D01*
X105763008Y-91080792D01*
X105745933Y-91055238D01*
X105742095Y-91035943D01*
X105734641Y-91019958D01*
X105726275Y-90956409D01*
X105725000Y-90950000D01*
X105725000Y-90500000D01*
X105726274Y-90493592D01*
X105734641Y-90430041D01*
X105742095Y-90414054D01*
X105745933Y-90394762D01*
X105763006Y-90369209D01*
X105775364Y-90342709D01*
X105791488Y-90326584D01*
X105805546Y-90305546D01*
X105826584Y-90291488D01*
X105842709Y-90275364D01*
X105869209Y-90263006D01*
X105894762Y-90245933D01*
X105914054Y-90242095D01*
X105930041Y-90234641D01*
X105993592Y-90226274D01*
X106000000Y-90225000D01*
X106500000Y-90225000D01*
X106506409Y-90226275D01*
G37*
G36*
X108012660Y-90226275D02*
G01*
X108074590Y-90234428D01*
X108090167Y-90241692D01*
X108109096Y-90245457D01*
X108134167Y-90262208D01*
X108159955Y-90274234D01*
X108175644Y-90289923D01*
X108196285Y-90303715D01*
X108210076Y-90324355D01*
X108225765Y-90340044D01*
X108237789Y-90365830D01*
X108254543Y-90390904D01*
X108258308Y-90409834D01*
X108265571Y-90425409D01*
X108273722Y-90487326D01*
X108275000Y-90493750D01*
X108275000Y-90931250D01*
X108273722Y-90937674D01*
X108265571Y-90999590D01*
X108258308Y-91015164D01*
X108254543Y-91034096D01*
X108237787Y-91059171D01*
X108225765Y-91084955D01*
X108210078Y-91100641D01*
X108196285Y-91121285D01*
X108175641Y-91135078D01*
X108159955Y-91150765D01*
X108134171Y-91162787D01*
X108109096Y-91179543D01*
X108090164Y-91183308D01*
X108074590Y-91190571D01*
X108012674Y-91198722D01*
X108006250Y-91200000D01*
X107493750Y-91200000D01*
X107487326Y-91198722D01*
X107425409Y-91190571D01*
X107409834Y-91183308D01*
X107390904Y-91179543D01*
X107365830Y-91162789D01*
X107340044Y-91150765D01*
X107324355Y-91135076D01*
X107303715Y-91121285D01*
X107289923Y-91100644D01*
X107274234Y-91084955D01*
X107262208Y-91059167D01*
X107245457Y-91034096D01*
X107241692Y-91015167D01*
X107234428Y-90999590D01*
X107226275Y-90937660D01*
X107225000Y-90931250D01*
X107225000Y-90493750D01*
X107226274Y-90487341D01*
X107234428Y-90425409D01*
X107241692Y-90409830D01*
X107245457Y-90390904D01*
X107262207Y-90365835D01*
X107274234Y-90340044D01*
X107289925Y-90324352D01*
X107303715Y-90303715D01*
X107324352Y-90289925D01*
X107340044Y-90274234D01*
X107365835Y-90262207D01*
X107390904Y-90245457D01*
X107409830Y-90241692D01*
X107425409Y-90234428D01*
X107487341Y-90226274D01*
X107493750Y-90225000D01*
X108006250Y-90225000D01*
X108012660Y-90226275D01*
G37*
G36*
X118129047Y-89975805D02*
G01*
X118180408Y-89981764D01*
X118197954Y-89989511D01*
X118220671Y-89994030D01*
X118244991Y-90010280D01*
X118265793Y-90019465D01*
X118280000Y-90033672D01*
X118301777Y-90048223D01*
X118316327Y-90069999D01*
X118330534Y-90084206D01*
X118339718Y-90105006D01*
X118355970Y-90129329D01*
X118360489Y-90152048D01*
X118368235Y-90169591D01*
X118374192Y-90220940D01*
X118375000Y-90225000D01*
X118375000Y-90775000D01*
X118374192Y-90779059D01*
X118368235Y-90830408D01*
X118360489Y-90847950D01*
X118355970Y-90870671D01*
X118339716Y-90894995D01*
X118330534Y-90915793D01*
X118316329Y-90929997D01*
X118301777Y-90951777D01*
X118279997Y-90966329D01*
X118265793Y-90980534D01*
X118244995Y-90989716D01*
X118220671Y-91005970D01*
X118197950Y-91010489D01*
X118180408Y-91018235D01*
X118129061Y-91024192D01*
X118125000Y-91025000D01*
X117725000Y-91025000D01*
X117720941Y-91024192D01*
X117669591Y-91018235D01*
X117652048Y-91010489D01*
X117629329Y-91005970D01*
X117605006Y-90989718D01*
X117584206Y-90980534D01*
X117569999Y-90966327D01*
X117548223Y-90951777D01*
X117533672Y-90930000D01*
X117519465Y-90915793D01*
X117510280Y-90894991D01*
X117494030Y-90870671D01*
X117489511Y-90847954D01*
X117481764Y-90830408D01*
X117475805Y-90779049D01*
X117475000Y-90775000D01*
X117475000Y-90225000D01*
X117475804Y-90220953D01*
X117481764Y-90169591D01*
X117489511Y-90152043D01*
X117494030Y-90129329D01*
X117510278Y-90105010D01*
X117519465Y-90084206D01*
X117533674Y-90069996D01*
X117548223Y-90048223D01*
X117569996Y-90033674D01*
X117584206Y-90019465D01*
X117605010Y-90010278D01*
X117629329Y-89994030D01*
X117652043Y-89989511D01*
X117669591Y-89981764D01*
X117720952Y-89975805D01*
X117725000Y-89975000D01*
X118125000Y-89975000D01*
X118129047Y-89975805D01*
G37*
G36*
X119779047Y-89975805D02*
G01*
X119830408Y-89981764D01*
X119847954Y-89989511D01*
X119870671Y-89994030D01*
X119894991Y-90010280D01*
X119915793Y-90019465D01*
X119930000Y-90033672D01*
X119951777Y-90048223D01*
X119966327Y-90069999D01*
X119980534Y-90084206D01*
X119989718Y-90105006D01*
X120005970Y-90129329D01*
X120010489Y-90152048D01*
X120018235Y-90169591D01*
X120024192Y-90220940D01*
X120025000Y-90225000D01*
X120025000Y-90775000D01*
X120024192Y-90779059D01*
X120018235Y-90830408D01*
X120010489Y-90847950D01*
X120005970Y-90870671D01*
X119989716Y-90894995D01*
X119980534Y-90915793D01*
X119966329Y-90929997D01*
X119951777Y-90951777D01*
X119929997Y-90966329D01*
X119915793Y-90980534D01*
X119894995Y-90989716D01*
X119870671Y-91005970D01*
X119847950Y-91010489D01*
X119830408Y-91018235D01*
X119779061Y-91024192D01*
X119775000Y-91025000D01*
X119375000Y-91025000D01*
X119370941Y-91024192D01*
X119319591Y-91018235D01*
X119302048Y-91010489D01*
X119279329Y-91005970D01*
X119255006Y-90989718D01*
X119234206Y-90980534D01*
X119219999Y-90966327D01*
X119198223Y-90951777D01*
X119183672Y-90930000D01*
X119169465Y-90915793D01*
X119160280Y-90894991D01*
X119144030Y-90870671D01*
X119139511Y-90847954D01*
X119131764Y-90830408D01*
X119125805Y-90779049D01*
X119125000Y-90775000D01*
X119125000Y-90225000D01*
X119125804Y-90220953D01*
X119131764Y-90169591D01*
X119139511Y-90152043D01*
X119144030Y-90129329D01*
X119160278Y-90105010D01*
X119169465Y-90084206D01*
X119183674Y-90069996D01*
X119198223Y-90048223D01*
X119219996Y-90033674D01*
X119234206Y-90019465D01*
X119255010Y-90010278D01*
X119279329Y-89994030D01*
X119302043Y-89989511D01*
X119319591Y-89981764D01*
X119370952Y-89975805D01*
X119375000Y-89975000D01*
X119775000Y-89975000D01*
X119779047Y-89975805D01*
G37*
G36*
X105444134Y-88203806D02*
G01*
X105460355Y-88214645D01*
X105471194Y-88230866D01*
X105475000Y-88250000D01*
X105475000Y-89250000D01*
X105471194Y-89269134D01*
X105460355Y-89285355D01*
X105444134Y-89296194D01*
X105425000Y-89300000D01*
X104425000Y-89300000D01*
X104405866Y-89296194D01*
X104389645Y-89285355D01*
X104378806Y-89269134D01*
X104375000Y-89250000D01*
X104375000Y-88250000D01*
X104378806Y-88230866D01*
X104389645Y-88214645D01*
X104405866Y-88203806D01*
X104425000Y-88200000D01*
X105425000Y-88200000D01*
X105444134Y-88203806D01*
G37*
G36*
X108909134Y-87488806D02*
G01*
X108925355Y-87499645D01*
X108936194Y-87515866D01*
X108940000Y-87535000D01*
X108940000Y-88785000D01*
X108936194Y-88804134D01*
X108925355Y-88820355D01*
X108909134Y-88831194D01*
X108890000Y-88835000D01*
X108610000Y-88835000D01*
X108590866Y-88831194D01*
X108574645Y-88820355D01*
X108563806Y-88804134D01*
X108560000Y-88785000D01*
X108560000Y-87535000D01*
X108563806Y-87515866D01*
X108574645Y-87499645D01*
X108590866Y-87488806D01*
X108610000Y-87485000D01*
X108890000Y-87485000D01*
X108909134Y-87488806D01*
G37*
G36*
X109409134Y-87488806D02*
G01*
X109425355Y-87499645D01*
X109436194Y-87515866D01*
X109440000Y-87535000D01*
X109440000Y-88785000D01*
X109436194Y-88804134D01*
X109425355Y-88820355D01*
X109409134Y-88831194D01*
X109390000Y-88835000D01*
X109110000Y-88835000D01*
X109090866Y-88831194D01*
X109074645Y-88820355D01*
X109063806Y-88804134D01*
X109060000Y-88785000D01*
X109060000Y-87535000D01*
X109063806Y-87515866D01*
X109074645Y-87499645D01*
X109090866Y-87488806D01*
X109110000Y-87485000D01*
X109390000Y-87485000D01*
X109409134Y-87488806D01*
G37*
G36*
X109909134Y-87488806D02*
G01*
X109925355Y-87499645D01*
X109936194Y-87515866D01*
X109940000Y-87535000D01*
X109940000Y-88785000D01*
X109936194Y-88804134D01*
X109925355Y-88820355D01*
X109909134Y-88831194D01*
X109890000Y-88835000D01*
X109610000Y-88835000D01*
X109590866Y-88831194D01*
X109574645Y-88820355D01*
X109563806Y-88804134D01*
X109560000Y-88785000D01*
X109560000Y-87535000D01*
X109563806Y-87515866D01*
X109574645Y-87499645D01*
X109590866Y-87488806D01*
X109610000Y-87485000D01*
X109890000Y-87485000D01*
X109909134Y-87488806D01*
G37*
G36*
X110409134Y-87488806D02*
G01*
X110425355Y-87499645D01*
X110436194Y-87515866D01*
X110440000Y-87535000D01*
X110440000Y-88785000D01*
X110436194Y-88804134D01*
X110425355Y-88820355D01*
X110409134Y-88831194D01*
X110390000Y-88835000D01*
X110110000Y-88835000D01*
X110090866Y-88831194D01*
X110074645Y-88820355D01*
X110063806Y-88804134D01*
X110060000Y-88785000D01*
X110060000Y-87535000D01*
X110063806Y-87515866D01*
X110074645Y-87499645D01*
X110090866Y-87488806D01*
X110110000Y-87485000D01*
X110390000Y-87485000D01*
X110409134Y-87488806D01*
G37*
G36*
X110909134Y-87488806D02*
G01*
X110925355Y-87499645D01*
X110936194Y-87515866D01*
X110940000Y-87535000D01*
X110940000Y-88785000D01*
X110936194Y-88804134D01*
X110925355Y-88820355D01*
X110909134Y-88831194D01*
X110890000Y-88835000D01*
X110610000Y-88835000D01*
X110590866Y-88831194D01*
X110574645Y-88820355D01*
X110563806Y-88804134D01*
X110560000Y-88785000D01*
X110560000Y-87535000D01*
X110563806Y-87515866D01*
X110574645Y-87499645D01*
X110590866Y-87488806D01*
X110610000Y-87485000D01*
X110890000Y-87485000D01*
X110909134Y-87488806D01*
G37*
G36*
X111409134Y-87488806D02*
G01*
X111425355Y-87499645D01*
X111436194Y-87515866D01*
X111440000Y-87535000D01*
X111440000Y-88785000D01*
X111436194Y-88804134D01*
X111425355Y-88820355D01*
X111409134Y-88831194D01*
X111390000Y-88835000D01*
X111110000Y-88835000D01*
X111090866Y-88831194D01*
X111074645Y-88820355D01*
X111063806Y-88804134D01*
X111060000Y-88785000D01*
X111060000Y-87535000D01*
X111063806Y-87515866D01*
X111074645Y-87499645D01*
X111090866Y-87488806D01*
X111110000Y-87485000D01*
X111390000Y-87485000D01*
X111409134Y-87488806D01*
G37*
G36*
X111909134Y-87488806D02*
G01*
X111925355Y-87499645D01*
X111936194Y-87515866D01*
X111940000Y-87535000D01*
X111940000Y-88785000D01*
X111936194Y-88804134D01*
X111925355Y-88820355D01*
X111909134Y-88831194D01*
X111890000Y-88835000D01*
X111610000Y-88835000D01*
X111590866Y-88831194D01*
X111574645Y-88820355D01*
X111563806Y-88804134D01*
X111560000Y-88785000D01*
X111560000Y-87535000D01*
X111563806Y-87515866D01*
X111574645Y-87499645D01*
X111590866Y-87488806D01*
X111610000Y-87485000D01*
X111890000Y-87485000D01*
X111909134Y-87488806D01*
G37*
G36*
X112409134Y-87488806D02*
G01*
X112425355Y-87499645D01*
X112436194Y-87515866D01*
X112440000Y-87535000D01*
X112440000Y-88785000D01*
X112436194Y-88804134D01*
X112425355Y-88820355D01*
X112409134Y-88831194D01*
X112390000Y-88835000D01*
X112110000Y-88835000D01*
X112090866Y-88831194D01*
X112074645Y-88820355D01*
X112063806Y-88804134D01*
X112060000Y-88785000D01*
X112060000Y-87535000D01*
X112063806Y-87515866D01*
X112074645Y-87499645D01*
X112090866Y-87488806D01*
X112110000Y-87485000D01*
X112390000Y-87485000D01*
X112409134Y-87488806D01*
G37*
G36*
X112909134Y-87488806D02*
G01*
X112925355Y-87499645D01*
X112936194Y-87515866D01*
X112940000Y-87535000D01*
X112940000Y-88785000D01*
X112936194Y-88804134D01*
X112925355Y-88820355D01*
X112909134Y-88831194D01*
X112890000Y-88835000D01*
X112610000Y-88835000D01*
X112590866Y-88831194D01*
X112574645Y-88820355D01*
X112563806Y-88804134D01*
X112560000Y-88785000D01*
X112560000Y-87535000D01*
X112563806Y-87515866D01*
X112574645Y-87499645D01*
X112590866Y-87488806D01*
X112610000Y-87485000D01*
X112890000Y-87485000D01*
X112909134Y-87488806D01*
G37*
G36*
X113409134Y-87488806D02*
G01*
X113425355Y-87499645D01*
X113436194Y-87515866D01*
X113440000Y-87535000D01*
X113440000Y-88785000D01*
X113436194Y-88804134D01*
X113425355Y-88820355D01*
X113409134Y-88831194D01*
X113390000Y-88835000D01*
X113110000Y-88835000D01*
X113090866Y-88831194D01*
X113074645Y-88820355D01*
X113063806Y-88804134D01*
X113060000Y-88785000D01*
X113060000Y-87535000D01*
X113063806Y-87515866D01*
X113074645Y-87499645D01*
X113090866Y-87488806D01*
X113110000Y-87485000D01*
X113390000Y-87485000D01*
X113409134Y-87488806D01*
G37*
G36*
X113909134Y-87488806D02*
G01*
X113925355Y-87499645D01*
X113936194Y-87515866D01*
X113940000Y-87535000D01*
X113940000Y-88785000D01*
X113936194Y-88804134D01*
X113925355Y-88820355D01*
X113909134Y-88831194D01*
X113890000Y-88835000D01*
X113610000Y-88835000D01*
X113590866Y-88831194D01*
X113574645Y-88820355D01*
X113563806Y-88804134D01*
X113560000Y-88785000D01*
X113560000Y-87535000D01*
X113563806Y-87515866D01*
X113574645Y-87499645D01*
X113590866Y-87488806D01*
X113610000Y-87485000D01*
X113890000Y-87485000D01*
X113909134Y-87488806D01*
G37*
G36*
X114449134Y-87488806D02*
G01*
X114465355Y-87499645D01*
X114476194Y-87515866D01*
X114480000Y-87535000D01*
X114480000Y-88785000D01*
X114476194Y-88804134D01*
X114465355Y-88820355D01*
X114449134Y-88831194D01*
X114430000Y-88835000D01*
X114150000Y-88835000D01*
X114130866Y-88831194D01*
X114114645Y-88820355D01*
X114103806Y-88804134D01*
X114100000Y-88785000D01*
X114100000Y-87535000D01*
X114103806Y-87515866D01*
X114114645Y-87499645D01*
X114130866Y-87488806D01*
X114150000Y-87485000D01*
X114430000Y-87485000D01*
X114449134Y-87488806D01*
G37*
G36*
X118029047Y-87875805D02*
G01*
X118080408Y-87881764D01*
X118097954Y-87889511D01*
X118120671Y-87894030D01*
X118144991Y-87910280D01*
X118165793Y-87919465D01*
X118180000Y-87933672D01*
X118201777Y-87948223D01*
X118216327Y-87969999D01*
X118230534Y-87984206D01*
X118239718Y-88005006D01*
X118255970Y-88029329D01*
X118260489Y-88052048D01*
X118268235Y-88069591D01*
X118274192Y-88120940D01*
X118275000Y-88125000D01*
X118275000Y-88525000D01*
X118274192Y-88529059D01*
X118268235Y-88580408D01*
X118260489Y-88597950D01*
X118255970Y-88620671D01*
X118239716Y-88644995D01*
X118230534Y-88665793D01*
X118216329Y-88679997D01*
X118201777Y-88701777D01*
X118179997Y-88716329D01*
X118165793Y-88730534D01*
X118144995Y-88739716D01*
X118120671Y-88755970D01*
X118097950Y-88760489D01*
X118080408Y-88768235D01*
X118029061Y-88774192D01*
X118025000Y-88775000D01*
X117475000Y-88775000D01*
X117470941Y-88774192D01*
X117419591Y-88768235D01*
X117402048Y-88760489D01*
X117379329Y-88755970D01*
X117355006Y-88739718D01*
X117334206Y-88730534D01*
X117319999Y-88716327D01*
X117298223Y-88701777D01*
X117283672Y-88680000D01*
X117269465Y-88665793D01*
X117260280Y-88644991D01*
X117244030Y-88620671D01*
X117239511Y-88597954D01*
X117231764Y-88580408D01*
X117225805Y-88529049D01*
X117225000Y-88525000D01*
X117225000Y-88125000D01*
X117225804Y-88120953D01*
X117231764Y-88069591D01*
X117239511Y-88052043D01*
X117244030Y-88029329D01*
X117260278Y-88005010D01*
X117269465Y-87984206D01*
X117283674Y-87969996D01*
X117298223Y-87948223D01*
X117319996Y-87933674D01*
X117334206Y-87919465D01*
X117355010Y-87910278D01*
X117379329Y-87894030D01*
X117402043Y-87889511D01*
X117419591Y-87881764D01*
X117470952Y-87875805D01*
X117475000Y-87875000D01*
X118025000Y-87875000D01*
X118029047Y-87875805D01*
G37*
G36*
X105135476Y-86971866D02*
G01*
X105259819Y-87043656D01*
X105361344Y-87145181D01*
X105433134Y-87269524D01*
X105470295Y-87408211D01*
X105470295Y-87551789D01*
X105433134Y-87690476D01*
X105361344Y-87814819D01*
X105259819Y-87916344D01*
X105135476Y-87988134D01*
X104996789Y-88025295D01*
X104853211Y-88025295D01*
X104714524Y-87988134D01*
X104590181Y-87916344D01*
X104488656Y-87814819D01*
X104416866Y-87690476D01*
X104379705Y-87551789D01*
X104379705Y-87408211D01*
X104416866Y-87269524D01*
X104488656Y-87145181D01*
X104590181Y-87043656D01*
X104714524Y-86971866D01*
X104853211Y-86934705D01*
X104996789Y-86934705D01*
X105135476Y-86971866D01*
G37*
G36*
X107580476Y-85421866D02*
G01*
X107704819Y-85493656D01*
X107806344Y-85595181D01*
X107878134Y-85719524D01*
X107915295Y-85858211D01*
X107920000Y-85930000D01*
X107920000Y-86530000D01*
X107915295Y-86601789D01*
X107878134Y-86740476D01*
X107806344Y-86864819D01*
X107704819Y-86966344D01*
X107703382Y-86967173D01*
X107691668Y-86978888D01*
X107729811Y-87044956D01*
X107771263Y-87033850D01*
X107888737Y-87033850D01*
X108002208Y-87064254D01*
X108103943Y-87122991D01*
X108187009Y-87206057D01*
X108245746Y-87307792D01*
X108276150Y-87421263D01*
X108276150Y-87538737D01*
X108245746Y-87652208D01*
X108187009Y-87753943D01*
X108103943Y-87837009D01*
X108002208Y-87895746D01*
X107888737Y-87926150D01*
X107771263Y-87926150D01*
X107657792Y-87895746D01*
X107556057Y-87837009D01*
X107472991Y-87753943D01*
X107414254Y-87652208D01*
X107383850Y-87538737D01*
X107383850Y-87421263D01*
X107414254Y-87307792D01*
X107472991Y-87206057D01*
X107556057Y-87122991D01*
X107557486Y-87122165D01*
X107559650Y-87120002D01*
X107521505Y-87053935D01*
X107441789Y-87075295D01*
X107298211Y-87075295D01*
X107159524Y-87038134D01*
X107035181Y-86966344D01*
X106933656Y-86864819D01*
X106861866Y-86740476D01*
X106824705Y-86601789D01*
X106820000Y-86530000D01*
X106820000Y-85930000D01*
X106824705Y-85858211D01*
X106861866Y-85719524D01*
X106933656Y-85595181D01*
X107035181Y-85493656D01*
X107159524Y-85421866D01*
X107298211Y-85384705D01*
X107441789Y-85384705D01*
X107580476Y-85421866D01*
G37*
G36*
X115840476Y-85421866D02*
G01*
X115964819Y-85493656D01*
X116066344Y-85595181D01*
X116138134Y-85719524D01*
X116175295Y-85858211D01*
X116180000Y-85930000D01*
X116180000Y-86530000D01*
X116175295Y-86601789D01*
X116138134Y-86740476D01*
X116066344Y-86864819D01*
X115964819Y-86966344D01*
X115840476Y-87038134D01*
X115701789Y-87075295D01*
X115558211Y-87075295D01*
X115478492Y-87053934D01*
X115440349Y-87120002D01*
X115442511Y-87122164D01*
X115443943Y-87122991D01*
X115527009Y-87206057D01*
X115585746Y-87307792D01*
X115616150Y-87421263D01*
X115616150Y-87538737D01*
X115585746Y-87652208D01*
X115527009Y-87753943D01*
X115443943Y-87837009D01*
X115342208Y-87895746D01*
X115228737Y-87926150D01*
X115111263Y-87926150D01*
X114997792Y-87895746D01*
X114896057Y-87837009D01*
X114812991Y-87753943D01*
X114754254Y-87652208D01*
X114723850Y-87538737D01*
X114723850Y-87421263D01*
X114754254Y-87307792D01*
X114812991Y-87206057D01*
X114896057Y-87122991D01*
X114997792Y-87064254D01*
X115111263Y-87033850D01*
X115228737Y-87033850D01*
X115270186Y-87044956D01*
X115308331Y-86978889D01*
X115296612Y-86967170D01*
X115295181Y-86966344D01*
X115193656Y-86864819D01*
X115121866Y-86740476D01*
X115084705Y-86601789D01*
X115080000Y-86530000D01*
X115080000Y-85930000D01*
X115084705Y-85858211D01*
X115121866Y-85719524D01*
X115193656Y-85595181D01*
X115295181Y-85493656D01*
X115419524Y-85421866D01*
X115558211Y-85384705D01*
X115701789Y-85384705D01*
X115840476Y-85421866D01*
G37*
G36*
X108833939Y-86506642D02*
G01*
X108913067Y-86552326D01*
X108977674Y-86616933D01*
X109023358Y-86696061D01*
X109047006Y-86784316D01*
X109047006Y-86875684D01*
X109023358Y-86963939D01*
X108977674Y-87043067D01*
X108913067Y-87107674D01*
X108833939Y-87153358D01*
X108745684Y-87177006D01*
X108654316Y-87177006D01*
X108566061Y-87153358D01*
X108486933Y-87107674D01*
X108422326Y-87043067D01*
X108376642Y-86963939D01*
X108352994Y-86875684D01*
X108352994Y-86784316D01*
X108376642Y-86696061D01*
X108422326Y-86616933D01*
X108486933Y-86552326D01*
X108566061Y-86506642D01*
X108654316Y-86482994D01*
X108745684Y-86482994D01*
X108833939Y-86506642D01*
G37*
G36*
X110433939Y-86506642D02*
G01*
X110513067Y-86552326D01*
X110577674Y-86616933D01*
X110623358Y-86696061D01*
X110647006Y-86784316D01*
X110647006Y-86875684D01*
X110623358Y-86963939D01*
X110577674Y-87043067D01*
X110513067Y-87107674D01*
X110433939Y-87153358D01*
X110345684Y-87177006D01*
X110254316Y-87177006D01*
X110166061Y-87153358D01*
X110086933Y-87107674D01*
X110022326Y-87043067D01*
X109976642Y-86963939D01*
X109952994Y-86875684D01*
X109952994Y-86784316D01*
X109976642Y-86696061D01*
X110022326Y-86616933D01*
X110086933Y-86552326D01*
X110166061Y-86506642D01*
X110254316Y-86482994D01*
X110345684Y-86482994D01*
X110433939Y-86506642D01*
G37*
G36*
X111233939Y-86506642D02*
G01*
X111313067Y-86552326D01*
X111377674Y-86616933D01*
X111423358Y-86696061D01*
X111447006Y-86784316D01*
X111447006Y-86875684D01*
X111423358Y-86963939D01*
X111377674Y-87043067D01*
X111313067Y-87107674D01*
X111233939Y-87153358D01*
X111145684Y-87177006D01*
X111054316Y-87177006D01*
X110966061Y-87153358D01*
X110886933Y-87107674D01*
X110822326Y-87043067D01*
X110776642Y-86963939D01*
X110752994Y-86875684D01*
X110752994Y-86784316D01*
X110776642Y-86696061D01*
X110822326Y-86616933D01*
X110886933Y-86552326D01*
X110966061Y-86506642D01*
X111054316Y-86482994D01*
X111145684Y-86482994D01*
X111233939Y-86506642D01*
G37*
G36*
X112033939Y-86506642D02*
G01*
X112113067Y-86552326D01*
X112177674Y-86616933D01*
X112223358Y-86696061D01*
X112247006Y-86784316D01*
X112247006Y-86875684D01*
X112223358Y-86963939D01*
X112177674Y-87043067D01*
X112113067Y-87107674D01*
X112033939Y-87153358D01*
X111945684Y-87177006D01*
X111854316Y-87177006D01*
X111766061Y-87153358D01*
X111686933Y-87107674D01*
X111622326Y-87043067D01*
X111576642Y-86963939D01*
X111552994Y-86875684D01*
X111552994Y-86784316D01*
X111576642Y-86696061D01*
X111622326Y-86616933D01*
X111686933Y-86552326D01*
X111766061Y-86506642D01*
X111854316Y-86482994D01*
X111945684Y-86482994D01*
X112033939Y-86506642D01*
G37*
G36*
X112833939Y-86506642D02*
G01*
X112913067Y-86552326D01*
X112977674Y-86616933D01*
X113023358Y-86696061D01*
X113047006Y-86784316D01*
X113047006Y-86875684D01*
X113023358Y-86963939D01*
X112977674Y-87043067D01*
X112913067Y-87107674D01*
X112833939Y-87153358D01*
X112745684Y-87177006D01*
X112654316Y-87177006D01*
X112566061Y-87153358D01*
X112486933Y-87107674D01*
X112422326Y-87043067D01*
X112376642Y-86963939D01*
X112352994Y-86875684D01*
X112352994Y-86784316D01*
X112376642Y-86696061D01*
X112422326Y-86616933D01*
X112486933Y-86552326D01*
X112566061Y-86506642D01*
X112654316Y-86482994D01*
X112745684Y-86482994D01*
X112833939Y-86506642D01*
G37*
G36*
X114433939Y-86506642D02*
G01*
X114513067Y-86552326D01*
X114577674Y-86616933D01*
X114623358Y-86696061D01*
X114647006Y-86784316D01*
X114647006Y-86875684D01*
X114623358Y-86963939D01*
X114577674Y-87043067D01*
X114513067Y-87107674D01*
X114433939Y-87153358D01*
X114345684Y-87177006D01*
X114254316Y-87177006D01*
X114166061Y-87153358D01*
X114086933Y-87107674D01*
X114022326Y-87043067D01*
X113976642Y-86963939D01*
X113952994Y-86875684D01*
X113952994Y-86784316D01*
X113976642Y-86696061D01*
X114022326Y-86616933D01*
X114086933Y-86552326D01*
X114166061Y-86506642D01*
X114254316Y-86482994D01*
X114345684Y-86482994D01*
X114433939Y-86506642D01*
G37*
G36*
X118029047Y-86225805D02*
G01*
X118080408Y-86231764D01*
X118097954Y-86239511D01*
X118120671Y-86244030D01*
X118144991Y-86260280D01*
X118165793Y-86269465D01*
X118180000Y-86283672D01*
X118201777Y-86298223D01*
X118216327Y-86319999D01*
X118230534Y-86334206D01*
X118239718Y-86355006D01*
X118255970Y-86379329D01*
X118260489Y-86402048D01*
X118268235Y-86419591D01*
X118274192Y-86470940D01*
X118275000Y-86475000D01*
X118275000Y-86875000D01*
X118274192Y-86879059D01*
X118268235Y-86930408D01*
X118260489Y-86947950D01*
X118255970Y-86970671D01*
X118239716Y-86994995D01*
X118230534Y-87015793D01*
X118216329Y-87029997D01*
X118201777Y-87051777D01*
X118179997Y-87066329D01*
X118165793Y-87080534D01*
X118144995Y-87089716D01*
X118120671Y-87105970D01*
X118097950Y-87110489D01*
X118080408Y-87118235D01*
X118029061Y-87124192D01*
X118025000Y-87125000D01*
X117475000Y-87125000D01*
X117470941Y-87124192D01*
X117419591Y-87118235D01*
X117402048Y-87110489D01*
X117379329Y-87105970D01*
X117355006Y-87089718D01*
X117334206Y-87080534D01*
X117319999Y-87066327D01*
X117298223Y-87051777D01*
X117283672Y-87030000D01*
X117269465Y-87015793D01*
X117260280Y-86994991D01*
X117244030Y-86970671D01*
X117239511Y-86947954D01*
X117231764Y-86930408D01*
X117225805Y-86879049D01*
X117225000Y-86875000D01*
X117225000Y-86475000D01*
X117225804Y-86470953D01*
X117231764Y-86419591D01*
X117239511Y-86402043D01*
X117244030Y-86379329D01*
X117260278Y-86355010D01*
X117269465Y-86334206D01*
X117283674Y-86319996D01*
X117298223Y-86298223D01*
X117319996Y-86283674D01*
X117334206Y-86269465D01*
X117355010Y-86260278D01*
X117379329Y-86244030D01*
X117402043Y-86239511D01*
X117419591Y-86231764D01*
X117470952Y-86225805D01*
X117475000Y-86225000D01*
X118025000Y-86225000D01*
X118029047Y-86225805D01*
G37*
G36*
X105135476Y-85701866D02*
G01*
X105259819Y-85773656D01*
X105361344Y-85875181D01*
X105433134Y-85999524D01*
X105470295Y-86138211D01*
X105470295Y-86281789D01*
X105433134Y-86420476D01*
X105361344Y-86544819D01*
X105259819Y-86646344D01*
X105135476Y-86718134D01*
X104996789Y-86755295D01*
X104853211Y-86755295D01*
X104714524Y-86718134D01*
X104590181Y-86646344D01*
X104488656Y-86544819D01*
X104416866Y-86420476D01*
X104379705Y-86281789D01*
X104379705Y-86138211D01*
X104416866Y-85999524D01*
X104488656Y-85875181D01*
X104590181Y-85773656D01*
X104714524Y-85701866D01*
X104853211Y-85664705D01*
X104996789Y-85664705D01*
X105135476Y-85701866D01*
G37*
G36*
X109233939Y-85806642D02*
G01*
X109313067Y-85852326D01*
X109377674Y-85916933D01*
X109423358Y-85996061D01*
X109447006Y-86084316D01*
X109447006Y-86175684D01*
X109423358Y-86263939D01*
X109377674Y-86343067D01*
X109313067Y-86407674D01*
X109233939Y-86453358D01*
X109145684Y-86477006D01*
X109054316Y-86477006D01*
X108966061Y-86453358D01*
X108886933Y-86407674D01*
X108822326Y-86343067D01*
X108776642Y-86263939D01*
X108752994Y-86175684D01*
X108752994Y-86084316D01*
X108776642Y-85996061D01*
X108822326Y-85916933D01*
X108886933Y-85852326D01*
X108966061Y-85806642D01*
X109054316Y-85782994D01*
X109145684Y-85782994D01*
X109233939Y-85806642D01*
G37*
G36*
X110033939Y-85806642D02*
G01*
X110113067Y-85852326D01*
X110177674Y-85916933D01*
X110223358Y-85996061D01*
X110247006Y-86084316D01*
X110247006Y-86175684D01*
X110223358Y-86263939D01*
X110177674Y-86343067D01*
X110113067Y-86407674D01*
X110033939Y-86453358D01*
X109945684Y-86477006D01*
X109854316Y-86477006D01*
X109766061Y-86453358D01*
X109686933Y-86407674D01*
X109622326Y-86343067D01*
X109576642Y-86263939D01*
X109552994Y-86175684D01*
X109552994Y-86084316D01*
X109576642Y-85996061D01*
X109622326Y-85916933D01*
X109686933Y-85852326D01*
X109766061Y-85806642D01*
X109854316Y-85782994D01*
X109945684Y-85782994D01*
X110033939Y-85806642D01*
G37*
G36*
X110833939Y-85806642D02*
G01*
X110913067Y-85852326D01*
X110977674Y-85916933D01*
X111023358Y-85996061D01*
X111047006Y-86084316D01*
X111047006Y-86175684D01*
X111023358Y-86263939D01*
X110977674Y-86343067D01*
X110913067Y-86407674D01*
X110833939Y-86453358D01*
X110745684Y-86477006D01*
X110654316Y-86477006D01*
X110566061Y-86453358D01*
X110486933Y-86407674D01*
X110422326Y-86343067D01*
X110376642Y-86263939D01*
X110352994Y-86175684D01*
X110352994Y-86084316D01*
X110376642Y-85996061D01*
X110422326Y-85916933D01*
X110486933Y-85852326D01*
X110566061Y-85806642D01*
X110654316Y-85782994D01*
X110745684Y-85782994D01*
X110833939Y-85806642D01*
G37*
G36*
X112433939Y-85806642D02*
G01*
X112513067Y-85852326D01*
X112577674Y-85916933D01*
X112623358Y-85996061D01*
X112647006Y-86084316D01*
X112647006Y-86175684D01*
X112623358Y-86263939D01*
X112577674Y-86343067D01*
X112513067Y-86407674D01*
X112433939Y-86453358D01*
X112345684Y-86477006D01*
X112254316Y-86477006D01*
X112166061Y-86453358D01*
X112086933Y-86407674D01*
X112022326Y-86343067D01*
X111976642Y-86263939D01*
X111952994Y-86175684D01*
X111952994Y-86084316D01*
X111976642Y-85996061D01*
X112022326Y-85916933D01*
X112086933Y-85852326D01*
X112166061Y-85806642D01*
X112254316Y-85782994D01*
X112345684Y-85782994D01*
X112433939Y-85806642D01*
G37*
G36*
X113233939Y-85806642D02*
G01*
X113313067Y-85852326D01*
X113377674Y-85916933D01*
X113423358Y-85996061D01*
X113447006Y-86084316D01*
X113447006Y-86175684D01*
X113423358Y-86263939D01*
X113377674Y-86343067D01*
X113313067Y-86407674D01*
X113233939Y-86453358D01*
X113145684Y-86477006D01*
X113054316Y-86477006D01*
X112966061Y-86453358D01*
X112886933Y-86407674D01*
X112822326Y-86343067D01*
X112776642Y-86263939D01*
X112752994Y-86175684D01*
X112752994Y-86084316D01*
X112776642Y-85996061D01*
X112822326Y-85916933D01*
X112886933Y-85852326D01*
X112966061Y-85806642D01*
X113054316Y-85782994D01*
X113145684Y-85782994D01*
X113233939Y-85806642D01*
G37*
G36*
X114033939Y-85806642D02*
G01*
X114113067Y-85852326D01*
X114177674Y-85916933D01*
X114223358Y-85996061D01*
X114247006Y-86084316D01*
X114247006Y-86175684D01*
X114223358Y-86263939D01*
X114177674Y-86343067D01*
X114113067Y-86407674D01*
X114033939Y-86453358D01*
X113945684Y-86477006D01*
X113854316Y-86477006D01*
X113766061Y-86453358D01*
X113686933Y-86407674D01*
X113622326Y-86343067D01*
X113576642Y-86263939D01*
X113552994Y-86175684D01*
X113552994Y-86084316D01*
X113576642Y-85996061D01*
X113622326Y-85916933D01*
X113686933Y-85852326D01*
X113766061Y-85806642D01*
X113854316Y-85782994D01*
X113945684Y-85782994D01*
X114033939Y-85806642D01*
G37*
G36*
X118029047Y-84875805D02*
G01*
X118080408Y-84881764D01*
X118097954Y-84889511D01*
X118120671Y-84894030D01*
X118144991Y-84910280D01*
X118165793Y-84919465D01*
X118180000Y-84933672D01*
X118201777Y-84948223D01*
X118216327Y-84969999D01*
X118230534Y-84984206D01*
X118239718Y-85005006D01*
X118255970Y-85029329D01*
X118260489Y-85052048D01*
X118268235Y-85069591D01*
X118274192Y-85120940D01*
X118275000Y-85125000D01*
X118275000Y-85525000D01*
X118274192Y-85529059D01*
X118268235Y-85580408D01*
X118260489Y-85597950D01*
X118255970Y-85620671D01*
X118239716Y-85644995D01*
X118230534Y-85665793D01*
X118216329Y-85679997D01*
X118201777Y-85701777D01*
X118179997Y-85716329D01*
X118165793Y-85730534D01*
X118144995Y-85739716D01*
X118120671Y-85755970D01*
X118097950Y-85760489D01*
X118080408Y-85768235D01*
X118029061Y-85774192D01*
X118025000Y-85775000D01*
X117475000Y-85775000D01*
X117470941Y-85774192D01*
X117419591Y-85768235D01*
X117402048Y-85760489D01*
X117379329Y-85755970D01*
X117355006Y-85739718D01*
X117334206Y-85730534D01*
X117319999Y-85716327D01*
X117298223Y-85701777D01*
X117283672Y-85680000D01*
X117269465Y-85665793D01*
X117260280Y-85644991D01*
X117244030Y-85620671D01*
X117239511Y-85597954D01*
X117231764Y-85580408D01*
X117225805Y-85529049D01*
X117225000Y-85525000D01*
X117225000Y-85125000D01*
X117225804Y-85120953D01*
X117231764Y-85069591D01*
X117239511Y-85052043D01*
X117244030Y-85029329D01*
X117260278Y-85005010D01*
X117269465Y-84984206D01*
X117283674Y-84969996D01*
X117298223Y-84948223D01*
X117319996Y-84933674D01*
X117334206Y-84919465D01*
X117355010Y-84910278D01*
X117379329Y-84894030D01*
X117402043Y-84889511D01*
X117419591Y-84881764D01*
X117470952Y-84875805D01*
X117475000Y-84875000D01*
X118025000Y-84875000D01*
X118029047Y-84875805D01*
G37*
G36*
X105135476Y-84431866D02*
G01*
X105259819Y-84503656D01*
X105361344Y-84605181D01*
X105433134Y-84729524D01*
X105470295Y-84868211D01*
X105470295Y-85011789D01*
X105433134Y-85150476D01*
X105361344Y-85274819D01*
X105259819Y-85376344D01*
X105135476Y-85448134D01*
X104996789Y-85485295D01*
X104853211Y-85485295D01*
X104714524Y-85448134D01*
X104590181Y-85376344D01*
X104488656Y-85274819D01*
X104416866Y-85150476D01*
X104379705Y-85011789D01*
X104379705Y-84868211D01*
X104416866Y-84729524D01*
X104488656Y-84605181D01*
X104590181Y-84503656D01*
X104714524Y-84431866D01*
X104853211Y-84394705D01*
X104996789Y-84394705D01*
X105135476Y-84431866D01*
G37*
G36*
X105135476Y-83161866D02*
G01*
X105259819Y-83233656D01*
X105361344Y-83335181D01*
X105433134Y-83459524D01*
X105470295Y-83598211D01*
X105470295Y-83741789D01*
X105433134Y-83880476D01*
X105361344Y-84004819D01*
X105259819Y-84106344D01*
X105135476Y-84178134D01*
X104996789Y-84215295D01*
X104853211Y-84215295D01*
X104714524Y-84178134D01*
X104590181Y-84106344D01*
X104488656Y-84004819D01*
X104416866Y-83880476D01*
X104379705Y-83741789D01*
X104379705Y-83598211D01*
X104416866Y-83459524D01*
X104488656Y-83335181D01*
X104590181Y-83233656D01*
X104714524Y-83161866D01*
X104853211Y-83124705D01*
X104996789Y-83124705D01*
X105135476Y-83161866D01*
G37*
G36*
X118029047Y-83225805D02*
G01*
X118080408Y-83231764D01*
X118097954Y-83239511D01*
X118120671Y-83244030D01*
X118144991Y-83260280D01*
X118165793Y-83269465D01*
X118180000Y-83283672D01*
X118201777Y-83298223D01*
X118216327Y-83319999D01*
X118230534Y-83334206D01*
X118239718Y-83355006D01*
X118255970Y-83379329D01*
X118260489Y-83402048D01*
X118268235Y-83419591D01*
X118274192Y-83470940D01*
X118275000Y-83475000D01*
X118275000Y-83875000D01*
X118274192Y-83879059D01*
X118268235Y-83930408D01*
X118260489Y-83947950D01*
X118255970Y-83970671D01*
X118239716Y-83994995D01*
X118230534Y-84015793D01*
X118216329Y-84029997D01*
X118201777Y-84051777D01*
X118179997Y-84066329D01*
X118165793Y-84080534D01*
X118144995Y-84089716D01*
X118120671Y-84105970D01*
X118097950Y-84110489D01*
X118080408Y-84118235D01*
X118029061Y-84124192D01*
X118025000Y-84125000D01*
X117475000Y-84125000D01*
X117470941Y-84124192D01*
X117419591Y-84118235D01*
X117402048Y-84110489D01*
X117379329Y-84105970D01*
X117355006Y-84089718D01*
X117334206Y-84080534D01*
X117319999Y-84066327D01*
X117298223Y-84051777D01*
X117283672Y-84030000D01*
X117269465Y-84015793D01*
X117260280Y-83994991D01*
X117244030Y-83970671D01*
X117239511Y-83947954D01*
X117231764Y-83930408D01*
X117225805Y-83879049D01*
X117225000Y-83875000D01*
X117225000Y-83475000D01*
X117225804Y-83470953D01*
X117231764Y-83419591D01*
X117239511Y-83402043D01*
X117244030Y-83379329D01*
X117260278Y-83355010D01*
X117269465Y-83334206D01*
X117283674Y-83319996D01*
X117298223Y-83298223D01*
X117319996Y-83283674D01*
X117334206Y-83269465D01*
X117355010Y-83260278D01*
X117379329Y-83244030D01*
X117402043Y-83239511D01*
X117419591Y-83231764D01*
X117470952Y-83225805D01*
X117475000Y-83225000D01*
X118025000Y-83225000D01*
X118029047Y-83225805D01*
G37*
G36*
X105135476Y-81891866D02*
G01*
X105259819Y-81963656D01*
X105361344Y-82065181D01*
X105433134Y-82189524D01*
X105470295Y-82328211D01*
X105470295Y-82471789D01*
X105433134Y-82610476D01*
X105361344Y-82734819D01*
X105259819Y-82836344D01*
X105135476Y-82908134D01*
X104996789Y-82945295D01*
X104853211Y-82945295D01*
X104714524Y-82908134D01*
X104590181Y-82836344D01*
X104488656Y-82734819D01*
X104416866Y-82610476D01*
X104379705Y-82471789D01*
X104379705Y-82328211D01*
X104416866Y-82189524D01*
X104488656Y-82065181D01*
X104590181Y-81963656D01*
X104714524Y-81891866D01*
X104853211Y-81854705D01*
X104996789Y-81854705D01*
X105135476Y-81891866D01*
G37*
G36*
X107220476Y-81031866D02*
G01*
X107344819Y-81103656D01*
X107446344Y-81205181D01*
X107518134Y-81329524D01*
X107555295Y-81468211D01*
X107560000Y-81540000D01*
X107560000Y-82140000D01*
X107555295Y-82211789D01*
X107518134Y-82350476D01*
X107446344Y-82474819D01*
X107344819Y-82576344D01*
X107220476Y-82648134D01*
X107081789Y-82685295D01*
X106938211Y-82685295D01*
X106799524Y-82648134D01*
X106675181Y-82576344D01*
X106573656Y-82474819D01*
X106501866Y-82350476D01*
X106464705Y-82211789D01*
X106460000Y-82140000D01*
X106460000Y-81540000D01*
X106464705Y-81468211D01*
X106501866Y-81329524D01*
X106573656Y-81205181D01*
X106675181Y-81103656D01*
X106799524Y-81031866D01*
X106938211Y-80994705D01*
X107081789Y-80994705D01*
X107220476Y-81031866D01*
G37*
G36*
X116200476Y-81031866D02*
G01*
X116324819Y-81103656D01*
X116426344Y-81205181D01*
X116498134Y-81329524D01*
X116535295Y-81468211D01*
X116540000Y-81540000D01*
X116540000Y-82140000D01*
X116535295Y-82211789D01*
X116498134Y-82350476D01*
X116426344Y-82474819D01*
X116324819Y-82576344D01*
X116200476Y-82648134D01*
X116061789Y-82685295D01*
X115918211Y-82685295D01*
X115779524Y-82648134D01*
X115655181Y-82576344D01*
X115553656Y-82474819D01*
X115481866Y-82350476D01*
X115444705Y-82211789D01*
X115440000Y-82140000D01*
X115440000Y-81540000D01*
X115444705Y-81468211D01*
X115481866Y-81329524D01*
X115553656Y-81205181D01*
X115655181Y-81103656D01*
X115779524Y-81031866D01*
X115918211Y-80994705D01*
X116061789Y-80994705D01*
X116200476Y-81031866D01*
G37*
G36*
X118460747Y-80555261D02*
G01*
X118592234Y-80609725D01*
X118710570Y-80688794D01*
X118811206Y-80789430D01*
X118890275Y-80907766D01*
X118944739Y-81039253D01*
X118972504Y-81178840D01*
X118972504Y-81321160D01*
X118944739Y-81460747D01*
X118890275Y-81592234D01*
X118811206Y-81710570D01*
X118710570Y-81811206D01*
X118592234Y-81890275D01*
X118460747Y-81944739D01*
X118321160Y-81972504D01*
X118178840Y-81972504D01*
X118039253Y-81944739D01*
X117907766Y-81890275D01*
X117789430Y-81811206D01*
X117688794Y-81710570D01*
X117609725Y-81592234D01*
X117555261Y-81460747D01*
X117527496Y-81321160D01*
X117527496Y-81178840D01*
X117555261Y-81039253D01*
X117609725Y-80907766D01*
X117688794Y-80789430D01*
X117789430Y-80688794D01*
X117907766Y-80609725D01*
X118039253Y-80555261D01*
X118178840Y-80527496D01*
X118321160Y-80527496D01*
X118460747Y-80555261D01*
G37*
G36*
X105135476Y-80621866D02*
G01*
X105259819Y-80693656D01*
X105361344Y-80795181D01*
X105433134Y-80919524D01*
X105470295Y-81058211D01*
X105470295Y-81201789D01*
X105433134Y-81340476D01*
X105361344Y-81464819D01*
X105259819Y-81566344D01*
X105135476Y-81638134D01*
X104996789Y-81675295D01*
X104853211Y-81675295D01*
X104714524Y-81638134D01*
X104590181Y-81566344D01*
X104488656Y-81464819D01*
X104416866Y-81340476D01*
X104379705Y-81201789D01*
X104379705Y-81058211D01*
X104416866Y-80919524D01*
X104488656Y-80795181D01*
X104590181Y-80693656D01*
X104714524Y-80621866D01*
X104853211Y-80584705D01*
X104996789Y-80584705D01*
X105135476Y-80621866D01*
G37*
%LPD*%
M02*
